<?xml version="1.0" standalone="no"?>
<!DOCTYPE svg PUBLIC "-//W3C//DTD SVG 20010904//EN"
 "http://www.w3.org/TR/2001/REC-SVG-20010904/DTD/svg10.dtd">
<svg version="1.0" xmlns="http://www.w3.org/2000/svg"
 width="1601.000000pt" height="1201.000000pt" viewBox="0 0 1601.000000 1201.000000"
 preserveAspectRatio="xMidYMid meet">

<g transform="translate(0.000000,1201.000000) scale(0.100000,-0.100000)"
fill="#000000" stroke="none">
<path d="M7920 9203 c-50 -8 -127 -36 -192 -70 -329 -171 -545 -694 -612
-1483 -61 -715 1 -1453 160 -1913 131 -377 313 -594 574 -683 67 -23 303 -26
390 -5 311 74 540 247 540 407 0 62 -13 87 -82 162 -144 154 -208 279 -232
452 -19 138 48 315 163 429 301 300 762 163 878 -260 13 -48 18 -100 17 -214
0 -128 -4 -166 -27 -258 -42 -169 -104 -309 -219 -488 -47 -74 -58 -111 -38
-124 15 -9 33 4 123 91 81 79 444 429 992 959 154 148 350 338 435 421 85 82
186 179 223 214 47 44 77 84 100 129 29 59 32 75 32 152 0 158 31 121 -755
881 -377 363 -781 754 -898 867 -117 113 -220 209 -228 214 -8 4 -19 5 -24 2
-21 -13 -8 -50 51 -143 110 -176 187 -358 220 -527 20 -102 18 -333 -5 -415
-71 -260 -270 -420 -521 -420 -214 0 -434 176 -502 402 -19 66 -21 195 -4 268
23 97 93 228 168 313 132 152 126 143 131 202 4 45 0 64 -22 110 -71 144 -315
285 -566 325 -63 10 -219 12 -270 3z"/>
<path d="M6636 9002 c-50 -49 -455 -441 -901 -872 -445 -430 -823 -801 -838
-823 -86 -126 -69 -308 39 -423 21 -23 181 -178 354 -346 484 -467 1223 -1181
1336 -1290 72 -70 106 -97 118 -92 31 12 15 46 -92 190 -335 449 -518 891
-584 1414 -17 138 -17 593 1 720 76 556 263 998 617 1461 74 96 88 131 58 143
-12 4 -44 -20 -108 -82z"/>
<path d="M8874 4102 c-130 -46 -194 -156 -194 -334 l0 -88 -48 0 c-65 0 -92
-20 -92 -70 l0 -39 68 -3 67 -3 0 -293 0 -294 -33 -29 c-18 -16 -39 -29 -47
-29 -8 0 -18 -12 -21 -26 -15 -61 77 -89 261 -81 121 5 179 22 190 57 8 25
-10 50 -36 50 -30 0 -68 21 -86 49 -16 23 -18 59 -21 308 l-4 281 101 4 c114
3 130 13 131 81 l0 37 -116 0 -116 0 3 128 c4 113 6 130 27 159 26 37 81 56
133 47 52 -10 59 -19 52 -74 -7 -60 12 -95 64 -116 93 -39 178 69 129 164 -21
41 -65 78 -121 103 -69 32 -218 37 -291 11z"/>
<path d="M4571 4054 c-129 -34 -272 -146 -338 -264 -83 -146 -114 -346 -79
-515 32 -158 135 -318 257 -396 203 -130 480 -114 649 38 121 109 151 254 69
336 -28 27 -34 29 -86 25 -48 -4 -61 -10 -85 -37 -36 -40 -38 -105 -7 -161 21
-37 21 -38 3 -63 -65 -87 -227 -122 -327 -71 -89 45 -158 132 -196 247 -46
137 -44 353 3 489 61 176 174 265 321 256 82 -6 138 -31 184 -83 l31 -36 -22
-32 c-17 -24 -23 -46 -23 -84 0 -46 4 -57 33 -85 29 -29 39 -33 86 -33 63 0
98 25 117 83 48 145 -102 331 -312 387 -69 19 -208 18 -278 -1z"/>
<path d="M5620 3699 c-87 -13 -183 -60 -215 -107 -46 -68 -28 -149 40 -178 78
-32 159 40 140 126 -6 26 -3 30 22 37 15 4 57 8 93 8 115 0 160 -57 160 -201
0 -69 -2 -75 -17 -69 -84 34 -236 37 -337 5 -132 -42 -205 -143 -193 -270 21
-237 319 -335 533 -174 l31 23 22 -30 c34 -46 79 -69 134 -69 70 0 115 22 133
65 18 43 14 51 -29 59 -19 3 -43 16 -54 29 -20 21 -21 37 -26 287 -3 162 -9
280 -16 303 -28 89 -113 141 -254 157 -45 6 -86 9 -92 9 -5 -1 -39 -6 -75 -10z
m191 -484 c40 -21 49 -44 49 -122 0 -62 -3 -72 -27 -96 -63 -59 -172 -76 -234
-34 -83 55 -91 182 -15 237 55 41 163 48 227 15z"/>
<path d="M6715 3697 c-27 -7 -58 -28 -96 -66 l-56 -57 -21 46 c-25 53 -58 75
-113 74 -95 -3 -179 -64 -179 -129 0 -33 1 -34 40 -32 30 1 46 -5 63 -21 22
-22 22 -27 22 -270 0 -277 -3 -290 -71 -318 -28 -12 -34 -20 -34 -44 0 -23 7
-33 33 -47 26 -15 58 -18 177 -18 154 0 204 11 215 46 8 23 -11 59 -30 59 -28
0 -67 25 -81 51 -21 41 -20 395 1 467 15 50 64 112 88 112 7 0 19 -15 27 -33
21 -44 83 -67 130 -47 93 39 90 186 -5 226 -39 16 -54 16 -110 1z"/>
<path d="M7437 3696 c-48 -18 -102 -59 -124 -96 -9 -17 -20 -30 -23 -30 -3 0
-12 19 -20 42 -31 85 -109 105 -214 54 -59 -29 -90 -69 -84 -109 3 -19 10 -22
47 -24 76 -3 76 -2 79 -271 4 -279 0 -302 -58 -329 -79 -36 -59 -93 38 -114
73 -15 267 -8 307 12 25 12 30 20 30 49 0 31 -3 35 -34 41 -18 4 -45 19 -60
33 l-26 26 0 213 c0 237 9 284 66 332 37 31 47 31 58 3 15 -41 50 -63 96 -63
127 0 154 181 34 229 -47 19 -62 19 -112 2z"/>
<path d="M8026 3699 c-218 -32 -366 -218 -366 -460 0 -182 87 -322 248 -401
55 -27 76 -32 167 -36 85 -4 115 -1 172 16 135 41 221 157 169 228 -14 19 -15
18 -43 -8 -63 -60 -182 -90 -275 -68 -84 20 -130 50 -176 116 -18 26 -52 128
-52 156 0 4 126 8 279 8 l279 0 13 38 c36 104 4 226 -81 313 -83 85 -195 118
-334 98z m111 -124 c48 -20 71 -41 94 -87 25 -50 25 -104 -1 -118 -12 -6 -83
-9 -187 -8 l-168 3 3 35 c6 55 36 115 76 146 57 46 119 56 183 29z"/>
<path d="M9536 3699 c-124 -18 -262 -112 -319 -216 -73 -135 -75 -319 -6 -455
28 -54 103 -134 157 -165 135 -79 314 -83 456 -11 58 30 145 116 174 173 70
139 70 321 0 458 -25 49 -92 123 -140 153 -84 53 -215 79 -322 63z m144 -131
c92 -47 143 -167 143 -333 -1 -160 -52 -264 -148 -301 -165 -63 -302 124 -282
385 10 133 54 217 131 252 55 25 102 24 156 -3z"/>
<path d="M11690 3701 c-51 -16 -89 -42 -128 -87 l-39 -46 -7 28 c-20 77 -82
114 -158 94 -98 -27 -154 -78 -146 -133 2 -17 10 -22 33 -23 93 -2 97 -15 93
-312 -3 -267 -4 -268 -75 -299 -37 -15 -45 -50 -18 -77 40 -40 312 -49 383
-12 45 23 43 86 -4 86 -13 0 -38 13 -56 29 l-33 29 0 214 c0 234 6 265 57 324
34 38 54 43 62 16 21 -66 120 -90 170 -43 100 94 -1 252 -134 212z"/>
<path d="M10214 3666 c-60 -28 -96 -69 -92 -105 3 -22 9 -27 46 -32 76 -10 76
-10 83 -272 7 -271 15 -304 89 -377 109 -110 300 -107 420 6 l47 44 12 -41 c7
-23 23 -52 36 -65 65 -65 295 9 283 90 -2 15 -14 23 -44 29 -80 15 -79 9 -81
355 -2 207 -6 315 -14 335 -45 108 -319 49 -319 -70 0 -32 1 -33 40 -33 27 0
47 -7 60 -20 19 -19 20 -33 20 -202 0 -198 -7 -241 -47 -288 -36 -43 -74 -60
-133 -60 -67 0 -105 23 -133 80 -21 42 -22 62 -27 310 -5 277 -8 293 -52 324
-35 25 -133 21 -194 -8z"/>
</g>
</svg>
