<?xml version="1.0" standalone="no"?>
<!DOCTYPE svg PUBLIC "-//W3C//DTD SVG 20010904//EN"
 "http://www.w3.org/TR/2001/REC-SVG-20010904/DTD/svg10.dtd">
<svg version="1.0" xmlns="http://www.w3.org/2000/svg"
 width="672.000000pt" height="358.000000pt" viewBox="0 0 672.000000 358.000000"
 preserveAspectRatio="xMidYMid meet">

<g transform="translate(0.000000,358.000000) scale(0.100000,-0.100000)"
fill="#000000" stroke="none">
<path d="M3189 3399 c-235 -25 -435 -115 -585 -264 -135 -134 -201 -259 -239
-455 -12 -60 -15 -181 -15 -622 l0 -548 160 0 160 0 0 528 c0 417 3 546 15
617 38 232 161 435 349 577 96 72 178 116 268 145 32 10 58 21 58 26 0 9 -68
7 -171 -4z"/>
<path d="M3456 3384 c-231 -50 -430 -224 -525 -461 -71 -175 -81 -286 -81
-920 l0 -493 165 0 165 0 0 518 c0 517 0 518 23 562 12 24 30 49 40 54 19 12
28 4 108 -93 l35 -44 63 76 c35 43 68 77 72 77 5 0 21 -19 36 -42 l28 -42 3
-533 3 -533 164 0 165 0 0 513 c0 281 -4 537 -9 567 -23 135 -97 258 -208 341
-130 99 -309 130 -472 83 -36 -11 -22 15 25 48 119 82 311 84 484 5 187 -85
313 -249 349 -451 7 -37 11 -258 11 -583 l0 -523 165 0 165 0 0 508 c0 551 -7
645 -55 788 -49 147 -108 236 -227 349 -130 123 -282 195 -482 230 -105 18
-120 18 -210 -1z"/>
<path d="M4033 1150 c-121 -24 -165 -91 -186 -280 -1 -9 -15 -16 -32 -18 -40
-5 -55 -19 -55 -53 0 -26 3 -28 48 -31 l47 -3 3 -150 c2 -82 0 -174 -3 -203
-6 -47 -11 -56 -41 -74 -19 -11 -34 -28 -34 -38 0 -38 27 -45 166 -45 125 0
135 1 156 22 26 27 17 41 -35 59 -52 18 -57 39 -54 239 l2 180 68 5 c74 5 101
24 95 65 -3 18 -13 21 -83 25 l-80 5 -3 72 c-5 113 23 149 109 141 33 -3 34
-4 31 -45 -4 -53 24 -83 79 -83 29 0 42 6 58 26 41 52 18 119 -52 153 -36 18
-137 43 -156 40 -3 -1 -25 -5 -48 -9z"/>
<path d="M905 1106 c-238 -59 -369 -323 -288 -581 74 -236 349 -350 571 -238
130 66 189 206 115 275 -35 33 -99 30 -130 -6 -27 -32 -30 -81 -6 -115 16 -23
15 -25 -15 -52 -17 -15 -50 -33 -73 -39 -100 -27 -190 20 -248 130 -33 61 -35
72 -39 180 -4 125 11 194 60 267 54 78 156 112 242 79 62 -24 82 -49 68 -82
-20 -43 -15 -98 11 -122 23 -22 76 -29 112 -16 22 9 45 57 45 96 -1 156 -224
274 -425 224z"/>
<path d="M1622 870 c-86 -18 -146 -72 -144 -130 1 -47 27 -70 78 -70 36 0 47
5 60 26 9 14 17 38 16 54 -1 26 4 30 34 36 49 9 104 -2 128 -25 14 -14 21 -38
24 -80 l4 -59 -99 5 c-79 5 -111 2 -152 -12 -93 -31 -141 -90 -141 -175 0
-155 183 -239 345 -160 58 28 60 28 80 11 33 -30 61 -41 105 -41 33 0 48 6 71
29 36 37 37 57 2 64 -58 13 -58 10 -63 226 -6 228 -9 237 -92 279 -52 26 -183
37 -256 22z m178 -345 c29 -26 28 -107 -2 -135 -33 -31 -92 -44 -134 -30 -38
13 -74 60 -74 96 0 26 35 72 64 85 34 14 123 5 146 -16z"/>
<path d="M3380 874 c-143 -27 -239 -140 -248 -294 -6 -106 16 -167 83 -236 87
-88 215 -117 345 -78 68 20 130 78 130 121 0 50 -16 54 -71 20 -93 -57 -214
-44 -279 29 -29 33 -54 99 -44 116 3 4 90 8 193 8 220 0 216 -2 215 94 -1 90
-47 161 -129 200 -36 17 -148 29 -195 20z m109 -98 c56 -29 81 -105 42 -126
-23 -12 -210 -13 -228 -2 -14 9 -2 65 21 94 34 45 112 61 165 34z"/>
<path d="M4452 870 c-149 -32 -246 -154 -245 -310 0 -93 25 -156 85 -217 132
-135 396 -117 501 34 88 127 74 310 -32 413 -72 71 -199 103 -309 80z m169
-128 c44 -50 64 -125 57 -215 -7 -80 -31 -131 -77 -163 -71 -48 -146 -19 -193
75 -48 95 -36 243 25 309 31 34 55 42 107 38 38 -3 51 -11 81 -44z"/>
<path d="M2420 849 c-19 -12 -45 -30 -57 -42 l-22 -20 -10 26 c-19 50 -84 61
-158 27 -69 -31 -86 -100 -24 -100 53 0 61 -26 61 -186 0 -159 -9 -198 -52
-220 -21 -11 -28 -21 -26 -37 5 -34 44 -47 150 -47 130 0 180 20 157 62 -5 10
-16 18 -25 18 -8 0 -26 11 -39 25 -24 23 -25 30 -25 151 0 140 11 192 47 226
l24 22 22 -27 c49 -61 147 -25 147 54 0 77 -93 114 -170 68z"/>
<path d="M2963 855 c-18 -8 -44 -26 -59 -40 -25 -26 -44 -26 -44 0 0 22 -41
45 -80 45 -19 0 -54 -9 -78 -20 -65 -29 -82 -100 -23 -100 53 0 56 -7 59 -167
4 -173 -5 -216 -49 -239 -22 -11 -29 -21 -27 -37 5 -35 44 -47 155 -47 103 0
147 10 158 38 6 17 -12 42 -32 42 -8 0 -25 11 -38 25 -24 23 -25 30 -25 151 0
139 11 192 46 225 l24 22 24 -26 c54 -58 146 -23 146 55 0 71 -79 107 -157 73z"/>
<path d="M4950 848 c-70 -36 -89 -98 -29 -98 50 0 59 -27 59 -180 0 -74 5
-151 10 -171 26 -92 101 -149 196 -149 64 0 109 15 156 51 35 28 37 28 43 9
20 -62 103 -79 185 -37 38 19 45 27 45 52 0 25 -5 31 -30 35 -52 9 -57 33 -51
244 5 202 0 233 -43 256 -43 23 -139 3 -183 -37 -10 -9 -18 -29 -18 -45 0 -24
4 -28 30 -28 52 0 63 -31 58 -168 -5 -127 -17 -166 -62 -196 -40 -26 -108 -21
-139 10 -34 34 -37 55 -40 257 l-2 169 -28 24 c-37 31 -97 32 -157 2z"/>
<path d="M5995 855 c-16 -9 -41 -27 -55 -40 l-25 -24 -28 34 c-24 30 -34 35
-70 35 -53 -1 -107 -27 -126 -61 -19 -35 -9 -59 27 -59 49 0 52 -10 52 -197
l0 -173 -40 -28 c-82 -56 -32 -92 127 -92 111 0 148 13 148 49 0 18 -8 27 -33
35 -50 17 -57 37 -57 171 0 129 15 203 46 231 18 17 21 16 47 -9 35 -34 99
-38 127 -7 25 28 24 96 -3 122 -27 27 -98 34 -137 13z"/>
</g>
</svg>
