<?xml version="1.0" encoding="UTF-8"?>
<svg version="1.1" xmlns="http://www.w3.org/2000/svg" width="300" height="117">
<path d="M0 0 C99 0 198 0 300 0 C300 38.61 300 77.22 300 117 C201 117 102 117 0 117 C0 78.39 0 39.78 0 0 Z " fill="#FDFDFD" transform="translate(0,0)"/>
<path d="M0 0 C1.5522032 0.01331221 3.10434326 0.03718477 4.65625 0.0703125 C5.44128906 0.07933594 6.22632813 0.08835938 7.03515625 0.09765625 C9.07563341 0.12215598 11.1159671 0.15799025 13.15625 0.1953125 C15.2508703 0.1953125 17.34315806 0.15949813 19.4375 0.125 C21.1770789 0.10635214 22.91666252 0.08814136 24.65625 0.0703125 C25.53667969 0.05355469 26.41710938 0.03679688 27.32421875 0.01953125 C28.58685547 0.00986328 28.58685547 0.00986328 29.875 0 C30.64779297 -0.01047363 31.42058594 -0.02094727 32.21679688 -0.03173828 C34.15625 0.1953125 34.15625 0.1953125 36.15625 2.1953125 C36.41503906 4.31835938 36.41503906 4.31835938 36.421875 6.9140625 C36.42574219 8.31205078 36.42574219 8.31205078 36.4296875 9.73828125 C36.42195313 10.71410156 36.41421875 11.68992187 36.40625 12.6953125 C36.41785156 14.15904297 36.41785156 14.15904297 36.4296875 15.65234375 C36.42710938 16.58433594 36.42453125 17.51632813 36.421875 18.4765625 C36.41961914 19.33314453 36.41736328 20.18972656 36.41503906 21.07226562 C36.15625 23.1953125 36.15625 23.1953125 34.15625 25.1953125 C31.42190038 25.5016984 28.77345179 25.7066461 26.03125 25.8203125 C24.90009766 25.87832031 24.90009766 25.87832031 23.74609375 25.9375 C21.88321816 26.03182281 20.01976745 26.11465912 18.15625 26.1953125 C18.81625 27.1853125 19.47625 28.1753125 20.15625 29.1953125 C20.48625 28.2053125 20.81625 27.2153125 21.15625 26.1953125 C22.14625 26.1953125 23.13625 26.1953125 24.15625 26.1953125 C24.15625 28.8353125 24.15625 31.4753125 24.15625 34.1953125 C22.83625 34.1953125 21.51625 34.1953125 20.15625 34.1953125 C19.49625 33.2053125 18.83625 32.2153125 18.15625 31.1953125 C17.82625 32.1853125 17.49625 33.1753125 17.15625 34.1953125 C14.84625 34.1953125 12.53625 34.1953125 10.15625 34.1953125 C10.15625 33.5353125 10.15625 32.8753125 10.15625 32.1953125 C9.35960937 32.68644531 9.35960937 32.68644531 8.546875 33.1875 C5.52930843 34.4596114 3.16931977 34.3912488 -0.09375 34.3203125 C-1.17140625 34.30226562 -2.2490625 34.28421875 -3.359375 34.265625 C-4.17921875 34.24242187 -4.9990625 34.21921875 -5.84375 34.1953125 C-5.84375 31.5553125 -5.84375 28.9153125 -5.84375 26.1953125 C-2.87375 26.1953125 0.09625 26.1953125 3.15625 26.1953125 C3.15625 27.8453125 3.15625 29.4953125 3.15625 31.1953125 C3.81625 31.1953125 4.47625 31.1953125 5.15625 31.1953125 C5.48625 29.5453125 5.81625 27.8953125 6.15625 26.1953125 C8.59375 26.5703125 8.59375 26.5703125 11.15625 27.1953125 C11.48625 27.8553125 11.81625 28.5153125 12.15625 29.1953125 C12.48625 27.8753125 12.81625 26.5553125 13.15625 25.1953125 C11.47595703 25.24751953 11.47595703 25.24751953 9.76171875 25.30078125 C8.28907749 25.32892089 6.81642002 25.35622087 5.34375 25.3828125 C4.23676758 25.42051758 4.23676758 25.42051758 3.10742188 25.45898438 C-2.37292542 25.53337823 -2.37292542 25.53337823 -4.55810547 23.96435547 C-6.2023905 21.70182426 -6.21727002 20.37789793 -6.20703125 17.59765625 C-6.20638672 16.71400391 -6.20574219 15.83035156 -6.20507812 14.91992188 C-6.18896484 14.00017578 -6.17285156 13.08042969 -6.15625 12.1328125 C-6.15947266 11.20919922 -6.16269531 10.28558594 -6.16601562 9.33398438 C-6.09350437 0.30962929 -6.09350437 0.30962929 0 0 Z " fill="#0E5E47" transform="translate(7.84375,41.8046875)"/>
<path d="M0 0 C1.57043101 0.01330874 3.14079971 0.03717648 4.7109375 0.0703125 C5.51273438 0.07933594 6.31453125 0.08835938 7.140625 0.09765625 C9.12252273 0.12125027 11.10426731 0.15712185 13.0859375 0.1953125 C14.36911642 4.04484926 14.15237387 7.14269385 14.0859375 11.1953125 C13.4259375 11.1953125 12.7659375 11.1953125 12.0859375 11.1953125 C12.0859375 9.5453125 12.0859375 7.8953125 12.0859375 6.1953125 C8.4559375 6.1953125 4.8259375 6.1953125 1.0859375 6.1953125 C1.0859375 10.4853125 1.0859375 14.7753125 1.0859375 19.1953125 C4.7159375 19.1953125 8.3459375 19.1953125 12.0859375 19.1953125 C12.0859375 17.5453125 12.0859375 15.8953125 12.0859375 14.1953125 C12.7459375 14.1953125 13.4059375 14.1953125 14.0859375 14.1953125 C14.0859375 20.7953125 14.0859375 27.3953125 14.0859375 34.1953125 C12.7659375 34.1953125 11.4459375 34.1953125 10.0859375 34.1953125 C10.0859375 33.5353125 10.0859375 32.8753125 10.0859375 32.1953125 C9.28929687 32.68644531 9.28929687 32.68644531 8.4765625 33.1875 C5.45899593 34.4596114 3.09900727 34.3912488 -0.1640625 34.3203125 C-1.24171875 34.30226562 -2.319375 34.28421875 -3.4296875 34.265625 C-4.24953125 34.24242187 -5.069375 34.21921875 -5.9140625 34.1953125 C-5.9140625 31.5553125 -5.9140625 28.9153125 -5.9140625 26.1953125 C-2.9440625 26.1953125 0.0259375 26.1953125 3.0859375 26.1953125 C3.0859375 27.8453125 3.0859375 29.4953125 3.0859375 31.1953125 C3.7459375 31.1953125 4.4059375 31.1953125 5.0859375 31.1953125 C5.4159375 29.5453125 5.7459375 27.8953125 6.0859375 26.1953125 C8.5234375 26.5703125 8.5234375 26.5703125 11.0859375 27.1953125 C11.4159375 27.8553125 11.7459375 28.5153125 12.0859375 29.1953125 C12.4159375 27.8753125 12.7459375 26.5553125 13.0859375 25.1953125 C11.40564453 25.24751953 11.40564453 25.24751953 9.69140625 25.30078125 C8.21876499 25.32892089 6.74610752 25.35622087 5.2734375 25.3828125 C4.16645508 25.42051758 4.16645508 25.42051758 3.03710938 25.45898438 C-2.44323792 25.53337823 -2.44323792 25.53337823 -4.62841797 23.96435547 C-6.272703 21.70182426 -6.28758252 20.37789793 -6.27734375 17.59765625 C-6.27669922 16.71400391 -6.27605469 15.83035156 -6.27539062 14.91992188 C-6.25927734 14.00017578 -6.24316406 13.08042969 -6.2265625 12.1328125 C-6.22978516 11.20919922 -6.23300781 10.28558594 -6.23632812 9.33398438 C-6.16380036 0.30757487 -6.16380036 0.30757487 0 0 Z " fill="#A6C3BB" transform="translate(7.9140625,41.8046875)"/>
<path d="M0 0 C2.49609375 -0.3984375 2.49609375 -0.3984375 5.4375 -0.375 C6.40558594 -0.38273437 7.37367187 -0.39046875 8.37109375 -0.3984375 C11 0 11 0 12.828125 1.1796875 C14.44823346 3.69625597 14.36443505 5.52771718 14.3125 8.5 C14.30863281 9.4590625 14.30476563 10.418125 14.30078125 11.40625 C14 14 14 14 12 17 C9.1796875 17.29296875 9.1796875 17.29296875 5.875 17.1875 C4.77929688 17.16042969 3.68359375 17.13335937 2.5546875 17.10546875 C1.71164063 17.07066406 0.86859375 17.03585938 0 17 C-1.83117102 13.86811623 -2.2718057 11.55179405 -2.25 7.9375 C-2.25515625 7.08027344 -2.2603125 6.22304688 -2.265625 5.33984375 C-2 3 -2 3 0 0 Z " fill="#206A55" transform="translate(93,46)"/>
<path d="M0 0 C0.9796875 0.00515625 1.959375 0.0103125 2.96875 0.015625 C3.9484375 0.01046875 4.928125 0.0053125 5.9375 0 C8.46875 0.265625 8.46875 0.265625 10.46875 2.265625 C10.734375 5.234375 10.734375 5.234375 10.71875 8.765625 C10.72390625 9.9309375 10.7290625 11.09625 10.734375 12.296875 C10.46875 15.265625 10.46875 15.265625 8.46875 17.265625 C5.9375 17.56640625 5.9375 17.56640625 2.96875 17.578125 C1.9890625 17.59488281 1.009375 17.61164062 0 17.62890625 C-0.8353125 17.50902344 -1.670625 17.38914062 -2.53125 17.265625 C-4.84715289 13.79177067 -4.80116835 12.30132494 -4.78125 8.203125 C-4.78640625 7.13964844 -4.7915625 6.07617188 -4.796875 4.98046875 C-4.44160878 1.34943896 -3.65757132 0.38381921 0 0 Z " fill="#115F49" transform="translate(72.53125,45.734375)"/>
<path d="M0 0 C10.05859375 -0.09765625 10.05859375 -0.09765625 13 0 C15.0289782 2.0289782 14 6.28302406 14 9 C14.33 9.33 14.66 9.66 15 10 C15.1875 12.4375 15.1875 12.4375 15 15 C13 17 13 17 9.9609375 17.1953125 C6.640625 17.13020833 3.3203125 17.06510417 0 17 C0 11.39 0 5.78 0 0 Z " fill="#1E6853" transform="translate(230,46)"/>
<path d="M0 0 C1.93875 -0.020625 3.8775 -0.04125 5.875 -0.0625 C6.96554688 -0.07410156 8.05609375 -0.08570313 9.1796875 -0.09765625 C12 0 12 0 14 1 C14 6.28 14 11.56 14 17 C13.01 17 12.02 17 11 17 C10.67 15.35 10.34 13.7 10 12 C7.69 11.67 5.38 11.34 3 11 C3 12.98 3 14.96 3 17 C2.01 17 1.02 17 0 17 C0 11.39 0 5.78 0 0 Z " fill="#14624C" transform="translate(140,46)"/>
<path d="M0 0 C1.98 0 3.96 0 6 0 C7.98 3.63 9.96 7.26 12 11 C12.33 7.37 12.66 3.74 13 0 C13.99 0 14.98 0 16 0 C16 5.61 16 11.22 16 17 C14.02 17 12.04 17 10 17 C8.35 13.7 6.7 10.4 5 7 C4.67 10.3 4.34 13.6 4 17 C2.68 17 1.36 17 0 17 C0 11.39 0 5.78 0 0 Z " fill="#16634D" transform="translate(264,46)"/>
<path d="M0 0 C9.1796875 -0.1953125 9.1796875 -0.1953125 12 0 C14.32528287 2.32528287 14.29511025 2.84665898 14.3125 6 C14.32925781 6.70125 14.34601563 7.4025 14.36328125 8.125 C14.18345703 9.053125 14.18345703 9.053125 14 10 C10.3558226 12.4294516 8.28758728 12.16179575 4 12 C4 13.65 4 15.3 4 17 C2.68 17 1.36 17 0 17 C0 11.39 0 5.78 0 0 Z " fill="#1C6752" transform="translate(109,46)"/>
<path d="M0 0 C1.47668858 0.0133035 2.95331108 0.03716415 4.4296875 0.0703125 C5.18378906 0.07933594 5.93789062 0.08835938 6.71484375 0.09765625 C8.57826004 0.1212438 10.44151343 0.15711531 12.3046875 0.1953125 C12.3046875 1.1853125 12.3046875 2.1753125 12.3046875 3.1953125 C5.8696875 3.6903125 5.8696875 3.6903125 -0.6953125 4.1953125 C-1.0253125 9.8053125 -1.3553125 15.4153125 -1.6953125 21.1953125 C2.9246875 21.1953125 7.5446875 21.1953125 12.3046875 21.1953125 C12.3046875 22.1853125 12.3046875 23.1753125 12.3046875 24.1953125 C9.67941561 24.24913356 7.05524037 24.28889563 4.4296875 24.3203125 C3.68332031 24.33707031 2.93695313 24.35382813 2.16796875 24.37109375 C0.21274289 24.3887084 -1.74273271 24.29851439 -3.6953125 24.1953125 C-6.14518182 21.74544318 -5.95162561 21.0582345 -5.9609375 17.6953125 C-5.96351562 16.8084375 -5.96609375 15.9215625 -5.96875 15.0078125 C-5.95714844 13.615625 -5.95714844 13.615625 -5.9453125 12.1953125 C-5.95304688 11.2671875 -5.96078125 10.3390625 -5.96875 9.3828125 C-5.96617188 8.4959375 -5.96359375 7.6090625 -5.9609375 6.6953125 C-5.95868164 5.880625 -5.95642578 5.0659375 -5.95410156 4.2265625 C-5.44721104 0.24795006 -3.76110896 0.19879011 0 0 Z " fill="#12614B" transform="translate(7.6953125,41.8046875)"/>
<path d="M0 0 C1.98 0 3.96 0 6 0 C6.83919398 2.26882087 7.67151724 4.53977027 8.5 6.8125 C8.73847656 7.45509766 8.97695313 8.09769531 9.22265625 8.75976562 C10.27068746 11.64933739 11 13.90076061 11 17 C9.68 17 8.36 17 7 17 C7 16.01 7 15.02 7 14 C4.36 14 1.72 14 -1 14 C-1.33 14.99 -1.66 15.98 -2 17 C-2.99 17 -3.98 17 -5 17 C-3.83348574 11.07136283 -2.24480642 5.61201606 0 0 Z " fill="#206955" transform="translate(251,46)"/>
<path d="M0 0 C1.2065625 0.0309375 1.2065625 0.0309375 2.4375 0.0625 C3.28192881 1.95341736 4.11261587 3.85047515 4.9375 5.75 C5.4015625 6.80574219 5.865625 7.86148438 6.34375 8.94921875 C7.38700801 11.91877816 7.66815301 13.95445063 7.4375 17.0625 C6.4475 17.0625 5.4575 17.0625 4.4375 17.0625 C4.4375 16.0725 4.4375 15.0825 4.4375 14.0625 C1.7975 14.0625 -0.8425 14.0625 -3.5625 14.0625 C-3.8925 15.0525 -4.2225 16.0425 -4.5625 17.0625 C-5.8825 16.7325 -7.2025 16.4025 -8.5625 16.0625 C-7.75360952 13.58210151 -6.94058099 11.10319788 -6.125 8.625 C-5.89490234 7.91794922 -5.66480469 7.21089844 -5.42773438 6.48242188 C-3.31429228 0.0808364 -3.31429228 0.0808364 0 0 Z " fill="#17644E" transform="translate(164.5625,45.9375)"/>
<path d="M0 0 C3.96 0 7.92 0 12 0 C12 0.99 12 1.98 12 3 C9.36 3 6.72 3 4 3 C4 4.32 4 5.64 4 7 C6.64 7 9.28 7 12 7 C12 7.99 12 8.98 12 10 C9.36 10 6.72 10 4 10 C4 11.32 4 12.64 4 14 C6.64 14 9.28 14 12 14 C12 14.99 12 15.98 12 17 C8.04 17 4.08 17 0 17 C0 11.39 0 5.78 0 0 Z " fill="#236C57" transform="translate(125,46)"/>
<path d="M0 0 C1.27875 0.00257812 2.5575 0.00515625 3.875 0.0078125 C5.15375 0.00523438 6.4325 0.00265625 7.75 0 C10.875 0.1328125 10.875 0.1328125 11.875 1.1328125 C11.94825168 3.99548817 11.96738205 6.8335315 11.9375 9.6953125 C11.93298828 10.50162109 11.92847656 11.30792969 11.92382812 12.13867188 C11.91200518 14.13675006 11.89406914 16.13479033 11.875 18.1328125 C6.595 18.1328125 1.315 18.1328125 -4.125 18.1328125 C-4.125 15.8228125 -4.125 13.5128125 -4.125 11.1328125 C-3.465 11.1328125 -2.805 11.1328125 -2.125 11.1328125 C-2.125 12.7828125 -2.125 14.4328125 -2.125 16.1328125 C1.505 16.1328125 5.135 16.1328125 8.875 16.1328125 C8.875 11.8428125 8.875 7.5528125 8.875 3.1328125 C5.245 3.1328125 1.615 3.1328125 -2.125 3.1328125 C-2.125 4.7828125 -2.125 6.4328125 -2.125 8.1328125 C-2.785 8.1328125 -3.445 8.1328125 -4.125 8.1328125 C-4.16741723 5.79986475 -4.16592937 3.46578683 -4.125 1.1328125 C-3.125 0.1328125 -3.125 0.1328125 0 0 Z " fill="#B5CDC7" transform="translate(29.125,44.8671875)"/>
<path d="M0 0 C3.96 0 7.92 0 12 0 C12 0.99 12 1.98 12 3 C9.03 3 6.06 3 3 3 C3 4.32 3 5.64 3 7 C5.97 7 8.94 7 12 7 C12 7.99 12 8.98 12 10 C9.36 10 6.72 10 4 10 C4 11.32 4 12.64 4 14 C6.64 14 9.28 14 12 14 C12 14.99 12 15.98 12 17 C8.04 17 4.08 17 0 17 C0 11.39 0 5.78 0 0 Z " fill="#1E6854" transform="translate(211,46)"/>
<path d="M0 0 C1.48306641 0.02126953 1.48306641 0.02126953 2.99609375 0.04296875 C3.98738281 0.04941406 4.97867188 0.05585937 6 0.0625 C8.43359375 0.23046875 8.43359375 0.23046875 9.43359375 1.23046875 C9.47423207 2.8966399 9.47631475 4.5643497 9.43359375 6.23046875 C8.44359375 6.23046875 7.45359375 6.23046875 6.43359375 6.23046875 C6.43359375 5.24046875 6.43359375 4.25046875 6.43359375 3.23046875 C3.79359375 3.23046875 1.15359375 3.23046875 -1.56640625 3.23046875 C-1.23640625 6.53046875 -0.90640625 9.83046875 -0.56640625 13.23046875 C1.74359375 13.56046875 4.05359375 13.89046875 6.43359375 14.23046875 C6.43359375 13.24046875 6.43359375 12.25046875 6.43359375 11.23046875 C7.42359375 11.23046875 8.41359375 11.23046875 9.43359375 11.23046875 C9.47631475 12.8965878 9.47423207 14.5642976 9.43359375 16.23046875 C7.69509747 17.96896503 5.35493005 17.40263171 2.99609375 17.41796875 C2.00738281 17.43214844 1.01867188 17.44632813 0 17.4609375 C-2.56640625 17.23046875 -2.56640625 17.23046875 -4.56640625 15.23046875 C-4.83203125 12.26171875 -4.83203125 12.26171875 -4.81640625 8.73046875 C-4.8215625 7.56515625 -4.82671875 6.39984375 -4.83203125 5.19921875 C-4.49259001 1.40546367 -3.85937436 0.34658004 0 0 Z " fill="#0F5E48" transform="translate(56.56640625,45.76953125)"/>
<path d="M0 0 C0.99 0 1.98 0 3 0 C3 2.31 3 4.62 3 7 C3.78375 6.21625 4.5675 5.4325 5.375 4.625 C6.91666667 3.08333333 8.45833333 1.54166667 10 0 C12.125 0.375 12.125 0.375 14 1 C12.35 2.98 10.7 4.96 9 7 C10.3697164 10.99500618 12.25722422 13.80009492 15 17 C12.8125 17.375 12.8125 17.375 10 17 C7.3125 14.0625 7.3125 14.0625 5 11 C4.34 10.67 3.68 10.34 3 10 C3 12.31 3 14.62 3 17 C2.01 17 1.02 17 0 17 C0 11.39 0 5.78 0 0 Z " fill="#0D5D47" transform="translate(284,46)"/>
<path d="M0 0 C2.64 0 5.28 0 8 0 C8 0.99 8 1.98 8 3 C8.99 3 9.98 3 11 3 C11.33 2.01 11.66 1.02 12 0 C12.66 4.29 13.32 8.58 14 13 C13.01 13 12.02 13 11 13 C11 11.35 11 9.7 11 8 C10.01 8 9.02 8 8 8 C8 8.99 8 9.98 8 11 C5.66705225 11.04241723 3.33297433 11.04092937 1 11 C0 10 0 10 -0.09765625 7.71484375 C-0.08605469 6.79832031 -0.07445312 5.88179687 -0.0625 4.9375 C-0.05347656 4.01839844 -0.04445312 3.09929688 -0.03515625 2.15234375 C-0.02355469 1.44207031 -0.01195312 0.73179688 0 0 Z " fill="#F1F5F4" transform="translate(55,49)"/>
<path d="M0 0 C2.97 0 5.94 0 9 0 C9 1.65 9 3.3 9 5 C9.66 5 10.32 5 11 5 C11.33 3.35 11.66 1.7 12 0 C13.65 0.33 15.3 0.66 17 1 C17.66 3.31 18.32 5.62 19 8 C18.01 8 17.02 8 16 8 C16 7.34 16 6.68 16 6 C15.20335937 6.49113281 15.20335937 6.49113281 14.390625 6.9921875 C11.37305843 8.2642989 9.01306977 8.1959363 5.75 8.125 C4.67234375 8.10695313 3.5946875 8.08890625 2.484375 8.0703125 C1.66453125 8.04710938 0.8446875 8.02390625 0 8 C0 5.36 0 2.72 0 0 Z " fill="#307562" transform="translate(2,68)"/>
<path d="M0 0 C0.99 0 1.98 0 3 0 C4.32 3.3 5.64 6.6 7 10 C8.53521956 7.69717067 9.58357909 5.82137765 10.625 3.3125 C11.07875 2.219375 11.5325 1.12625 12 0 C12.99 0 13.98 0 15 0 C13.83348574 5.92863717 12.24480642 11.38798394 10 17 C8.35 17 6.7 17 5 17 C2.14711836 11.26769829 0.46555704 6.40140935 0 0 Z " fill="#14624C" transform="translate(194,46)"/>
<path d="M0 0 C2.05078125 0.03255208 4.1015625 0.06510417 6.15234375 0.09765625 C6.15234375 3.72765625 6.15234375 7.35765625 6.15234375 11.09765625 C0 11.1953125 0 11.1953125 -1.84765625 11.09765625 C-2.84765625 10.09765625 -2.84765625 10.09765625 -2.98046875 8.06640625 C-2.97789063 7.25171875 -2.9753125 6.43703125 -2.97265625 5.59765625 C-2.97523437 4.78296875 -2.9778125 3.96828125 -2.98046875 3.12890625 C-2.80874235 0.50250245 -2.63734263 0.13939443 0 0 Z " fill="#F0F5F4" transform="translate(73.84765625,48.90234375)"/>
<path d="M0 0 C1.66611905 -0.042721 3.33382885 -0.04063832 5 0 C6 1 6 1 6.11352539 2.76586914 C6.10828857 3.51473389 6.10305176 4.26359863 6.09765625 5.03515625 C6.09443359 5.84404297 6.09121094 6.65292969 6.08789062 7.48632812 C6.07951172 8.33646484 6.07113281 9.18660156 6.0625 10.0625 C6.05798828 10.91650391 6.05347656 11.77050781 6.04882812 12.65039062 C6.03700373 14.76695663 6.01906769 16.88348685 6 19 C4.35 19 2.7 19 1 19 C1.99 18.34 2.98 17.68 4 17 C2.02 14.69 0.04 12.38 -2 10 C-0.47524303 6.95048605 0.92885326 4.63600494 3 2 C2.01 1.34 1.02 0.68 0 0 Z " fill="#F1F5F4" transform="translate(294,45)"/>
<path d="M0 0 C2.64 0 5.28 0 8 0 C8 3.63 8 7.26 8 11 C5.36 11 2.72 11 0 11 C0 7.37 0 3.74 0 0 Z " fill="#FBFCFC" transform="translate(95,49)"/>
<path d="M0 0 C4.29 0 8.58 0 13 0 C13 0.99 13 1.98 13 3 C11.35 3 9.7 3 8 3 C8 7.62 8 12.24 8 17 C7.01 17 6.02 17 5 17 C5 12.38 5 7.76 5 3 C3.35 3 1.7 3 0 3 C0 2.01 0 1.02 0 0 Z " fill="#085A43" transform="translate(173,46)"/>
<path d="M0 0 C1.32 0 2.64 0 4 0 C4 5.61 4 11.22 4 17 C2.68 17 1.36 17 0 17 C0 11.39 0 5.78 0 0 Z " fill="#266D5A" transform="translate(188,46)"/>
<path d="M0 0 C0.66 0 1.32 0 2 0 C2.33 0.66 2.66 1.32 3 2 C3.33 1.34 3.66 0.68 4 0 C4.66 0 5.32 0 6 0 C6.66 0.66 7.32 1.32 8 2 C8.66 1.34 9.32 0.68 10 0 C10.33 0.66 10.66 1.32 11 2 C12.32 2 13.64 2 15 2 C14.67 2.99 14.34 3.98 14 5 C14 4.34 14 3.68 14 3 C13.34 3 12.68 3 12 3 C12 4.32 12 5.64 12 7 C12.99 7.33 13.98 7.66 15 8 C10.125 7.125 10.125 7.125 9 6 C8.34 6.66 7.68 7.32 7 8 C6.67 6.68 6.34 5.36 6 4 C5.34 4 4.68 4 4 4 C3.67 5.32 3.34 6.64 3 8 C0.4345406 5.4345406 0.45953913 3.52313332 0 0 Z " fill="#A0D378" transform="translate(169,68)"/>
<path d="M0 0 C2.64 0 5.28 0 8 0 C8 2.31 8 4.62 8 7 C5.36 7 2.72 7 0 7 C0 4.69 0 2.38 0 0 Z " fill="#01553D" transform="translate(3,68)"/>
<path d="M0 0 C0.99 0 1.98 0 3 0 C3.33 0.66 3.66 1.32 4 2 C4.66 1.34 5.32 0.68 6 0 C6.99 0.33 7.98 0.66 9 1 C9 2.32 9 3.64 9 5 C9.33 5.99 9.66 6.98 10 8 C8.35 7.67 6.7 7.34 5 7 C5 6.34 5 5.68 5 5 C4.34 5 3.68 5 3 5 C3 5.99 3 6.98 3 8 C2.01 8 1.02 8 0 8 C0 5.36 0 2.72 0 0 Z " fill="#115F49" transform="translate(34,68)"/>
<path d="M0 0 C0.33 0 0.66 0 1 0 C1 4.62 1 9.24 1 14 C-3.95 14 -8.9 14 -14 14 C-14 11.69 -14 9.38 -14 7 C-13.34 7 -12.68 7 -12 7 C-12 8.65 -12 10.3 -12 12 C-6.555 11.505 -6.555 11.505 -1 11 C-0.67 7.37 -0.34 3.74 0 0 Z " fill="#E8EFEE" transform="translate(39,49)"/>
<path d="M0 0 C0.33 0 0.66 0 1 0 C1.33 3.96 1.66 7.92 2 12 C5.96 12 9.92 12 14 12 C14 12.99 14 13.98 14 15 C9.38 15 4.76 15 0 15 C0 10.05 0 5.1 0 0 Z " fill="#FCFCFD" transform="translate(7,48)"/>
<path d="M0 0 C2.31 0 4.62 0 7 0 C7.042721 1.66611905 7.04063832 3.33382885 7 5 C6 6 6 6 2.9375 6.0625 C1.4834375 6.0315625 1.4834375 6.0315625 0 6 C0 4.02 0 2.04 0 0 Z " fill="#EAF0EF" transform="translate(113,49)"/>
<path d="M0 0 C6.27 0 12.54 0 19 0 C19 1.98 19 3.96 19 6 C18.5875 5.360625 18.175 4.72125 17.75 4.0625 C15.82189513 1.79009069 14.88575819 1.39803561 12 1 C11.67 2.65 11.34 4.3 11 6 C10.34 6 9.68 6 9 6 C9 4.35 9 2.7 9 1 C6.03 1 3.06 1 0 1 C0 0.67 0 0.34 0 0 Z " fill="#E4EDEB" transform="translate(2,67)"/>
<path d="M0 0 C6.15234375 -0.09765625 6.15234375 -0.09765625 8 0 C9 1 9 1 9.0625 3.5625 C9.041875 4.366875 9.02125 5.17125 9 6 C8.01 6 7.02 6 6 6 C6 5.01 6 4.02 6 3 C3.69 3 1.38 3 -1 3 C-0.67 2.01 -0.34 1.02 0 0 Z " fill="#1F6954" transform="translate(57,46)"/>
<path d="M0 0 C2.64 0 5.28 0 8 0 C8.33 0.99 8.66 1.98 9 3 C7.68 3 6.36 3 5 3 C4.67 3.66 4.34 4.32 4 5 C3.67 4.67 3.34 4.34 3 4 C2.67 4.66 2.34 5.32 2 6 C1.34 6 0.68 6 0 6 C0 4.02 0 2.04 0 0 Z " fill="#B5DC96" transform="translate(194,70)"/>
<path d="M0 0 C2.31 0 4.62 0 7 0 C7 1.65 7 3.3 7 5 C4.69 5 2.38 5 0 5 C0 3.35 0 1.7 0 0 Z " fill="#F3F7F6" transform="translate(144,49)"/>
<path d="M0 0 C0.33 1.32 0.66 2.64 1 4 C2.65 4 4.3 4 6 4 C6 4.33 6 4.66 6 5 C4.02 5 2.04 5 0 5 C-0.33 6.32 -0.66 7.64 -1 9 C-1.99 9 -2.98 9 -4 9 C-3.38461538 3.46153846 -3.38461538 3.46153846 -1.4375 1.125 C-0.963125 0.75375 -0.48875 0.3825 0 0 Z " fill="#0E5D47" transform="translate(250,54)"/>
<path d="M0 0 C1.98 0 3.96 0 6 0 C6 2.31 6 4.62 6 7 C4.02 7 2.04 7 0 7 C0 6.34 0 5.68 0 5 C0.99 5 1.98 5 3 5 C3 4.01 3 3.02 3 2 C2.01 2 1.02 2 0 2 C0 1.34 0 0.68 0 0 Z " fill="#E2EBE9" transform="translate(29,51)"/>
<path d="M0 0 C1.98 0 3.96 0 6 0 C6 0.66 6 1.32 6 2 C5.01 2 4.02 2 3 2 C3 2.99 3 3.98 3 5 C3.99 5 4.98 5 6 5 C6 5.66 6 6.32 6 7 C4.02 7 2.04 7 0 7 C0 4.69 0 2.38 0 0 Z " fill="#E3ECEA" transform="translate(12,51)"/>
<path d="M0 0 C2.475 0.495 2.475 0.495 5 1 C5 6.61 5 12.22 5 18 C4.67 18 4.34 18 4 18 C3.93941406 17.24074219 3.87882813 16.48148438 3.81640625 15.69921875 C3.73261719 14.70535156 3.64882812 13.71148437 3.5625 12.6875 C3.44068359 11.20830078 3.44068359 11.20830078 3.31640625 9.69921875 C3.08187441 6.90624401 3.08187441 6.90624401 2 4 C2.33 3.01 2.66 2.02 3 1 C2.01 0.67 1.02 0.34 0 0 Z " fill="#D5E2E0" transform="translate(206,45)"/>
<path d="M0 0 C1.65 0 3.3 0 5 0 C5 1.98 5 3.96 5 6 C3.35 5.67 1.7 5.34 0 5 C0 3.35 0 1.7 0 0 Z " fill="#B8DD9A" transform="translate(218,70)"/>
<path d="M0 0 C2.31 0 4.62 0 7 0 C7 1.32 7 2.64 7 4 C4.69 4 2.38 4 0 4 C0 2.68 0 1.36 0 0 Z " fill="#FBFCFC" transform="translate(234,56)"/>
<path d="M0 0 C2.31 0 4.62 0 7 0 C7 1.32 7 2.64 7 4 C4.69 4 2.38 4 0 4 C0 2.68 0 1.36 0 0 Z " fill="#EAF1F0" transform="translate(234,49)"/>
<path d="M0 0 C2.5654594 2.5654594 2.54046087 4.47686668 3 8 C1.35 8 -0.3 8 -2 8 C-1.125 2.25 -1.125 2.25 0 0 Z " fill="#DDE8E6" transform="translate(164,49)"/>
<path d="M0 0 C0.66 0 1.32 0 2 0 C2.66 2.31 3.32 4.62 4 7 C2.35 7 0.7 7 -1 7 C-0.67 4.69 -0.34 2.38 0 0 Z " fill="#E4EDEA" transform="translate(253,50)"/>
<path d="M0 0 C0 1.65 0 3.3 0 5 C-1.65 5.33 -3.3 5.66 -5 6 C-5 4.35 -5 2.7 -5 1 C-2 0 -2 0 0 0 Z " fill="#488574" transform="translate(11,68)"/>
</svg>
