<?xml version="1.0" encoding="UTF-8"?>
<svg version="1.1" xmlns="http://www.w3.org/2000/svg" width="1630" height="1358">
<path d="M0 0 C4.96622349 -0.02465098 9.93241166 -0.04283649 14.89868164 -0.05493164 C16.58944316 -0.0599719 18.28020029 -0.06680405 19.97094727 -0.07543945 C22.39600707 -0.08751857 24.82100944 -0.09323123 27.24609375 -0.09765625 C28.38672523 -0.10539818 28.38672523 -0.10539818 29.55039978 -0.11329651 C31.3673257 -0.11349238 33.18413127 -0.06197277 35 0 C36.67150051 1.67150051 36.28105058 3.76260557 36.41723633 6.06419373 C36.48447906 7.16178513 36.5517218 8.25937653 36.6210022 9.39022827 C36.72546158 11.21271591 36.72546158 11.21271591 36.83203125 13.07202148 C36.90859955 14.3435759 36.98516785 15.61513031 37.0640564 16.92521667 C37.2310184 19.69863592 37.39500673 22.47220977 37.55673218 25.24593925 C37.81287706 29.63869287 38.07554813 34.03104124 38.33911133 38.4233551 C38.75582689 45.38106172 39.16811044 52.33902287 39.57853794 59.29710299 C40.31183539 71.72752871 41.05132368 84.15758563 41.7943182 96.58743531 C42.05464701 100.94577471 42.31265603 105.30424334 42.56872559 109.662835 C42.69040241 111.72941464 42.81298526 113.79593826 42.9359436 115.86244202 C43.08518128 118.37154101 43.23298371 120.880726 43.3789978 123.39001465 C43.77156678 129.9460106 44.28161298 136.47135281 45 143 C46.11181641 142.09121094 46.11181641 142.09121094 47.24609375 141.1640625 C70.53669061 122.47584425 97.91577017 111.02966858 128 110 C128.825 109.96003906 129.65 109.92007813 130.5 109.87890625 C167.12747906 108.92971853 201.26208843 123.34856197 227.68554688 148.28295898 C252.11474707 172.14431529 266.79144569 206.13071926 267.24145508 240.27124023 C267.27477785 252.13129108 266.57781829 263.41014964 264 275 C263.8443457 275.70108887 263.68869141 276.40217773 263.52832031 277.12451172 C255.5631794 311.15521854 233.24801139 340.04999664 204.10546875 358.70849609 C175.48974732 376.26150704 138.76312741 383.36916568 105.80078125 375.97265625 C83.26429501 370.20535402 63.78425743 361.23135596 46 346 C45.11828125 345.26394531 44.2365625 344.52789063 43.328125 343.76953125 C24.58533627 327.54166473 11.52963191 305.0430949 4.625 281.375 C4.3863623 280.56546875 4.14772461 279.7559375 3.90185547 278.921875 C-0.45620453 263.04000776 -0.27850113 247.13187987 -0.22705078 230.79711914 C-0.22648578 228.27277125 -0.22680497 225.74842302 -0.22793579 223.22407532 C-0.22838895 217.81732281 -0.22277353 212.41063259 -0.21146011 207.0038929 C-0.19511418 199.18694318 -0.18998787 191.37001672 -0.18748413 183.55305176 C-0.18312119 170.86649059 -0.16985037 158.17995533 -0.15087891 145.4934082 C-0.13248366 133.17928191 -0.11834506 120.86516268 -0.10986328 108.55102539 C-0.10933783 107.79029538 -0.10881239 107.02956536 -0.10827102 106.24578292 C-0.10566069 102.42892024 -0.10313334 98.61205751 -0.10064721 94.79519475 C-0.0799584 63.19677766 -0.04462128 31.59839279 0 0 Z M66 185 C49.59526989 204.08476617 42.40520295 228.24801407 44.23828125 253.25 C46.77024612 275.34714795 56.31776073 293.52350439 72 309 C72.73992187 309.73863281 73.47984375 310.47726562 74.2421875 311.23828125 C90.27508863 326.36088946 111.69598944 333.72332347 133.5 334.375 C158.06613594 333.64076929 179.61865916 324.38134084 197 307 C197.76957031 306.23042969 198.53914062 305.46085938 199.33203125 304.66796875 C211.16281873 292.19223204 219.41816655 276.10045532 222 259 C222.10957031 258.30132813 222.21914062 257.60265625 222.33203125 256.8828125 C225.5466408 232.79467158 218.8680319 208.81760246 204.3125 189.4375 C190.09748833 171.20235134 169.28496841 158.20809421 146.15917969 155.2109375 C115.18608901 152.18507247 87.27217296 162.04593629 66 185 Z " fill="#AB2D2A" transform="translate(812,487)"/>
<path d="M0 0 C36.14598454 -0.87759598 70.24543573 13.46678807 96.39941406 38.03051758 C122.16845247 63.06839044 136.03480992 98.20186989 136.63671875 133.875 C136.44921875 141.125 136.44921875 141.125 134.44921875 156.125 C62.50921875 156.125 -9.43078125 156.125 -83.55078125 156.125 C-78.31492903 170.08727258 -73.8825379 180.95579569 -64.55078125 192.125 C-63.76960938 193.12466797 -63.76960938 193.12466797 -62.97265625 194.14453125 C-49.68335433 210.49811395 -27.58918852 220.31787587 -7.03515625 222.80859375 C21.50621187 225.40035476 51.64160887 216.64212271 74.19140625 199.0078125 C76.46479474 197.16955527 76.46479474 197.16955527 78.44921875 195.125 C80.32217407 194.88449097 80.32217407 194.88449097 82.62353516 194.89794922 C83.91464706 194.89817581 83.91464706 194.89817581 85.23184204 194.89840698 C86.16209198 194.90872955 87.09234192 194.91905212 88.05078125 194.9296875 C89.4781813 194.93393234 89.4781813 194.93393234 90.93441772 194.93826294 C93.98114467 194.94948011 97.02758029 194.97458737 100.07421875 195 C102.13671451 195.01002782 104.19921487 195.01915401 106.26171875 195.02734375 C111.32433142 195.04942446 116.38672565 195.0839647 121.44921875 195.125 C110.10045504 224.01059015 83.10772432 245.71891854 55.51953125 258 C48.62625365 260.94650786 41.73895629 263.37197872 34.44921875 265.125 C33.79550293 265.28581055 33.14178711 265.44662109 32.46826172 265.61230469 C12.85338029 270.20473408 -9.02594394 270.01115483 -28.55078125 265.125 C-29.22544434 264.96402832 -29.90010742 264.80305664 -30.59521484 264.63720703 C-47.76364607 260.46629993 -63.55397677 252.89897935 -77.55078125 242.125 C-78.50339844 241.39410156 -79.45601562 240.66320312 -80.4375 239.91015625 C-103.95750613 221.24504679 -120.04880702 196.23266001 -127.55078125 167.125 C-127.85113281 165.96871094 -128.15148437 164.81242188 -128.4609375 163.62109375 C-135.92279618 129.22713116 -129.30930348 91.47870665 -110.42382812 61.87719727 C-99.00991914 44.47521343 -84.30565276 29.94180033 -66.55078125 19.125 C-65.94830566 18.75294434 -65.34583008 18.38088867 -64.72509766 17.99755859 C-45.18884207 6.14717146 -22.61321489 1.10815142 0 0 Z M-63.953125 74.0859375 C-73.33539027 85.06248243 -81.15263346 97.73611324 -83.55078125 112.125 C-26.79078125 112.125 29.96921875 112.125 88.44921875 112.125 C87.02447369 105.71364725 85.74754638 100.89086652 82.82421875 95.25 C82.4694043 94.55874023 82.11458984 93.86748047 81.74902344 93.15527344 C70.66537325 72.07575836 52.63571821 56.29731989 29.8671875 48.97265625 C-4.61041205 38.82793848 -39.1511917 48.15166262 -63.953125 74.0859375 Z " fill="#AB2D2A" transform="translate(324.55078125,596.875)"/>
<path d="M0 0 C35.51030459 -0.91052063 69.34342855 12.94002065 95.17260742 36.97314453 C119.67074441 60.24980127 135.56985452 93.1667106 136.55496407 127.23802376 C136.58752207 130.94624198 136.58851452 134.65322269 136.57836914 138.36157227 C136.57808659 139.78160093 136.57824633 141.20162974 136.57881165 142.62165833 C136.57909697 146.45159473 136.57324324 150.28149942 136.56623769 154.1114285 C136.55995987 158.1232698 136.55939686 162.13511194 136.55821228 166.1469574 C136.55511197 173.73276483 136.5469162 181.31855775 136.53686279 188.9043588 C136.52566116 197.54527172 136.52018102 206.18618536 136.51516736 214.82710373 C136.50473243 232.59177696 136.48640321 250.3564303 136.46484375 268.12109375 C124.58484375 268.12109375 112.70484375 268.12109375 100.46484375 268.12109375 C96.52734375 252.74609375 96.52734375 252.74609375 95.28930664 247.89697266 C94.96696045 246.64319824 94.64461426 245.38942383 94.3125 244.09765625 C94.14488159 243.43854248 93.97726318 242.77942871 93.80456543 242.1003418 C92.88525313 238.52127304 92.88525313 238.52127304 91.46484375 235.12109375 C90.79582031 235.72695313 90.12679687 236.3328125 89.4375 236.95703125 C76.93350486 247.86655721 63.11047025 255.64080248 47.46484375 261.12109375 C46.41167969 261.49878906 45.35851562 261.87648438 44.2734375 262.265625 C10.38864171 273.5888296 -26.68610722 269.64081607 -58.52636719 254.1484375 C-91.05320781 237.5134174 -113.92732795 208.665511 -125.28515625 174.2421875 C-132.33577724 151.73402994 -133.26415953 126.01391252 -127.53515625 103.12109375 C-127.37418457 102.44643066 -127.21321289 101.77176758 -127.04736328 101.07666016 C-118.60309128 66.31805736 -95.85486994 37.47136779 -65.76171875 18.75 C-45.62412324 6.61876564 -23.35132988 1.1153948 0 0 Z M-64.89453125 75.60449219 C-80.9612616 93.85677041 -88.05849371 118.03707389 -86.53515625 142.12109375 C-84.01631668 166.03034722 -72.94641623 187.99064458 -54.58422852 203.53417969 C-36.18676216 218.35974937 -12.23174192 226.39673366 11.43408203 223.91455078 C33.00343565 221.21774434 51.02910976 212.53062106 66.46484375 197.12109375 C67.23441406 196.363125 68.00398437 195.60515625 68.796875 194.82421875 C84.77532949 178.16525086 92.46002931 155.3308046 92.53076172 132.5078125 C91.85333203 107.97983975 81.26681407 85.29915122 63.6015625 68.30859375 C52.55788642 58.17792231 38.97304553 50.88864687 24.46484375 47.12109375 C23.65917969 46.89808594 22.85351562 46.67507813 22.0234375 46.4453125 C-10.33423276 39.0015292 -42.99204977 51.70372396 -64.89453125 75.60449219 Z " fill="#AB2D2A" transform="translate(633.53515625,596.87890625)"/>
<path d="M0 0 C11.88 0 23.76 0 36 0 C36.10831146 3.0884024 36.21662292 6.17680481 36.32821655 9.35879517 C37.32363396 37.72229544 38.32652815 66.08552122 39.33750977 94.44847069 C39.47018064 98.17072322 39.60278627 101.89297808 39.73535156 105.61523438 C39.77493793 106.72672047 39.77493793 106.72672047 39.81532402 107.86066084 C40.24170594 119.8367645 40.66281062 131.81304813 41.08194308 143.78940745 C41.51257572 156.0909904 41.94893053 168.39236091 42.39052641 180.69355524 C42.66253004 188.27552001 42.9301432 195.85761303 43.19202603 203.43993424 C43.39378933 209.26769896 43.60353848 215.0951558 43.81617165 220.92253304 C43.90180865 223.30314433 43.984911 225.68384845 44.06521034 228.06464577 C45.02027174 256.28120616 48.3707213 282.2648983 68 304 C68.65226562 304.74507812 69.30453125 305.49015625 69.9765625 306.2578125 C87.25060312 324.82578875 109.54836287 330.73978172 134 334 C134 348.52 134 363.04 134 378 C117.45955882 378 117.45955882 378 111.4375 376.9375 C110.32785889 376.74450317 110.32785889 376.74450317 109.19580078 376.54760742 C84.85325149 371.92358605 62.27946312 361.02127612 44.21875 344.04296875 C42.00790127 341.94914073 42.00790127 341.94914073 39.48828125 340.0546875 C34.97073368 336.3243421 31.59671205 331.59579873 28 327 C27.33742188 326.17628906 26.67484375 325.35257813 25.9921875 324.50390625 C8.27902585 301.51982403 -0.20708931 273.03366698 -0.12025452 244.23692322 C-0.12110894 243.18792754 -0.12196337 242.13893187 -0.12284368 241.05814844 C-0.12448372 237.56210408 -0.11900136 234.06610827 -0.11352539 230.57006836 C-0.11324317 228.05645753 -0.11340193 225.54284662 -0.1139679 223.02923584 C-0.11419522 217.62730739 -0.1113687 212.22539443 -0.10573006 206.82346916 C-0.09758298 199.01331454 -0.09499655 191.20316575 -0.09374207 183.39300735 C-0.09155658 170.71976525 -0.08491016 158.04652961 -0.07543945 145.37329102 C-0.0662523 133.06665072 -0.05917785 120.76001218 -0.05493164 108.45336914 C-0.05466892 107.69404978 -0.05440619 106.93473042 -0.05413551 106.15240138 C-0.05283042 102.34289893 -0.05156672 98.53339647 -0.05032361 94.723894 C-0.03996667 63.14925783 -0.02208573 31.57463025 0 0 Z " fill="#AB2D2A" transform="translate(1121,487)"/>
<path d="M0 0 C4.67274394 2.95438004 8.86048027 6.29099849 13.02734375 9.9140625 C14.25904297 10.92919922 14.25904297 10.92919922 15.515625 11.96484375 C29.83360188 24.14514446 42.65291449 42.29080331 44.3359375 61.421875 C44.57967976 68.37960859 44.45220867 74.29108031 40.02734375 79.9140625 C36.11418895 84.08452063 31.86103707 86.5829516 26.15234375 87.25 C4.70450957 87.51809793 -12.68346422 75.98684262 -27.66015625 61.6640625 C-40.76610789 48.06210687 -51.44999463 31.32381461 -51.97265625 11.9140625 C-51.64021132 6.14376833 -50.31965948 0.94193492 -46.63671875 -3.61328125 C-33.34561489 -15.37559617 -13.24536758 -7.54584578 0 0 Z " fill="#DC890D" transform="translate(1305.97265625,672.0859375)"/>
<path d="M0 0 C4.02585789 2.88519816 6.31276039 6.65703118 7.875 11.34375 C9.54181232 31.2502514 2.22474471 46.83254084 -10.4375 62.03125 C-23.72411303 77.43205974 -41.84175908 91.87479521 -62.84765625 93.5625 C-69.83451448 93.79315282 -75.85277248 93.39359312 -81.13671875 88.46875 C-87.11061779 81.87686141 -87.64809541 76.52984314 -87.4609375 67.74609375 C-86.56660086 50.89043493 -75.92235277 36.54111477 -65.125 24.34375 C-64.51269531 23.64765625 -63.90039062 22.9515625 -63.26953125 22.234375 C-49.01463296 7.03725529 -21.13417417 -10.87788377 0 0 Z " fill="#DC890D" transform="translate(1428.125,728.65625)"/>
<path d="M0 0 C4.69969102 2.93730689 8.88592661 6.28255578 13.0625 9.9140625 C14.29419922 10.92919922 14.29419922 10.92919922 15.55078125 11.96484375 C29.86875813 24.14514446 42.68807074 42.29080331 44.37109375 61.421875 C44.64949393 69.36893466 44.15551462 75.44163923 38.671875 81.43359375 C32.87833902 86.72400687 26.8722683 87.3859847 19.328125 87.21875 C2.01282507 85.60320766 -12.56205385 75.3609281 -24.9375 63.9140625 C-25.68644531 63.24632812 -26.43539063 62.57859375 -27.20703125 61.890625 C-39.86338763 50.05805513 -50.4713743 31.92027931 -51.8984375 14.53125 C-51.99725118 7.91073377 -50.78515156 1.60716137 -46.52734375 -3.61328125 C-33.41435782 -15.75970802 -13.24985623 -7.48489474 0 0 Z " fill="#DC890D" transform="translate(1305.9375,409.0859375)"/>
<path d="M0 0 C4.02585789 2.88519816 6.31276039 6.65703118 7.875 11.34375 C9.24408283 30.71290548 2.50124851 46.59097542 -10.125 61.34375 C-10.76824219 62.13136719 -11.41148438 62.91898438 -12.07421875 63.73046875 C-24.66259355 78.55264019 -43.12703263 91.70482753 -62.9609375 93.6171875 C-69.63406072 93.85486038 -75.49122329 93.16012928 -80.87890625 88.984375 C-85.04560202 85.08876546 -86.87740839 81.65286758 -87.49609375 75.8828125 C-87.84601972 55.2577644 -78.60295853 39.56929462 -65.125 24.34375 C-64.51269531 23.64765625 -63.90039062 22.9515625 -63.26953125 22.234375 C-48.83486016 6.84559985 -21.28917821 -10.95766525 0 0 Z " fill="#DC890D" transform="translate(1428.125,465.65625)"/>
<path d="M0 0 C5.65390999 5.95952674 6.44768376 11.52549058 6.43383789 19.56347656 C5.87560419 40.12315425 -8.86579768 57.6276936 -23.0078125 71.24609375 C-36.11558674 83.51021607 -53.14453042 91.75799305 -71.16796875 91.31640625 C-77.3929893 90.80241373 -80.96205386 89.0915763 -85.375 84.5625 C-90.46214966 76.54045631 -90.12575657 66.87815932 -88.3828125 57.77734375 C-81.34823017 34.65037617 -62.84293081 14.58209265 -42 3 C-28.97948481 -3.64078908 -13.04458101 -9.5837738 0 0 Z " fill="#DC890D" transform="translate(1430,599)"/>
<path d="M0 0 C1.12595581 0.01353516 1.12595581 0.01353516 2.2746582 0.02734375 C22.43752228 0.64807115 39.68999841 14.63461702 53.203125 28.453125 C65.83686692 42.18069739 74.64473971 59.09661124 74.2265625 77.93359375 C73.6160625 84.01824371 71.76408542 87.64286885 67.375 91.8125 C59.46321046 96.9551632 52.12789505 96.97330438 42.98046875 95.22265625 C28.63041956 91.59453061 16.36465911 83.67369151 5.875 73.4375 C5.029375 72.633125 4.18375 71.82875 3.3125 71 C2.508125 70.154375 1.70375 69.30875 0.875 68.4375 C0.20984375 67.7671875 -0.4553125 67.096875 -1.140625 66.40625 C-13.18480583 53.78853675 -21.1174635 37.98878582 -22.125 20.4375 C-21.86440186 14.05284555 -20.2104994 9.67046224 -15.953125 4.91015625 C-10.9596194 0.88761007 -6.28532654 -0.09079357 0 0 Z " fill="#DC890D" transform="translate(1276.125,531.5625)"/>
<path d="M0 0 C35.31 0 70.62 0 107 0 C107 3.3 107 6.6 107 10 C71.69 10 36.38 10 0 10 C0 6.7 0 3.4 0 0 Z " fill="#525252" transform="translate(662,499)"/>
<path d="M0 0 C34.98 0 69.96 0 106 0 C106 3.3 106 6.6 106 10 C71.02 10 36.04 10 0 10 C0 6.7 0 3.4 0 0 Z " fill="#525252" transform="translate(241,499)"/>
<path d="M0 0 C7 0 7 0 8.72509766 1.17407227 C9.31363525 1.98702759 9.31363525 1.98702759 9.9140625 2.81640625 C10.59082031 3.71649414 10.59082031 3.71649414 11.28125 4.63476562 C11.94640625 5.58899414 11.94640625 5.58899414 12.625 6.5625 C13.07617188 7.17158203 13.52734375 7.78066406 13.9921875 8.40820312 C15.35299186 10.25584697 16.67777701 12.12453919 18 14 C20.475 17.465 20.475 17.465 23 21 C23.33 14.07 23.66 7.14 24 0 C26.31 0 28.62 0 31 0 C31 11.55 31 23.1 31 35 C24 35 24 35 22.27490234 33.82592773 C21.88254395 33.28395752 21.49018555 32.7419873 21.0859375 32.18359375 C20.63476562 31.58353516 20.18359375 30.98347656 19.71875 30.36523438 C19.2753125 29.72908203 18.831875 29.09292969 18.375 28.4375 C17.69824219 27.52387695 17.69824219 27.52387695 17.0078125 26.59179688 C15.64700814 24.74415303 14.32222299 22.87546081 13 21 C11.35 18.69 9.7 16.38 8 14 C7.67 20.93 7.34 27.86 7 35 C4.69 35 2.38 35 0 35 C0 23.45 0 11.9 0 0 Z " fill="#525252" transform="translate(1076,923)"/>
<path d="M0 0 C8 0 8 0 10.79296875 2.59765625 C11.61769444 3.73379836 12.41557576 4.88984305 13.1875 6.0625 C13.58646484 6.62388672 13.98542969 7.18527344 14.39648438 7.76367188 C15.6201548 9.49341602 16.80994913 11.24695606 18 13 C19.65 15.31 21.3 17.62 23 20 C23.33 13.4 23.66 6.8 24 0 C26.31 0 28.62 0 31 0 C31 11.22 31 22.44 31 34 C24 34 24 34 21.9519043 32.39526367 C21.41476807 31.66025635 20.87763184 30.92524902 20.32421875 30.16796875 C19.72416016 29.36939453 19.12410156 28.57082031 18.50585938 27.74804688 C17.90580078 26.90306641 17.30574219 26.05808594 16.6875 25.1875 C16.06810547 24.35412109 15.44871094 23.52074219 14.81054688 22.66210938 C12.46244964 19.48797141 10.19019862 16.28529793 8 13 C7.67 19.93 7.34 26.86 7 34 C4.69 34 2.38 34 0 34 C0 22.78 0 11.56 0 0 Z " fill="#525252" transform="translate(417,487)"/>
<path d="M0 0 C14 0 14 0 20 3 C21.18297571 5.36595143 21.10136311 6.80776319 21.0625 9.4375 C21.05347656 10.21996094 21.04445313 11.00242187 21.03515625 11.80859375 C21.02355469 12.53175781 21.01195312 13.25492188 21 14 C20.7148021 17.04586933 20.7148021 17.04586933 22.5625 19.25 C24.52632444 23.00688153 24.15352301 24.96266948 23 29 C20.69074507 32.03502077 19.08986387 33.65443341 15.4375 34.8125 C10.29892561 35.09278588 5.14621287 35 0 35 C0 23.45 0 11.9 0 0 Z M7 6 C7 8.64 7 11.28 7 14 C9.41645782 14.16687448 9.41645782 14.16687448 12 14 C12.66 13.34 13.32 12.68 14 12 C13.71016731 8.69316534 13.71016731 8.69316534 12 6 C10.33382885 5.95936168 8.66611905 5.957279 7 6 Z M7 20 C7 22.64 7 25.28 7 28 C11.00254456 28.09181134 11.00254456 28.09181134 15 28 C16.27003323 26.94689723 16.27003323 26.94689723 16.1875 24.5625 C16.26839983 21.83265325 16.26839983 21.83265325 14 20 C10.41656024 19.83322718 10.41656024 19.83322718 7 20 Z " fill="#525252" transform="translate(933,923)"/>
<path d="M0 0 C14 0 14 0 19 3 C21.54357983 6.05229579 22.00903645 7.49395901 21.9375 11.5 C20.93441978 15.24483282 19.6309397 17.19932226 17 20 C17.40992188 20.58007812 17.81984375 21.16015625 18.2421875 21.7578125 C21.21028607 26.06084535 23.68426126 29.8686189 25 35 C20.06953477 36.14457229 20.06953477 36.14457229 17 35 C14.4907219 31.80001469 12.58250331 28.5128773 10.6640625 24.94140625 C9.32027846 21.92752517 9.32027846 21.92752517 7 21 C7 25.62 7 30.24 7 35 C4.69 35 2.38 35 0 35 C0 23.45 0 11.9 0 0 Z M7 6 C7 9.3 7 12.6 7 16 C10.79547921 15.03223902 10.79547921 15.03223902 14 13 C14.33343551 10.54207971 14.33343551 10.54207971 14 8 C11.04622502 5.63019987 11.04622502 5.63019987 7 6 Z " fill="#525252" transform="translate(965,923)"/>
<path d="M0 0 C3.58873886 1.70648195 5.56331099 4.14647148 7.375 7.6875 C8.792093 15.19809293 8.70175549 22.16598986 5 29 C2.40803146 32.28316015 0.03429821 33.89973685 -4 35 C-8.35020325 35.41678594 -12.24386607 35.50408929 -16 33 C-15.67 31.02 -15.34 29.04 -15 27 C-14.38511719 27.08378906 -13.77023437 27.16757812 -13.13671875 27.25390625 C-12.32847656 27.35574219 -11.52023437 27.45757813 -10.6875 27.5625 C-9.88699219 27.66691406 -9.08648438 27.77132812 -8.26171875 27.87890625 C-5.83182884 28.14755178 -5.83182884 28.14755178 -3 27 C-1.78130071 24.49552484 -1.78130071 24.49552484 -1 22 C-1.74765625 22.04640625 -2.4953125 22.0928125 -3.265625 22.140625 C-11.38645418 22.43824701 -11.38645418 22.43824701 -14.625 20.125 C-17.45009959 15.75893699 -17.49613411 12.12081283 -17 7 C-13.80800593 -0.50118607 -7.43997571 -1.13829281 0 0 Z M-8 6 C-10.35014158 8.837578 -10.35014158 8.837578 -9.6875 12.125 C-9.29355679 14.88086422 -9.29355679 14.88086422 -8 16 C-3.85723125 16.24733137 -3.85723125 16.24733137 0 15 C0.34778172 10.8539119 0.34778172 10.8539119 -1.1875 7.125 C-3.63936422 5.60315324 -5.16818902 5.56433677 -8 6 Z " fill="#525252" transform="translate(573,487)"/>
<path d="M0 0 C1.53333984 0.00966797 1.53333984 0.00966797 3.09765625 0.01953125 C5.53822799 0.16388419 7.60589596 0.48857793 9.9375 1.1875 C9.9375 3.4975 9.9375 5.8075 9.9375 8.1875 C8.7 7.94 8.7 7.94 7.4375 7.6875 C2.39792157 6.96756022 -2.10754632 6.38001913 -6.9375 8.375 C-9.55032922 10.60358963 -10.31584868 11.82756906 -11.0625 15.1875 C-11.12955501 19.39520217 -10.7809107 22.28369299 -8.125 25.625 C-5.17252345 27.86172466 -3.57958413 28.30874329 0.0625 28.25 C1.980625 28.2190625 1.980625 28.2190625 3.9375 28.1875 C3.9375 24.5575 3.9375 20.9275 3.9375 17.1875 C6.2475 17.1875 8.5575 17.1875 10.9375 17.1875 C10.9375 22.4675 10.9375 27.7475 10.9375 33.1875 C3.45014697 35.32674372 -2.94343386 36.56052205 -10.4375 34.0625 C-14.1604703 31.4032355 -16.99293557 28.32662885 -19.0625 24.1875 C-19.56488635 17.73376762 -20.00691685 11.62807496 -16.0625 6.1875 C-11.14384009 1.52771692 -6.73005557 -0.09359116 0 0 Z " fill="#525252" transform="translate(1134.0625,922.8125)"/>
<path d="M0 0 C1.98 0 3.96 0 6 0 C9.35909641 7.04118285 12.37629027 14.21171212 15.3125 21.4375 C15.67408203 22.31374023 16.03566406 23.18998047 16.40820312 24.09277344 C16.74400391 24.92711914 17.07980469 25.76146484 17.42578125 26.62109375 C17.72911377 27.3680249 18.03244629 28.11495605 18.3449707 28.88452148 C19 31 19 31 19 35 C16.69 35 14.38 35 12 35 C11.01 32.03 10.02 29.06 9 26 C5.37 26.33 1.74 26.66 -2 27 C-2.99 29.64 -3.98 32.28 -5 35 C-7.31 35 -9.62 35 -12 35 C-11.4445681 30.0287463 -10.35554595 25.82935024 -8.49609375 21.19140625 C-8.2533522 20.57982162 -8.01061066 19.968237 -7.76051331 19.33811951 C-6.99332827 17.4099639 -6.21564062 15.48625664 -5.4375 13.5625 C-4.91140522 12.24572382 -4.38600802 10.92866871 -3.86132812 9.61132812 C-2.58225921 6.40429089 -1.29374382 3.20114996 0 0 Z M3 11 C2.01 13.97 1.02 16.94 0 20 C1.98 20 3.96 20 6 20 C5.34 17.03 4.68 14.06 4 11 C3.67 11 3.34 11 3 11 Z " fill="#525252" transform="translate(1007,923)"/>
<path d="M0 0 C3.1875 1.625 3.1875 1.625 5 4 C6.40401143 8.39923582 6.08177708 10.94474638 4 15 C1.43359375 17.60546875 1.43359375 17.60546875 -1.5625 20.1875 C-5.29013842 23.19095054 -5.29013842 23.19095054 -8 27 C-1.07 27.495 -1.07 27.495 6 28 C6 29.98 6 31.96 6 34 C-1.92 34 -9.84 34 -18 34 C-16.60339806 22.82718447 -16.60339806 22.82718447 -10.76953125 18.25 C-9.17567019 17.0742424 -7.56170187 15.92508949 -5.92578125 14.80859375 C-3.57497024 12.60083412 -3.22724032 11.17607988 -3 8 C-4.14777125 6.62575941 -4.14777125 6.62575941 -7.25 6.875 C-10.33603789 6.97786793 -13.01424114 7.27617967 -16 8 C-16.33 6.02 -16.66 4.04 -17 2 C-11.38316101 -0.58126792 -6.08840978 -0.67368296 0 0 Z " fill="#525252" transform="translate(604,487)"/>
<path d="M0 0 C1.11246094 -0.02835937 2.22492187 -0.05671875 3.37109375 -0.0859375 C7.25452108 0.47494919 8.87219357 1.55189965 11.5625 4.375 C12.66345374 7.49046483 12.38774346 10.19937961 11.5625 13.375 C8.25238362 18.67118621 3.36459998 22.48758573 -1.4375 26.375 C-1.7675 27.035 -2.0975 27.695 -2.4375 28.375 C2.5125 28.375 7.4625 28.375 12.5625 28.375 C12.5625 30.355 12.5625 32.335 12.5625 34.375 C4.6425 34.375 -3.2775 34.375 -11.4375 34.375 C-11.4375 27.75374498 -10.57918557 25.26541134 -6.4375 20.375 C-4.13770845 18.48518827 -1.80389874 16.7651634 0.671875 15.11328125 C3.01994149 12.95441847 3.33351574 11.51312526 3.5625 8.375 C2.41472875 7.00075941 2.41472875 7.00075941 -0.6875 7.25 C-3.77353789 7.35286793 -6.45174114 7.65117967 -9.4375 8.375 C-9.7675 6.395 -10.0975 4.415 -10.4375 2.375 C-6.94878995 0.24253665 -4.05199891 0.04684392 0 0 Z " fill="#525252" transform="translate(627.4375,486.625)"/>
<path d="M0 0 C6.6 0 13.2 0 20 0 C19.34 1.98 18.68 3.96 18 6 C14.37 6 10.74 6 7 6 C7 8.64 7 11.28 7 14 C10.63 14 14.26 14 18 14 C18 15.98 18 17.96 18 20 C14.37 20 10.74 20 7 20 C7 22.97 7 25.94 7 29 C11.29 29 15.58 29 20 29 C20 30.65 20 32.3 20 34 C19 35 19 35 17.14233398 35.11352539 C15.95619507 35.10567017 15.95619507 35.10567017 14.74609375 35.09765625 C13.9770874 35.09515869 13.20808105 35.09266113 12.41577148 35.09008789 C11.43294189 35.08098389 10.4501123 35.07187988 9.4375 35.0625 C4.7659375 35.0315625 4.7659375 35.0315625 0 35 C0 23.45 0 11.9 0 0 Z " fill="#525252" transform="translate(853,923)"/>
<path d="M0 0 C0.99 0.33 1.98 0.66 3 1 C3 3.31 3 5.62 3 8 C-2.445 7.505 -2.445 7.505 -8 7 C-8 8.32 -8 9.64 -8 11 C-6.1267135 12.69728865 -6.1267135 12.69728865 -3.6875 14.0625 C2.12281031 17.58985425 2.12281031 17.58985425 4 20 C4.68880655 23.06518917 4.58893897 25.9202274 4 29 C1.47031526 32.28175318 -0.07731331 33.69243777 -4 35 C-9.24689773 35.25804415 -13.05295901 34.97881639 -18 33 C-17.625 30.0625 -17.625 30.0625 -17 27 C-16.34 26.67 -15.68 26.34 -15 26 C-14.2575 26.33 -13.515 26.66 -12.75 27 C-9.42503815 28.20907704 -7.39892549 27.79044779 -4 27 C-4.32361156 24.00163981 -4.85547914 23.12081638 -7.21484375 21.1484375 C-8.11332031 20.56320312 -9.01179688 19.97796875 -9.9375 19.375 C-14.88607595 16.11392405 -14.88607595 16.11392405 -17 14 C-17.84811586 9.4558845 -17.54590305 5.95533034 -15.25 1.9375 C-10.34598282 -0.9860487 -5.57761973 -0.55617291 0 0 Z " fill="#525252" transform="translate(388,487)"/>
<path d="M0 0 C1.86011719 0.00966797 1.86011719 0.00966797 3.7578125 0.01953125 C6.875 0.1875 6.875 0.1875 8.875 1.1875 C8.875 3.4975 8.875 5.8075 8.875 8.1875 C8.215 8.0225 7.555 7.8575 6.875 7.6875 C1.65242667 6.81707111 -2.4246534 6.13834997 -7.0625 9 C-9.75532062 11.85602187 -10.08664342 13.66968611 -10.375 17.5625 C-10.10549408 21.47033586 -9.60642225 23.19268005 -7.125 26.1875 C-4.46391415 28.0421962 -2.77665928 28.27245558 0.421875 27.85546875 C2.92671056 27.36370019 5.40025892 26.81219192 7.875 26.1875 C8.535 28.1675 9.195 30.1475 9.875 32.1875 C3.79760479 35.29085074 -1.65413134 36.58563384 -8.3359375 34.49609375 C-13.1032298 32.37828174 -15.850412 30.00962656 -18.125 25.1875 C-19.87357423 18.75177541 -19.13281415 13.12245896 -16.125 7.1875 C-11.20600407 1.25947926 -7.60988633 -0.08737865 0 0 Z " fill="#525252" transform="translate(475.125,486.8125)"/>
<path d="M0 0 C6.27 0 12.54 0 19 0 C18.67 1.98 18.34 3.96 18 6 C14.37 6 10.74 6 7 6 C7 8.64 7 11.28 7 14 C10.63 14 14.26 14 18 14 C18 15.98 18 17.96 18 20 C14.37 20 10.74 20 7 20 C7 22.97 7 25.94 7 29 C10.96 29 14.92 29 19 29 C19 30.98 19 32.96 19 35 C12.73 35 6.46 35 0 35 C0 23.45 0 11.9 0 0 Z " fill="#525252" transform="translate(906,923)"/>
<path d="M0 0 C1.051875 -0.00257813 2.10375 -0.00515625 3.1875 -0.0078125 C6 0.125 6 0.125 9 1.125 C9 3.435 9 5.745 9 8.125 C8.319375 7.96 7.63875 7.795 6.9375 7.625 C2.32964859 6.84068487 -1.47099763 6.44544339 -5.8125 8.375 C-8.19777062 10.2832165 -9.11189676 11.21848031 -10 14.125 C-10.46125206 18.27626853 -10.20364605 20.66679638 -8.5 24.5 C-5.74184634 27.39606135 -4.07319034 27.95636358 -0.10546875 28.1796875 C3.01002359 28.09876562 5.93617874 27.69946649 9 27.125 C9.33 29.105 9.66 31.085 10 33.125 C4.0689555 35.62228189 -2.06052409 36.25152821 -8.28125 34.47265625 C-12.39926326 32.68254974 -15.3531483 30.48496595 -17.37890625 26.31640625 C-19.03469158 20.47429576 -18.74937703 14.41476314 -16.875 8.6875 C-12.31190241 2.45126663 -7.7570993 -0.0190125 0 0 Z " fill="#525252" transform="translate(836,922.875)"/>
<path d="M0 0 C6.27 0 12.54 0 19 0 C18.67 1.98 18.34 3.96 18 6 C14.37 6 10.74 6 7 6 C7 8.64 7 11.28 7 14 C10.3 14 13.6 14 17 14 C17 15.98 17 17.96 17 20 C13.7 20 10.4 20 7 20 C7 22.97 7 25.94 7 29 C10.96 29 14.92 29 19 29 C19 30.98 19 32.96 19 35 C12.73 35 6.46 35 0 35 C0 23.45 0 11.9 0 0 Z " fill="#525252" transform="translate(1236,923)"/>
<path d="M0 0 C6.27 0 12.54 0 19 0 C18.67 1.98 18.34 3.96 18 6 C14.37 6 10.74 6 7 6 C7 8.64 7 11.28 7 14 C10.63 14 14.26 14 18 14 C18 15.98 18 17.96 18 20 C14.37 20 10.74 20 7 20 C7 22.64 7 25.28 7 28 C10.96 28 14.92 28 19 28 C19 29.98 19 31.96 19 34 C12.73 34 6.46 34 0 34 C0 22.78 0 11.56 0 0 Z " fill="#525252" transform="translate(492,487)"/>
<path d="M0 0 C8.91 0 17.82 0 27 0 C26.67 1.98 26.34 3.96 26 6 C23.03 6 20.06 6 17 6 C17.00785522 7.26444946 17.00785522 7.26444946 17.01586914 8.55444336 C17.03287826 11.67227936 17.04543406 14.79009177 17.05493164 17.90795898 C17.05997057 19.25920386 17.06680177 20.61044326 17.07543945 21.96166992 C17.08752419 23.90020434 17.09269828 25.838778 17.09765625 27.77734375 C17.10551147 29.52905884 17.10551147 29.52905884 17.11352539 31.31616211 C17 34 17 34 16 35 C13 35.125 13 35.125 10 35 C9 34 9 34 8.88647461 31.31616211 C8.89171143 30.14835205 8.89694824 28.98054199 8.90234375 27.77734375 C8.90556641 26.51728516 8.90878906 25.25722656 8.91210938 23.95898438 C8.92046597 22.61848891 8.92893093 21.27799412 8.9375 19.9375 C8.9425134 18.59310058 8.94707658 17.2486994 8.95117188 15.90429688 C8.96300512 12.60282059 8.97949029 9.30143197 9 6 C6.03 6 3.06 6 0 6 C0 4.02 0 2.04 0 0 Z " fill="#525252" transform="translate(1026,923)"/>
<path d="M0 0 C6.27 0 12.54 0 19 0 C18.67 1.98 18.34 3.96 18 6 C14.37 6 10.74 6 7 6 C7 8.64 7 11.28 7 14 C10.3 14 13.6 14 17 14 C17 15.98 17 17.96 17 20 C13.7 20 10.4 20 7 20 C7 24.95 7 29.9 7 35 C4.69 35 2.38 35 0 35 C0 23.45 0 11.9 0 0 Z " fill="#525252" transform="translate(1210,923)"/>
<path d="M0 0 C2.31 0 4.62 0 7 0 C7 9.57 7 19.14 7 29 C10.96 29 14.92 29 19 29 C19 30.98 19 32.96 19 35 C12.73 35 6.46 35 0 35 C0 23.45 0 11.9 0 0 Z " fill="#525252" transform="translate(1168,923)"/>
<path d="M0 0 C2.31 0 4.62 0 7 0 C7 9.57 7 19.14 7 29 C10.96 29 14.92 29 19 29 C19 30.98 19 32.96 19 35 C12.73 35 6.46 35 0 35 C0 23.45 0 11.9 0 0 Z " fill="#525252" transform="translate(881,923)"/>
<path d="M0 0 C0 11.22 0 22.44 0 34 C-2.31 34 -4.62 34 -7 34 C-7 25.42 -7 16.84 -7 8 C-8.98 8.99 -8.98 8.99 -11 10 C-12.32 10 -13.64 10 -15 10 C-15.33 8.02 -15.66 6.04 -16 4 C-14.65427347 3.31645636 -13.2978105 2.6540391 -11.9375 2 C-11.18339844 1.62875 -10.42929687 1.2575 -9.65234375 0.875 C-7 0 -7 0 0 0 Z " fill="#525252" transform="translate(547,487)"/>
<path d="M0 0 C2.31 0 4.62 0 7 0 C7 11.55 7 23.1 7 35 C4.69 35 2.38 35 0 35 C0 23.45 0 11.9 0 0 Z " fill="#525252" transform="translate(1193,923)"/>
<path d="M0 0 C2.31 0 4.62 0 7 0 C7 11.55 7 23.1 7 35 C4.69 35 2.38 35 0 35 C0 23.45 0 11.9 0 0 Z " fill="#525252" transform="translate(1059,923)"/>
<path d="M0 0 C2.31 0 4.62 0 7 0 C7 11.22 7 22.44 7 34 C4.69 34 2.38 34 0 34 C0 22.78 0 11.56 0 0 Z " fill="#525252" transform="translate(401,487)"/>
</svg>
