<?xml version="1.0" encoding="UTF-8"?>
<svg version="1.1" xmlns="http://www.w3.org/2000/svg" width="1383" height="924">
<path d="M0 0 C456.39 0 912.78 0 1383 0 C1383 304.92 1383 609.84 1383 924 C926.61 924 470.22 924 0 924 C0 619.08 0 314.16 0 0 Z " fill="#F1F0F8" transform="translate(0,0)"/>
<path d="M0 0 C5.13454062 0.26525302 8.26615781 3.18980375 12.125 6.25 C18.11844261 10.88053488 24.21802008 15.26946119 30.5 19.5 C37.13137544 23.97954274 43.57882641 28.62852155 49.94140625 33.48046875 C55.0165303 37.3246482 60.22542399 40.93563965 65.5 44.5 C72.13061503 48.98072059 78.57876504 53.62847475 84.94140625 58.48046875 C90.0165303 62.3246482 95.22542399 65.93563965 100.5 69.5 C107.13061503 73.98072059 113.57876504 78.62847475 119.94140625 83.48046875 C125.0165303 87.3246482 130.22542399 90.93563965 135.5 94.5 C142.13061503 98.98072059 148.57876504 103.62847475 154.94140625 108.48046875 C160.0165303 112.3246482 165.22542399 115.93563965 170.5 119.5 C177.13061503 123.98072059 183.57876504 128.62847475 189.94140625 133.48046875 C195.0165303 137.3246482 200.22542399 140.93563965 205.5 144.5 C212.13061503 148.98072059 218.57876504 153.62847475 224.94140625 158.48046875 C230.0165303 162.3246482 235.22542399 165.93563965 240.5 169.5 C247.1222812 173.9750889 253.56390074 178.61516532 259.91723633 183.46289062 C266.00257101 188.0740337 272.28620905 192.37407083 278.61914062 196.63671875 C282.5455009 199.28542738 286.35699337 201.96294437 290 205 C289.67 205.66 289.34 206.32 289 207 C270.84022313 207.07984599 252.68112747 207.10785661 234.52120686 207.07515812 C226.08803887 207.06116523 217.65550052 207.06375615 209.22241211 207.10620117 C201.86696222 207.14317931 194.51228034 207.14821287 187.15679711 207.11582941 C183.26638413 207.09979202 179.37741038 207.09911043 175.48711586 207.13676643 C171.81489888 207.1718047 168.14515284 207.16369088 164.47300339 207.12437057 C162.50376726 207.113972 160.53444739 207.14762246 158.56550598 207.1832428 C148.18996638 207.00415672 142.85068651 203.34172441 135 197 C133.4826163 195.90122774 131.95959911 194.81008711 130.42578125 193.734375 C129.053727 192.74090851 127.68263696 191.74610905 126.3125 190.75 C124.76695301 189.63017254 123.22137932 188.51038194 121.67578125 187.390625 C120.90186035 186.82923828 120.12793945 186.26785156 119.33056641 185.68945312 C115.55753406 182.95434063 111.77853632 180.22750086 108 177.5 C106.49996994 176.41670829 104.99996997 175.33337491 103.5 174.25 C102.7575 173.71375 102.015 173.1775 101.25 172.625 C40.5 128.75 40.5 128.75 38.24707031 127.12280273 C36.75693907 126.0466508 35.26670578 124.97064015 33.77636719 123.89477539 C29.87449825 121.07775591 25.97477897 118.25782345 22.078125 115.43359375 C21.26988281 114.84835937 20.46164062 114.263125 19.62890625 113.66015625 C18.08918228 112.54518372 16.55007825 111.42935437 15.01171875 110.3125 C13.63690489 109.31746898 12.25759187 108.32861335 10.87304688 107.34716797 C9.67173733 106.48313954 8.48837985 105.59324702 7.33007812 104.67236328 C5.65889209 103.33525321 5.65889209 103.33525321 3 102 C-1.50451705 102.84909427 -5.17161185 106.012675 -8.875 108.625 C-9.55844482 109.1008252 -10.24188965 109.57665039 -10.94604492 110.06689453 C-12.46697269 111.12646247 -13.98634059 112.18827192 -15.50439453 113.25195312 C-20.09946864 116.47057283 -24.70728178 119.67092029 -29.3125 122.875 C-30.29210693 123.55731689 -31.27171387 124.23963379 -32.28100586 124.94262695 C-40.77156848 130.85290977 -49.30441655 136.69965186 -57.84912109 142.53125 C-68.70794351 149.94630967 -79.51110374 157.43965323 -90.29980469 164.95629883 C-97.10056287 169.6901051 -103.92797271 174.3827756 -110.77416992 179.05053711 C-118.21695244 184.13212851 -125.61109286 189.28298162 -132.99804688 194.4453125 C-133.90876953 195.08082031 -134.81949219 195.71632813 -135.7578125 196.37109375 C-136.5533252 196.92724365 -137.34883789 197.48339355 -138.16845703 198.05639648 C-139.10286621 198.69778564 -140.03727539 199.3391748 -141 200 C-141.54553024 200.50851501 -142.09106049 201.01703003 -142.65312195 201.54095459 C-150.42008581 208.03946847 -159.69157527 206.75633285 -169.25390625 206.5859375 C-170.91270742 206.57710193 -172.57152538 206.57098941 -174.23034668 206.56762695 C-180.34132164 206.53632983 -186.45193712 206.45256176 -192.5625 206.375 C-206.236875 206.25125 -219.91125 206.1275 -234 206 C-234 161.45 -234 116.9 -234 71 C-220.18125 70.814375 -206.3625 70.62875 -192.125 70.4375 C-185.57422607 70.34553345 -185.57422607 70.34553345 -178.89111328 70.25170898 C-173.56811523 70.18371582 -173.56811523 70.18371582 -171.07809448 70.1532135 C-169.33482391 70.13088564 -167.59157864 70.10652681 -165.84835815 70.08058167 C-163.21160496 70.04172867 -160.57484389 70.00927192 -157.93798828 69.97827148 C-157.15824205 69.96530501 -156.37849583 69.95233854 -155.57512093 69.93897915 C-150.22805267 69.88597366 -150.22805267 69.88597366 -148 71 C-147.67 81.56 -147.34 92.12 -147 103 C-145.164375 101.68 -143.32875 100.36 -141.4375 99 C-132.03808929 92.27043409 -122.52992901 85.69652546 -113.03320312 79.10546875 C-108.12438931 75.69806289 -103.21819187 72.28689854 -98.3125 68.875 C-97.35674072 68.21032715 -96.40098145 67.5456543 -95.41625977 66.86083984 C-88.45400736 62.01686326 -81.50365272 57.15611372 -74.55786133 52.28857422 C-67.23937141 47.16207826 -59.90350082 42.06075556 -52.56640625 36.9609375 C-45.56738837 32.09450627 -38.58037086 27.21124587 -31.6003418 22.31762695 C-26.96574821 19.07020169 -22.32414104 15.83316525 -17.67578125 12.60546875 C-16.61681641 11.87005859 -15.55785156 11.13464844 -14.46679688 10.37695312 C-12.39451147 8.93854326 -10.32161329 7.50101571 -8.24804688 6.06445312 C-7.31669922 5.41798828 -6.38535156 4.77152344 -5.42578125 4.10546875 C-4.59473877 3.52949951 -3.76369629 2.95353027 -2.9074707 2.36010742 C-1.08418058 1.13925108 -1.08418058 1.13925108 0 0 Z " fill="#912B20" transform="translate(663,292)"/>
<path d="M0 0 C10.29054898 8.07728235 16.40276631 20.81259995 18.07421875 33.6328125 C18.89278864 45.43544806 15.79409767 54.93744585 11.07421875 65.6328125 C10.40049432 67.2966387 9.731432 68.9623955 9.07421875 70.6328125 C9.57050781 71.1175 10.06679688 71.6021875 10.578125 72.1015625 C14.16250689 75.63833401 17.69028886 79.21537751 21.07421875 82.9453125 C21.65171875 83.58082031 22.22921875 84.21632813 22.82421875 84.87109375 C24.07421875 86.6328125 24.07421875 86.6328125 24.07421875 89.6328125 C19.84541464 89.77823217 15.61725462 89.86692777 11.38671875 89.9453125 C10.18853516 89.98720703 8.99035156 90.02910156 7.75585938 90.07226562 C-1.34109487 90.19896415 -1.34109487 90.19896415 -4.63671875 87.0078125 C-5.39210938 86.2240625 -6.1475 85.4403125 -6.92578125 84.6328125 C-10.36821794 84.57328795 -13.54501774 85.46918027 -16.86328125 86.3203125 C-33.06699557 89.92129269 -48.60465826 90.22595861 -63.3671875 81.3984375 C-74.66504032 73.60205662 -81.92161898 61.59680275 -84.55078125 48.1328125 C-86.17305994 32.35957275 -81.86688706 17.71591631 -72.21484375 5.171875 C-52.72474106 -16.44683958 -22.47156409 -15.95344307 0 0 Z " fill="#2F2A2B" transform="translate(589.92578125,542.3671875)"/>
<path d="M0 0 C7.26 0 14.52 0 22 0 C22.63040442 4.41283095 23.12327359 7.99303487 23.08178711 12.31762695 C23.0752562 13.30587967 23.06872528 14.29413239 23.06199646 15.31233215 C23.05056107 16.36039536 23.03912567 17.40845856 23.02734375 18.48828125 C23.01469578 20.74413908 23.00233495 22.99999854 22.99023438 25.25585938 C22.96546497 28.7841508 22.93750137 32.31235596 22.90405273 35.84057617 C22.87366078 39.26481645 22.85601805 42.68894829 22.83984375 46.11328125 C22.82638412 47.15527176 22.8129245 48.19726227 22.79905701 49.27082825 C22.76900237 58.14563512 23.01693359 66.96109834 29 74 C32.29256529 76.12447117 35.06131828 76.29783601 38.9375 76.3125 C40.46697266 76.33763672 40.46697266 76.33763672 42.02734375 76.36328125 C45.64337971 75.9213741 47.22478458 75.39116584 50 73 C54.86119607 65.62990315 54.60420108 57.64858028 54.609375 49.12109375 C54.62438205 47.69904216 54.64111444 46.27700784 54.65948486 44.85499573 C54.70288834 41.1413384 54.72309674 37.42791606 54.73822021 33.71405029 C54.75788971 29.9127427 54.79984805 26.11168532 54.83984375 22.31054688 C54.91485287 14.87373398 54.96325628 7.43711844 55 0 C62.59 0 70.18 0 78 0 C78.09709339 17.55232807 78.11128458 35.1049779 77.73654175 52.65444946 C77.70414577 54.24515843 77.6764882 55.83597177 77.65383911 57.42684937 C77.47464876 69.44180827 77.01692796 80.59233824 68.31640625 89.77734375 C58.37070193 99.24277261 46.65461153 100.4919596 33.53125 100.27734375 C23.3321399 99.85308441 15.43139822 95.3573337 8.28125 88.3046875 C1.70172323 81.11236166 -0.13063016 73.54478022 -0.11352539 63.91479492 C-0.11367142 63.22156128 -0.11381744 62.52832764 -0.1139679 61.81408691 C-0.11327451 59.53618171 -0.10550915 57.25835957 -0.09765625 54.98046875 C-0.09579003 53.39577784 -0.09436709 51.81108635 -0.09336853 50.22639465 C-0.08955943 46.0655049 -0.07974292 41.90465032 -0.06866455 37.74377441 C-0.05841582 33.49390132 -0.0538635 29.24402252 -0.04882812 24.99414062 C-0.03811916 16.66274251 -0.02053542 8.33137969 0 0 Z " fill="#302B2C" transform="translate(626,532)"/>
<path d="M0 0 C21.45 0 42.9 0 65 0 C65 7.26 65 14.52 65 22 C51.14 22 37.28 22 23 22 C23 27.28 23 32.56 23 38 C32.9 38 42.8 38 53 38 C53 45.59 53 53.18 53 61 C43.1 61 33.2 61 23 61 C23 66.28 23 71.56 23 77 C36.86 77 50.72 77 65 77 C65 84.26 65 91.52 65 99 C43.55 99 22.1 99 0 99 C0 66.33 0 33.66 0 0 Z " fill="#2E292A" transform="translate(429,532)"/>
<path d="M0 0 C23.95739469 -2.20704891 23.95739469 -2.20704891 30.16259766 1.18066406 C33.41738659 4.24853257 35.23459683 8.02671847 37.04345703 12.06640625 C38.63585756 15.2853476 40.88274637 17.96352687 43.125 20.75 C47 25.76470588 47 25.76470588 47 28 C52.25473641 23.31554506 55.86327864 17.57633761 59.75 11.75 C61.09816373 9.74425735 62.44708037 7.73902048 63.796875 5.734375 C64.68391113 4.40744629 64.68391113 4.40744629 65.58886719 3.05371094 C67 1 67 1 68 0 C70.14558827 -0.08775605 72.29404421 -0.10695219 74.44140625 -0.09765625 C75.74658203 -0.09443359 77.05175781 -0.09121094 78.39648438 -0.08789062 C79.7851569 -0.07953401 81.17382877 -0.07106905 82.5625 -0.0625 C83.95507656 -0.05748666 85.34765481 -0.05292347 86.74023438 -0.04882812 C90.1601987 -0.03699434 93.58007844 -0.0205088 97 0 C93.47354508 6.64171396 89.51875898 12.87193616 85.2734375 19.07421875 C84.32919418 20.46541679 84.32919418 20.46541679 83.36587524 21.88471985 C81.37249065 24.82142873 79.37434847 27.75484871 77.375 30.6875 C74.73278416 34.5635748 72.09543908 38.44289787 69.4609375 42.32421875 C68.85776703 43.20559006 68.25459656 44.08696136 67.63314819 44.99504089 C62.33633787 52.79976947 59.53697388 58.04507929 59.70703125 67.5546875 C59.71339851 68.90700974 59.71339851 68.90700974 59.71989441 70.28665161 C59.73660942 73.14974565 59.77424808 76.01212079 59.8125 78.875 C59.82755613 80.82290646 59.84124291 82.77082402 59.85351562 84.71875 C59.88393031 89.47966256 59.94266453 94.23903209 60 99 C52.41 99 44.82 99 37 99 C37.18304687 96.20660156 37.36609375 93.41320312 37.5546875 90.53515625 C38.7971199 63.18687312 34.18565372 46.5268165 16.77709961 25.44116211 C13.18731296 21.06717946 10.03669717 16.42095819 6.86352539 11.74072266 C5.26691657 9.39255933 3.62254185 7.09731244 1.9375 4.8125 C0 2 0 2 0 0 Z " fill="#2F2B2C" transform="translate(856,532)"/>
<path d="M0 0 C7.12691465 -0.02323152 14.25369256 -0.04305898 21.38061523 -0.05493164 C23.79403128 -0.05989258 26.20744443 -0.06666343 28.62084961 -0.07543945 C44.44377143 -0.13144397 60.19901305 0.13979423 76 1 C77.22625047 3.45250093 77.03425355 4.84310435 76.87890625 7.5703125 C76.83580322 8.37742676 76.7927002 9.18454102 76.74829102 10.01611328 C76.65632446 11.55501221 76.65632446 11.55501221 76.5625 13.125 C76.2840625 18.013125 76.2840625 18.013125 76 23 C67.42 23 58.84 23 50 23 C50.00523682 25.29702881 50.01047363 27.59405762 50.01586914 29.96069336 C50.03240555 37.53235636 50.04347143 45.10402013 50.05181217 52.67569637 C50.05704082 57.2684264 50.06413812 61.861138 50.07543945 66.45385742 C50.086269 70.88233688 50.09227698 75.31079856 50.09487724 79.73929024 C50.09673137 81.43265628 50.10035175 83.12602129 50.10573006 84.81937981 C50.1129414 87.18291232 50.1139909 89.54637045 50.11352539 91.90991211 C50.11712067 92.61697296 50.12071594 93.32403381 50.12442017 94.05252075 C50.11405216 98.88594784 50.11405216 98.88594784 49 100 C47.37742456 100.0991657 45.75060169 100.13079777 44.125 100.1328125 C43.14015625 100.13410156 42.1553125 100.13539063 41.140625 100.13671875 C40.10421875 100.13285156 39.0678125 100.12898437 38 100.125 C36.44539062 100.13080078 36.44539062 100.13080078 34.859375 100.13671875 C33.87453125 100.13542969 32.8896875 100.13414062 31.875 100.1328125 C30.96492187 100.13168457 30.05484375 100.13055664 29.1171875 100.12939453 C27 100 27 100 26 99 C25.90507278 96.65746218 25.87440209 94.34453896 25.88647461 92.00170898 C25.88632858 91.27004517 25.88618256 90.53838135 25.8860321 89.7845459 C25.88673133 87.35503216 25.89452415 84.92559417 25.90234375 82.49609375 C25.9042079 80.81600486 25.90563181 79.13591543 25.90663147 77.45582581 C25.91045693 73.02526357 25.92028744 68.5947339 25.93133545 64.16418457 C25.94154897 59.64657024 25.94612896 55.12895066 25.95117188 50.61132812 C25.96190969 41.74086877 25.97950671 32.87044219 26 24 C17.42 24 8.84 24 0 24 C0 16.08 0 8.16 0 0 Z " fill="#302B2D" transform="translate(773,531)"/>
<path d="M0 0 C7.59 0 15.18 0 23 0 C23 33 23 66 23 100 C15.41 100 7.82 100 0 100 C0 67 0 34 0 0 Z " fill="#2F2A2B" transform="translate(730,532)"/>
<path d="M0 0 C5.7277581 5.13560266 9.6847105 10.60628825 10.2421875 18.375 C10.43860778 28.8507485 10.43860778 28.8507485 8 34 C1.29178945 28.63343156 -4.28806145 22.38332373 -10 16 C-13.18849773 16.58496204 -14.8929959 17.4983461 -17.234375 19.72265625 C-17.80800781 20.26083984 -18.38164063 20.79902344 -18.97265625 21.35351562 C-19.55917969 21.91748047 -20.14570312 22.48144531 -20.75 23.0625 C-21.35199219 23.63033203 -21.95398438 24.19816406 -22.57421875 24.78320312 C-24.05563212 26.18231575 -25.5286488 27.59030947 -27 29 C-24.53027587 33.75221286 -21.1331304 37.03244405 -17.3125 40.6875 C-15.15464346 42.75363043 -13.06655656 44.83910705 -11 47 C-11 47.66 -11 48.32 -11 49 C-17.10373644 51.03457881 -23.77231479 50.84089921 -29.75 48.4375 C-36.30414122 45.09594321 -41.27572464 39.95746595 -44.27734375 33.2265625 C-46.90720992 25.12373159 -46.3055751 17.77701693 -43 10 C-38.42181259 1.49765195 -31.64427327 -2.84510056 -22.6875 -5.75 C-14.24121469 -6.53570096 -7.03797756 -4.78251831 0 0 Z " fill="#F1F0F8" transform="translate(574,559)"/>
</svg>
