<?xml version="1.0" encoding="UTF-8"?>
<svg version="1.1" xmlns="http://www.w3.org/2000/svg" width="390" height="209">
<path d="M0 0 C128.7 0 257.4 0 390 0 C390 68.97 390 137.94 390 209 C261.3 209 132.6 209 0 209 C0 140.03 0 71.06 0 0 Z " fill="#8CC53F" transform="translate(0,0)"/>
<path d="M0 0 C36.95340426 -0.04030303 36.95340426 -0.04030303 52.4140625 -0.04882812 C63.09798664 -0.05476652 73.78190291 -0.06175545 84.46582031 -0.07543945 C92.24613649 -0.08539977 100.02644628 -0.09185665 107.80676866 -0.09408849 C111.92721486 -0.0953933 116.04764283 -0.0984647 120.16808319 -0.10573006 C124.04544748 -0.1125115 127.92278599 -0.11461261 131.80015564 -0.11310768 C133.22397756 -0.11338305 134.64780033 -0.11537559 136.07161713 -0.11920547 C138.01451495 -0.12417578 139.95742658 -0.12238983 141.90032959 -0.12025452 C142.98804531 -0.12117631 144.07576103 -0.1220981 145.19643784 -0.12304783 C149.7444422 0.07656325 149.7444422 0.07656325 152 1 C152.74870635 2.72527985 153.49050239 4.45540148 154.14453125 6.21875 C155.44622768 8.92913161 157.59251974 10.28942192 160 12 C162.46128884 16.92257768 161.55556488 23.63498624 161 29 C158.7024694 35.32259375 154.37458779 39.26162471 148.359375 42.09765625 C140.70100278 45.02660324 140.70100278 45.02660324 137 44 C134.48608527 41.62862683 132.58903024 39.16348224 130.62890625 36.3203125 C129.20848565 33.90628797 129.20848565 33.90628797 127 33 C127.48210937 33.72445312 127.96421875 34.44890625 128.4609375 35.1953125 C129.09257812 36.16210938 129.72421875 37.12890625 130.375 38.125 C131.00148437 39.07632813 131.62796875 40.02765625 132.2734375 41.0078125 C135.48006623 46.56500166 136.6341555 50.6968288 135 57 C131.15503656 61.89443413 126.05950739 62.81135739 120.3125 64.55859375 C116.64944311 66.15254185 115.19251786 67.71670451 113 71 C111.515 70.505 111.515 70.505 110 70 C109.67 69.01 109.34 68.02 109 67 C108.34 66.67 107.68 66.34 107 66 C106.67 65.01 106.34 64.02 106 63 C105.4121875 63.99 105.4121875 63.99 104.8125 65 C103 67 103 67 100.3125 67.25 C99.549375 67.1675 98.78625 67.085 98 67 C97.67 65.35 97.34 63.7 97 62 C94.00847418 62.77479736 94.00847418 62.77479736 91 64 C90.505 65.485 90.505 65.485 90 67 C85.91621717 66.25749403 81.98060777 65.17076699 78 64 C78.495 67.465 78.495 67.465 79 71 C76.6875 70.75 76.6875 70.75 74 70 C72.96854629 68.69084721 71.96457834 67.35917857 71 66 C70.01 66 69.02 66 68 66 C69.485 66.99 69.485 66.99 71 68 C72.02734375 69.734375 72.02734375 69.734375 72.9375 71.75 C74.23305091 74.53694091 75.4288751 76.56796972 77.3125 79.0625 C79.48719624 82.84808235 79.03957555 84.84169779 78 89 C77.67 89.66 77.34 90.32 77 91 C76.59737573 95.02820435 76.59737573 95.02820435 78.04614258 98.6730957 C81.02352872 100.69509916 84.04176227 100.36903337 87.51171875 100.29296875 C88.23994339 100.28872391 88.96816803 100.28447906 89.71846008 100.28010559 C92.04185127 100.26332733 94.3643715 100.22567855 96.6875 100.1875 C98.26365934 100.17245197 99.83983229 100.15876377 101.41601562 100.14648438 C105.27767877 100.11342685 109.13869178 100.06165194 113 100 C113.33 101.65 113.66 103.3 114 105 C110.87829897 107.60141752 107.56588307 109.24988112 103.90234375 110.9375 C101.72834734 112.15172387 100.4509981 112.95621608 99 115 C98.48375733 118.25507357 98.48375733 118.25507357 98.5625 121.875 C98.53349609 123.69644531 98.53349609 123.69644531 98.50390625 125.5546875 C99.0833065 129.57855381 100.17101265 131.140429 103 134 C108.41126583 137.78788608 113.51619264 139.00851236 120 140 C120 141.98 120 143.96 120 146 C118.33984375 146.6796875 118.33984375 146.6796875 116 147 C113.37890625 145.8203125 113.37890625 145.8203125 110.5625 144.125 C103.19341706 139.71789894 95.14228526 138.59131401 86.68359375 140.53125 C80.64168784 142.64075795 76.61869058 145.4591113 73.6875 151.25 C73.11293953 152.49450252 72.54621189 153.74279722 72 155 C72.5775 154.484375 73.155 153.96875 73.75 153.4375 C76 152 76 152 78.25 152.3125 C79.11625 152.6528125 79.11625 152.6528125 80 153 C79.43454163 156.95820859 78.19097652 159.6659053 76 163 C76.99 162.34 77.98 161.68 79 161 C80.32 161 81.64 161 83 161 C83.33 161.66 83.66 162.32 84 163 C85.88764903 163.68472665 85.88764903 163.68472665 88.0625 164.125 C89.16271484 164.37636719 89.16271484 164.37636719 90.28515625 164.6328125 C90.85105469 164.75398437 91.41695313 164.87515625 92 165 C93.66402614 170.88809251 92.49829288 174.15083113 89.58203125 179.453125 C84.51160316 187.61588825 78.04806428 195.63462381 70 201 C67.95703125 201.1953125 67.95703125 201.1953125 65.8125 201.125 C64.554375 201.08375 63.29625 201.0425 62 201 C62.59927826 197.64404172 63.84622436 195.62198774 66 193 C65.34 193 64.68 193 64 193 C64.309375 192.401875 64.61875 191.80375 64.9375 191.1875 C66.10209704 188.91043228 66.10209704 188.91043228 67 186 C66.01 186 65.02 186 64 186 C63.896875 186.70125 63.79375 187.4025 63.6875 188.125 C62.90640997 191.39137647 61.57941257 194.0471852 60 197 C58.68 197 57.36 197 56 197 C56.75035741 193.88200997 57.63363411 190.81929597 58.5625 187.75 C58.83191406 186.85796875 59.10132813 185.9659375 59.37890625 185.046875 C59.58386719 184.37140625 59.78882813 183.6959375 60 183 C57.11024835 185.62926699 55.86371621 188.22196328 54.35546875 191.76953125 C52.32850559 195.10496631 50.25633985 197.84377462 47 200 C43.3643727 200.81434151 39.84304508 200.7011691 36.1328125 200.5859375 C35.09808807 200.57744781 34.06336365 200.56895813 32.99728394 200.56021118 C29.70544551 200.5267317 26.41609291 200.45145876 23.125 200.375 C20.88805631 200.34489352 18.65107407 200.31751892 16.4140625 200.29296875 C10.94186596 200.22695883 5.47111059 200.12666514 0 200 C-0.13953351 190.65484064 -0.24588922 181.31004441 -0.31087303 171.96406746 C-0.34207553 167.6234549 -0.38434202 163.28355936 -0.45263672 158.94335938 C-0.51822994 154.74818843 -0.55378922 150.55370343 -0.56926346 146.35805893 C-0.5802788 144.76413053 -0.6017887 143.17023616 -0.63438034 141.57660294 C-0.82374117 131.92629702 -0.20291782 124.86712409 6 117 C6.9609023 115.62679406 7.91946172 114.25194385 8.875 112.875 C9.57625 111.92625 10.2775 110.9775 11 110 C12.32 110.33 13.64 110.66 15 111 C15.28875 110.2575 15.5775 109.515 15.875 108.75 C16.82302644 106.43260203 17.84845911 104.22082885 19 102 C12.59692419 105.33493532 7.36682313 109.54664637 2.328125 114.71484375 C1 116 1 116 0 116 C-1.08507112 104.7206187 -1.08507112 104.7206187 0 100 C2.56829243 96.92605935 5.28329285 95.41588844 9 94 C7.02 93.67 5.04 93.34 3 93 C2.96484375 90.80078125 2.96484375 90.80078125 4 88 C6.65588808 86.0094378 9.58067545 84.62691892 12.5625 83.1875 C13.36880859 82.78080078 14.17511719 82.37410156 15.00585938 81.95507812 C16.99651866 80.95385896 18.99394217 79.96989583 21 79 C19.8553125 79.495 19.8553125 79.495 18.6875 80 C16 81 16 81 13 81 C14.36261224 76.09459595 16.64775016 74.47480873 21 72 C24.00832349 70.60077977 25.66734965 70 29 70 C29 69.34 29 68.68 29 68 C21.34855151 69.22969708 16.36313124 72.52245841 11.6796875 78.7578125 C10.76602608 80.15876001 9.88035561 81.5778871 9 83 C7 84 7 84 0 84 C0 56.28 0 28.56 0 0 Z " fill="#014669" transform="translate(6,4)"/>
<path d="M0 0 C44 0 44 0 52 7 C57.08120154 13.59182902 57.99566095 19.80744197 57 28 C55.67063528 31.55654665 53.92113978 34.73406237 52 38 C51.32336141 39.32830058 50.65320251 40.66001914 50 42 C50.45890625 42.32871094 50.9178125 42.65742187 51.390625 42.99609375 C56.45671456 46.92337746 59.49024085 50.70189231 61 57 C62.1423452 67.84639104 60.82405265 75.31855035 54.8125 84.25 C40.10351993 98.63211385 19.64110541 93 0 93 C0 62.31 0 31.62 0 0 Z " fill="#FBFDF9" transform="translate(320,58)"/>
<path d="M0 0 C5.28 0 10.56 0 16 0 C16.495 19.8 16.495 19.8 17 40 C23.7325996 32.04329139 30.42443238 24.08222521 37 16 C38.60373777 14.04131542 40.20790009 12.08297836 41.8125 10.125 C43.94510736 7.52236442 45.98204023 5.02781243 47.80859375 2.19921875 C50 0 50 0 53.453125 -0.48828125 C55.33257812 -0.40126953 55.33257812 -0.40126953 57.25 -0.3125 C58.51328125 -0.26738281 59.7765625 -0.22226562 61.078125 -0.17578125 C62.04234375 -0.11777344 63.0065625 -0.05976562 64 0 C62.6685435 2.878418 61.16701678 5.19196251 59.12890625 7.6171875 C58.55962402 8.30006836 57.9903418 8.98294922 57.40380859 9.68652344 C56.79617676 10.4087207 56.18854492 11.13091797 55.5625 11.875 C50.03070037 18.51544838 44.6165378 25.22967147 39.3046875 32.046875 C37.22290755 34.71437609 35.11969886 37.36258667 33 40 C34.32417201 43.63794594 35.93393674 46.58974617 38.16796875 49.74609375 C39.1269104 51.11072754 39.1269104 51.11072754 40.10522461 52.50292969 C40.79237549 53.47133789 41.47952637 54.43974609 42.1875 55.4375 C43.63101651 57.49292224 45.07370277 59.54892777 46.515625 61.60546875 C47.25490234 62.65782715 47.99417969 63.71018555 48.75585938 64.79443359 C52.34762914 69.92497505 55.89891838 75.08267771 59.4375 80.25 C60.08162842 81.18384521 60.72575684 82.11769043 61.3894043 83.07983398 C61.98148682 83.94552002 62.57356934 84.81120605 63.18359375 85.703125 C63.96561157 86.84249512 63.96561157 86.84249512 64.76342773 88.00488281 C66 90 66 90 67 93 C50.34068251 94.66257302 50.34068251 94.66257302 45.34375 91.11328125 C43.27774773 88.18498566 41.65724993 85.17759661 40 82 C38.31540034 79.40905788 36.52961282 76.90365889 34.75 74.375 C32.8525 71.61125 30.955 68.8475 29 66 C23.06 57.585 23.06 57.585 17 49 C16.67 63.52 16.34 78.04 16 93 C10.72 93 5.44 93 0 93 C0 62.31 0 31.62 0 0 Z " fill="#FBFDF9" transform="translate(167,58)"/>
<path d="M0 0 C0 4.95 0 9.9 0 15 C-1.60875 14.0925 -3.2175 13.185 -4.875 12.25 C-17.2268964 5.4803141 -17.2268964 5.4803141 -31 5 C-36.81107254 6.8715376 -39.53695246 10.34650579 -42.375 15.625 C-46.88901819 24.82956223 -47.36910151 34.85191922 -47.3125 44.9375 C-47.30686035 45.99074463 -47.3012207 47.04398926 -47.29541016 48.12915039 C-47.11540393 59.63440005 -45.58358324 68.98013206 -38 78 C-31.78792505 83.76835532 -27.03235529 84.43715725 -18.68359375 84.32421875 C-11.19365881 83.66497739 -4.55047939 80.54079967 2 77 C1.505 82.94 1.505 82.94 1 89 C-5.99744393 92.22104562 -12.17109794 92.48572457 -19.8125 92.4375 C-20.92431641 92.45748047 -22.03613281 92.47746094 -23.18164062 92.49804688 C-35.01707122 92.49112152 -44.37378843 89.20418557 -53 81 C-64.36024315 69.25159364 -65.56379556 53.41685734 -65.33984375 37.97265625 C-64.89349061 26.29894744 -61.560228 15.3283885 -53 7 C-37.74396098 -7.08005268 -18.75448653 -3.98829587 0 0 Z " fill="#FBFDF9" transform="translate(301,60)"/>
<path d="M0 0 C20.83454282 0 20.83454282 0 26.83984375 5.69140625 C29.36399662 9.55751382 29.73945683 12.46091353 29.5625 16.9375 C29.54445313 17.64680664 29.52640625 18.35611328 29.5078125 19.08691406 C29.25131508 24.6349533 28.73505414 27.89144045 25 32 C17.94253478 38.29655253 9.17539357 36 0 36 C0 24.12 0 12.24 0 0 Z " fill="#8FC743" transform="translate(336,108)"/>
<path d="M0 0 C4.01638776 3.66200061 5.90063948 7.1426158 6.5625 12.4375 C5.71779293 19.19515654 3.98077414 22.55070329 -1.1875 26.875 C-4.90345164 29.58794681 -7.19010228 30.6067711 -11.875 29.9375 C-12.865 30.2675 -13.855 30.5975 -14.875 30.9375 C-14.875 29.9475 -14.875 28.9575 -14.875 27.9375 C-16.855 28.5975 -18.835 29.2575 -20.875 29.9375 C-20.875 27.9375 -20.875 27.9375 -18.6875 25.625 C-16.85509138 23.87403176 -15.02180151 22.12398516 -13.1875 20.375 C-11.16328954 18.24137276 -9.97164677 16.62926935 -8.875 13.9375 C-9.6175 14.246875 -10.36 14.55625 -11.125 14.875 C-13.38192176 15.7469925 -15.5200153 16.41417007 -17.875 16.9375 C-17.9575 17.535625 -18.04 18.13375 -18.125 18.75 C-19.07955872 21.5341296 -20.44632271 22.37061142 -22.875 23.9375 C-23.535 23.6075 -24.195 23.2775 -24.875 22.9375 C-23.555 20.2975 -22.235 17.6575 -20.875 14.9375 C-22.525 14.9375 -24.175 14.9375 -25.875 14.9375 C-25.7674636 10.5285074 -24.63014757 8.31381639 -21.625 5.25 C-15.00650193 -0.79355783 -8.84306389 -3.26808883 0 0 Z " fill="#87C141" transform="translate(90.875,114.0625)"/>
<path d="M0 0 C2.35125 -0.061875 4.7025 -0.12375 7.125 -0.1875 C7.85348145 -0.21481201 8.58196289 -0.24212402 9.33251953 -0.27026367 C14.92413254 -0.34078442 18.78013316 0.89721474 22.8515625 4.75390625 C24.45542024 7.89070284 24.39745694 10.43047511 24.375 13.9375 C24.38273437 15.14277344 24.39046875 16.34804687 24.3984375 17.58984375 C23.8704529 22.10877079 22.37571764 24.48998612 19.359375 27.80078125 C15.72532713 29.64788836 12.25664996 29.31607387 8.25 29.1875 C5.5275 29.125625 2.805 29.06375 0 29 C0 19.43 0 9.86 0 0 Z " fill="#8FC642" transform="translate(336,66)"/>
<path d="M0 0 C8.56231026 2.92205826 13.65562197 7.98637919 17.8125 15.875 C18.410625 16.968125 19.00875 18.06125 19.625 19.1875 C20.8125 21.875 20.8125 21.875 20.8125 24.875 C16.62838995 23.48029665 16.22687187 21.3683497 14.25 17.5 C11.36293753 10.79552152 11.36293753 10.79552152 5.8125 6.875 C6.8025 8.4528125 6.8025 8.4528125 7.8125 10.0625 C9.5896585 13.14123937 10.25056506 15.26096328 9.8125 18.875 C6.02981567 16.35321045 5.47769017 14.08232143 3.875 9.96875 C2.86616053 7.55618993 2.86616053 7.55618993 -0.1875 5.875 C-0.5175 6.535 -0.8475 7.195 -1.1875 7.875 C-1.765 7.05 -2.3425 6.225 -2.9375 5.375 C-4.9990937 3.27181795 -6.07648295 2.88923684 -9.05078125 2.5078125 C-13.57351603 2.49676797 -17.82563767 2.59886762 -22.1875 3.875 C-15.82863166 -2.69583062 -8.6557621 -2.28136365 0 0 Z " fill="#78B446" transform="translate(54.1875,11.125)"/>
<path d="M0 0 C1.875 1 1.875 1 3 3 C3.26676927 7.20161608 3.34346122 10.96961634 2 15 C1.34 15 0.68 15 0 15 C-0.95024979 11.30458414 -0.95024979 8.69541586 0 5 C-1.32 5 -2.64 5 -4 5 C-4.33 6.65 -4.66 8.3 -5 10 C-5.5465625 9.84015625 -6.093125 9.6803125 -6.65625 9.515625 C-9.31652466 8.93036457 -11.77676936 8.79488842 -14.5 8.75 C-15.4384375 8.72421875 -16.376875 8.6984375 -17.34375 8.671875 C-20.42339202 9.05230137 -21.65527569 10.04606308 -24 12 C-24.66 12 -25.32 12 -26 12 C-23.92694032 7.02465678 -20.74375628 6.04879839 -16 4 C-15.16210938 3.62359375 -14.32421875 3.2471875 -13.4609375 2.859375 C-4.8611623 -0.82995454 -4.8611623 -0.82995454 0 0 Z " fill="#7FBB43" transform="translate(84,47)"/>
<path d="M0 0 C2.92620927 2.06963701 5.63779429 4.24314982 8.30859375 6.6328125 C4.82510698 7.81413989 4.45441072 7.70447681 0.875 5.9453125 C-0.4610281 5.17689554 -1.79559337 4.40593118 -3.12890625 3.6328125 C-10.57697102 -0.44099088 -16.24944296 -1.21748082 -24.69140625 0.6328125 C-23.01171875 -3.203125 -23.01171875 -3.203125 -20.12890625 -4.6796875 C-12.15348256 -6.27477224 -6.75048121 -4.35990518 0 0 Z " fill="#80BB43" transform="translate(45.69140625,30.3671875)"/>
<path d="M0 0 C5.08505834 0.04029365 7.63988693 1.59563501 11.875 4.3125 C13.8562585 5.03295764 15.85169589 5.72031343 17.875 6.3125 C17.875 6.6425 17.875 6.9725 17.875 7.3125 C16.12521843 7.48144443 14.37516388 7.64756309 12.625 7.8125 C11.65046875 7.9053125 10.6759375 7.998125 9.671875 8.09375 C7.41197847 8.27050168 5.14179807 8.3125 2.875 8.3125 C2.545 7.6525 2.215 6.9925 1.875 6.3125 C0.885 5.9825 -0.105 5.6525 -1.125 5.3125 C-1.125 7.2925 -1.125 9.2725 -1.125 11.3125 C-2.115 11.3125 -3.105 11.3125 -4.125 11.3125 C-5.125 10.3125 -5.125 10.3125 -5.2578125 8.28125 C-5.25523438 7.4665625 -5.25265625 6.651875 -5.25 5.8125 C-5.25257812 4.9978125 -5.25515625 4.183125 -5.2578125 3.34375 C-5.01973141 -0.2974902 -3.24259984 0.10442271 0 0 Z " fill="#82BD42" transform="translate(118.125,47.6875)"/>
<path d="M0 0 C0.66 0.33 1.32 0.66 2 1 C1.67 1.33 1.34 1.66 1 2 C1.66 2.33 2.32 2.66 3 3 C1.4847209 7.54583729 -1.82231421 9.80044105 -6 12 C-8.70242992 12.21255067 -10.35209475 11.7723057 -13 11 C-12.87109375 8.7109375 -12.87109375 8.7109375 -12 6 C-9.34765625 4.1640625 -9.34765625 4.1640625 -6.0625 2.625 C-4.98097656 2.10164063 -3.89945313 1.57828125 -2.78515625 1.0390625 C-1.40650391 0.52472656 -1.40650391 0.52472656 0 0 Z " fill="#1B5F62" transform="translate(22,86)"/>
<path d="M0 0 C0 0.66 0 1.32 0 2 C-0.65226562 2.23074219 -1.30453125 2.46148437 -1.9765625 2.69921875 C-7.56291924 4.7838032 -11.66744795 6.89547701 -16 11 C-16 8 -16 8 -14.3203125 6.2109375 C-13.23363281 5.30214844 -13.23363281 5.30214844 -12.125 4.375 C-11.40570312 3.76398438 -10.68640625 3.15296875 -9.9453125 2.5234375 C-6.5261397 -0.15422794 -4.29049742 -0.09327168 0 0 Z " fill="#6EAC49" transform="translate(35,72)"/>
<path d="M0 0 C-0.64544429 3.48539917 -2.10134397 6.02819057 -4 9 C-5.32 8.67 -6.64 8.34 -8 8 C-5.73913043 0 -5.73913043 0 0 0 Z " fill="#7AB645" transform="translate(25,106)"/>
<path d="M0 0 C0.66 0 1.32 0 2 0 C1.25 6.625 1.25 6.625 -1 10 C-1.66 10 -2.32 10 -3 10 C-3.99 10.495 -3.99 10.495 -5 11 C-3.78065514 6.96678237 -2.44045073 3.45730521 0 0 Z " fill="#72AF48" transform="translate(64,187)"/>
<path d="M0 0 C-4.5056687 3.26660981 -8.735171 5.18454172 -14 7 C-12.99453315 4.41839592 -12.31537358 3.1992778 -9.94140625 1.69921875 C-9.15636719 1.36535156 -8.37132812 1.03148438 -7.5625 0.6875 C-6.78003906 0.34074219 -5.99757813 -0.00601563 -5.19140625 -0.36328125 C-3 -1 -3 -1 0 0 Z " fill="#7EBA44" transform="translate(28,83)"/>
<path d="M0 0 C0.33 0.66 0.66 1.32 1 2 C0.21654285 3.17219543 -0.57702836 4.33763668 -1.375 5.5 C-1.81585938 6.1496875 -2.25671875 6.799375 -2.7109375 7.46875 C-3.13632813 7.9740625 -3.56171875 8.479375 -4 9 C-4.66 9 -5.32 9 -6 9 C-4.52307692 2.35384615 -4.52307692 2.35384615 -1.875 0.5625 C-0.946875 0.2840625 -0.946875 0.2840625 0 0 Z " fill="#71AE49" transform="translate(74,188)"/>
<path d="M0 0 C3.33523252 1.38009621 5.18607951 2.84950652 7 6 C6.67 6.99 6.34 7.98 6 9 C2.91910327 6.22719294 1.31224548 3.93673644 0 0 Z " fill="#78B546" transform="translate(133,37)"/>
<path d="M0 0 C5.37305699 -0.35233161 5.37305699 -0.35233161 8 0 C10 2 10 2 11 4 C10.01 4.66 9.02 5.32 8 6 C8 5.01 8 4.02 8 3 C5.36 2.34 2.72 1.68 0 1 C0 0.67 0 0.34 0 0 Z " fill="#7DB945" transform="translate(69,69)"/>
<path d="M0 0 C0.99 0.33 1.98 0.66 3 1 C0.4837822 3.60608273 -2.05134359 5.89381685 -5 8 C-5 5 -5 5 -2.5 2.3125 C-1.675 1.549375 -0.85 0.78625 0 0 Z " fill="#61A14E" transform="translate(24,75)"/>
<path d="M0 0 C0.33 0 0.66 0 1 0 C1.14285714 8.57142857 1.14285714 8.57142857 0 12 C-0.66 12 -1.32 12 -2 12 C-2.33 10.35 -2.66 8.7 -3 7 C-2.34 7 -1.68 7 -1 7 C-0.67 4.69 -0.34 2.38 0 0 Z " fill="#73B148" transform="translate(86,50)"/>
<path d="M0 0 C2.5 2.3125 2.5 2.3125 5 5 C5 5.99 5 6.98 5 8 C2 7 2 7 0.8125 5.125 C0 3 0 3 0 0 Z " fill="#81BC43" transform="translate(70,28)"/>
<path d="M0 0 C0 0.66 0 1.32 0 2 C-2.31 2 -4.62 2 -7 2 C-7 1.34 -7 0.68 -7 0 C-4.3333581 -1.33332095 -2.83319697 -0.67102033 0 0 Z " fill="#75B247" transform="translate(154,27)"/>
<path d="M0 0 C3.36591866 1.44253657 5.51047079 3.33264727 8 6 C5.21788056 5.62403791 3.4120716 5.32681541 1.1875 3.5625 C0 2 0 2 0 0 Z " fill="#70AE49" transform="translate(61,63)"/>
</svg>
