<?xml version="1.0" encoding="UTF-8"?>
<svg version="1.1" xmlns="http://www.w3.org/2000/svg" width="268" height="188">
<path d="M0 0 C88.44 0 176.88 0 268 0 C268 62.04 268 124.08 268 188 C179.56 188 91.12 188 0 188 C0 125.96 0 63.92 0 0 Z " fill="#FDFEFD" transform="translate(0,0)"/>
<path d="M0 0 C9 0 9 0 11.8203125 2.52734375 C12.61821044 3.64343714 13.38573228 4.7817367 14.125 5.9375 C14.95797228 7.1278569 15.79130791 8.31795962 16.625 9.5078125 C17.02332031 10.09852539 17.42164062 10.68923828 17.83203125 11.29785156 C19.49308806 13.71860577 21.3023148 16.01209489 23.125 18.3125 C23.96417969 19.38951172 23.96417969 19.38951172 24.8203125 20.48828125 C25.40425781 21.23658203 25.40425781 21.23658203 26 22 C29.19021723 20.63515079 30.87244878 19.23913256 32.91015625 16.4453125 C33.42513672 15.74792969 33.94011719 15.05054688 34.47070312 14.33203125 C34.99599609 13.60371094 35.52128906 12.87539063 36.0625 12.125 C36.59166016 11.40441406 37.12082031 10.68382812 37.66601562 9.94140625 C38.65483806 8.59402712 39.64034099 7.24420064 40.62133789 5.89111328 C41.07629639 5.2670459 41.53125488 4.64297852 42 4 C42.36665771 3.26120605 42.73331543 2.52241211 43.11108398 1.76123047 C45 0 45 0 54 0 C54 15.51 54 31.02 54 47 C51.36 47 48.72 47 46 47 C45.67 36.11 45.34 25.22 45 14 C36.94513474 24.46058132 36.94513474 24.46058132 29 35 C25.70265804 34.43216375 24.25338618 33.57840638 22.125 31.015625 C21.35929687 30.10683594 21.35929687 30.10683594 20.578125 29.1796875 C20.05734375 28.54289062 19.5365625 27.90609375 19 27.25 C18.47921875 26.62867187 17.9584375 26.00734375 17.421875 25.3671875 C14.56577953 21.94852777 11.78336367 18.47920459 9 15 C8.67 25.56 8.34 36.12 8 47 C5.36 47 2.72 47 0 47 C0 31.49 0 15.98 0 0 Z " fill="#036637" transform="translate(107,37)"/>
<path d="M0 0 C3.75376152 1.25125384 4.24073289 2.5652404 6 6 C6 6.66 6 7.32 6 8 C6.66 8 7.32 8 8 8 C8.28875 7.236875 8.5775 6.47375 8.875 5.6875 C10 3 10 3 12 0 C12.66 0 13.32 0 14 0 C14 4.95 14 9.9 14 15 C13.01 15 12.02 15 11 15 C10.67 13.02 10.34 11.04 10 9 C9.01 10.485 9.01 10.485 8 12 C7.01 11.67 6.02 11.34 5 11 C4.67 10.34 4.34 9.68 4 9 C3.67 10.98 3.34 12.96 3 15 C2.01 15 1.02 15 0 15 C0 10.05 0 5.1 0 0 Z " fill="#146A3B" transform="translate(91,93)"/>
<path d="M0 0 C6.0546875 -0.1953125 6.0546875 -0.1953125 8 0 C10 2 10 2 10.125 4.625 C10.08375 5.40875 10.0425 6.1925 10 7 C9.01 7.33 8.02 7.66 7 8 C7.66 8.78375 8.32 9.5675 9 10.375 C11 13 11 13 11 15 C9.68 15 8.36 15 7 15 C5.25 12.5 5.25 12.5 4 10 C3.67 11.65 3.34 13.3 3 15 C2.01 15 1.02 15 0 15 C0 10.05 0 5.1 0 0 Z " fill="#3E855F" transform="translate(167,93)"/>
<path d="M0 0 C0.99 0 1.98 0 3 0 C3.83986084 1.93467942 4.67168027 3.87285129 5.5 5.8125 C5.9640625 6.89144531 6.428125 7.97039062 6.90625 9.08203125 C8 12 8 12 8 15 C7.01 15 6.02 15 5 15 C4.67 14.34 4.34 13.68 4 13 C0.97065509 12.34227572 0.97065509 12.34227572 -2 12 C-2 12.99 -2 13.98 -2 15 C-3.32 15 -4.64 15 -6 15 C-4.36041242 9.76727367 -2.61047965 4.84803364 0 0 Z " fill="#126839" transform="translate(113,93)"/>
<path d="M0 0 C1.32 0 2.64 0 4 0 C4.83739781 2.1234016 5.66980283 4.2487728 6.5 6.375 C6.9640625 7.55835937 7.428125 8.74171875 7.90625 9.9609375 C9 13 9 13 9 15 C7.68 14.67 6.36 14.34 5 14 C5 13.34 5 12.68 5 12 C2.02934491 12.34227572 2.02934491 12.34227572 -1 13 C-1.33 13.66 -1.66 14.32 -2 15 C-2.99 15 -3.98 15 -5 15 C-3.33333333 10 -1.66666667 5 0 0 Z " fill="#0F6736" transform="translate(150,93)"/>
<path d="M0 0 C3.3 0 6.6 0 10 0 C10 0.99 10 1.98 10 3 C7.69 3 5.38 3 3 3 C3 3.99 3 4.98 3 6 C5.31 6 7.62 6 10 6 C10 6.99 10 7.98 10 9 C7.69 9 5.38 9 3 9 C3 10.98 3 12.96 3 15 C2.01 15 1.02 15 0 15 C0 10.05 0 5.1 0 0 Z " fill="#136736" transform="translate(135,93)"/>
<path d="M0 0 C2.475 0.495 2.475 0.495 5 1 C5.33 2.32 5.66 3.64 6 5 C6.66 5 7.32 5 8 5 C8.66 3.35 9.32 1.7 10 0 C11.32 0.33 12.64 0.66 14 1 C13.360625 1.825 12.72125 2.65 12.0625 3.5 C9.53586919 7.23191406 9.30639772 10.55723303 9 15 C7.68 15 6.36 15 5 15 C4.9175 13.824375 4.835 12.64875 4.75 11.4375 C4.20155569 6.84530215 2.49130683 3.85750735 0 0 Z " fill="#28744A" transform="translate(120,93)"/>
<path d="M0 0 C0.99 0 1.98 0 3 0 C3 4.95 3 9.9 3 15 C2.01 15 1.02 15 0 15 C0 10.05 0 5.1 0 0 Z " fill="#096330" transform="translate(161,93)"/>
<path d="M0 0 C2.97 0 5.94 0 9 0 C9 0.99 9 1.98 9 3 C6.69 3 4.38 3 2 3 C2 4.98 2 6.96 2 9 C1.01 8.67 0.02 8.34 -1 8 C-0.67 5.36 -0.34 2.72 0 0 Z " fill="#1C6E41" transform="translate(136,99)"/>
<path d="M0 0 C1.32 0 2.64 0 4 0 C4.99088067 3.08273985 4.92482533 4.91724891 4 8 C4 8.66 4 9.32 4 10 C2.68 10 1.36 10 0 10 C-1.125 3.375 -1.125 3.375 0 0 Z " fill="#529170" transform="translate(150,93)"/>
<path d="M0 0 C6.460199 -0.36567164 6.460199 -0.36567164 8.9375 1.3125 C10 3 10 3 10 6 C9.01 6 8.02 6 7 6 C6.67 5.34 6.34 4.68 6 4 C2.97065509 3.34227572 2.97065509 3.34227572 0 3 C-0.33 3.66 -0.66 4.32 -1 5 C-0.67 3.35 -0.34 1.7 0 0 Z " fill="#0C6534" transform="translate(111,102)"/>
<path d="M0 0 C2 2 2 2 2 5 C0.35 5 -1.3 5 -3 5 C-3 6.65 -3 8.3 -3 10 C-4.32 10 -5.64 10 -7 10 C-6.01 7.03 -5.02 4.06 -4 1 C-3.01 1 -2.02 1 -1 1 C-0.67 0.67 -0.34 0.34 0 0 Z " fill="#689D81" transform="translate(114,98)"/>
<path d="M0 0 C1.98 0 3.96 0 6 0 C5.01 0.495 5.01 0.495 4 1 C4.66 1.78375 5.32 2.5675 6 3.375 C8 6 8 6 8 8 C6.68 8 5.36 8 4 8 C2.68 5.36 1.36 2.72 0 0 Z " fill="#13693A" transform="translate(170,100)"/>
<path d="M0 0 C1.99954746 -0.04254356 4.00041636 -0.04080783 6 0 C7 1 7 1 7.0625 3.5625 C7.041875 4.366875 7.02125 5.17125 7 6 C6.401875 5.38125 5.80375 4.7625 5.1875 4.125 C2.99188856 1.86323046 2.99188856 1.86323046 0 0 Z " fill="#005F29" transform="translate(170,94)"/>
</svg>
