<?xml version="1.0" encoding="UTF-8"?>
<svg version="1.1" xmlns="http://www.w3.org/2000/svg" width="1200" height="877">
<path d="M0 0 C3.86474354 2.45938225 6.28441109 4.35323328 7.75 8.75 C7.84005667 10.43750186 7.87196321 12.12838077 7.87025452 13.81828308 C7.87231651 15.38950172 7.87231651 15.38950172 7.87442017 16.99246216 C7.87082489 18.14116791 7.86722961 19.28987366 7.86352539 20.47338867 C7.86367142 21.6832695 7.86381744 22.89315033 7.8639679 24.13969421 C7.86339019 27.45761691 7.8583714 30.77547756 7.85139394 34.09338927 C7.84514695 37.56073687 7.84455553 41.02808527 7.84336853 44.49543762 C7.84025919 51.06146604 7.83205114 57.62747782 7.82201904 64.19349891 C7.8108456 71.66863556 7.80534435 79.143773 7.80032361 86.61891592 C7.78986821 101.99595358 7.77227643 117.37297465 7.75 132.75 C8.69565826 133.06017059 9.64131653 133.37034119 10.6156311 133.68991089 C13.16632233 134.55259173 15.44494888 135.48021992 17.8359375 136.6953125 C18.88974609 137.22705078 18.88974609 137.22705078 19.96484375 137.76953125 C20.67769531 138.13433594 21.39054688 138.49914062 22.125 138.875 C22.86105469 139.24753906 23.59710938 139.62007812 24.35546875 140.00390625 C26.15550358 140.9156122 27.95301402 141.83229932 29.75 142.75 C27.85760503 151.48695894 19.18517112 158.89615736 12.75 164.75 C12.06193803 165.11018439 11.37387606 165.47036879 10.66496372 165.84146786 C8.20251588 168.29564534 8.26610249 170.1774129 8.22148794 173.56080395 C8.23129472 174.35845242 8.24110149 175.15610089 8.25120544 175.97792053 C8.24582089 176.82689059 8.24043634 177.67586065 8.23488861 178.55055708 C8.22157299 181.4064722 8.2367889 184.26153464 8.25170898 187.11743164 C8.24788747 189.16074011 8.24226987 191.20404591 8.23498535 193.24734497 C8.22301122 197.65413639 8.22354257 202.06068967 8.23357964 206.46748543 C8.2491132 213.43938423 8.23547963 220.41103753 8.21754456 227.38291931 C8.18668118 240.93353272 8.18522413 254.48407169 8.18719482 268.03471375 C8.18858612 285.25758871 8.17819822 302.48040586 8.1386171 319.70323843 C8.12369946 326.62918435 8.12394265 333.55491358 8.13609493 340.48086274 C8.14081648 344.79924095 8.13326903 349.11753683 8.12255096 353.43590164 C8.12015104 355.43288801 8.12285811 357.42988834 8.13115883 359.4268589 C8.18779066 373.92323881 7.83382581 385.15482192 -2.4375 396.375 C-8.6526109 402.41635511 -16.51838635 404.85924213 -25.07389832 404.89044189 C-26.01711945 404.89615204 -26.96034058 404.90186218 -27.93214417 404.90774536 C-28.95509079 404.90886322 -29.97803741 404.90998108 -31.03198242 404.91113281 C-32.1188031 404.91609772 -33.20562378 404.92106262 -34.32537842 404.92617798 C-37.91874833 404.9407752 -41.51207407 404.94759801 -45.10546875 404.953125 C-47.60785422 404.958879 -50.11023967 404.9646367 -52.61262512 404.97039795 C-57.19033365 404.9795598 -61.76802957 404.98586254 -66.34574622 404.9888947 C-72.39438519 404.99292425 -78.44286864 405.00518024 -84.49145508 405.03125 C-90.99411333 405.05884165 -97.49663825 405.07164627 -103.99935341 405.07357025 C-106.47237572 405.07658919 -108.94539734 405.08459195 -111.41838646 405.09775543 C-114.88609461 405.1148943 -118.35331108 405.11291615 -121.82104492 405.10644531 C-123.34028313 405.12026749 -123.34028313 405.12026749 -124.89021301 405.1343689 C-135.52115928 405.07252401 -143.74184993 402.58642445 -151.8125 395.5 C-158.44612288 388.01591265 -161.57065056 380.79157395 -161.49050903 370.70144653 C-161.49221788 369.90819438 -161.49392673 369.11494222 -161.49568737 368.29765213 C-161.49897232 365.64902541 -161.48799502 363.00065402 -161.47705078 360.35205078 C-161.47648645 358.44971218 -161.47680365 356.54737314 -161.47793579 354.64503479 C-161.47850946 349.48642548 -161.46675282 344.32790923 -161.45278788 339.16932154 C-161.44028289 333.77612435 -161.4391102 328.38292502 -161.43673706 322.98971558 C-161.43052162 312.77947145 -161.4141099 302.56927017 -161.39403808 292.35904491 C-161.37168111 280.73398179 -161.36068615 269.10891663 -161.35064721 257.48383737 C-161.32974375 233.57253369 -161.29416348 209.66127105 -161.25 185.75 C-166.86 184.43 -172.47 183.11 -178.25 181.75 C-178.25 180.76 -178.25 179.77 -178.25 178.75 C-177.52554687 178.8221875 -176.80109375 178.894375 -176.0546875 178.96875 C-175.08789062 179.0615625 -174.12109375 179.154375 -173.125 179.25 C-172.17367188 179.3428125 -171.22234375 179.435625 -170.2421875 179.53125 C-167.23267841 179.75126633 -164.26632333 179.76466014 -161.25 179.75 C-161.25368717 179.13561632 -161.25737434 178.52123264 -161.26117325 177.88823128 C-161.349699 162.90512505 -161.41579422 147.92209965 -161.45724869 132.9387989 C-161.47783115 125.69282739 -161.50586848 118.44703097 -161.55175781 111.20117188 C-161.59175858 104.88207083 -161.61746416 98.56309667 -161.62635398 92.24387252 C-161.63154664 88.90101349 -161.64579078 85.55880334 -161.67292023 82.21600723 C-161.70206918 78.4746803 -161.70595101 74.73409848 -161.70410156 70.99267578 C-161.71848267 69.89718918 -161.73286377 68.80170258 -161.74768066 67.67301941 C-161.6884556 56.55904481 -158.2774479 48.8766532 -150.609375 40.8828125 C-142.07856277 33.17118422 -131.25507708 32.44256304 -120.22241211 32.52294922 C-119.15795868 32.52265717 -118.09350525 32.52236511 -116.99679565 32.52206421 C-113.50689307 32.5234485 -110.01720867 32.53896721 -106.52734375 32.5546875 C-104.09640113 32.55842083 -101.665457 32.56126629 -99.23451233 32.56326294 C-92.85755204 32.57087416 -86.48068384 32.59050106 -80.10375977 32.6126709 C-73.58806605 32.63318349 -67.07235737 32.64227622 -60.55664062 32.65234375 C-47.78772128 32.67374934 -35.01886556 32.70746671 -22.25 32.75 C-22.24589111 31.99380371 -22.24178223 31.23760742 -22.23754883 30.45849609 C-22.20453795 27.01321716 -22.13388303 23.56968877 -22.0625 20.125 C-22.05379883 18.34029297 -22.05379883 18.34029297 -22.04492188 16.51953125 C-21.79626663 6.628578 -21.79626663 6.628578 -18.84375 3 C-13.18886821 -1.90543962 -6.93118365 -2.66583987 0 0 Z M-133.25 85.75 C-137.82486164 92.38458442 -140.37814173 97.37505414 -140.36352539 105.51635742 C-140.36367142 106.19954544 -140.36381744 106.88273346 -140.3639679 107.58662415 C-140.36327169 109.84293807 -140.35549296 112.09916926 -140.34765625 114.35546875 C-140.34579103 115.92059789 -140.34436762 117.48572761 -140.34336853 119.05085754 C-140.33955152 123.16903293 -140.32972818 127.28717302 -140.31866455 131.40533447 C-140.30843291 135.60810875 -140.30386715 139.81088873 -140.29882812 144.01367188 C-140.28810519 152.25913078 -140.27103854 160.504561 -140.25 168.75 C-131.37578801 164.48986596 -125.17719121 156.80625525 -119.47412109 149.00463867 C-116.42316724 144.83658362 -116.42316724 144.83658362 -114.25 143.75 C-113.98316406 144.32105469 -113.71632813 144.89210938 -113.44140625 145.48046875 C-109.62160492 152.75687718 -103.58162498 159.87413171 -96.25 163.75 C-92.06142792 163.73290379 -89.41758836 160.47910844 -86.5625 157.75 C-86.03213135 157.25089111 -85.5017627 156.75178223 -84.95532227 156.23754883 C-83.88035148 155.22156936 -82.80893643 154.20181376 -81.74121094 153.17822266 C-80.45441949 151.94578488 -79.15421171 150.72738324 -77.8515625 149.51171875 C-65.28311015 137.46506135 -55.7707028 122.82802218 -47.25 107.75 C-43.051165 108.38072629 -39.7234992 109.8159381 -35.92578125 111.69140625 C-35.04456856 112.1221067 -35.04456856 112.1221067 -34.14555359 112.56150818 C-32.28179601 113.47304602 -30.42188578 114.39208115 -28.5625 115.3125 C-26.69209281 116.23581083 -24.82090464 117.15737391 -22.9473114 118.07420349 C-21.25484997 118.90270038 -19.56545564 119.73745401 -17.8762207 120.57250977 C-15.42552472 121.88637308 -15.42552472 121.88637308 -13.25 121.75 C-13.13233284 118.27112528 -13.06226685 114.7927723 -13 111.3125 C-12.96648437 110.33861328 -12.93296875 109.36472656 -12.8984375 108.36132812 C-12.76651193 98.49989193 -15.69756824 91.71836698 -22.390625 84.5390625 C-29.15843115 78.02718179 -35.53065554 75.44720497 -45.02441406 75.45947266 C-45.77975937 75.45275543 -46.53510468 75.44603821 -47.31333923 75.43911743 C-49.79750242 75.42020212 -52.28139438 75.41621625 -54.765625 75.4140625 C-56.50429391 75.40762906 -58.24296174 75.4009003 -59.98162842 75.39389038 C-63.62303169 75.38193304 -67.26434021 75.37820786 -70.90576172 75.37939453 C-75.55029304 75.3795974 -80.19421027 75.35232194 -84.83859634 75.31785011 C-88.42991879 75.29550594 -92.02109535 75.29155932 -95.61248016 75.29261398 C-97.32354595 75.2902683 -99.0346164 75.28150358 -100.7456131 75.26594925 C-113.08939935 75.1642572 -124.61514361 75.78832421 -133.25 85.75 Z M-20.5 182.9375 C-26.61018743 185.32196339 -32.73309417 186.97962918 -39.125 188.4375 C-39.99672852 188.63947998 -40.86845703 188.84145996 -41.76660156 189.04956055 C-57.10465975 192.43130146 -71.98557552 193.11329487 -87.625 193.0625 C-89.14404938 193.0622583 -89.14404938 193.0622583 -90.69378662 193.06201172 C-105.37339192 193.04575813 -119.7286821 192.50985679 -134.23095703 190.02539062 C-136.5709276 189.65990314 -136.5709276 189.65990314 -140.25 189.75 C-140.34982927 194.4089553 -140.42191433 199.06727078 -140.46972656 203.72705078 C-140.48968422 205.30789045 -140.5168606 206.88865783 -140.55175781 208.46923828 C-140.80335325 220.16842634 -140.38465153 230.19105492 -131.953125 239.21875 C-125.04092883 245.43338509 -117.73195339 248.05248201 -108.4597168 248.04052734 C-107.7027652 248.04724457 -106.9458136 248.05396179 -106.16592407 248.06088257 C-103.67695451 248.07979583 -101.18825559 248.08378345 -98.69921875 248.0859375 C-96.95815421 248.09237039 -95.21709075 248.09909912 -93.47602844 248.10610962 C-89.83042903 248.11806594 -86.18492426 248.12179217 -82.53930664 248.12060547 C-77.88570963 248.12040245 -73.23272447 248.14769413 -68.57927227 248.18214989 C-64.98370113 248.20447363 -61.38827592 248.20844133 -57.79264259 248.20738602 C-56.07795925 248.20973414 -54.3632714 248.21851287 -52.64865685 248.23405075 C-40.28493293 248.3355973 -31.37913229 247.31685042 -22.0390625 238.609375 C-14.76608496 231.05055991 -12.93718421 224.11197338 -13.0546875 213.7578125 C-13.05893234 212.33890213 -13.05893234 212.33890213 -13.06326294 210.8913269 C-13.07441068 207.88575306 -13.09950535 204.88048298 -13.125 201.875 C-13.13503679 199.83073349 -13.14416141 197.78646228 -13.15234375 195.7421875 C-13.17433233 190.74467556 -13.20882491 185.7473892 -13.25 180.75 C-16.02376472 180.75 -17.94129809 181.84904696 -20.5 182.9375 Z " fill="#D8E3D1" transform="translate(439.25,236.25)"/>
<path d="M0 0 C17.16 0 34.32 0 52 0 C63.19907622 21.27824482 63.19907622 21.27824482 68 31.4375 C75.10641704 46.32108748 82.48936467 61.06607047 89.875 75.8125 C90.17458618 76.41074963 90.47417236 77.00899925 90.78283691 77.62537766 C94.51864259 85.08521533 98.25762535 92.5434557 102 100 C104.65749573 96.71566576 106.49379652 93.2599431 108.37890625 89.48510742 C108.70305008 88.83871811 109.02719391 88.1923288 109.36116028 87.52635193 C110.43219155 85.38799183 111.49742931 83.24680314 112.5625 81.10546875 C113.31627615 79.59672153 114.07035057 78.0881233 114.82470703 76.57966614 C116.41084614 73.4058226 117.99429137 70.23065466 119.57568359 67.05444336 C121.56738599 63.05431336 123.56415879 59.05674372 125.56278992 55.06007195 C133.10966566 39.96564695 140.64600543 24.87096147 147.82958984 9.59916687 C148.2261377 8.75860245 148.62268555 7.91803802 149.03125 7.05200195 C149.36705078 6.33446243 149.70285156 5.61692291 150.04882812 4.87763977 C151 3 151 3 153 0 C169.83 0 186.66 0 204 0 C204 59.07 204 118.14 204 179 C190.14 179 176.28 179 162 179 C161.67 143.69 161.34 108.38 161 72 C153.64677758 87.23167501 146.29954558 102.460705 139.01171875 117.72265625 C135.18042955 125.72387546 131.3083939 133.70538872 127.4375 141.6875 C127.08157776 142.42158081 126.72565552 143.15566162 126.35894775 143.9119873 C125.34253932 146.00791392 124.32568524 148.10362353 123.30859375 150.19921875 C123.0038765 150.8273497 122.69915924 151.45548065 122.38520813 152.10264587 C120.94045123 155.07746058 119.47903154 158.04193693 118 161 C107.77 161 97.54 161 87 161 C80.81673391 148.68385533 74.73056037 136.32296739 68.6875 123.9375 C68.22700256 122.99410767 67.76650513 122.05071533 67.29205322 121.07873535 C61.95811365 110.14945446 56.62872012 99.2181296 51.375 88.25 C50.95694092 87.37851318 50.53888184 86.50702637 50.1081543 85.60913086 C47.96058342 81.10512766 45.96943027 76.59533729 44 72 C43.67 107.31 43.34 142.62 43 179 C28.81 179 14.62 179 0 179 C0 119.93 0 60.86 0 0 Z " fill="#38B549" transform="translate(47,311)"/>
<path d="M0 0 C46.53 0 93.06 0 141 0 C141 12.54 141 25.08 141 38 C109.98 38 78.96 38 47 38 C47 48.56 47 59.12 47 70 C75.05 70 103.1 70 132 70 C132 82.54 132 95.08 132 108 C103.95 108 75.9 108 47 108 C47 118.56 47 129.12 47 140 C78.68 140 110.36 140 143 140 C143 152.87 143 165.74 143 179 C95.81 179 48.62 179 0 179 C0 119.93 0 60.86 0 0 Z " fill="#38B549" transform="translate(639,311)"/>
<path d="M0 0 C16.17 0 32.34 0 49 0 C51.91402714 5.82805427 54.67283367 11.3671714 57.13671875 17.33984375 C57.41323273 18.0068631 57.6897467 18.67388245 57.97463989 19.3611145 C58.57026364 20.7990153 59.16425917 22.23759147 59.75674438 23.67678833 C61.05658583 26.83397232 62.364726 29.98770044 63.67210388 33.14176941 C64.37057376 34.82715206 65.06861564 36.51271214 65.76625061 38.19844055 C69.38208988 46.93372878 73.03210856 55.65460462 76.6859436 64.37405396 C77.82250198 67.08636902 78.95856706 69.79889019 80.09448242 72.51147461 C81.63006357 76.17844607 83.16579478 79.84535461 84.70166016 83.51220703 C86.97233349 88.93364565 89.24212642 94.35545252 91.51171875 99.77734375 C91.88304428 100.66425903 92.25436981 101.55117432 92.63694763 102.46496582 C94.49587145 106.90528666 96.3537991 111.34601944 98.2097168 115.78759766 C101.73456067 124.22023386 105.26991464 132.64807599 108.8369751 141.06295776 C110.52934474 145.05689751 112.21653903 149.05301386 113.90332031 153.04931641 C114.71224895 154.96171164 115.52373823 156.87302593 116.33789062 158.78320312 C117.46344218 161.42442277 118.58027996 164.06916981 119.6953125 166.71484375 C120.03184845 167.4981456 120.3683844 168.28144745 120.71511841 169.08848572 C122.21255672 172.66420635 123 175.0679748 123 179 C106.5 179 90 179 73 179 C61 149 61 149 61 147 C35.92 147 10.84 147 -15 147 C-15.33 148.65 -15.66 150.3 -16 152 C-16.71212151 154.06035925 -17.46590449 156.10656711 -18.25 158.140625 C-18.6934375 159.29304687 -19.136875 160.44546875 -19.59375 161.6328125 C-20.0578125 162.82648438 -20.521875 164.02015625 -21 165.25 C-21.4640625 166.45914063 -21.928125 167.66828125 -22.40625 168.9140625 C-25.8665293 177.8665293 -25.8665293 177.8665293 -27 179 C-28.5348297 179.09319449 -30.07392082 179.117458 -31.61157227 179.11352539 C-32.59251358 179.11344986 -33.5734549 179.11337433 -34.5841217 179.11329651 C-35.6507756 179.10813522 -36.7174295 179.10297394 -37.81640625 179.09765625 C-39.44569313 179.09553383 -39.44569313 179.09553383 -41.1078949 179.09336853 C-44.59279075 179.08775048 -48.07762342 179.07519492 -51.5625 179.0625 C-53.91861887 179.05748733 -56.27473874 179.05292402 -58.63085938 179.04882812 C-64.42059464 179.03777519 -70.21029281 179.02101951 -76 179 C-74.25043996 173.5460861 -72.34986356 168.24866083 -70.05078125 162.99609375 C-69.7657373 162.34123489 -69.48069336 161.68637604 -69.18701172 161.01167297 C-68.56302102 159.57889799 -67.93736011 158.14684949 -67.31021118 156.7154541 C-65.52105342 152.63048509 -63.74597314 148.5393906 -61.96875 144.44921875 C-61.57891434 143.55288727 -61.18907867 142.65655579 -60.78742981 141.73306274 C-55.58354974 129.75830528 -50.45131043 117.75278342 -45.3125 105.75 C-44.28397104 103.34853623 -43.25540645 100.94708772 -42.22680664 98.5456543 C-40.16413141 93.72976479 -38.10174766 88.91375061 -36.03955078 84.09765625 C-31.72386329 74.01927993 -27.40458896 63.9424411 -23.08538818 53.86557007 C-20.93307215 48.84404039 -18.78099762 43.82240722 -16.62890625 38.80078125 C-15.8334973 36.9448237 -15.03808718 35.08886665 -14.24267578 33.23291016 C-13.86604797 32.35411194 -13.48942017 31.47531372 -13.10137939 30.56988525 C-8.73425293 20.3799235 -4.36712646 10.18996175 0 0 Z M23 50 C20.36568585 56.77629096 17.73324353 63.55330696 15.10205078 70.33081055 C14.20826766 72.63240699 13.31406913 74.93384218 12.41943359 77.23510742 C11.12746498 80.55864988 9.83703236 83.88278533 8.546875 87.20703125 C8.15191833 88.2220723 7.75696167 89.23711334 7.35003662 90.28291321 C6.96994446 91.26309921 6.58985229 92.24328522 6.19824219 93.25317383 C5.86959167 94.09922684 5.54094116 94.94527985 5.20233154 95.81697083 C3.42290899 100.52777954 1.72090838 105.26750196 0 110 C15.18 110 30.36 110 46 110 C45.31833633 106.59168163 44.70765659 103.93878401 43.49707031 100.78320312 C43.19295227 99.98466919 42.88883423 99.18613525 42.57550049 98.36340332 C42.24636658 97.51129272 41.91723267 96.65918213 41.578125 95.78125 C41.2362616 94.88692261 40.89439819 93.99259521 40.54217529 93.07116699 C39.44849085 90.21267497 38.34932852 87.35632551 37.25 84.5 C36.52568056 82.60951331 35.80171865 80.7188896 35.078125 78.828125 C33.05703296 73.55017565 31.02937727 68.27476815 29 63 C28.4563405 61.58595277 27.91271747 60.17189151 27.36914062 58.7578125 C26.24662997 55.83833485 25.12365229 52.9190384 24 50 C23.67 50 23.34 50 23 50 Z " fill="#38B449" transform="translate(1029,311)"/>
<path d="M0 0 C0.75877441 0.20898926 1.51754883 0.41797852 2.29931641 0.63330078 C14.02484757 3.93644155 24.43874659 8.98409616 35 15 C34.34755235 19.7535472 32.45648671 23.64912394 30.40234375 27.92578125 C29.87176109 29.04716743 29.87176109 29.04716743 29.33045959 30.19120789 C28.20466929 32.56747933 27.07121235 34.93999953 25.9375 37.3125 C25.17071442 38.92749255 24.40443268 40.54272442 23.63867188 42.15820312 C21.7649396 46.10826481 19.88432513 50.05498122 18 54 C14.38602606 52.58463991 10.91305594 50.99725646 7.4296875 49.28369141 C0.58843196 45.94353043 -6.27111206 43.02269668 -13.5 40.625 C-14.57447388 40.26776855 -14.57447388 40.26776855 -15.6706543 39.90332031 C-23.47904497 37.39957723 -30.90201576 35.71163792 -39.125 35.6875 C-39.78886719 35.67138672 -40.45273437 35.65527344 -41.13671875 35.63867188 C-46.20822322 35.63370954 -49.5802471 36.70459775 -54 39 C-56.27042717 41.70986468 -56.91835776 43.45183064 -57.4375 46.9375 C-56.85270378 51.03107356 -55.72868075 52.87200012 -53 56 C-46.7675303 60.25316616 -39.88778982 62.61553479 -32.75 64.875 C-31.70730957 65.21523193 -30.66461914 65.55546387 -29.59033203 65.90600586 C-25.42158839 67.26537879 -21.24655274 68.60419979 -17.06738281 69.93115234 C21.03984039 82.04413657 21.03984039 82.04413657 30.8515625 100.4765625 C34.49522655 108.48270867 35.2787371 115.83695542 35.375 124.5625 C35.38901855 125.43688721 35.40303711 126.31127441 35.41748047 127.2121582 C35.32290699 140.14568716 30.30445216 151.74692978 21.5 161.1875 C2.06394227 179.43595956 -22.9653576 180.80208137 -48.29589844 180.17919922 C-72.58198622 179.00427248 -96.95760664 168.83009063 -116 154 C-116.99 153.34 -117.98 152.68 -119 152 C-117.56211601 147.33472573 -115.67059409 143.00517317 -113.5234375 138.6328125 C-113.19332672 137.95322479 -112.86321594 137.27363708 -112.52310181 136.57345581 C-111.47718564 134.42226995 -110.42618383 132.2736159 -109.375 130.125 C-108.66111973 128.65901901 -107.94757462 127.19287475 -107.234375 125.7265625 C-105.49345409 122.14914173 -103.74797055 118.57398117 -102 115 C-97.33704163 115 -96.56140815 115.76955045 -93 118.5625 C-75.29610105 131.81126759 -52.60419876 142.16265598 -30 140 C-24.04839944 138.862583 -19.71681922 136.99447583 -16 132 C-14.69938369 128.26072812 -14.9111464 126.3317201 -15.9375 122.5 C-19.63626607 115.18287581 -26.43343814 112.58983679 -33.875 110.125 C-39.35585312 108.36660575 -44.87584211 106.73787372 -50.390625 105.08984375 C-91.97335094 92.61775509 -91.97335094 92.61775509 -101.7890625 76.390625 C-109.18864047 61.78242592 -109.43069998 47.57023311 -105 32 C-100.03241731 18.20765277 -88.78542654 8.76386202 -76 2.3125 C-52.85918226 -7.32684753 -23.88975463 -6.84137147 0 0 Z " fill="#38B449" transform="translate(915,312)"/>
<path d="M0 0 C114.87907609 0 114.87907609 0 135.67578125 19.5234375 C150.12645145 34.92129449 150.72773591 53.82802308 150.17480469 73.77734375 C149.33388162 89.28039468 142.19109621 103.04283397 130.9375 113.5625 C117.3325248 124.85173474 100.7545925 129.19015582 83.3515625 129.09765625 C82.45332764 129.09664917 81.55509277 129.09564209 80.62963867 129.09460449 C77.29474601 129.08939768 73.95987164 129.07543651 70.625 129.0625 C63.15875 129.041875 55.6925 129.02125 48 129 C48 145.5 48 162 48 179 C32.16 179 16.32 179 0 179 C0 119.93 0 60.86 0 0 Z M48 38 C48 55.49 48 72.98 48 91 C53.89875 91.0825 59.7975 91.165 65.875 91.25 C67.71562012 91.28641602 69.55624023 91.32283203 71.45263672 91.36035156 C81.13164156 91.4734604 89.4278445 91.31275775 97.40234375 85.140625 C104.43726591 76.4767514 106.02366012 69.20417039 105 58 C103.85467969 52.539752 101.30795571 47.61378275 97 44 C89.19267559 39.16938122 82.32078929 37.83387302 73.1953125 37.90234375 C72.23129517 37.90385437 72.23129517 37.90385437 71.24780273 37.90539551 C68.8735167 37.91058199 66.49925634 37.92454284 64.125 37.9375 C56.143125 37.9684375 56.143125 37.9684375 48 38 Z " fill="#38B449" transform="translate(472,311)"/>
<path d="M0 0 C3.86474354 2.45938225 6.28441109 4.35323328 7.75 8.75 C7.84005667 10.43750186 7.87196321 12.12838077 7.87025452 13.81828308 C7.87231651 15.38950172 7.87231651 15.38950172 7.87442017 16.99246216 C7.87082489 18.14116791 7.86722961 19.28987366 7.86352539 20.47338867 C7.86367142 21.6832695 7.86381744 22.89315033 7.8639679 24.13969421 C7.86339019 27.45761691 7.8583714 30.77547756 7.85139394 34.09338927 C7.84514695 37.56073687 7.84455553 41.02808527 7.84336853 44.49543762 C7.84025919 51.06146604 7.83205114 57.62747782 7.82201904 64.19349891 C7.8108456 71.66863556 7.80534435 79.143773 7.80032361 86.61891592 C7.78986821 101.99595358 7.77227643 117.37297465 7.75 132.75 C3.09631985 131.24983012 -1.21197419 129.40622242 -5.5625 127.1875 C-6.19478516 126.87103516 -6.82707031 126.55457031 -7.47851562 126.22851562 C-12.10912135 123.89087865 -12.10912135 123.89087865 -13.25 122.75 C-13.35910945 121.14847602 -13.40583216 119.54261244 -13.42578125 117.9375 C-13.44962891 116.94363281 -13.47347656 115.94976562 -13.49804688 114.92578125 C-13.54037743 112.84003919 -13.57196724 110.75404607 -13.59179688 108.66796875 C-13.8930077 97.75432991 -17.38962206 90.30212782 -25.25 82.75 C-31.49352403 77.90808341 -37.22096988 76.44938917 -45.02441406 76.45947266 C-45.77975937 76.45275543 -46.53510468 76.44603821 -47.31333923 76.43911743 C-49.79750242 76.42020212 -52.28139438 76.41621625 -54.765625 76.4140625 C-56.50429391 76.40762906 -58.24296174 76.4009003 -59.98162842 76.39389038 C-63.62303169 76.38193304 -67.26434021 76.37820786 -70.90576172 76.37939453 C-75.55029304 76.3795974 -80.19421027 76.35232194 -84.83859634 76.31785011 C-88.42991879 76.29550594 -92.02109535 76.29155932 -95.61248016 76.29261398 C-97.32354595 76.2902683 -99.0346164 76.28150358 -100.7456131 76.26594925 C-111.5663535 76.17680454 -120.2157405 76.80452264 -129.5 82.875 C-135.86237098 89.52656966 -139.36609583 96.34891849 -139.3918457 105.54467773 C-139.39532013 106.23119415 -139.39879456 106.91771057 -139.40237427 107.62503052 C-139.40972098 109.11462534 -139.41507214 110.60423104 -139.41866493 112.09383965 C-139.42583667 114.45181516 -139.44150745 116.80958335 -139.46000671 119.16749573 C-139.51245004 125.8711568 -139.56047066 132.57470253 -139.57592773 139.27856445 C-139.58600455 143.38008149 -139.61531751 147.48107417 -139.65724754 151.58238411 C-139.66956378 153.14483743 -139.67467765 154.70736477 -139.67244911 156.26986504 C-139.67009809 158.45578962 -139.69224263 160.64020682 -139.7199707 162.82592773 C-139.72583694 164.06930405 -139.73170319 165.31268036 -139.73774719 166.59373474 C-140.34486282 170.33450087 -141.30220158 171.45404641 -144.25 173.75 C-146.8359375 175.19921875 -146.8359375 175.19921875 -149.625 176.4375 C-150.54023438 176.85386719 -151.45546875 177.27023437 -152.3984375 177.69921875 C-155.35549247 178.78887325 -158.14299633 179.27177197 -161.25 179.75 C-161.34364422 164.14631136 -161.4140772 148.54269919 -161.45724869 132.9387989 C-161.47783115 125.69282739 -161.50586848 118.44703097 -161.55175781 111.20117188 C-161.59175858 104.88207083 -161.61746416 98.56309667 -161.62635398 92.24387252 C-161.63154664 88.90101349 -161.64579078 85.55880334 -161.67292023 82.21600723 C-161.70206918 78.4746803 -161.70595101 74.73409848 -161.70410156 70.99267578 C-161.71848267 69.89718918 -161.73286377 68.80170258 -161.74768066 67.67301941 C-161.6884556 56.55904481 -158.2774479 48.8766532 -150.609375 40.8828125 C-142.07856277 33.17118422 -131.25507708 32.44256304 -120.22241211 32.52294922 C-119.15795868 32.52265717 -118.09350525 32.52236511 -116.99679565 32.52206421 C-113.50689307 32.5234485 -110.01720867 32.53896721 -106.52734375 32.5546875 C-104.09640113 32.55842083 -101.665457 32.56126629 -99.23451233 32.56326294 C-92.85755204 32.57087416 -86.48068384 32.59050106 -80.10375977 32.6126709 C-73.58806605 32.63318349 -67.07235737 32.64227622 -60.55664062 32.65234375 C-47.78772128 32.67374934 -35.01886556 32.70746671 -22.25 32.75 C-22.24589111 31.99380371 -22.24178223 31.23760742 -22.23754883 30.45849609 C-22.20453795 27.01321716 -22.13388303 23.56968877 -22.0625 20.125 C-22.05379883 18.34029297 -22.05379883 18.34029297 -22.04492188 16.51953125 C-21.79626663 6.628578 -21.79626663 6.628578 -18.84375 3 C-13.18886821 -1.90543962 -6.93118365 -2.66583987 0 0 Z " fill="#D8E3D2" transform="translate(439.25,236.25)"/>
<path d="M0 0 C4.31288014 0.64033145 7.77605407 2.16249777 11.69140625 4.0546875 C12.31853012 4.35690216 12.94565399 4.65911682 13.59178162 4.9704895 C14.91173184 5.60825369 16.23032061 6.24884246 17.54760742 6.89208984 C19.55613261 7.87189384 21.56962304 8.84085495 23.58398438 9.80859375 C24.87010182 10.43165185 26.1559195 11.05532919 27.44140625 11.6796875 C28.60357666 12.24413574 29.76574707 12.80858398 30.96313477 13.39013672 C33.5532215 14.76315963 35.69789083 16.21002649 38 18 C40.36337053 19.19836788 42.71656325 20.33932766 45.125 21.4375 C45.79587646 21.74751953 46.46675293 22.05753906 47.15795898 22.37695312 C50.75611205 24.02547661 54.36704472 25.57961702 58.0625 27 C64.59619566 29.52061355 70.77583374 32.80720002 77 36 C76.06276758 41.75539909 71.67845084 45.71820537 68 50 C67.42378906 50.68578125 66.84757813 51.3715625 66.25390625 52.078125 C60.50020449 58.38284943 53.31007894 62.49675397 46.02539062 66.79492188 C44.16026838 67.90464263 42.3207712 69.04672008 40.484375 70.203125 C20.24433298 82.53542968 -4.57823366 87.08572986 -28.0625 87.203125 C-29.00310776 87.21018463 -29.94371552 87.21724426 -30.91282654 87.22451782 C-69.88551869 87.45043949 -69.88551869 87.45043949 -89 84 C-90.26956543 83.77473633 -91.53913086 83.54947266 -92.84716797 83.31738281 C-105.67903949 81.01957302 -118.47129094 78.64706679 -131 75 C-131 74.01 -131 73.02 -131 72 C-130.34515625 72.09539062 -129.6903125 72.19078125 -129.015625 72.2890625 C-117.44967922 73.69396552 -108.61117715 71.84445151 -98.3984375 66.2421875 C-96 65 -96 65 -94 65 C-93.505 63.515 -93.505 63.515 -93 62 C-91.42022264 60.65340011 -89.78509132 59.37124419 -88.125 58.125 C-80.62760955 52.16628968 -74.31536873 44.9730531 -69 37 C-68.34 37 -67.68 37 -67 37 C-65.59161809 38.81332893 -64.24874244 40.67773353 -62.9375 42.5625 C-59.11063559 47.86274248 -54.98151855 53.03783307 -49 56 C-44.78202241 55.96535542 -42.12443529 52.68606759 -39.25 49.9375 C-38.45057983 49.18496948 -38.45057983 49.18496948 -37.63500977 48.41723633 C-36.56782831 47.40876034 -35.50403065 46.39669012 -34.44384766 45.38085938 C-33.2481128 44.2372888 -32.03798075 43.10879366 -30.82421875 41.984375 C-20.45010073 32.1042626 -12.48714441 20.12347231 -5 8 C-3.97947427 6.3748068 -2.95870145 4.74976869 -1.9375 3.125 C-0.9784375 1.578125 -0.9784375 1.578125 0 0 Z " fill="#EC1C24" transform="translate(392,343)"/>
<path d="M0 0 C0.66 0 1.32 0 2 0 C3.40838191 1.81332893 4.75125756 3.67773353 6.0625 5.5625 C10.05008127 11.1279012 14.39555226 15.04252527 20 19 C20.99 19.99 20.99 19.99 22 21 C2.76471974 37.02940021 -21.4009613 42.82909916 -46 41 C-51.40556055 40.33343058 -56.70418052 39.25841255 -62 38 C-62 37.01 -62 36.02 -62 35 C-61.01773437 35.14308594 -61.01773437 35.14308594 -60.015625 35.2890625 C-48.44967922 36.69396552 -39.61117715 34.84445151 -29.3984375 29.2421875 C-27 28 -27 28 -25 28 C-24.505 26.515 -24.505 26.515 -24 25 C-22.42022264 23.65340011 -20.78509132 22.37124419 -19.125 21.125 C-11.62760955 15.16628968 -5.31536873 7.9730531 0 0 Z " fill="#9E4C43" transform="translate(323,380)"/>
</svg>
