<?xml version="1.0" encoding="UTF-8"?>
<svg version="1.1" xmlns="http://www.w3.org/2000/svg" width="355" height="142">
<path d="M0 0 C117.15 0 234.3 0 355 0 C355 46.86 355 93.72 355 142 C237.85 142 120.7 142 0 142 C0 95.14 0 48.28 0 0 Z " fill="#F06537" transform="translate(0,0)"/>
<path d="M0 0 C89.76 0 179.52 0 272 0 C269.18887413 1.87408391 266.37252671 3.23081207 263.30004883 4.61401367 C253.98976489 8.82065697 244.73331658 13.30859778 237.39244461 20.58446503 C233.51961384 23.79954726 229.98038985 23.68927919 225.10760498 23.60559082 C223.78130235 23.61283259 223.78130235 23.61283259 222.42820573 23.62022066 C219.47084814 23.630444 216.51487027 23.60514509 213.55761719 23.58007812 C211.43505208 23.58034481 209.31248622 23.58287857 207.18992615 23.58750916 C202.62105781 23.59291299 198.05257551 23.58286442 193.48375702 23.5610199 C186.25537686 23.52715493 179.02732363 23.53124371 171.79888916 23.5411377 C155.14510142 23.55813127 138.49148024 23.52536921 121.83773041 23.49221039 C106.58410642 23.46234109 91.33066413 23.44301939 76.07701421 23.46387625 C68.89584664 23.47226092 61.71526457 23.45648574 54.53418016 23.42208099 C50.05953761 23.40560204 45.58508474 23.40980497 41.11042976 23.41952705 C39.04085876 23.41978642 36.97126568 23.41150543 34.90176964 23.39388847 C20.11203467 22.92025098 20.11203467 22.92025098 7 29 C4.54801956 31.4158995 4.54801956 31.4158995 3 34 C2.01 35.32 1.02 36.64 0 38 C0 25.46 0 12.92 0 0 Z " fill="#FEFEFE" transform="translate(0,0)"/>
<path d="M0 0 C1.9375 1.1875 1.9375 1.1875 3 3 C3.4375 5.5 3.4375 5.5 3 8 C-0.190825 10.98018374 -3.81483703 12.15716095 -7.875 13.625 C-35.83296621 24.32115686 -52.07952059 47.50808395 -64.6875 73.5 C-65.23446533 74.62736572 -65.78143066 75.75473145 -66.3449707 76.91625977 C-69.52285271 83.58202566 -72.28561451 90.23771054 -74.63989258 97.24023438 C-76.25141103 100.51013288 -77.99412685 101.98428989 -81 104 C-83.72078764 104.740738 -86.16118025 104.80753764 -89 105 C-91.67574923 101.90676121 -92.47891817 99.63250437 -92.9921875 95.59765625 C-93.13720703 94.54819824 -93.28222656 93.49874023 -93.43164062 92.41748047 C-93.57794922 91.31033691 -93.72425781 90.20319336 -93.875 89.0625 C-95.47260112 78.10013699 -97.57304014 68.61308825 -103.3125 59 C-105.05823544 55.89647033 -105.84262494 54.46412474 -105 51 C-102.27071097 47.93988806 -100.55856999 47.08977018 -96.5 46.4375 C-92.02094541 47.15734806 -90.9349553 48.60284702 -88 52 C-86.26953125 55.15625 -86.26953125 55.15625 -84.8125 58.5 C-84.32394531 59.6034375 -83.83539063 60.706875 -83.33203125 61.84375 C-82.18939884 64.55121917 -81.08689506 67.26988172 -80 70 C-79.52542358 69.09459473 -79.52542358 69.09459473 -79.04125977 68.17089844 C-73.06979442 56.83926262 -67.26414777 45.849711 -59 36 C-58.39671875 35.25878906 -57.7934375 34.51757812 -57.171875 33.75390625 C-53.1824765 29.00077155 -48.81171055 24.90899721 -44 21 C-42.70642578 19.93265625 -42.70642578 19.93265625 -41.38671875 18.84375 C-33.98855525 12.99729874 -26.29566845 8.79062709 -17.77246094 4.82958984 C-16.24562664 4.11496409 -14.73438555 3.36719277 -13.2265625 2.61328125 C-8.69004131 0.40695269 -5.15523922 -0.72173349 0 0 Z " fill="#036838" transform="translate(279,0)"/>
<path d="M0 0 C5.08525364 4.4798663 9.06675355 9.16978461 10 16 C10.12843196 19.15325394 10.11635387 22.30162102 10.09765625 25.45703125 C10.0962413 26.35999435 10.09482635 27.26295746 10.09336853 28.19328308 C10.08778823 31.06638963 10.07523934 33.93941716 10.0625 36.8125 C10.05748245 38.76497283 10.05291999 40.71744689 10.04882812 42.66992188 C10.03782525 47.44664485 10.02057418 52.22330904 10 57 C8.40792882 56.90056631 6.81692623 56.78393388 5.2265625 56.66015625 C4.34049316 56.59707275 3.45442383 56.53398926 2.54150391 56.46899414 C-1.4226992 55.73746348 -3.22952715 53.84338003 -6 51 C-6.94875 51.804375 -7.8975 52.60875 -8.875 53.4375 C-13.26084767 57.15593606 -16.39720635 57.34110072 -22.10546875 57.28125 C-27.69478613 56.73815843 -31.49954069 54.53994508 -35.375 50.5625 C-39.56394897 43.9568497 -39.77290143 37.67104665 -39 30 C-36.7319753 25.027792 -33.69646664 22.6979702 -29 20 C-22.98718663 17.99572888 -15.61285405 17.95302242 -9.75 20.5 C-8.8425 20.995 -7.935 21.49 -7 22 C-7.69032022 15.69160553 -7.69032022 15.69160553 -11.5 10.9375 C-18.39523107 9.09056311 -23.77673912 8.98096405 -30.125 12.5 C-31.42977193 13.31266072 -32.72671559 14.13884146 -34 15 C-33.79275839 9.0936141 -32.87357229 5.75645461 -28.7109375 1.4765625 C-20.92664233 -5.24139087 -8.58958261 -5.09968067 0 0 Z " fill="#FEFCFC" transform="translate(264,48)"/>
<path d="M0 0 C5.66579138 3.41649652 9.54937342 9.27143351 11.5 15.5 C11.77236366 18.79991914 11.73265428 22.08537599 11.6953125 25.39453125 C11.6924826 26.34188644 11.68965271 27.28924164 11.68673706 28.26530457 C11.67557187 31.28116666 11.65047389 34.29672816 11.625 37.3125 C11.61496547 39.36132383 11.60584045 41.41015232 11.59765625 43.45898438 C11.57564449 48.47277148 11.54113971 53.48633483 11.5 58.5 C9.90792882 58.40056631 8.31692623 58.28393388 6.7265625 58.16015625 C5.84049316 58.09707275 4.95442383 58.03398926 4.04150391 57.96899414 C0.0773008 57.23746348 -1.72952715 55.34338003 -4.5 52.5 C-5.44875 53.304375 -6.3975 54.10875 -7.375 54.9375 C-11.76097649 58.65604529 -14.8990759 58.84817963 -20.609375 58.7734375 C-25.72785681 58.28925679 -29.54896543 56.59699725 -33.06640625 52.81640625 C-37.79563326 46.55119098 -38.29761073 40.22896035 -37.5 32.5 C-35.14465564 27.60813094 -31.7826542 24.68921058 -27.5 21.5 C-21.48718663 19.49572888 -14.11285405 19.45302242 -8.25 22 C-7.3425 22.495 -6.435 22.99 -5.5 23.5 C-5.61108108 17.62391964 -5.61108108 17.62391964 -8.875 13 C-13.89158784 10.92417055 -18.14714487 10.60785748 -23.5 11.5 C-26.74229333 12.85017691 -29.61434857 14.50498173 -32.5 16.5 C-32.06416015 11.05200186 -30.98521211 7.73877149 -27.5 3.5 C-19.79151676 -2.32069143 -9.1107442 -4.01580375 0 0 Z " fill="#FEFCFC" transform="translate(130.5,46.5)"/>
<path d="M0 0 C25.08 0 50.16 0 76 0 C76 12.54 76 25.08 76 38 C74.27223953 35.69631937 72.56887684 33.37291177 70.9375 31 C66.51472389 25.90567461 60.49544068 24.08133427 53.89569092 23.61535645 C48.8875404 23.39237833 43.87936989 23.39295821 38.8671875 23.390625 C37.02058475 23.375624 35.17399533 23.35889285 33.3274231 23.34051514 C28.49751121 23.29704481 23.66778027 23.27688783 18.83770752 23.26177979 C13.89690543 23.24213506 8.95629665 23.20017356 4.015625 23.16015625 C-5.65619007 23.08507451 -15.32796141 23.03464999 -25 23 C-18.48953858 16.24507119 -9.53013147 13.0377052 -0.86328125 9.76171875 C0.98094503 9.14803914 0.98094503 9.14803914 2 8 C2.04092937 5.66702567 2.04241723 3.33294775 2 1 C1.34 0.67 0.68 0.34 0 0 Z " fill="#FEFEFE" transform="translate(279,0)"/>
<path d="M0 0 C0 1.98 0 3.96 0 6 C0.66 6 1.32 6 2 6 C2.268125 5.38125 2.53625 4.7625 2.8125 4.125 C4 2 4 2 7 0 C13.09191064 -0.65081281 18.95340077 -0.88215484 24.625 1.5625 C30.03194663 7.1117347 31.61436011 11.82893101 31.53125 19.34765625 C31.5350769 20.12257919 31.53890381 20.89750214 31.54284668 21.69590759 C31.54555274 23.32373362 31.53828353 24.95160411 31.52148438 26.5793457 C31.50002381 29.05974787 31.52134272 31.53726399 31.546875 34.01757812 C31.54423206 35.60677717 31.53910777 37.19597443 31.53125 38.78515625 C31.53934692 39.51968521 31.54744385 40.25421417 31.55578613 41.01100159 C31.44671748 47.04632236 29.27452321 50.36155308 25.4375 54.8125 C22.02380948 57.63250521 18.19020988 57.07906056 14 57 C13.97494385 55.79875488 13.9498877 54.59750977 13.92407227 53.35986328 C13.83006856 48.91313571 13.72983083 44.46656693 13.62768555 40.02001953 C13.58430999 38.09362496 13.54263686 36.16719129 13.50268555 34.24072266 C13.44504638 31.47546592 13.38133384 28.7104065 13.31640625 25.9453125 C13.29969376 25.0806839 13.28298126 24.2160553 13.26576233 23.32522583 C13.27840104 19.02604148 13.27840104 19.02604148 12 15 C7.08690237 14.53755786 7.08690237 14.53755786 2.79492188 16.59204102 C0.40774214 19.79453744 0.51637652 21.80798489 0.53125 25.77734375 C0.50998047 27.75444336 0.50998047 27.75444336 0.48828125 29.77148438 C0.49073631 31.8560764 0.50001367 33.94057498 0.50927734 36.02514648 C0.51166554 38.04675597 0.49047588 40.0683496 0.46875 42.08984375 C0.47326172 43.29503662 0.47777344 44.50022949 0.48242188 45.74194336 C-0.09539086 49.64422623 -1.2321319 51.23738813 -4 54 C-8.23148969 56.23114911 -11.26829096 57.15420664 -16 57 C-16.17774751 49.98948142 -16.30018159 42.97954528 -16.38452148 35.96728516 C-16.41968533 33.58294969 -16.46742616 31.19876474 -16.52807617 28.81494141 C-16.61316884 25.38406231 -16.65273044 21.95518063 -16.68359375 18.5234375 C-16.73778725 16.92935562 -16.73778725 16.92935562 -16.79307556 15.30307007 C-16.79691092 8.04474614 -16.79691092 8.04474614 -14.46536255 4.98809814 C-9.62066431 0.75384523 -6.47165694 -0.1198455 0 0 Z " fill="#FEFCFB" transform="translate(57,47)"/>
<path d="M0 0 C4.22938829 2.55393468 6.80660552 5.60731656 8.375 10.3125 C8.41454234 12.64549825 8.41901732 14.97958189 8.375 17.3125 C7.68792969 16.96316406 7.00085938 16.61382812 6.29296875 16.25390625 C5.39191406 15.79886719 4.49085938 15.34382813 3.5625 14.875 C2.66917969 14.42253906 1.77585937 13.97007813 0.85546875 13.50390625 C-2.71868058 11.78718886 -5.39097502 11.1931663 -9.3125 11.25 C-10.12074219 11.25902344 -10.92898438 11.26804687 -11.76171875 11.27734375 C-12.37660156 11.28894531 -12.99148438 11.30054688 -13.625 11.3125 C-13.955 12.6325 -14.285 13.9525 -14.625 15.3125 C-12.99691406 16.09173828 -12.99691406 16.09173828 -11.3359375 16.88671875 C-9.89041192 17.59070848 -8.4451113 18.29516025 -7 19 C-5.93072266 19.50950195 -5.93072266 19.50950195 -4.83984375 20.02929688 C1.52316808 23.15242653 7.35572358 26.57561112 10.375 33.3125 C10.7734375 36.25 10.7734375 36.25 10.75 39.3125 C10.76160156 40.8284375 10.76160156 40.8284375 10.7734375 42.375 C10.19687187 46.6257584 8.59620778 49.17905869 5.47265625 52.078125 C4.46525391 52.81289062 4.46525391 52.81289062 3.4375 53.5625 C2.76847656 54.06265625 2.09945312 54.5628125 1.41015625 55.078125 C-4.98286119 58.95565573 -15.08664314 58.40365165 -22.17578125 56.69921875 C-27.40857642 54.39272457 -31.02233817 50.3545905 -33.625 45.3125 C-34.33672995 42.5409953 -34.52199564 40.19662217 -34.625 37.3125 C-33.81675781 37.73402344 -33.00851562 38.15554687 -32.17578125 38.58984375 C-31.10714844 39.13769531 -30.03851563 39.68554688 -28.9375 40.25 C-27.88175781 40.79527344 -26.82601563 41.34054688 -25.73828125 41.90234375 C-19.91897477 44.53819022 -13.77606378 45.36285459 -7.625 43.3125 C-6.89176204 41.29741642 -6.89176204 41.29741642 -6.625 39.3125 C-7.46933594 39.06113281 -8.31367188 38.80976562 -9.18359375 38.55078125 C-12.91471544 37.20825506 -16.26356861 35.46978068 -19.6875 33.5 C-20.28626953 33.16935547 -20.88503906 32.83871094 -21.50195312 32.49804688 C-26.63917341 29.56651153 -30.34921659 26.22617511 -33.625 21.3125 C-34.44467185 15.72382828 -33.86888319 11.0213627 -30.625 6.3125 C-22.57722344 -1.9737292 -10.96111462 -5.0986729 0 0 Z " fill="#FEFCFB" transform="translate(314.625,47.6875)"/>
<path d="M0 0 C5.61 0 11.22 0 17 0 C17.07419865 6.88677618 17.12862581 13.77331927 17.16479492 20.66040039 C17.17987428 23.00288954 17.20034078 25.3453505 17.22631836 27.68774414 C17.26273821 31.05622317 17.27973513 34.42432864 17.29296875 37.79296875 C17.30845261 38.83897751 17.32393646 39.88498627 17.33988953 40.96269226 C17.34198947 50.0507375 17.34198947 50.0507375 14 54 C8.7152949 58.64022886 7.51472419 59 0 59 C0 39.53 0 20.06 0 0 Z " fill="#FEF9F7" transform="translate(151,46)"/>
<path d="M0 0 C0.99 1.32 1.98 2.64 3 4 C6.61303347 8.65891159 9.62811243 12.53172654 15.71608341 13.37719816 C16.70677644 13.37822729 17.69746948 13.37925642 18.71818352 13.38031673 C19.86637562 13.38875668 21.01456772 13.39719662 22.19755352 13.40589231 C24.08289151 13.39687724 24.08289151 13.39687724 26.00631714 13.38768005 C27.35858259 13.39185329 28.71084454 13.39733076 30.06309998 13.40399987 C33.77807487 13.41847485 37.49282829 13.41420341 41.20781541 13.40683305 C45.21473677 13.4021087 49.22160971 13.41460478 53.22851562 13.42485046 C61.07823398 13.4420586 68.92787236 13.44287425 76.77760468 13.43763756 C83.15758299 13.43359813 89.53753763 13.43503672 95.9175148 13.44038582 C96.82513478 13.44113424 97.73275475 13.44188266 98.66787837 13.44265376 C100.51164658 13.44418522 102.3554148 13.44572357 104.199183 13.44726873 C121.49538808 13.46100123 138.79154795 13.45555097 156.087752 13.44408352 C171.91280692 13.43415182 187.73774491 13.44708938 203.5627818 13.47101771 C219.80917435 13.49539819 236.05551243 13.50501908 252.30192292 13.49836498 C261.42413427 13.49487023 270.54625569 13.49712161 279.66845322 13.51461601 C287.43460353 13.52932491 295.2006006 13.52999073 302.96674787 13.5125451 C306.92916719 13.50402157 310.89131262 13.50191829 314.8537178 13.51719666 C318.48212677 13.53101396 322.11002644 13.52631928 325.73840572 13.50695742 C327.67059807 13.5014041 329.60281616 13.51549374 331.53495967 13.53031152 C338.24343235 13.47322945 342.58480753 13.09226896 348 9 C350.26877535 6.58119071 350.26877535 6.58119071 352 4 C353.485 2.02 353.485 2.02 355 0 C355 4.95 355 9.9 355 15 C237.85 15 120.7 15 0 15 C0 10.05 0 5.1 0 0 Z " fill="#F2633D" transform="translate(0,127)"/>
<path d="M0 0 C0.7734375 -0.00773437 1.546875 -0.01546875 2.34375 -0.0234375 C5.00660611 0.468612 5.89376622 1.22325287 7.5 3.375 C7.88601984 6.46315875 7.97901666 8.47684376 6.5 11.25 C3.28172688 13.06027863 0.04222351 13.01644893 -3.5 12.375 C-6 10.6875 -6 10.6875 -7.5 8.375 C-7.9375 5.8125 -7.9375 5.8125 -7.5 3.375 C-5.25108847 0.43520028 -3.64691699 -0.03646917 0 0 Z " fill="#F26637" transform="translate(117.5,78.625)"/>
<path d="M0 0 C0.7734375 -0.00773437 1.546875 -0.01546875 2.34375 -0.0234375 C5.01733636 0.47059476 5.93083985 1.17311398 7.5 3.375 C7.375 6.9375 7.375 6.9375 6.5 10.375 C2.7794164 12.85538907 0.90203429 12.83837203 -3.5 12.375 C-5.9375 10.6875 -5.9375 10.6875 -7.5 8.375 C-7.9375 5.8125 -7.9375 5.8125 -7.5 3.375 C-5.25108847 0.43520028 -3.64691699 -0.03646917 0 0 Z " fill="#F26637" transform="translate(249.5,78.625)"/>
<path d="M0 0 C0.33 0 0.66 0 1 0 C1 4.95 1 9.9 1 15 C-4.61 15 -10.22 15 -16 15 C-13 13 -13 13 -9.5625 11.1875 C-4.87846967 8.52926338 -2.17549253 4.8948582 0 0 Z " fill="#FEF8F7" transform="translate(354,127)"/>
<path d="M0 0 C1.74252869 2.32337159 3.47641768 4.65337282 5.1875 7 C8.13422173 10.56137534 11.80417887 12.23005064 16 14 C16 14.33 16 14.66 16 15 C10.72 15 5.44 15 0 15 C0 10.05 0 5.1 0 0 Z " fill="#FEF9F9" transform="translate(0,127)"/>
<path d="M0 0 C4.55555556 0.55555556 4.55555556 0.55555556 6 2 C6.1875 4.9375 6.1875 4.9375 6 8 C4 10 4 10 1.5 10.3125 C0.2625 10.1578125 0.2625 10.1578125 -1 10 C-3 7 -3 7 -2.75 4.4375 C-2 2 -2 2 0 0 Z " fill="#2F6737" transform="translate(205,117)"/>
<path d="M0 0 C9.66666667 0 9.66666667 0 13 1 C14 2 14 2 14.09765625 3.84765625 C14.04882812 6.92382812 14.04882812 6.92382812 14 10 C13.34 10 12.68 10 12 10 C12 7.36 12 4.72 12 2 C11.01 2.33 10.02 2.66 9 3 C8.67 5.31 8.34 7.62 8 10 C7.34 10 6.68 10 6 10 C6 7.36 6 4.72 6 2 C5.01 2.33 4.02 2.66 3 3 C2.67 5.31 2.34 7.62 2 10 C1.34 10 0.68 10 0 10 C0 6.7 0 3.4 0 0 Z " fill="#336737" transform="translate(186,117)"/>
<path d="M0 0 C4.55555556 0.55555556 4.55555556 0.55555556 6 2 C6.04092937 4.33297433 6.04241723 6.66705225 6 9 C3.125 9.625 3.125 9.625 0 10 C-2 8 -2 8 -2.25 5 C-2 2 -2 2 0 0 Z " fill="#1F6737" transform="translate(160,117)"/>
<path d="M0 0 C0.66 0 1.32 0 2 0 C2 2.64 2 5.28 2 8 C2.99 7.67 3.98 7.34 5 7 C5.33 4.69 5.66 2.38 6 0 C6.66 0 7.32 0 8 0 C8 3.3 8 6.6 8 10 C5.66705225 10.04241723 3.33297433 10.04092937 1 10 C0 9 0 9 -0.09765625 6.93359375 C-0.08605469 6.10988281 -0.07445312 5.28617187 -0.0625 4.4375 C-0.05347656 3.61121094 -0.04445312 2.78492187 -0.03515625 1.93359375 C-0.02355469 1.29550781 -0.01195312 0.65742187 0 0 Z " fill="#306737" transform="translate(169,117)"/>
<path d="M0 0 C0.598125 0.226875 1.19625 0.45375 1.8125 0.6875 C2.1425 2.0075 2.4725 3.3275 2.8125 4.6875 C0.8325 4.6875 -1.1475 4.6875 -3.1875 4.6875 C-1.35416667 7.85416667 -1.35416667 7.85416667 1.8125 9.6875 C-1.1575 9.1925 -1.1575 9.1925 -4.1875 8.6875 C-4.875 5.875 -4.875 5.875 -5.1875 2.6875 C-3.62441875 0.13720955 -3.00012909 -0.42858987 0 0 Z " fill="#496737" transform="translate(128.1875,117.3125)"/>
<path d="M0 0 C2.875 -0.125 2.875 -0.125 6 0 C8 2 8 2 8.1953125 3.9453125 C8.13020833 5.96354167 8.06510417 7.98177083 8 10 C7.34 10 6.68 10 6 10 C6 7.36 6 4.72 6 2 C5.01 2.33 4.02 2.66 3 3 C2.67 5.31 2.34 7.62 2 10 C1.34 10 0.68 10 0 10 C0 6.7 0 3.4 0 0 Z " fill="#2D6737" transform="translate(214,117)"/>
<path d="M0 0 C1.66611905 -0.042721 3.33382885 -0.04063832 5 0 C6.58272601 1.58272601 6.34735747 3.38034003 6.5625 5.5625 C6.64628906 6.38878906 6.73007813 7.21507813 6.81640625 8.06640625 C6.87699219 8.70449219 6.93757813 9.34257813 7 10 C6.01 9.67 5.02 9.34 4 9 C4 7.68 4 6.36 4 5 C3.01 5.495 3.01 5.495 2 6 C1.67 6.99 1.34 7.98 1 9 C1.66 9.33 2.32 9.66 3 10 C1.68 9.67 0.36 9.34 -1 9 C-0.67 7.68 -0.34 6.36 0 5 C1.32 4.67 2.64 4.34 4 4 C4 3.34 4 2.68 4 2 C2.68 2 1.36 2 0 2 C0 1.34 0 0.68 0 0 Z " fill="#306737" transform="translate(105,117)"/>
<path d="M0 0 C0.66 0 1.32 0 2 0 C2.99 1.98 3.98 3.96 5 6 C5.66 4.02 6.32 2.04 7 0 C7.66 0 8.32 0 9 0 C9.25 6.625 9.25 6.625 7 10 C5.109375 9.78515625 5.109375 9.78515625 3 9 C1.953125 6.93359375 1.953125 6.93359375 1.25 4.4375 C1.00765625 3.61121094 0.7653125 2.78492187 0.515625 1.93359375 C0.34546875 1.29550781 0.1753125 0.65742187 0 0 Z " fill="#896637" transform="translate(113,117)"/>
<path d="M0 0 C2.125 0.375 2.125 0.375 4 1 C4.33 2.32 4.66 3.64 5 5 C3.02 5 1.04 5 -1 5 C1.0072908 8.0109362 1.83884224 8.63016497 5 10 C2.625 10.125 2.625 10.125 0 10 C-2 8 -2 8 -2.25 5 C-2 2 -2 2 0 0 Z " fill="#436737" transform="translate(227,117)"/>
<path d="M0 0 C1.67542976 0.28604898 3.34385343 0.61781233 5 1 C4.67 2.65 4.34 4.3 4 6 C2.68 6 1.36 6 0 6 C-0.38218767 4.34385343 -0.71395102 2.67542976 -1 1 C-0.67 0.67 -0.34 0.34 0 0 Z " fill="#E16537" transform="translate(160,119)"/>
<path d="M0 0 C1.32 0 2.64 0 4 0 C4 1.98 4 3.96 4 6 C2.0625 6.5625 2.0625 6.5625 0 7 C-1 6 -1 6 -1.125 3.5 C-1 1 -1 1 0 0 Z " fill="#E76537" transform="translate(205,119)"/>
<path d="M0 0 C0.66 0 1.32 0 2 0 C3.52448631 2.9826906 4.93940067 5.818202 6 9 C5.01 9 4.02 9 3 9 C2.01 6.03 1.02 3.06 0 0 Z " fill="#246738" transform="translate(113,117)"/>
</svg>
