<?xml version="1.0" encoding="UTF-8"?>
<svg version="1.1" xmlns="http://www.w3.org/2000/svg" width="300" height="168">
<path d="M0 0 C99 0 198 0 300 0 C300 55.44 300 110.88 300 168 C201 168 102 168 0 168 C0 112.56 0 57.12 0 0 Z " fill="#FEFEFE" transform="translate(0,0)"/>
<path d="M0 0 C2.7225 -0.0825 5.445 -0.165 8.25 -0.25 C9.10110352 -0.28641602 9.95220703 -0.32283203 10.82910156 -0.36035156 C14.55495672 -0.41506568 16.42662966 -0.41056148 19.53125 1.8125 C21.44792008 4.66711501 21.3060737 6.63318935 21 10 C19.02 10.99 19.02 10.99 17 12 C17 12.66 17 13.32 17 14 C17.9590625 14.2165625 17.9590625 14.2165625 18.9375 14.4375 C21 15 21 15 22 16 C22.23828125 17.9609375 22.23828125 17.9609375 22.3125 20.375 C22.34988281 21.16648437 22.38726562 21.95796875 22.42578125 22.7734375 C22 25 22 25 20.55859375 26.77734375 C16.66871986 28.63616898 12.99527943 28.31585799 8.75 28.1875 C5.8625 28.125625 2.975 28.06375 0 28 C0 18.76 0 9.52 0 0 Z " fill="#3B2C29" transform="translate(183,81)"/>
<path d="M0 0 C8 0 8 0 9.98828125 1.79296875 C10.64376953 2.97826172 10.64376953 2.97826172 11.3125 4.1875 C11.76238281 4.96480469 12.21226562 5.74210937 12.67578125 6.54296875 C13.33126953 7.75919922 13.33126953 7.75919922 14 9 C14.99 10.65 15.98 12.3 17 14 C17.33 9.38 17.66 4.76 18 0 C20.31 0 22.62 0 25 0 C25 9.24 25 18.48 25 28 C22.36 28 19.72 28 17 28 C14.96566594 25.71451359 13.83946988 24.14051234 12.5 21.5 C12.15453125 20.87996094 11.8090625 20.25992188 11.453125 19.62109375 C10.60818036 18.09549927 9.80028512 16.54948821 9 15 C8.67 19.29 8.34 23.58 8 28 C5.36 28 2.72 28 0 28 C0 18.76 0 9.52 0 0 Z " fill="#392926" transform="translate(123,81)"/>
<path d="M0 0 C2.64 0 5.28 0 8 0 C15.76595745 19.53191489 15.76595745 19.53191489 18 28 C15.36 28 12.72 28 10 28 C9.67 27.01 9.34 26.02 9 25 C5.7 24.67 2.4 24.34 -1 24 C-1.33 25.32 -1.66 26.64 -2 28 C-4.64 28 -7.28 28 -10 28 C-8.71026414 24.27016275 -7.41787231 20.54125111 -6.125 16.8125 C-5.57779297 15.22985352 -5.57779297 15.22985352 -5.01953125 13.61523438 C-4.66503906 12.59365234 -4.31054688 11.57207031 -3.9453125 10.51953125 C-3.45828857 9.11344604 -3.45828857 9.11344604 -2.96142578 7.67895508 C-2.03321765 5.09255898 -1.03714092 2.54442549 0 0 Z " fill="#392926" transform="translate(217,81)"/>
<path d="M0 0 C2.71835171 1.77008949 3.64758872 2.73425729 4.6875 5.75 C2.9375 7.3125 2.9375 7.3125 0.6875 8.75 C-1.125 8.4375 -1.125 8.4375 -3.3125 7.75 C-6.89607241 7.49984127 -6.89607241 7.49984127 -10.3125 7.75 C-12.68448957 9.68602047 -12.68448957 9.68602047 -12.5625 13.1875 C-12.60059647 16.85420618 -12.60059647 16.85420618 -10.3125 19.75 C-7.0377906 19.99257107 -4.27487216 20.05245982 -1.125 19.0625 C0.6875 18.75 0.6875 18.75 2.9375 20.1875 C3.515 20.703125 4.0925 21.21875 4.6875 21.75 C3.64758872 24.76574271 2.71835171 25.72991051 0 27.5 C-4.95429045 29.36954357 -8.5331278 29.41290337 -13.5 27.5625 C-17.53843343 24.95995401 -19.79289779 22.30880664 -21.3125 17.75 C-21.86135106 13.0262819 -21.77846728 9.64865118 -19.5625 5.375 C-14.10810496 -0.98846088 -8.13827349 -3.0710466 0 0 Z " fill="#3A2B28" transform="translate(174.3125,81.25)"/>
<path d="M0 0 C4.95 0 9.9 0 15 0 C11.92442513 3.84446858 9.57822242 6.35888315 5.8125 9.3125 C4.93207031 10.00988281 4.05164063 10.70726563 3.14453125 11.42578125 C1 13 1 13 0 13 C-0.3125 10.75 -0.3125 10.75 0 8 C2.5 5.6875 2.5 5.6875 5 4 C3.35 3.67 1.7 3.34 0 3 C0 2.01 0 1.02 0 0 Z " fill="#311E1C" transform="translate(99,81)"/>
<path d="M0 0 C0.33 0 0.66 0 1 0 C1 4.62 1 9.24 1 14 C0.01 14 -0.98 14 -2 14 C-2.33 12.68 -2.66 11.36 -3 10 C-3.391875 10.66 -3.78375 11.32 -4.1875 12 C-4.785625 12.66 -5.38375 13.32 -6 14 C-8.61328125 14.125 -8.61328125 14.125 -11 14 C-7.46653832 9.21586287 -3.91812412 4.47785614 0 0 Z " fill="#301F1B" transform="translate(90,63)"/>
<path d="M0 0 C2.62697064 -0.22137393 5.00893964 -0.28162025 7.625 -0.1875 C8.33140625 -0.17396484 9.0378125 -0.16042969 9.765625 -0.14648438 C11.51074128 -0.1111104 13.25546608 -0.05730221 15 0 C12.25436169 3.52259553 9.65880774 6.40032081 6 9 C5.34 9 4.68 9 4 9 C3.67 8.01 3.34 7.02 3 6 C3.66 5.34 4.32 4.68 5 4 C2.69 3.67 0.38 3.34 -2 3 C-1.34 2.01 -0.68 1.02 0 0 Z " fill="#2F1E1C" transform="translate(75,81)"/>
<path d="M0 0 C0 4.62 0 9.24 0 14 C-4 12 -4 12 -5 9 C-5.99 9.33 -6.98 9.66 -8 10 C-8.66 9.67 -9.32 9.34 -10 9 C-10 8.34 -10 7.68 -10 7 C-8.06640625 5.2734375 -8.06640625 5.2734375 -5.5625 3.375 C-4.73878906 2.74335937 -3.91507812 2.11171875 -3.06640625 1.4609375 C-1 0 -1 0 0 0 Z " fill="#423431" transform="translate(95,83)"/>
<path d="M0 0 C4.95 0 9.9 0 15 0 C12.51567521 4.14054132 10.43301849 6.75255007 7 10 C6.34 9.01 5.68 8.02 5 7 C5.99 5.68 6.98 4.36 8 3 C5.69 3 3.38 3 1 3 C0.67 2.01 0.34 1.02 0 0 Z " fill="#2E1D1A" transform="translate(59,76)"/>
<path d="M0 0 C4.5 4.5 4.5 4.5 5 9 C6.32 9.33 7.64 9.66 9 10 C9 10.66 9 11.32 9 12 C4.545 13.485 4.545 13.485 0 15 C0 10.05 0 5.1 0 0 Z " fill="#40302E" transform="translate(95,65)"/>
<path d="M0 0 C3.3 1.65 6.6 3.3 10 5 C10 5.66 10 6.32 10 7 C5.05 9.475 5.05 9.475 0 12 C0 10.68 0 9.36 0 8 C0.99 7.67 1.98 7.34 3 7 C3 6.34 3 5.68 3 5 C1.68 4.67 0.36 4.34 -1 4 C-0.67 2.68 -0.34 1.36 0 0 Z " fill="#3B2B29" transform="translate(80,93)"/>
<path d="M0 0 C5.75 4.5 5.75 4.5 8 9 C3.38 9 -1.24 9 -6 9 C-5.67 8.01 -5.34 7.02 -5 6 C-3.35 5.67 -1.7 5.34 0 5 C-0.2784375 4.0409375 -0.2784375 4.0409375 -0.5625 3.0625 C-0.706875 2.381875 -0.85125 1.70125 -1 1 C-0.67 0.67 -0.34 0.34 0 0 Z " fill="#2D1B17" transform="translate(66,63)"/>
<path d="M0 0 C2.46800047 1.15173355 4.04783565 2.04783565 6 4 C6.99 2.68 7.98 1.36 9 0 C9.99 0.33 10.98 0.66 12 1 C10.64978174 5.41889613 8.73884332 7.34345343 5 10 C3.96704564 8.90716423 2.94892165 7.80029421 1.9375 6.6875 C1.36902344 6.07261719 0.80054687 5.45773438 0.21484375 4.82421875 C-0.38650391 3.92123047 -0.38650391 3.92123047 -1 3 C-0.67 2.01 -0.34 1.02 0 0 Z " fill="#372724" transform="translate(73,61)"/>
<path d="M0 0 C0 3.96 0 7.92 0 12 C-0.99 12.33 -1.98 12.66 -3 13 C-3.33 10.69 -3.66 8.38 -4 6 C-5.32 6.33 -6.64 6.66 -8 7 C-8.33 6.01 -8.66 5.02 -9 4 C-2.25 0 -2.25 0 0 0 Z " fill="#301D19" transform="translate(91,104)"/>
<path d="M0 0 C0 1.32 0 2.64 0 4 C-0.96679688 4.35191406 -0.96679688 4.35191406 -1.953125 4.7109375 C-4.2077908 5.81161073 -4.2077908 5.81161073 -4.609375 8.1640625 C-4.65578125 8.97617188 -4.7021875 9.78828125 -4.75 10.625 C-4.80671875 11.44226563 -4.8634375 12.25953125 -4.921875 13.1015625 C-4.94765625 13.72804688 -4.9734375 14.35453125 -5 15 C-5.99 15.33 -6.98 15.66 -8 16 C-8.34433896 11.9444522 -8.53765149 8.04313918 -8 4 C-5.31491676 1.43165951 -3.77787347 0 0 0 Z " fill="#2D1B18" transform="translate(103,97)"/>
<path d="M0 0 C2.375 -0.125 2.375 -0.125 5 0 C7 2 7 2 7 5 C4.69 5.33 2.38 5.66 0 6 C0 4.02 0 2.04 0 0 Z " fill="#E4E3E3" transform="translate(191,97)"/>
<path d="M0 0 C0.99 0.33 1.98 0.66 3 1 C5.22574335 1.22451458 7.45581519 1.40782878 9.6875 1.5625 C10.86699219 1.64628906 12.04648438 1.73007813 13.26171875 1.81640625 C14.61716797 1.90728516 14.61716797 1.90728516 16 2 C15.67 2.66 15.34 3.32 15 4 C10.05 3.67 5.1 3.34 0 3 C0 3.99 0 4.98 0 6 C1.98 6 3.96 6 6 6 C6 6.33 6 6.66 6 7 C3.69 7 1.38 7 -1 7 C-1.33 5.02 -1.66 3.04 -2 1 C-1.34 0.67 -0.68 0.34 0 0 Z " fill="#D6D4D3" transform="translate(99,78)"/>
<path d="M0 0 C1.9451 2.91765 2.45276317 4.62537285 3 8 C1.35 8 -0.3 8 -2 8 C-1.125 1.125 -1.125 1.125 0 0 Z " fill="#DFDDDC" transform="translate(221,90)"/>
<path d="M0 0 C2.475 0.495 2.475 0.495 5 1 C4.67 2.32 4.34 3.64 4 5 C2.68 5 1.36 5 0 5 C0 3.35 0 1.7 0 0 Z " fill="#F4F4F3" transform="translate(191,87)"/>
<path d="M0 0 C1.67542976 0.28604898 3.34385343 0.61781233 5 1 C2.94766315 3.2477975 1.99332739 4.0022242 -1 5 C-1 1 -1 1 0 0 Z " fill="#322321" transform="translate(81,100)"/>
<path d="M0 0 C0.66 0.66 1.32 1.32 2 2 C1.01 3.485 1.01 3.485 0 5 C-2.625 5.1875 -2.625 5.1875 -5 5 C-3.35 3.35 -1.7 1.7 0 0 Z " fill="#2B1716" transform="translate(84,72)"/>
<path d="M0 0 C1.65 1.65 3.3 3.3 5 5 C3.125 5.625 3.125 5.625 1 6 C0.34 5.34 -0.32 4.68 -1 4 C-0.625 1.875 -0.625 1.875 0 0 Z " fill="#362523" transform="translate(66,63)"/>
</svg>
