<?xml version="1.0" encoding="UTF-8"?>
<svg version="1.1" xmlns="http://www.w3.org/2000/svg" width="364" height="138">
<path d="M0 0 C120.12 0 240.24 0 364 0 C364 45.54 364 91.08 364 138 C243.88 138 123.76 138 0 138 C0 92.46 0 46.92 0 0 Z " fill="#FDFDFD" transform="translate(0,0)"/>
<path d="M0 0 C7.43259784 -0.35800886 14.86294303 -0.60134001 22.30224609 -0.76904297 C24.82652828 -0.83900966 27.35025208 -0.93422717 29.87255859 -1.05615234 C52.00725619 -2.09850652 52.00725619 -2.09850652 58.86621094 3.17871094 C62.40714394 6.45695702 65.27213248 10.02876214 68 14 C69.12790495 13.04663763 70.25392814 12.09104867 71.37915039 11.13452148 C72.00640518 10.60261703 72.63365997 10.07071259 73.27992249 9.52268982 C75.77259745 7.31606206 77.83771044 4.80010021 79.93359375 2.22265625 C83.93146089 -0.14281145 89.55727069 1.89846652 93.88989258 2.89208984 C95.22637849 3.24229851 96.56123095 3.59878976 97.89453125 3.9609375 C98.60856613 4.15217194 99.32260101 4.34340637 100.05827332 4.54043579 C101.5522312 4.94273429 103.04541776 5.34790747 104.5378418 5.75585938 C106.82114037 6.37735183 109.10850318 6.98194375 111.39648438 7.5859375 C112.85444308 7.98075151 114.3121356 8.37655009 115.76953125 8.7734375 C116.45078568 8.9516806 117.1320401 9.12992371 117.8339386 9.31356812 C124.00221313 11.03129811 124.00221313 11.03129811 126 14 C126.84375 16.4609375 126.84375 16.4609375 127.5 19.375 C127.7475 20.44363281 127.995 21.51226563 128.25 22.61328125 C128.4975 23.73089844 128.745 24.84851563 129 26 C129.49830854 28.18788593 129.99829732 30.37538988 130.5 32.5625 C130.74363281 33.63628906 130.98726562 34.71007813 131.23828125 35.81640625 C132.18419646 39.76984675 133.29109529 43.66645391 134.44921875 47.5625 C135.04460483 50.19740012 135.29164384 52.31024342 135 55 C133.80664062 56.76098633 133.80664062 56.76098633 132.15625 58.33203125 C131.27646484 59.18764648 131.27646484 59.18764648 130.37890625 60.06054688 C129.75886719 60.63869141 129.13882813 61.21683594 128.5 61.8125 C127.87996094 62.40998047 127.25992188 63.00746094 126.62109375 63.62304688 C125.09174512 65.09357441 123.54728534 66.5483573 122 68 C125.6868757 72.40626608 129.3142158 76.30434108 133.77734375 79.93359375 C136.55952978 84.6357548 133.70088154 91.39263319 132.4765625 96.37109375 C131.86460373 98.72792635 131.2472818 101.08337196 130.625 103.4375 C130.32078125 104.61376953 130.0165625 105.79003906 129.703125 107.00195312 C129.10229628 109.29871078 128.47728198 111.58930186 127.82617188 113.87231445 C126.95213544 116.90303835 126.95213544 116.90303835 126.65820312 119.69604492 C126.19501397 122.44270012 125.80394161 123.85857845 124 126 C118.92297786 128.2898633 113.68832802 129.34211625 108.25 130.4375 C106.78043904 130.76131529 105.31167204 131.08875631 103.84375 131.41992188 C101.12751132 132.03013555 98.41056981 132.61407818 95.68457031 133.18139648 C93.16559238 133.74103954 90.66440691 134.38567655 88.18530273 135.1015625 C84.7237109 136.07792932 83.31088945 136.35277995 80 135 C77.70466886 133.15290035 75.70381359 131.08121129 73.6875 128.9375 C73.13771484 128.36966797 72.58792969 127.80183594 72.02148438 127.21679688 C70.67172635 125.82009075 69.33458475 124.41121163 68 123 C63.7099994 126.04200043 59.99370055 128.93987165 56.625 133 C53.70421771 135.94029753 53.70421771 135.94029753 50.97265625 136.171875 C48.22099174 135.6638754 45.66435771 134.86033077 43 134 C40.86457495 133.40609641 38.72387091 132.83417007 36.58227539 132.26293945 C35.01760428 131.83496022 33.45804155 131.38788225 31.90405273 130.92260742 C28.23027846 129.82442049 24.76364441 128.89791832 20.9375 128.55859375 C16.77807492 127.99901008 14.40163477 127.49205712 11 125 C7.94035308 119.38540429 6.91135545 112.9421011 5.77938843 106.71269226 C5.20516512 103.97732392 4.56252555 101.36470006 3.79562378 98.68499756 C0.3694155 86.54242393 -0.68172076 75.46191748 -0.48828125 62.890625 C-0.47891858 61.05833925 -0.4718189 59.22604071 -0.46684265 57.39373779 C-0.44804379 52.64580743 -0.39918894 47.89868148 -0.34332275 43.15106201 C-0.29153332 38.27659986 -0.26920318 33.4020036 -0.24414062 28.52734375 C-0.19103405 19.01788193 -0.10606505 9.50900867 0 0 Z " fill="#111111" transform="translate(0,0)"/>
<path d="M0 0 C29.80955882 0 29.80955882 0 36.359375 5.203125 C41.32482064 10.64147022 44.34608766 17.38272955 44.5 24.75 C44.38423426 26.50410264 44.2210284 28.25603205 44 30 C43.91492188 30.72058594 43.82984375 31.44117187 43.7421875 32.18359375 C42.58155873 38.51766351 39.20527675 43.72523822 33.94970703 47.45507812 C26.72138789 51.39752068 20.48192298 51.60391185 12.375 51.3125 C8.29125 51.209375 4.2075 51.10625 0 51 C0 34.17 0 17.34 0 0 Z " fill="#101010" transform="translate(320,43)"/>
<path d="M0 0 C23 0 23 0 32 3 C37.74579189 8.86549589 38.4822164 12.63348602 38.40234375 20.65625 C37.78991205 25.74597366 35.89945877 28.73650446 32 32 C25.91119738 35.97801771 19.00403737 35.238774 12 35 C12 40.28 12 45.56 12 51 C8.04 51 4.08 51 0 51 C0 34.17 0 17.34 0 0 Z " fill="#101010" transform="translate(159,43)"/>
<path d="M0 0 C3.3 0 6.6 0 10 0 C12.99186643 5.78166962 15.53789389 11.61267441 17.890625 17.6796875 C18.24010193 18.57366241 18.58957886 19.46763733 18.949646 20.38870239 C19.6808544 22.26199123 20.41017998 24.13601601 21.13769531 26.01074219 C22.25563817 28.88951867 23.38132099 31.76518445 24.5078125 34.640625 C25.21921094 36.46596626 25.93016456 38.29148095 26.640625 40.1171875 C27.14677338 41.40929642 27.14677338 41.40929642 27.66314697 42.72750854 C27.97056824 43.52238678 28.2779895 44.31726501 28.59472656 45.13623047 C28.86690002 45.8360202 29.13907349 46.53580994 29.41949463 47.25680542 C30 49 30 49 30 51 C25.38 51 20.76 51 16 51 C15.34 49.02 14.68 47.04 14 45 C8.06 45 2.12 45 -4 45 C-4.66 46.98 -5.32 48.96 -6 51 C-10.62 51 -15.24 51 -20 51 C-17.96204222 44.71347836 -15.71196418 38.56983472 -13.2421875 32.44140625 C-12.7194072 31.13586037 -12.7194072 31.13586037 -12.18606567 29.80393982 C-11.45615266 27.98249322 -10.7250081 26.16153969 -9.99267578 24.34106445 C-8.8686933 21.54682143 -7.74848425 18.75108846 -6.62890625 15.95507812 C-5.91688316 14.17960067 -5.20465113 12.40420698 -4.4921875 10.62890625 C-3.98907547 9.37431358 -3.98907547 9.37431358 -3.47579956 8.09437561 C-3.16522614 7.32274582 -2.85465271 6.55111603 -2.53466797 5.75610352 C-2.12521439 4.73759056 -2.12521439 4.73759056 -1.70748901 3.69850159 C-1.18536754 2.44502042 -0.60726038 1.21452076 0 0 Z " fill="#121212" transform="translate(259,43)"/>
<path d="M0 0 C17.16 0 34.32 0 52 0 C48.81337998 1.59331001 46.41681643 2.51995061 43.03515625 3.3671875 C41.59644165 3.73070312 41.59644165 3.73070312 40.12866211 4.1015625 C39.11682861 4.35679687 38.10499512 4.61203125 37.0625 4.875 C36.02939697 5.1534375 34.99629395 5.431875 33.93188477 5.71875 C25.17692433 8.07080842 25.17692433 8.07080842 20.8046875 8.5078125 C16.94752902 9.07161989 14.99471611 9.46965443 12 12 C9.01558852 18.02211601 7.85421227 24.72071763 6.56884766 31.26855469 C5.80612058 34.93095405 4.73765199 38.42880769 3.625 42 C2.35149787 46.14147033 1.30945895 49.67710076 2 54 C3.75429758 56.34254715 5.864391 58.20441761 8.0625 60.125 C10.20703429 62.01485597 12.0750776 63.86384191 14 66 C13.72149036 69.17883795 12.5472597 70.82339025 10.3125 73.015625 C9.51199219 73.80839844 9.51199219 73.80839844 8.6953125 74.6171875 C8.13585938 75.15601562 7.57640625 75.69484375 7 76.25 C6.44054687 76.80429688 5.88109375 77.35859375 5.3046875 77.9296875 C1.1541718 82 1.1541718 82 0 82 C0 54.94 0 27.88 0 0 Z " fill="#FAFAFA" transform="translate(0,0)"/>
<path d="M0 0 C3.96 0 7.92 0 12 0 C12 13.2 12 26.4 12 40 C16.95 40 21.9 40 27 40 C27 43.63 27 47.26 27 51 C18.09 51 9.18 51 0 51 C0 34.17 0 17.34 0 0 Z " fill="#0D0D0D" transform="translate(206,43)"/>
<path d="M0 0 C4.29 0 8.58 0 13 0 C13 16.83 13 33.66 13 51 C8.71 51 4.42 51 0 51 C0 34.17 0 17.34 0 0 Z " fill="#0D0D0D" transform="translate(296,43)"/>
<path d="M0 0 C10.45945946 0 10.45945946 0 15 4 C17.71331146 7.75341419 18.41029386 10.38826889 18.375 15 C18.38273437 16.010625 18.39046875 17.02125 18.3984375 18.0625 C17.943445 21.41695452 16.99086651 23.28388926 15 26 C9.60153883 29.7275089 7.25618788 29 0 29 C0 19.43 0 9.86 0 0 Z " fill="#F8F8F8" transform="translate(333,54)"/>
<path d="M0 0 C2.67867607 2.67867607 3.19580637 5.6255911 4.125 9.1875 C4.30675781 9.83525391 4.48851563 10.48300781 4.67578125 11.15039062 C5.84018601 15.53222959 6.50436541 19.48217364 6 24 C4.25 26.43359375 4.25 26.43359375 2 28.4375 C0.88625 29.45650391 0.88625 29.45650391 -0.25 30.49609375 C-1.11625 31.24052734 -1.11625 31.24052734 -2 32 C-6.07376031 30.38989473 -8.76507069 27.46177729 -11.75 24.375 C-12.25660156 23.859375 -12.76320313 23.34375 -13.28515625 22.8125 C-14.52803902 21.54616661 -15.76465276 20.2736856 -17 19 C-15.60652624 15.84795019 -13.97514921 13.73828227 -11.5234375 11.328125 C-10.51796875 10.33232422 -10.51796875 10.33232422 -9.4921875 9.31640625 C-8.79351562 8.63449219 -8.09484375 7.95257813 -7.375 7.25 C-6.66859375 6.55261719 -5.9621875 5.85523438 -5.234375 5.13671875 C-3.49401297 3.41987512 -1.74915019 1.70788168 0 0 Z " fill="#F5F5F5" transform="translate(116,28)"/>
<path d="M0 0 C1.75390625 1.71484375 1.75390625 1.71484375 3.5625 3.9375 C5.91285524 6.92648955 5.91285524 6.92648955 9 9 C7.38989473 13.07376031 4.46177729 15.76507069 1.375 18.75 C0.859375 19.25660156 0.34375 19.76320313 -0.1875 20.28515625 C-1.45383339 21.52803902 -2.7263144 22.76465276 -4 24 C-7.15204981 22.60652624 -9.26171773 20.97514921 -11.671875 18.5234375 C-12.33574219 17.853125 -12.99960937 17.1828125 -13.68359375 16.4921875 C-14.36550781 15.79351562 -15.04742187 15.09484375 -15.75 14.375 C-16.79607422 13.31539062 -16.79607422 13.31539062 -17.86328125 12.234375 C-19.58012488 10.49401297 -21.29211832 8.74915019 -23 7 C-22 5 -22 5 -20.18994141 4.31396484 C-19.41827637 4.11496582 -18.64661133 3.9159668 -17.8515625 3.7109375 C-17.01109375 3.49179687 -16.170625 3.27265625 -15.3046875 3.046875 C-14.42039062 2.82515625 -13.53609375 2.6034375 -12.625 2.375 C-11.7484375 2.14554688 -10.871875 1.91609375 -9.96875 1.6796875 C-3.42996652 0 -3.42996652 0 0 0 Z " fill="#F5F5F5" transform="translate(51,13)"/>
<path d="M0 0 C3.31419098 1.44902969 5.56592592 3.2680214 8.125 5.8125 C8.80820313 6.47894531 9.49140625 7.14539063 10.1953125 7.83203125 C12 10 12 10 14 15 C9.71 19.29 5.42 23.58 1 28 C-3.91935902 23.88380164 -8.52647956 19.59589638 -13 15 C-11.38989473 10.92623969 -8.46177729 8.23492931 -5.375 5.25 C-4.859375 4.74339844 -4.34375 4.23679687 -3.8125 3.71484375 C-2.54616661 2.47196098 -1.2736856 1.23534724 0 0 Z " fill="#F9F9F9" transform="translate(67,77)"/>
<path d="M0 0 C4.91935902 4.11619836 9.52647956 8.40410362 14 13 C11.88700851 17.57137582 9.34225639 21.31232086 5 24 C1.40611248 24.23328744 -1.61808469 23.13814458 -5 22 C-6.1653125 21.65324219 -7.330625 21.30648437 -8.53125 20.94921875 C-11.70023778 20.00196697 -14.85258867 19.0162488 -18 18 C-12 12 -6 6 0 0 Z " fill="#F7F7F7" transform="translate(45,99)"/>
<path d="M0 0 C5.23435005 4.27293882 9.67106815 8.81580806 14 14 C9.88380164 18.91935902 5.59589638 23.52647956 1 28 C-3.07376031 26.38989473 -5.76507069 23.46177729 -8.75 20.375 C-9.25660156 19.859375 -9.76320313 19.34375 -10.28515625 18.8125 C-11.52803902 17.54616661 -12.76465276 16.2736856 -14 15 C-9.59156563 9.70987876 -4.92440206 4.81191572 0 0 Z " fill="#FAFAFA" transform="translate(90,54)"/>
<path d="M0 0 C4.07376031 1.61010527 6.76507069 4.53822271 9.75 7.625 C10.25660156 8.140625 10.76320313 8.65625 11.28515625 9.1875 C12.52803902 10.45383339 13.76465276 11.7263144 15 13 C13.43416404 17.03721561 10.55826135 19.47070582 7.375 22.25 C6.859375 22.70890625 6.34375 23.1678125 5.8125 23.640625 C4.5465398 24.76592296 3.27392058 25.88372177 2 27 C-2.07376031 25.38989473 -4.76507069 22.46177729 -7.75 19.375 C-8.25660156 18.859375 -8.76320313 18.34375 -9.28515625 17.8125 C-10.52803902 16.54616661 -11.76465276 15.2736856 -13 14 C-8.88380164 9.08064098 -4.59589638 4.47352044 0 0 Z " fill="#FAFAFA" transform="translate(67,32)"/>
<path d="M0 0 C3.74728259 1.56136775 6.15511833 3.88777149 9 6.75 C9.845625 7.59046875 10.69125 8.4309375 11.5625 9.296875 C14 12 14 12 18 18 C13.71 22.29 9.42 26.58 5 31 C0.76088542 28.88044271 -2.50123176 27.10207346 -5 23 C-6.06529731 15.34922844 -2.40031393 7.12279204 0 0 Z " fill="#F8F8F8" transform="translate(19,28)"/>
<path d="M0 0 C3.00459862 0.69391247 5.93350878 1.57766801 8.875 2.5 C9.65875 2.73847656 10.4425 2.97695313 11.25 3.22265625 C13.16894 3.80769893 15.08479854 4.40283251 17 5 C14.90631944 9.65205762 11.63816571 12.69241146 8.0625 16.25 C7.42892578 16.8996875 6.79535156 17.549375 6.14257812 18.21875 C5.52962891 18.83234375 4.91667969 19.4459375 4.28515625 20.078125 C3.72707275 20.63918945 3.16898926 21.20025391 2.59399414 21.77832031 C1 23 1 23 -2 23 C-3.6484375 21.42578125 -3.6484375 21.42578125 -5.375 19.3125 C-8.11997101 16.03135631 -10.93034295 12.97663714 -14 10 C-12.89896897 7.13731931 -11.28765476 5.00102175 -9.25 2.75 C-8.78078125 2.22921875 -8.3115625 1.7084375 -7.828125 1.171875 C-5.06958261 -0.5964214 -3.25001132 -0.31818293 0 0 Z " fill="#F8F8F8" transform="translate(91,14)"/>
<path d="M0 0 C4.91935902 4.11619836 9.52647956 8.40410362 14 13 C12.38989473 17.07376031 9.46177729 19.76507069 6.375 22.75 C5.859375 23.25660156 5.34375 23.76320313 4.8125 24.28515625 C3.54616661 25.52803902 2.2736856 26.76465276 1 28 C-3.91935902 23.88380164 -8.52647956 19.59589638 -13 15 C-11.38989473 10.92623969 -8.46177729 8.23492931 -5.375 5.25 C-4.859375 4.74339844 -4.34375 4.23679687 -3.8125 3.71484375 C-2.54616661 2.47196098 -1.2736856 1.23534724 0 0 Z " fill="#FEFEFE" transform="translate(45,54)"/>
<path d="M0 0 C1.1055189 0.93590504 2.20935453 1.87379858 3.3125 2.8125 C4.23482422 3.59560547 4.23482422 3.59560547 5.17578125 4.39453125 C5.77777344 4.92433594 6.37976563 5.45414062 7 6 C7.59167969 6.41636719 8.18335937 6.83273438 8.79296875 7.26171875 C10 9 10 9 9.81640625 12.16015625 C8.94072575 16.27878749 7.99281971 20.36165392 6.9375 24.4375 C6.75123047 25.16904297 6.56496094 25.90058594 6.37304688 26.65429688 C5.9186242 28.43703198 5.45977534 30.21863787 5 32 C4.34 32 3.68 32 3 32 C1.58984375 30.56640625 1.58984375 30.56640625 -0.0625 28.5625 C-4.12068366 23.77658299 -8.52000931 19.3885623 -13 15 C-11.38989473 10.92623969 -8.46177729 8.23492931 -5.375 5.25 C-4.859375 4.74339844 -4.34375 4.23679687 -3.8125 3.71484375 C-2.54616661 2.47196098 -1.2736856 1.23534724 0 0 Z " fill="#FBFBFB" transform="translate(112,77)"/>
<path d="M0 0 C4.07376031 1.61010527 6.76507069 4.53822271 9.75 7.625 C10.25660156 8.140625 10.76320313 8.65625 11.28515625 9.1875 C12.52803902 10.45383339 13.76465276 11.7263144 15 13 C9.72898586 19.41069287 3.90871848 25.18590512 -2 31 C-6.93669796 25.58415194 -9.27877023 16.23309191 -9 9 C-6.73562783 4.88066223 -3.94334284 2.49745046 0 0 Z " fill="#FBFBFB" transform="translate(22,77)"/>
<path d="M0 0 C3.15204981 1.39347376 5.26171773 3.02485079 7.671875 5.4765625 C8.66767578 6.48203125 8.66767578 6.48203125 9.68359375 7.5078125 C10.36550781 8.20648438 11.04742187 8.90515625 11.75 9.625 C12.44738281 10.33140625 13.14476563 11.0378125 13.86328125 11.765625 C15.58012488 13.50598703 17.29211832 15.25084981 19 17 C15.28809631 19.47460246 11.86188638 20.18755875 7.5625 21.1875 C6.79873047 21.37763672 6.03496094 21.56777344 5.24804688 21.76367188 C4.50748047 21.93833984 3.76691406 22.11300781 3.00390625 22.29296875 C2.33174072 22.4530542 1.6595752 22.61313965 0.96704102 22.77807617 C-1.31363111 23.03538422 -2.83961038 22.75662641 -5 22 C-7.140625 20.15234375 -7.140625 20.15234375 -9.25 17.9375 C-9.95640625 17.20402344 -10.6628125 16.47054687 -11.390625 15.71484375 C-11.92171875 15.14894531 -12.4528125 14.58304688 -13 14 C-8.88380164 9.08064098 -4.59589638 4.47352044 0 0 Z " fill="#FCFCFC" transform="translate(89,100)"/>
<path d="M0 0 C8.04 -0.48 8.04 -0.48 12.125 1.5625 C14 4 14 4 14.0625 7.625 C13 11 13 11 11.23046875 12.203125 C7.4757867 13.54455256 3.96083599 13.11649518 0 13 C0 8.71 0 4.42 0 0 Z " fill="#E8E8E8" transform="translate(171,54)"/>
<path d="M0 0 C1.85329634 2.77994451 2.68563605 4.78256551 3.625 7.9375 C3.88539063 8.79214844 4.14578125 9.64679688 4.4140625 10.52734375 C5 13 5 13 5 17 C1.7 17 -1.6 17 -5 17 C-3.7915371 11.05064416 -2.25422333 5.63555833 0 0 Z " fill="#ECECEC" transform="translate(264,59)"/>
</svg>
