<?xml version="1.0" encoding="UTF-8"?>
<svg version="1.1" xmlns="http://www.w3.org/2000/svg" width="384" height="131">
<path d="M0 0 C126.72 0 253.44 0 384 0 C384 43.23 384 86.46 384 131 C257.28 131 130.56 131 0 131 C0 87.77 0 44.54 0 0 Z " fill="#FEFEFE" transform="translate(0,0)"/>
<path d="M0 0 C6.03899164 5.84158032 4.61342429 15.52215695 4.76171875 23.4609375 C4.78377524 25.59241175 4.80197547 27.72392923 4.81640625 29.85546875 C4.82937744 30.8810791 4.84234863 31.90668945 4.85571289 32.96337891 C4.87172979 46.10791402 0.88981807 55.7363809 -8.06640625 65.40234375 C-14.11905606 71.02412696 -21.4024734 75.34472865 -29.37109375 77.54296875 C-33.75355737 77.09501676 -37.42651889 75.2569894 -41.30859375 73.29296875 C-42.20094727 72.86177734 -42.20094727 72.86177734 -43.11132812 72.421875 C-49.27690001 69.33571989 -54.02898179 65.54291599 -57.99609375 59.85546875 C-58.54523437 59.08847656 -59.094375 58.32148437 -59.66015625 57.53125 C-65.05154521 48.11478299 -65.92468624 40.36534271 -65.68359375 29.54296875 C-65.67392578 28.24101563 -65.66425781 26.9390625 -65.65429688 25.59765625 C-65.61145057 21.90914846 -65.50713445 18.22909834 -65.37109375 14.54296875 C-65.34837402 13.5684375 -65.3256543 12.59390625 -65.30224609 11.58984375 C-65.08621781 7.51049685 -64.70347521 4.39533575 -62.26953125 1.03515625 C-58.93339961 -1.83337742 -56.24122873 -2.75504703 -51.99609375 -3.33203125 C-51.267854 -3.44442139 -50.53961426 -3.55681152 -49.78930664 -3.67260742 C-36.8253835 -5.44010824 -10.81636553 -8.7423459 0 0 Z " fill="#F2F4F5" transform="translate(102.37109375,25.45703125)"/>
<path d="M0 0 C6.03899164 5.84158032 4.61342429 15.52215695 4.76171875 23.4609375 C4.78377524 25.59241175 4.80197547 27.72392923 4.81640625 29.85546875 C4.82937744 30.8810791 4.84234863 31.90668945 4.85571289 32.96337891 C4.87172979 46.10791402 0.88981807 55.7363809 -8.06640625 65.40234375 C-14.11905606 71.02412696 -21.4024734 75.34472865 -29.37109375 77.54296875 C-33.75355737 77.09501676 -37.42651889 75.2569894 -41.30859375 73.29296875 C-42.20094727 72.86177734 -42.20094727 72.86177734 -43.11132812 72.421875 C-49.27690001 69.33571989 -54.02898179 65.54291599 -57.99609375 59.85546875 C-58.54523437 59.08847656 -59.094375 58.32148437 -59.66015625 57.53125 C-65.05154521 48.11478299 -65.92468624 40.36534271 -65.68359375 29.54296875 C-65.67392578 28.24101563 -65.66425781 26.9390625 -65.65429688 25.59765625 C-65.61145057 21.90914846 -65.50713445 18.22909834 -65.37109375 14.54296875 C-65.34837402 13.5684375 -65.3256543 12.59390625 -65.30224609 11.58984375 C-65.08621781 7.51049685 -64.70347521 4.39533575 -62.26953125 1.03515625 C-58.93339961 -1.83337742 -56.24122873 -2.75504703 -51.99609375 -3.33203125 C-51.267854 -3.44442139 -50.53961426 -3.55681152 -49.78930664 -3.67260742 C-36.8253835 -5.44010824 -10.81636553 -8.7423459 0 0 Z M-57.37109375 2.54296875 C-62.3317751 9.98399078 -60.65215295 21.91749535 -60.74609375 30.54296875 C-60.78347656 31.84492187 -60.82085937 33.146875 -60.859375 34.48828125 C-60.96106802 45.67451371 -58.06953952 53.43450655 -50.46484375 61.65625 C-45.25244156 66.35324675 -39.03313409 70.2850289 -32.37109375 72.54296875 C-28.85539659 72.20814045 -27.36571098 71.53938024 -24.37109375 69.54296875 C-25.80742543 64.80280044 -27.78892861 60.50180407 -30.07421875 56.125 C-30.43449158 55.42710861 -30.7947644 54.72921722 -31.16595459 54.01017761 C-31.92714255 52.53756094 -32.69038587 51.06600505 -33.45556641 49.59545898 C-34.60749843 47.38159717 -35.75354952 45.16477701 -36.8984375 42.94726562 C-39.04074085 38.80444438 -41.20162902 34.67162007 -43.37109375 30.54296875 C-43.95826172 29.42196777 -44.54542969 28.3009668 -45.15039062 27.14599609 C-45.67181641 26.16711426 -46.19324219 25.18823242 -46.73046875 24.1796875 C-47.17358398 23.34526123 -47.61669922 22.51083496 -48.07324219 21.65112305 C-49.3251396 19.61761398 -50.67577759 18.20225301 -52.37109375 16.54296875 C-53.04066871 13.86978017 -53.14472083 11.30471838 -53.37109375 8.54296875 C-52.58734375 9.20296875 -51.80359375 9.86296875 -50.99609375 10.54296875 C-48.65596563 12.74498316 -48.65596563 12.74498316 -46.37109375 12.54296875 C-46.37109375 14.19296875 -46.37109375 15.84296875 -46.37109375 17.54296875 C-45.38109375 17.21296875 -44.39109375 16.88296875 -43.37109375 16.54296875 C-38.18421203 16.10723717 -33.25314045 15.89644795 -28.43359375 18.04296875 C-23.32096013 20.2764381 -17.85041143 20.14569369 -12.37109375 19.54296875 C-10.08701767 18.61683184 -10.08701767 18.61683184 -8.37109375 17.54296875 C-7.04823129 22.50370297 -7.28216178 27.45408387 -7.37109375 32.54296875 C-11.93811516 35.21634714 -15.09145589 36.01436499 -20.37109375 35.54296875 C-22.37109375 34.87630208 -24.37109375 34.20963542 -26.37109375 33.54296875 C-31.03325291 33.1998086 -31.03325291 33.1998086 -35.37109375 34.54296875 C-34.80711885 39.13509036 -33.56800083 42.65252447 -31.5 46.78125 C-30.92572266 47.93044922 -30.35144531 49.07964844 -29.75976562 50.26367188 C-29.45997803 50.852854 -29.16019043 51.44203613 -28.85131836 52.04907227 C-27.92986007 53.86281791 -27.02375136 55.68366243 -26.11914062 57.50585938 C-23.69649546 63.39048206 -23.69649546 63.39048206 -19.37109375 67.54296875 C-19.70109375 65.56296875 -20.03109375 63.58296875 -20.37109375 61.54296875 C-19.38109375 60.88296875 -18.39109375 60.22296875 -17.37109375 59.54296875 C-18.71959212 55.18326044 -20.42017221 51.22955437 -22.49609375 47.16796875 C-23.03492188 46.10835937 -23.57375 45.04875 -24.12890625 43.95703125 C-24.53882813 43.16039062 -24.94875 42.36375 -25.37109375 41.54296875 C-24.38109375 41.87296875 -23.39109375 42.20296875 -22.37109375 42.54296875 C-16.50987563 43.05955069 -12.28679768 43.07613095 -7.37109375 39.54296875 C-6.38109375 40.03796875 -6.38109375 40.03796875 -5.37109375 40.54296875 C-5.10296875 39.73859375 -4.83484375 38.93421875 -4.55859375 38.10546875 C-4.16671875 37.25984375 -3.77484375 36.41421875 -3.37109375 35.54296875 C-2.38109375 35.21296875 -1.39109375 34.88296875 -0.37109375 34.54296875 C-0.31292169 30.31386006 -0.27743912 26.08485466 -0.24609375 21.85546875 C-0.22933594 20.65728516 -0.21257812 19.45910156 -0.1953125 18.22460938 C-0.18886719 17.06767578 -0.18242188 15.91074219 -0.17578125 14.71875 C-0.16530762 13.65567627 -0.15483398 12.59260254 -0.14404297 11.49731445 C-0.38206741 8.40018134 -0.93021054 6.28795005 -2.37109375 3.54296875 C-15.05227093 -4.91114937 -43.53803832 -2.31459262 -57.37109375 2.54296875 Z " fill="#081B3C" transform="translate(102.37109375,25.45703125)"/>
<path d="M0 0 C2.49361571 1.20381448 4.68143083 2.45428722 7 4 C7.6875 6.125 7.6875 6.125 8 8 C8.66 7.67 9.32 7.34 10 7 C15.17628453 6.54685725 20.13022375 6.3544367 24.9375 8.5 C30.76456099 11.04030965 37.90429874 11.10228926 43.86328125 8.98046875 C44.92095703 8.49513672 44.92095703 8.49513672 46 8 C47.12862175 13.36095333 47.09688221 18.55306686 47 24 C42.05930651 27.22657534 39.06888493 28.66206017 33 28 C32.05125 27.67 31.1025 27.34 30.125 27 C26.02286537 25.68731692 22.26879078 25.82924837 18 26 C18 26.99 18 27.98 18 29 C17.34 29 16.68 29 16 29 C16.66 31.97 17.32 34.94 18 38 C15.84019373 35.26777118 14.19331923 32.58625242 12.6953125 29.4453125 C12.27636719 28.58292969 11.85742188 27.72054687 11.42578125 26.83203125 C10.56310766 25.03673756 9.70369502 23.23987303 8.84765625 21.44140625 C6.92579527 17.49777103 5.13226375 13.9277568 2.19921875 10.640625 C-1.00465842 6.79369611 -0.41496166 4.81355529 0 0 Z " fill="#007FB8" transform="translate(49,34)"/>
<path d="M0 0 C0.33 0 0.66 0 1 0 C1 8.58 1 17.16 1 26 C-0.98 26.99 -0.98 26.99 -3 28 C-4.26804566 30.0335948 -4.26804566 30.0335948 -5 32 C-5.66 32 -6.32 32 -7 32 C-7.89525391 32.48919922 -7.89525391 32.48919922 -8.80859375 32.98828125 C-11.39975174 34.18455562 -13.2217477 34.23463164 -16.0625 34.1875 C-16.91972656 34.18105469 -17.77695313 34.17460938 -18.66015625 34.16796875 C-21 34 -21 34 -24 33 C-23.4225 34.13179687 -22.845 35.26359375 -22.25 36.4296875 C-21.49979009 37.91135207 -20.74980153 39.39312873 -20 40.875 C-19.42765625 41.99455078 -19.42765625 41.99455078 -18.84375 43.13671875 C-18.4828125 43.85214844 -18.121875 44.56757812 -17.75 45.3046875 C-17.41484375 45.96452637 -17.0796875 46.62436523 -16.734375 47.30419922 C-16 49 -16 49 -16 51 C-16.99 51.66 -17.98 52.32 -19 53 C-18.67 54.98 -18.34 56.96 -18 59 C-22.29411755 55.26224443 -24.29257358 49.896837 -26.78051758 44.88500977 C-27.68522404 43.06707335 -28.60461954 41.25710792 -29.52539062 39.44726562 C-30.38487305 37.72733398 -30.38487305 37.72733398 -31.26171875 35.97265625 C-31.78725342 34.92343994 -32.31278809 33.87422363 -32.85424805 32.79321289 C-34 30 -34 30 -34 26 C-30.96344656 24.48172328 -28.36087176 24.83195641 -25 25 C-23 25.66666667 -21 26.33333333 -19 27 C-13.15886145 27.52153023 -11.60157955 26.80078977 -6 24 C-6 18.39 -6 12.78 -6 7 C-5.34 8.32 -4.68 9.64 -4 11 C-2.68 10.34 -1.36 9.68 0 9 C0 6.03 0 3.06 0 0 Z " fill="#E0E1E1" transform="translate(101,34)"/>
<path d="M0 0 C4.20766403 4.07011781 3.91442455 7.57384657 4.19140625 13.16796875 C4.23458984 13.96976563 4.27777344 14.7715625 4.32226562 15.59765625 C4.42842082 17.57921985 4.5291748 19.56107146 4.62890625 21.54296875 C3.96890625 21.54296875 3.30890625 21.54296875 2.62890625 21.54296875 C2.62890625 20.55296875 2.62890625 19.56296875 2.62890625 18.54296875 C1.96890625 18.54296875 1.30890625 18.54296875 0.62890625 18.54296875 C0.50773437 17.87910156 0.3865625 17.21523438 0.26171875 16.53125 C-0.24532686 13.85950965 -0.80103145 11.20190217 -1.37109375 8.54296875 C-1.57734375 7.55296875 -1.78359375 6.56296875 -1.99609375 5.54296875 C-3.87133681 2.81534248 -5.96186009 2.47977795 -9.11791992 1.87304688 C-24.75856589 -0.41822556 -42.14596227 -1.43316118 -57.37109375 3.54296875 C-58.91740759 6.63559642 -58.76170091 9.91005785 -58.9921875 13.328125 C-59.17974609 14.42447266 -59.17974609 14.42447266 -59.37109375 15.54296875 C-60.03109375 15.87296875 -60.69109375 16.20296875 -61.37109375 16.54296875 C-61.93266612 18.47284133 -61.93266612 18.47284133 -62.22265625 20.796875 C-62.3515625 21.65087891 -62.48046875 22.50488281 -62.61328125 23.38476562 C-62.73960938 24.28259766 -62.8659375 25.18042969 -62.99609375 26.10546875 C-63.1971875 27.45801758 -63.1971875 27.45801758 -63.40234375 28.83789062 C-63.73330275 31.07186389 -64.0558288 33.30673571 -64.37109375 35.54296875 C-64.70109375 35.54296875 -65.03109375 35.54296875 -65.37109375 35.54296875 C-65.40062136 32.25132158 -65.41806667 28.95970937 -65.43359375 25.66796875 C-65.44197266 24.75015625 -65.45035156 23.83234375 -65.45898438 22.88671875 C-65.46878512 20.10330719 -65.43435884 17.32565169 -65.37109375 14.54296875 C-65.3541748 13.64674805 -65.33725586 12.75052734 -65.31982422 11.82714844 C-65.09754643 7.69603439 -64.75271424 4.43433049 -62.26953125 1.03515625 C-58.93339961 -1.83337742 -56.24122873 -2.75504703 -51.99609375 -3.33203125 C-51.267854 -3.44442139 -50.53961426 -3.55681152 -49.78930664 -3.67260742 C-36.8253835 -5.44010824 -10.81636553 -8.7423459 0 0 Z " fill="#05427B" transform="translate(102.37109375,25.45703125)"/>
<path d="M0 0 C0.33 0 0.66 0 1 0 C1.41302133 14.04272535 1.46557755 25.69389349 -8 37 C-10.88143695 39.82022995 -13.87611878 42.45230131 -17 45 C-17.99 44.67 -18.98 44.34 -20 44 C-20.6875 41.9375 -20.6875 41.9375 -21 40 C-19.68 39.34 -18.36 38.68 -17 38 C-17.86625 36.30230469 -17.86625 36.30230469 -18.75 34.5703125 C-19.50020991 33.08864793 -20.25019847 31.60687127 -21 30.125 C-21.3815625 29.37863281 -21.763125 28.63226563 -22.15625 27.86328125 C-22.5171875 27.14785156 -22.878125 26.43242188 -23.25 25.6953125 C-23.58515625 25.03547363 -23.9203125 24.37563477 -24.265625 23.69580078 C-25 22 -25 22 -25 20 C-24.13117188 20.03480469 -23.26234375 20.06960937 -22.3671875 20.10546875 C-13.7016644 20.48951559 -13.7016644 20.48951559 -6 17 C-5.071875 16.360625 -4.14375 15.72125 -3.1875 15.0625 C0.13392746 10.41250155 -0.09806959 5.5899665 0 0 Z " fill="#BEC1BC" transform="translate(102,47)"/>
<path d="M0 0 C12 0 12 0 17 3 C17.5 6.5625 17.5 6.5625 17 10 C16.01 10.66 15.02 11.32 14 12 C14.66 12.37125 15.32 12.7425 16 13.125 C18 15 18 15 18.4375 18 C18 21 18 21 16.6875 22.8125 C11.41178531 26.52503997 7.03351443 25 0 25 C0 16.75 0 8.5 0 0 Z " fill="#1664A1" transform="translate(251,48)"/>
<path d="M0 0 C9.38184201 -0.51907732 9.38184201 -0.51907732 13.875 1.5 C19.73674054 4.01899644 26.87633782 4.11224533 32.86328125 1.98046875 C33.92095703 1.49513672 33.92095703 1.49513672 35 1 C36.12862175 6.36095333 36.09688221 11.55306686 36 17 C31.02591982 20.24837889 28.09036004 21.69889377 22 21 C17.96690025 20.11332606 13.98040138 19.09804176 10 18 C11.32144108 15.20891884 12.80382361 12.74213611 14.625 10.25 C15.07101563 9.63640625 15.51703125 9.0228125 15.9765625 8.390625 C16.31429687 7.93171875 16.65203125 7.4728125 17 7 C11.34106977 3.44295814 6.66656829 1.78430215 0 1 C0 0.67 0 0.34 0 0 Z " fill="#025B9B" transform="translate(60,41)"/>
<path d="M0 0 C1.65 0 3.3 0 5 0 C5.33 2.97 5.66 5.94 6 9 C7.093125 8.773125 8.18625 8.54625 9.3125 8.3125 C13 8 13 8 14.703125 9.140625 C16.4548232 11.65209591 16.43337122 13.39459146 16.4375 16.4375 C16.46650391 17.85869141 16.46650391 17.85869141 16.49609375 19.30859375 C16 22 16 22 12 26 C8.04 26 4.08 26 0 26 C0 17.42 0 8.84 0 0 Z " fill="#05599B" transform="translate(194,47)"/>
<path d="M0 0 C1.98 0 3.96 0 6 0 C6.33 4.29 6.66 8.58 7 13 C8.32 11.35 9.64 9.7 11 8 C13.75 7.6875 13.75 7.6875 16 8 C14.79618552 10.49361571 13.54571278 12.68143083 12 15 C12.29009123 19.06127728 14.967326 22.59035329 17 26 C14.25 26.375 14.25 26.375 11 26 C8.625 23 8.625 23 7 20 C6.67 21.98 6.34 23.96 6 26 C4.02 26 2.04 26 0 26 C0 17.42 0 8.84 0 0 Z " fill="#3071A8" transform="translate(312,47)"/>
<path d="M0 0 C0 1.32 0 2.64 0 4 C-2.97 4 -5.94 4 -9 4 C-9.33 5.32 -9.66 6.64 -10 8 C-9.37351562 8.19335938 -8.74703125 8.38671875 -8.1015625 8.5859375 C-7.28429687 8.84632812 -6.46703125 9.10671875 -5.625 9.375 C-4.81289062 9.63023438 -4.00078125 9.88546875 -3.1640625 10.1484375 C-1 11 -1 11 1 13 C1.61237984 16.93672752 1.30777434 18.54330259 -0.9375 21.875 C-4.99601522 24.6911126 -8.19265548 24.66112793 -13 24 C-13.66 23.67 -14.32 23.34 -15 23 C-14.67 21.68 -14.34 20.36 -14 19 C-11.36 19 -8.72 19 -6 19 C-6 17.68 -6 16.36 -6 15 C-7.11375 14.54625 -8.2275 14.0925 -9.375 13.625 C-13 12 -13 12 -15 10 C-15.67605634 2.90140845 -15.67605634 2.90140845 -13.5 0 C-9.00326091 -1.79869564 -4.59826145 -1.53275382 0 0 Z " fill="#085C9C" transform="translate(135,49)"/>
<path d="M0 0 C0.99 0 1.98 0 3 0 C4.7409339 3.23316296 6.14981076 6.364376 7.1875 9.875 C8.91830836 15.34809672 11.57724518 20.33851828 14.21948242 25.41552734 C15.86008173 28.59180168 17.23176614 31.51033846 18 35 C10.52302406 32.58097837 6.51393778 28.10618242 3.03515625 21.31640625 C-0.12050089 14.25487913 -0.25377381 7.66960833 0 0 Z " fill="#064160" transform="translate(48,52)"/>
<path d="M0 0 C1.43655854 -0.08131463 2.8744483 -0.13933559 4.3125 -0.1875 C5.51326172 -0.23970703 5.51326172 -0.23970703 6.73828125 -0.29296875 C9 0 9 0 10.78125 1.03125 C12.67312263 4.08735194 12.31396309 7.21462893 12.1875 10.6875 C12.17396484 11.38939453 12.16042969 12.09128906 12.14648438 12.81445312 C12.11120182 14.54329829 12.05739583 16.27174765 12 18 C9.66666667 18 7.33333333 18 5 18 C4.01 18.061875 3.02 18.12375 2 18.1875 C1.01 18.125625 0.02 18.06375 -1 18 C-3.14762184 14.77856724 -3.561068 13.7404533 -3 10 C-0.62130509 7.34684029 0.67124653 7.01896655 4.25 6.8125 C5.61125 6.9053125 5.61125 6.9053125 7 7 C6.67 6.34 6.34 5.68 6 5 C3.67843403 4.59270772 1.3431213 4.25561323 -1 4 C-0.67 2.68 -0.34 1.36 0 0 Z " fill="#12619F" transform="translate(157,55)"/>
<path d="M0 0 C1.65 0 3.3 0 5 0 C5 0.66 5 1.32 5 2 C5.556875 1.67 6.11375 1.34 6.6875 1 C9.35263324 -0.15249005 11.12393149 -0.30274405 14 0 C16 2 16 2 16.1953125 5.6953125 C16.182009 7.17200108 16.15814835 8.64862358 16.125 10.125 C16.11597656 10.87910156 16.10695312 11.63320312 16.09765625 12.41015625 C16.0740687 14.27357254 16.03819719 16.13682593 16 18 C14.35 18 12.7 18 11 18 C10.67 13.71 10.34 9.42 10 5 C9.01 5 8.02 5 7 5 C6.67 9.29 6.34 13.58 6 18 C4.02 18 2.04 18 0 18 C0 12.06 0 6.12 0 0 Z " fill="#236CA5" transform="translate(173,55)"/>
<path d="M0 0 C1.32 0 2.64 0 4 0 C4 0.66 4 1.32 4 2 C4.53625 1.67 5.0725 1.34 5.625 1 C8.61641148 -0.25954167 10.78432784 -0.34952958 14 0 C16.45391569 3.68087353 16.22802759 6.44355588 16.125 10.6875 C16.11597656 11.38939453 16.10695313 12.09128906 16.09765625 12.81445312 C16.07413704 14.54311525 16.03826713 16.27160145 16 18 C14.02 18 12.04 18 10 18 C10 13.38 10 8.76 10 4 C8.68 4.33 7.36 4.66 6 5 C5.67 9.29 5.34 13.58 5 18 C3.35 18 1.7 18 0 18 C0 12.06 0 6.12 0 0 Z " fill="#2069A4" transform="translate(292,55)"/>
<path d="M0 0 C0.7940625 -0.01417969 1.588125 -0.02835938 2.40625 -0.04296875 C4.5 0.1875 4.5 0.1875 6.5 2.1875 C6.64507695 4.93235593 6.68652423 7.57230543 6.625 10.3125 C6.61597656 11.06660156 6.60695313 11.82070312 6.59765625 12.59765625 C6.5740687 14.46107254 6.53819719 16.32432593 6.5 18.1875 C5.18 18.1875 3.86 18.1875 2.5 18.1875 C2.5 17.5275 2.5 16.8675 2.5 16.1875 C1.51 16.8475 0.52 17.5075 -0.5 18.1875 C-3.35510892 18.54438862 -4.89049995 18.55320003 -7.375 17.0625 C-8.5 15.1875 -8.5 15.1875 -8.375 12.125 C-7.5 9.1875 -7.5 9.1875 -4.5 7.1875 C-1.3125 7.0625 -1.3125 7.0625 1.5 7.1875 C1.5 6.1975 1.5 5.2075 1.5 4.1875 C-0.81 4.1875 -3.12 4.1875 -5.5 4.1875 C-5.83 3.1975 -6.16 2.2075 -6.5 1.1875 C-4.14653604 0.01076802 -2.6193967 0.02126134 0 0 Z " fill="#0F609E" transform="translate(280.5,54.8125)"/>
<path d="M0 0 C2.52631142 3.12781414 4.42373366 6.29577411 6 10 C5 13 5 13 3.25 14.25 C-1.0859799 15.69532663 -4.94825296 13.75078248 -8.875 11.8125 C-13.55718475 9.41533355 -17.16602587 6.58393234 -21 3 C-19.33333333 3 -17.66666667 3 -16 3 C-15.67 2.34 -15.34 1.68 -15 1 C-10.87248551 1.60698743 -7.6678852 3.03810791 -4 5 C-2.68 3.35 -1.36 1.7 0 0 Z " fill="#D4D6D4" transform="translate(72,83)"/>
<path d="M0 0 C5.75 1.625 5.75 1.625 8 5 C6.5489926 6.83913695 5.08898341 8.6711753 3.625 10.5 C2.81289062 11.5209375 2.00078125 12.541875 1.1640625 13.59375 C0.09285156 14.78484375 0.09285156 14.78484375 -1 16 C-1.66 16 -2.32 16 -3 16 C-3 16.99 -3 17.98 -3 19 C-3.66 19 -4.32 19 -5 19 C-4.34 21.97 -3.68 24.94 -3 28 C-5.29648357 25.10414095 -7.04347557 22.1827969 -8.6875 18.875 C-9.34298828 17.57175781 -9.34298828 17.57175781 -10.01171875 16.2421875 C-11 14 -11 14 -11 12 C-10.1028125 11.6596875 -10.1028125 11.6596875 -9.1875 11.3125 C-6.41467511 9.64880506 -5.56699864 7.79334541 -4 5 C-3.01904252 3.98131338 -2.02297922 2.97648017 -1 2 C-0.67 1.34 -0.34 0.68 0 0 Z " fill="#036FAA" transform="translate(70,44)"/>
<path d="M0 0 C0.9861483 2.6135955 1.08441302 3.7594807 0.14453125 6.4375 C-4.4763062 15.32685298 -4.4763062 15.32685298 -8 18 C-8.66 18 -9.32 18 -10 18 C-11.17154293 15.71070947 -12.33738074 13.41881638 -13.5 11.125 C-13.83386719 10.47402344 -14.16773437 9.82304688 -14.51171875 9.15234375 C-17 4.2265625 -17 4.2265625 -17 2 C-15.66195312 2.03480469 -15.66195312 2.03480469 -14.296875 2.0703125 C-13.12640625 2.08835937 -11.9559375 2.10640625 -10.75 2.125 C-9.58984375 2.14820312 -8.4296875 2.17140625 -7.234375 2.1953125 C-4.17213954 2.0103949 -2.55797249 1.60823023 0 0 Z " fill="#093059" transform="translate(94,65)"/>
<path d="M0 0 C3.95831733 -0.02940464 7.91660597 -0.04693328 11.875 -0.0625 C12.98359375 -0.07087891 14.0921875 -0.07925781 15.234375 -0.08789062 C32.72135417 -0.13932292 32.72135417 -0.13932292 37 2 C37 2.99 37 3.98 37 5 C31.99750145 7.81530748 27.09235278 7.81797719 21.578125 6.359375 C19.92552081 5.82254179 18.27579548 5.27677391 16.62890625 4.72265625 C12.8919998 3.69542342 9.20830849 3.53956749 5.34765625 3.40625 C2.56129983 2.92408516 1.86458633 2.03177006 0 0 Z " fill="#1E576E" transform="translate(57,32)"/>
<path d="M0 0 C-2.00109113 2.7515003 -3.92999995 3.34677418 -7.125 4.0625 C-9.043125 4.5265625 -9.043125 4.5265625 -11 5 C-12.54631384 8.09262767 -12.39060716 11.3670891 -12.62109375 14.78515625 C-12.80865234 15.88150391 -12.80865234 15.88150391 -13 17 C-13.66 17.33 -14.32 17.66 -15 18 C-15.56157237 19.92987258 -15.56157237 19.92987258 -15.8515625 22.25390625 C-15.98046875 23.10791016 -16.109375 23.96191406 -16.2421875 24.84179688 C-16.36851563 25.73962891 -16.49484375 26.63746094 -16.625 27.5625 C-16.82609375 28.91504883 -16.82609375 28.91504883 -17.03125 30.29492188 C-17.362209 32.52889514 -17.68473505 34.76376696 -18 37 C-18.33 37 -18.66 37 -19 37 C-19.02952761 33.70835283 -19.04697292 30.41674062 -19.0625 27.125 C-19.07087891 26.2071875 -19.07925781 25.289375 -19.08789062 24.34375 C-19.14913287 6.95095294 -19.14913287 6.95095294 -16 2.5 C-11.10345887 -1.58045094 -5.72627883 -3.42797644 0 0 Z " fill="#0C5C9C" transform="translate(56,24)"/>
<path d="M0 0 C0 1.98 0 3.96 0 6 C1.65 6 3.3 6 5 6 C5 6.99 5 7.98 5 9 C3.35 9 1.7 9 0 9 C0 12.63 0 16.26 0 20 C1.65 20 3.3 20 5 20 C5.33 20.99 5.66 21.98 6 23 C2.98675805 24.50662097 0.31713623 24.17770373 -3 24 C-5 22 -5 22 -5.1953125 19.1796875 C-5.17210937 18.08914062 -5.14890625 16.99859375 -5.125 15.875 C-5.10695312 14.77929688 -5.08890625 13.68359375 -5.0703125 12.5546875 C-5.04710937 11.71164063 -5.02390625 10.86859375 -5 10 C-5.99 10 -6.98 10 -8 10 C-8 9.01 -8 8.02 -8 7 C-7.34 6.67 -6.68 6.34 -6 6 C-5.67 5.175 -5.34 4.35 -5 3.5 C-3.80372977 0.50932442 -3.19881326 0 0 0 Z " fill="#095C9C" transform="translate(146,49)"/>
<path d="M0 0 C9.38184201 -0.51907732 9.38184201 -0.51907732 13.875 1.5 C19.73674054 4.01899644 26.87633782 4.11224533 32.86328125 1.98046875 C33.92095703 1.49513672 33.92095703 1.49513672 35 1 C36.12862175 6.36095333 36.09688221 11.55306686 36 17 C29.5 21 29.5 21 25 21 C26.13068534 18.45595798 27.21924052 16.76141473 29.125 14.6875 C31.50553532 11.27539937 31.31934909 9.07170096 31 5 C30.319375 5.165 29.63875 5.33 28.9375 5.5 C21.46395939 6.77209202 15.09851458 5.37026525 8 3 C7.67 2.67 7.34 2.34 7 2 C4.67182036 1.63239269 2.3381615 1.29758419 0 1 C0 0.67 0 0.34 0 0 Z " fill="#074477" transform="translate(60,41)"/>
<path d="M0 0 C1.32 0 2.64 0 4 0 C4 0.66 4 1.32 4 2 C3.34 2 2.68 2 2 2 C2.86625 3.69769531 2.86625 3.69769531 3.75 5.4296875 C4.50020991 6.91135207 5.25019847 8.39312873 6 9.875 C6.3815625 10.62136719 6.763125 11.36773437 7.15625 12.13671875 C7.5171875 12.85214844 7.878125 13.56757812 8.25 14.3046875 C8.58515625 14.96452637 8.9203125 15.62436523 9.265625 16.30419922 C10 18 10 18 10 20 C9.01 20.66 8.02 21.32 7 22 C7.33 23.98 7.66 25.96 8 28 C4.27016652 24.59038441 2.46709318 20.41015328 0.25 15.9375 C-0.17410156 15.10927734 -0.59820312 14.28105469 -1.03515625 13.42773438 C-1.43089844 12.63560547 -1.82664062 11.84347656 -2.234375 11.02734375 C-2.77916504 9.94054321 -2.77916504 9.94054321 -3.33496094 8.83178711 C-3.55442383 8.22729736 -3.77388672 7.62280762 -4 7 C-2.74458443 4.48916886 -1.49936512 4.12874554 1 3 C0.67 2.01 0.34 1.02 0 0 Z " fill="#D7D8D6" transform="translate(75,65)"/>
<path d="M0 0 C0.99 0.66 1.98 1.32 3 2 C2.67 2.66 2.34 3.32 2 4 C-0.32156597 4.40729228 -2.6568787 4.74438677 -5 5 C-5.04241723 7.33294775 -5.04092937 9.66702567 -5 12 C-3.87465895 13.35618499 -3.87465895 13.35618499 -0.9375 13.0625 C0.031875 13.041875 1.00125 13.02125 2 13 C2.33 13.99 2.66 14.98 3 16 C-0.7205836 18.48038907 -2.59796571 18.46337203 -7 18 C-9.4375 16.625 -9.4375 16.625 -11 14 C-11.74524166 9.37489197 -11.86729658 5.45705826 -9.4375 1.375 C-6.10534325 -0.50467817 -3.76626089 -0.41086482 0 0 Z " fill="#0A5D9D" transform="translate(235,55)"/>
<path d="M0 0 C0.33 0 0.66 0 1 0 C1 14.19 1 28.38 1 43 C-4.20449558 36.06067256 -4.65692542 29.95058471 -3.73168945 21.56958008 C-3.37630551 19.12271856 -2.98031799 16.68694773 -2.5625 14.25 C-2.42779297 13.42628906 -2.29308594 12.60257813 -2.15429688 11.75390625 C-1.5051288 7.82089772 -0.81693481 3.9022517 0 0 Z " fill="#15385A" transform="translate(41,37)"/>
<path d="M0 0 C0.99 0.350625 1.98 0.70125 3 1.0625 C5.32694964 1.43781446 7.65976685 1.78167202 10 2.0625 C8.375 4.5625 8.375 4.5625 6 7.0625 C2.75 7.375 2.75 7.375 0 7.0625 C0 6.4025 0 5.7425 0 5.0625 C-0.99 5.3925 -1.98 5.7225 -3 6.0625 C-3 6.7225 -3 7.3825 -3 8.0625 C-5 9.6875 -5 9.6875 -7 11.0625 C-9.34191563 8.9334858 -10.83554954 7.01841271 -12 4.0625 C-12 2.7425 -12 1.4225 -12 0.0625 C-8.135141 -1.8699295 -4.01628763 -1.25508989 0 0 Z " fill="#F1F3F4" transform="translate(79,59.9375)"/>
<path d="M0 0 C7.76785714 -0.66964286 7.76785714 -0.66964286 11.4375 2.375 C15.50967382 6.54649514 15.28562906 10.03311474 15.5625 15.625 C15.60568359 16.42679688 15.64886719 17.22859375 15.69335938 18.0546875 C15.79951457 20.0362511 15.90026855 22.01810271 16 24 C15.34 24 14.68 24 14 24 C14 23.01 14 22.02 14 21 C13.34 21 12.68 21 12 21 C11.87882812 20.33613281 11.75765625 19.67226563 11.6328125 18.98828125 C11.46523437 18.10527344 11.29765625 17.22226562 11.125 16.3125 C10.96257812 15.44238281 10.80015625 14.57226562 10.6328125 13.67578125 C9.72703245 9.68029287 9.72703245 9.68029287 8 6 C4.92409691 4.74032104 4.92409691 4.74032104 1.375 4.1875 C0.18648438 3.95417969 -1.00203125 3.72085937 -2.2265625 3.48046875 C-3.59941406 3.24263672 -3.59941406 3.24263672 -5 3 C-5 2.67 -5 2.34 -5 2 C-3.35 1.67 -1.7 1.34 0 1 C0 0.67 0 0.34 0 0 Z " fill="#0F325C" transform="translate(91,23)"/>
<path d="M0 0 C1.98 0 3.96 0 6 0 C6 5.94 6 11.88 6 18 C4.02 18 2.04 18 0 18 C0 12.06 0 6.12 0 0 Z " fill="#286EA6" transform="translate(214,55)"/>
<path d="M0 0 C3 1 3 1 4.25854492 2.94946289 C4.66177979 3.7821167 5.06501465 4.61477051 5.48046875 5.47265625 C5.92197266 6.37177734 6.36347656 7.27089844 6.81835938 8.19726562 C7.27017578 9.14279297 7.72199219 10.08832031 8.1875 11.0625 C8.65091797 12.01189453 9.11433594 12.96128906 9.59179688 13.93945312 C10.73693168 16.28875031 11.87249578 18.64220365 13 21 C12.34 21.33 11.68 21.66 11 22 C11.66 23.98 12.32 25.96 13 28 C12.34 28 11.68 28 11 28 C9.53316749 25.3168434 8.07646974 22.62895233 6.625 19.9375 C6.2125 19.18533203 5.8 18.43316406 5.375 17.65820312 C2.22662681 11.79308855 0 6.77804619 0 0 Z " fill="#082748" transform="translate(65,63)"/>
<path d="M0 0 C0.99 0 1.98 0 3 0 C4.06775224 1.96466413 5.06553465 3.96855359 6 6 C5.67 6.66 5.34 7.32 5 8 C4.01 6.35 3.02 4.7 2 3 C2.49752109 8.84587284 4.08583875 13.87547493 7 19 C7.66 19.33 8.32 19.66 9 20 C9.8515625 22.28515625 9.8515625 22.28515625 10.625 25.0625 C10.88539062 25.98160156 11.14578125 26.90070313 11.4140625 27.84765625 C11.60742188 28.55792969 11.80078125 29.26820312 12 30 C9 30 9 30 7.5 28.63671875 C0.7541137 19.87058004 -0.56707353 10.85840793 0 0 Z " fill="#3884AC" transform="translate(48,52)"/>
<path d="M0 0 C2 2 2 2 2.1953125 5.6953125 C2.182009 7.17200108 2.15814835 8.64862358 2.125 10.125 C2.11597656 10.87910156 2.10695312 11.63320312 2.09765625 12.41015625 C2.0740687 14.27357254 2.03819719 16.13682593 2 18 C0.35 18 -1.3 18 -3 18 C-3.33 13.71 -3.66 9.42 -4 5 C-5.32 4.67 -6.64 4.34 -8 4 C-7.67 3.01 -7.34 2.02 -7 1 C-4.48718205 -0.25640898 -2.78302919 -0.20872719 0 0 Z " fill="#045B9C" transform="translate(187,55)"/>
<path d="M0 0 C0.99 0 1.98 0 3 0 C3.19629336 2.85380345 3.38226546 5.70767394 3.5625 8.5625 C3.61857422 9.36236328 3.67464844 10.16222656 3.73242188 10.98632812 C4.02968013 15.84154627 3.86778632 20.21110511 3 25 C1.68 25 0.36 25 -1 25 C-1.02886984 21.02084841 -1.04675406 17.04172347 -1.0625 13.0625 C-1.07087891 11.92619141 -1.07925781 10.78988281 -1.08789062 9.61914062 C-1.09111328 8.53955078 -1.09433594 7.45996094 -1.09765625 6.34765625 C-1.10289307 5.34742432 -1.10812988 4.34719238 -1.11352539 3.31665039 C-1 1 -1 1 0 0 Z " fill="#00599A" transform="translate(314,47)"/>
<path d="M0 0 C0.33 0 0.66 0 1 0 C1 2.64 1 5.28 1 8 C1.66 8 2.32 8 3 8 C3 8.99 3 9.98 3 11 C3.66 11 4.32 11 5 11 C5 17.6 5 24.2 5 31 C3.35 31 1.7 31 0 31 C0 20.77 0 10.54 0 0 Z " fill="#010F38" transform="translate(102,36)"/>
<path d="M0 0 C1.32 0 2.64 0 4 0 C4 0.66 4 1.32 4 2 C5.65 1.34 7.3 0.68 9 0 C7.125 3.875 7.125 3.875 6 5 C5.76518307 7.18292774 5.58636677 9.37203174 5.4375 11.5625 C5.31181641 13.35880859 5.31181641 13.35880859 5.18359375 15.19140625 C5.12300781 16.11824219 5.06242187 17.04507813 5 18 C3.35 18 1.7 18 0 18 C0 12.06 0 6.12 0 0 Z " fill="#055C9C" transform="translate(292,55)"/>
<path d="M0 0 C2.475 0.99 2.475 0.99 5 2 C5 3.32 5 4.64 5 6 C8.3 5.67 11.6 5.34 15 5 C15 9.33685836 12.91985986 10.9443327 10 14 C9.01 14 8.02 14 7 14 C5.4296875 12.20703125 5.4296875 12.20703125 3.875 9.8125 C3.35679688 9.03519531 2.83859375 8.25789063 2.3046875 7.45703125 C0.96545513 4.93494394 0.40953855 2.81183174 0 0 Z " fill="#0497C9" transform="translate(49,38)"/>
<path d="M0 0 C2.19220031 2.64575899 3.03982019 4.16377594 2.875 7.625 C1.94305877 10.15455478 0.9348911 11.19061535 -1 13 C-1.81928886 11.75443908 -2.63015186 10.50333365 -3.4375 9.25 C-3.88996094 8.55390625 -4.34242187 7.8578125 -4.80859375 7.140625 C-5.9608009 5.07042986 -6.54676982 3.31303676 -7 1 C-4 0 -4 0 0 0 Z " fill="#E5E6E6" transform="translate(69,76)"/>
<path d="M0 0 C1.84765625 0.33984375 1.84765625 0.33984375 4.0625 0.9375 C5.16271484 1.22947266 5.16271484 1.22947266 6.28515625 1.52734375 C7.13400391 1.76130859 7.13400391 1.76130859 8 2 C8.125 4.875 8.125 4.875 8 8 C6 10 6 10 3.5625 10.3125 C1 10 1 10 -0.875 8.875 C-2 7 -2 7 -1.75 3.875 C-1 1 -1 1 0 0 Z " fill="#1362A0" transform="translate(274,63)"/>
<path d="M0 0 C1.32 0 2.64 0 4 0 C4 0.66 4 1.32 4 2 C3.34 2 2.68 2 2 2 C2.30035156 2.55429688 2.60070312 3.10859375 2.91015625 3.6796875 C3.29042969 4.40414062 3.67070313 5.12859375 4.0625 5.875 C4.44535156 6.59429687 4.82820313 7.31359375 5.22265625 8.0546875 C5.60744141 9.01761719 5.60744141 9.01761719 6 10 C4.74458443 12.51083114 3.49936512 12.87125446 1 14 C1 13.34 1 12.68 1 12 C0.01 11.67 -0.98 11.34 -2 11 C-3.1875 7.9375 -3.1875 7.9375 -4 5 C-2.35 4.34 -0.7 3.68 1 3 C0.67 2.01 0.34 1.02 0 0 Z " fill="#E3E4E3" transform="translate(75,65)"/>
<path d="M0 0 C0.33 0 0.66 0 1 0 C1.55049346 4.32530574 1.76356944 6.75800359 -0.55859375 10.53515625 C-2.30893552 12.75742115 -4.09930667 14.90535837 -6 17 C-7.65 16.67 -9.3 16.34 -11 16 C-10.34 14.68 -9.68 13.36 -9 12 C-8.34 12 -7.68 12 -7 12 C-6.7525 11.443125 -6.505 10.88625 -6.25 10.3125 C-5 8 -5 8 -2.9375 5.4375 C-0.83615651 3.07973981 -0.83615651 3.07973981 0 0 Z " fill="#024F89" transform="translate(91,45)"/>
<path d="M0 0 C3.34373475 0.55728913 6.03312999 1.35173889 9 3 C7.48601545 6.78496138 6.9855604 7.0072198 3 9 C0.03 6.69 -2.94 4.38 -6 2 C-4.33333333 2 -2.66666667 2 -1 2 C-0.67 1.34 -0.34 0.68 0 0 Z " fill="#E2E4E3" transform="translate(57,84)"/>
<path d="M0 0 C0.70962891 0.54527344 0.70962891 0.54527344 1.43359375 1.1015625 C8.95041761 6.81610696 15.95687348 12.04043132 25 15 C25 15.33 25 15.66 25 16 C16.99472208 17.04416669 11.73954252 12.86355922 5.58203125 8.1484375 C1.56936122 4.8104642 1.56936122 4.8104642 0 3 C0 2.01 0 1.02 0 0 Z " fill="#050D1D" transform="translate(48,83)"/>
<path d="M0 0 C0 3.3 0 6.6 0 10 C-0.99 10.495 -0.99 10.495 -2 11 C-2.56157237 12.92987258 -2.56157237 12.92987258 -2.8515625 15.25390625 C-2.98046875 16.10791016 -3.109375 16.96191406 -3.2421875 17.84179688 C-3.36851563 18.73962891 -3.49484375 19.63746094 -3.625 20.5625 C-3.82609375 21.91504883 -3.82609375 21.91504883 -4.03125 23.29492188 C-4.362209 25.52889514 -4.68473505 27.76376696 -5 30 C-5.33 30 -5.66 30 -6 30 C-6.63735655 10.07670626 -6.63735655 10.07670626 -3 1 C-1 0 -1 0 0 0 Z " fill="#0B487A" transform="translate(43,31)"/>
<path d="M0 0 C17.85649203 -0.18451025 17.85649203 -0.18451025 26 1 C26.33 1.99 26.66 2.98 27 4 C27.99 4.33 28.98 4.66 30 5 C23.91476662 5.29444678 19.39508685 4.65252895 13.640625 2.734375 C9.17074605 1.49127257 4.61697026 1.25454779 0 1 C0 0.67 0 0.34 0 0 Z " fill="#0C72AD" transform="translate(60,34)"/>
<path d="M0 0 C0.78375 0.05220703 1.5675 0.10441406 2.375 0.15820312 C4.2920912 0.28678851 6.20861503 0.42378617 8.125 0.5625 C5.41861847 3.26888153 3.71548136 2.92066729 -0.0625 3.125 C-4.72332055 3.41436358 -9.26808469 3.81253704 -13.875 4.5625 C-14.205 3.2425 -14.535 1.9225 -14.875 0.5625 C-9.77201229 -0.53798457 -5.15418151 -0.38001169 0 0 Z " fill="#03508B" transform="translate(68.875,21.4375)"/>
<path d="M0 0 C3.875 0.875 3.875 0.875 5 2 C5.45875252 7.27565392 5.45875252 7.27565392 3.8125 9.875 C1.43963721 11.34781139 -0.25913944 11.22223194 -3 11 C-2.690625 10.29875 -2.38125 9.5975 -2.0625 8.875 C-0.96697322 5.91063343 -0.43577008 3.12301892 0 0 Z " fill="#055A9B" transform="translate(264,61)"/>
<path d="M0 0 C5.75 0.75 5.75 0.75 8 3 C6.33333333 4.66666667 4.66666667 6.33333333 3 8 C2.34 8.763125 1.68 9.52625 1 10.3125 C-1.51730506 12.43647614 -2.80110025 12.1420564 -6 12 C-5.566875 11.45730469 -5.13375 10.91460937 -4.6875 10.35546875 C-4.130625 9.64003906 -3.57375 8.92460938 -3 8.1875 C-2.443125 7.47980469 -1.88625 6.77210937 -1.3125 6.04296875 C0.27025683 3.98404001 0.27025683 3.98404001 0 1 C0 0.67 0 0.34 0 0 Z " fill="#0065A2" transform="translate(76,46)"/>
<path d="M0 0 C1.32 0.66 2.64 1.32 4 2 C4 3.32 4 4.64 4 6 C4.99 6 5.98 6 7 6 C6.67 7.32 6.34 8.64 6 10 C3.125 10.1875 3.125 10.1875 0 10 C-2.14915785 6.77626323 -2.38286803 5.73296326 -2 2 C-1.34 1.34 -0.68 0.68 0 0 Z " fill="#0C5E9D" transform="translate(156,63)"/>
<path d="M0 0 C1.67542976 0.28604898 3.34385343 0.61781233 5 1 C5 3.64 5 6.28 5 9 C1.25 10.125 1.25 10.125 -1 9 C-1.09765625 2.84765625 -1.09765625 2.84765625 -1 1 C-0.67 0.67 -0.34 0.34 0 0 Z " fill="#EAF0F5" transform="translate(200,59)"/>
<path d="M0 0 C6.98942918 -0.602537 6.98942918 -0.602537 9.8671875 1.11328125 C11.30861002 2.33745588 12.66278229 3.66278229 14 5 C13.01 5.495 13.01 5.495 12 6 C11.34 5.67 10.68 5.34 10 5 C9.67 5.66 9.34 6.32 9 7 C8.01 6.34 7.02 5.68 6 5 C4.11845117 4.55888435 2.21937362 4.1890733 0.3125 3.875 C-0.68136719 3.70742188 -1.67523438 3.53984375 -2.69921875 3.3671875 C-3.45847656 3.24601562 -4.21773438 3.12484375 -5 3 C-5 2.67 -5 2.34 -5 2 C-3.35 1.67 -1.7 1.34 0 1 C0 0.67 0 0.34 0 0 Z " fill="#113C6C" transform="translate(91,23)"/>
<path d="M0 0 C0.9861483 2.6135955 1.08441302 3.7594807 0.14453125 6.4375 C-4.4763062 15.32685298 -4.4763062 15.32685298 -8 18 C-8.66 18 -9.32 18 -10 18 C-10 17.01 -10 16.02 -10 15 C-9.01 15 -8.02 15 -7 15 C-6.71125 14.236875 -6.4225 13.47375 -6.125 12.6875 C-5 10 -5 10 -3 7 C-3 6.01 -3 5.02 -3 4 C-4.32 3.67 -5.64 3.34 -7 3 C-4.69 2.01 -2.38 1.02 0 0 Z " fill="#05152F" transform="translate(94,65)"/>
<path d="M0 0 C5.89819294 -0.32633445 10.41805571 -0.09457842 15.83984375 2.265625 C20.06683051 3.70264762 24.56848138 3.76376096 29 4 C25.43511283 6.37659145 23.10953166 6.50080314 19 6 C8.69824561 3.69824561 8.69824561 3.69824561 7 2 C4.67182036 1.63239269 2.3381615 1.29758419 0 1 C0 0.67 0 0.34 0 0 Z " fill="#053855" transform="translate(60,41)"/>
<path d="M0 0 C0.99 0.33 1.98 0.66 3 1 C0.01665146 6.01202555 -3.43951988 9.38748484 -8 13 C-8.66 12.34 -9.32 11.68 -10 11 C-9.44570312 10.45730469 -8.89140625 9.91460937 -8.3203125 9.35546875 C-7.23363281 8.28232422 -7.23363281 8.28232422 -6.125 7.1875 C-5.40570313 6.47980469 -4.68640625 5.77210937 -3.9453125 5.04296875 C-1.84641063 2.95600806 -1.84641063 2.95600806 0 0 Z " fill="#B4B8B6" transform="translate(95,77)"/>
<path d="M0 0 C0.33 0 0.66 0 1 0 C1 5.94 1 11.88 1 18 C-0.32 18.33 -1.64 18.66 -3 19 C-3.99 19.66 -4.98 20.32 -6 21 C-4.375 14.25 -4.375 14.25 -1 12 C-0.41518879 9.11404054 -0.41518879 9.11404054 -0.3125 5.875 C-0.24675781 4.77929688 -0.18101563 3.68359375 -0.11328125 2.5546875 C-0.07589844 1.71164063 -0.03851563 0.86859375 0 0 Z " fill="#B3B9BB" transform="translate(102,47)"/>
<path d="M0 0 C0.33 0 0.66 0 1 0 C1 2.64 1 5.28 1 8 C1.66 8 2.32 8 3 8 C3 8.99 3 9.98 3 11 C3.66 11.33 4.32 11.66 5 12 C4.67 14.97 4.34 17.94 4 21 C3.34 21 2.68 21 2 21 C0.27669093 13.90673679 -0.2494783 7.29031024 0 0 Z " fill="#00214C" transform="translate(102,36)"/>
<path d="M0 0 C0.598125 0.226875 1.19625 0.45375 1.8125 0.6875 C2.1425 2.0075 2.4725 3.3275 2.8125 4.6875 C0.5 6.25 0.5 6.25 -2.1875 7.6875 C-3.1775 7.3575 -4.1675 7.0275 -5.1875 6.6875 C-5.1875 2.6875 -5.1875 2.6875 -3.9375 0.875 C-2.1875 -0.3125 -2.1875 -0.3125 0 0 Z " fill="#C6C9C5" transform="translate(75.1875,90.3125)"/>
<path d="M0 0 C2.375 -0.125 2.375 -0.125 5 0 C5.66 0.66 6.32 1.32 7 2 C6.46428571 5.53571429 6.46428571 5.53571429 5 7 C3.33382885 7.04063832 1.66611905 7.042721 0 7 C0 4.69 0 2.38 0 0 Z " fill="#F5F7FA" transform="translate(257,62)"/>
<path d="M0 0 C0.33 0 0.66 0 1 0 C2.12862175 5.36095333 2.09688221 10.55306686 2 16 C1.01 16.33 0.02 16.66 -1 17 C-1.02684679 14.35409986 -1.04676357 11.70846904 -1.0625 9.0625 C-1.07087891 8.30775391 -1.07925781 7.55300781 -1.08789062 6.77539062 C-1.09652441 4.85005687 -1.05224333 2.92464419 -1 1 C-0.67 0.67 -0.34 0.34 0 0 Z " fill="#1C2C47" transform="translate(94,42)"/>
<path d="M0 0 C0.66 0.99 1.32 1.98 2 3 C3.32 2.01 4.64 1.02 6 0 C6.33 1.98 6.66 3.96 7 6 C6.4225 6.103125 5.845 6.20625 5.25 6.3125 C2.51673253 7.00824632 2.51673253 7.00824632 -1 10 C-0.67 6.7 -0.34 3.4 0 0 Z " fill="#C4C6C3" transform="translate(95,64)"/>
<path d="M0 0 C1.65 0.33 3.3 0.66 5 1 C4.07456291 2.34173403 3.13422595 3.67320159 2.1875 5 C1.66542969 5.7425 1.14335938 6.485 0.60546875 7.25 C0.07566406 7.8275 -0.45414063 8.405 -1 9 C-1.99 9 -2.98 9 -4 9 C-4.33 7.68 -4.66 6.36 -5 5 C-4.360625 4.731875 -3.72125 4.46375 -3.0625 4.1875 C-0.66868314 3.11332248 -0.66868314 3.11332248 0 0 Z " fill="#008DC3" transform="translate(60,43)"/>
<path d="M0 0 C0.99 0.33 1.98 0.66 3 1 C4.1875 3.5625 4.1875 3.5625 5 6 C4.34 6 3.68 6 3 6 C3.515625 7.0725 4.03125 8.145 4.5625 9.25 C5.63240282 11.71477612 6.03572782 12.72132303 5.6875 15.4375 C5.460625 15.953125 5.23375 16.46875 5 17 C2.01170674 11.43090802 0 6.37354033 0 0 Z " fill="#154367" transform="translate(65,63)"/>
<path d="M0 0 C1.66611905 -0.042721 3.33382885 -0.04063832 5 0 C6 1 6 1 6.0625 3.5625 C6.041875 4.366875 6.02125 5.17125 6 6 C4.02 6 2.04 6 0 6 C0 4.02 0 2.04 0 0 Z " fill="#FBFCFD" transform="translate(257,52)"/>
<path d="M0 0 C2.18975773 3.28463659 2.99806563 6.20696275 4 10 C1 10 1 10 -0.8125 8.375 C-2 6 -2 6 -1.1875 2.75 C-0.795625 1.8425 -0.40375 0.935 0 0 Z " fill="#1066A0" transform="translate(56,72)"/>
<path d="M0 0 C2.79192205 -0.05380578 5.5828141 -0.09357669 8.375 -0.125 C9.1690625 -0.14175781 9.963125 -0.15851562 10.78125 -0.17578125 C12.85492015 -0.19335473 14.92883241 -0.10335168 17 0 C17.66 0.66 18.32 1.32 19 2 C18.34 2.66 17.68 3.32 17 4 C16.236875 3.690625 15.47375 3.38125 14.6875 3.0625 C9.82685159 1.66197419 5.03141827 1.34020266 0 1 C0 0.67 0 0.34 0 0 Z " fill="#0E84B4" transform="translate(60,34)"/>
<path d="M0 0 C2.31 0.66 4.62 1.32 7 2 C5.02 4.97 5.02 4.97 3 8 C1.10786631 5.61426621 -0.02391783 3.92824652 -1 1 C-0.67 0.67 -0.34 0.34 0 0 Z " fill="#093A6A" transform="translate(79,69)"/>
<path d="M0 0 C2.49361571 1.20381448 4.68143083 2.45428722 7 4 C7.1875 6.625 7.1875 6.625 7 9 C5.8225266 8.26708288 4.65823146 7.51296199 3.5 6.75 C2.52546875 6.12351562 2.52546875 6.12351562 1.53125 5.484375 C1.0259375 4.99453125 0.520625 4.5046875 0 4 C0 2.68 0 1.36 0 0 Z " fill="#1D5768" transform="translate(49,34)"/>
<path d="M0 0 C3 1 3 1 4.1875 2.8125 C5 5 5 5 5 9 C3.68 8.67 2.36 8.34 1 8 C0.67 5.36 0.34 2.72 0 0 Z " fill="#040E22" transform="translate(76,85)"/>
<path d="M0 0 C1.65 0.33 3.3 0.66 5 1 C4.67 2.32 4.34 3.64 4 5 C2.35 4.67 0.7 4.34 -1 4 C-0.67 2.68 -0.34 1.36 0 0 Z " fill="#105F9E" transform="translate(215,47)"/>
<path d="M0 0 C0 0.99 0 1.98 0 3 C-2.31 3.33 -4.62 3.66 -7 4 C-7.33 3.01 -7.66 2.02 -8 1 C-5.07175348 0.02391783 -3.04386724 -0.08226668 0 0 Z " fill="#04436E" transform="translate(94,34)"/>
<path d="M0 0 C0.99 0 1.98 0 3 0 C3 1.65 3 3.3 3 5 C1.68 5.33 0.36 5.66 -1 6 C-1.625 4.125 -1.625 4.125 -2 2 C-1.34 1.34 -0.68 0.68 0 0 Z " fill="#DAE3ED" transform="translate(161,64)"/>
<path d="M0 0 C2.74792483 3.40219265 6 7.48464588 6 12 C3 11 3 11 2.05078125 9.2578125 C1.80714844 8.55398437 1.56351563 7.85015625 1.3125 7.125 C1.06113281 6.42632812 0.80976562 5.72765625 0.55078125 5.0078125 C0 3 0 3 0 0 Z " fill="#021634" transform="translate(60,75)"/>
<path d="M0 0 C3.37641082 3.37641082 4.27450305 5.64517436 6 10 C4.68 9.67 3.36 9.34 2 9 C1.34 6.03 0.68 3.06 0 0 Z " fill="#0E1C2E" transform="translate(72,75)"/>
<path d="M0 0 C0.8125 1.6875 0.8125 1.6875 1 4 C-1.3125 6.75 -1.3125 6.75 -4 9 C-4.66 9 -5.32 9 -6 9 C-6 8.01 -6 7.02 -6 6 C-5.01 6 -4.02 6 -3 6 C-2.690625 5.195625 -2.38125 4.39125 -2.0625 3.5625 C-1 1 -1 1 0 0 Z " fill="#081B3E" transform="translate(90,74)"/>
<path d="M0 0 C2.475 0.99 2.475 0.99 5 2 C4.67 3.65 4.34 5.3 4 7 C2 5.75 2 5.75 0 4 C0 2.68 0 1.36 0 0 Z " fill="#25A6CC" transform="translate(49,38)"/>
<path d="M0 0 C3.3 0.33 6.6 0.66 10 1 C10 1.66 10 2.32 10 3 C7.03 3 4.06 3 1 3 C0.67 2.01 0.34 1.02 0 0 Z " fill="#223147" transform="translate(77,67)"/>
<path d="M0 0 C1.65 0.33 3.3 0.66 5 1 C5 1.99 5 2.98 5 4 C3.02 4 1.04 4 -1 4 C-0.67 2.68 -0.34 1.36 0 0 Z " fill="#256BA5" transform="translate(157,55)"/>
<path d="M0 0 C0.66 0.99 1.32 1.98 2 3 C1.67 3.99 1.34 4.98 1 6 C0.34 5.67 -0.32 5.34 -1 5 C-1 5.66 -1 6.32 -1 7 C-1.66 7 -2.32 7 -3 7 C-2.25 2.25 -2.25 2.25 0 0 Z " fill="#EAEAE8" transform="translate(100,50)"/>
<path d="M0 0 C0.99 0 1.98 0 3 0 C2.1875 1.9375 2.1875 1.9375 1 4 C0.01 4.33 -0.98 4.66 -2 5 C-2.99 4.01 -3.98 3.02 -5 2 C-3.68 2.33 -2.36 2.66 -1 3 C-0.67 2.01 -0.34 1.02 0 0 Z " fill="#DDDDDB" transform="translate(62,88)"/>
<path d="M0 0 C0.66 0 1.32 0 2 0 C2 2.97 2 5.94 2 9 C0.4375 7.3125 0.4375 7.3125 -1 5 C-0.6875 2.25 -0.6875 2.25 0 0 Z " fill="#09325A" transform="translate(40,71)"/>
<path d="M0 0 C1.32 0 2.64 0 4 0 C4 1.32 4 2.64 4 4 C2.35 4 0.7 4 -1 4 C-0.67 2.68 -0.34 1.36 0 0 Z " fill="#EFF3F7" transform="translate(278,65)"/>
<path d="M0 0 C2.12508244 3.18762365 2.5020163 5.26512223 3 9 C2.01 9 1.02 9 0 9 C0 6.03 0 3.06 0 0 Z " fill="#007EB6" transform="translate(49,59)"/>
<path d="M0 0 C0.33 0.66 0.66 1.32 1 2 C1.680625 1.649375 2.36125 1.29875 3.0625 0.9375 C6.7087789 -0.22620603 9.28489978 0.27154898 13 1 C13 1.33 13 1.66 13 2 C6.565 2.495 6.565 2.495 0 3 C0 2.01 0 1.02 0 0 Z " fill="#0E6E8D" transform="translate(54,41)"/>
<path d="M0 0 C1.98 0.495 1.98 0.495 4 1 C4 1.66 4 2.32 4 3 C2.35 3.66 0.7 4.32 -1 5 C-0.67 3.35 -0.34 1.7 0 0 Z " fill="#CFD1CC" transform="translate(81,82)"/>
</svg>
