<?xml version="1.0" encoding="UTF-8"?>
<svg version="1.1" xmlns="http://www.w3.org/2000/svg" width="900" height="500">
<path d="M0 0 C297 0 594 0 900 0 C900 165 900 330 900 500 C603 500 306 500 0 500 C0 335 0 170 0 0 Z " fill="#FEFEFE" transform="translate(0,0)"/>
<path d="M0 0 C2.28515625 0.42578125 2.28515625 0.42578125 3.28515625 1.42578125 C3.37944967 3.60383844 3.40258163 5.78499405 3.39868164 7.96508789 C3.39882767 8.64798386 3.39897369 9.33087982 3.39912415 10.0344696 C3.39842501 12.30165739 3.39063265 14.56876399 3.3828125 16.8359375 C3.38094832 18.40392512 3.37952442 19.97191332 3.37852478 21.53990173 C3.37469959 25.67454628 3.36486931 29.80915591 3.3538208 33.94378662 C3.34360669 38.15978523 3.33902716 42.37578947 3.33398438 46.59179688 C3.32324704 54.86980772 3.30617061 63.14779015 3.28515625 71.42578125 C4.66244904 71.41911942 4.66244904 71.41911942 6.06756592 71.412323 C14.7194016 71.37225396 23.37120613 71.34180073 32.02311325 71.32215691 C36.47117826 71.31171835 40.91916661 71.2975578 45.3671875 71.27490234 C49.65952559 71.25317658 53.95178994 71.24121317 58.24417877 71.23602676 C59.88204357 71.23233053 61.51990432 71.22511276 63.15773773 71.21432114 C65.45127597 71.1998097 67.7445092 71.19780315 70.03808594 71.19873047 C71.34380554 71.19428925 72.64952515 71.18984802 73.99481201 71.18527222 C77.10166476 71.41236887 78.76486142 71.65725094 81.28515625 73.42578125 C83.18532478 76.27603405 83.95566352 77.8785341 83.85546875 81.28515625 C82.50677017 86.34739475 78.47228019 90.38692592 75.28515625 94.42578125 C74.0271071 96.14910064 72.7770496 97.87828319 71.53515625 99.61328125 C68.16386343 104.25212708 64.73166516 108.84278911 61.28515625 113.42578125 C53.13880517 123.52683368 53.13880517 123.52683368 46.28515625 134.42578125 C45.62515625 134.42578125 44.96515625 134.42578125 44.28515625 134.42578125 C44.01872314 135.16530029 43.75229004 135.90481934 43.4777832 136.66674805 C42.30723287 139.37470902 41.04336785 141.28111033 39.203125 143.5703125 C38.60048828 144.33021484 37.99785156 145.09011719 37.37695312 145.87304688 C36.74853516 146.65357422 36.12011719 147.43410156 35.47265625 148.23828125 C31.39201177 153.32522886 27.55647876 158.32393479 24.3215332 163.9987793 C23.97952881 164.46968994 23.63752441 164.94060059 23.28515625 165.42578125 C22.62515625 165.42578125 21.96515625 165.42578125 21.28515625 165.42578125 C21.07117188 166.09996094 20.8571875 166.77414062 20.63671875 167.46875 C18.85103134 171.37558633 16.35520439 174.41735265 13.66015625 177.73828125 C13.14453125 178.38345703 12.62890625 179.02863281 12.09765625 179.69335938 C10.83221443 181.27516165 9.55941363 182.85107188 8.28515625 184.42578125 C6.63515625 184.09578125 4.98515625 183.76578125 3.28515625 183.42578125 C3.28515625 159.99578125 3.28515625 136.56578125 3.28515625 112.42578125 C-4.76632813 112.47798828 -4.76632813 112.47798828 -12.98046875 112.53125 C-16.38021921 112.54657793 -19.77992708 112.56101972 -23.1796875 112.57226562 C-28.5764246 112.59020178 -33.97300905 112.61142433 -39.36962891 112.65209961 C-43.72033105 112.68468655 -48.07086951 112.70263287 -52.42168427 112.71041298 C-54.08189216 112.71595769 -55.74209106 112.72678515 -57.40222931 112.74297142 C-59.72700893 112.76473722 -62.0511115 112.76774859 -64.37597656 112.76635742 C-65.06290085 112.77714325 -65.74982513 112.78792908 -66.45756531 112.79904175 C-69.4327039 112.77976714 -71.46514576 112.56240516 -74.09539795 111.12324524 C-76.21092552 108.90580032 -76.90028162 106.8151246 -77.12109375 103.7734375 C-76.30776736 99.07334941 -72.97524926 95.69032348 -70.03271484 92.078125 C-67.51160263 88.9171603 -65.15941069 85.62943442 -62.77734375 82.36328125 C-62.29297852 81.7077124 -61.80861328 81.05214355 -61.30957031 80.37670898 C-58.80808346 77.03026448 -58.80808346 77.03026448 -56.71484375 73.42578125 C-56.05484375 73.42578125 -55.39484375 73.42578125 -54.71484375 73.42578125 C-54.493125 72.74773437 -54.27140625 72.0696875 -54.04296875 71.37109375 C-52.3331295 67.57927376 -50.00161876 64.57789037 -47.46484375 61.30078125 C-46.37286128 59.86782467 -45.28175101 58.43420312 -44.19140625 57 C-43.62067383 56.25153809 -43.04994141 55.50307617 -42.46191406 54.73193359 C-39.54941085 50.8873968 -36.69512911 47.00039936 -33.83984375 43.11328125 C-32.66019638 41.50908507 -31.48050853 39.90491866 -30.30078125 38.30078125 C-29.71135742 37.49898437 -29.12193359 36.6971875 -28.51464844 35.87109375 C-26.70165473 33.40786193 -24.88465532 30.9476358 -23.06640625 28.48828125 C-22.46868408 27.67891113 -21.87096191 26.86954102 -21.25512695 26.03564453 C-20.07314475 24.43634991 -18.88942172 22.83834023 -17.70385742 21.24169922 C-14.99387053 17.57938838 -12.33353174 13.90069985 -9.7890625 10.12109375 C-9.11568848 9.13266479 -9.11568848 9.13266479 -8.42871094 8.12426758 C-7.60341379 6.90479159 -6.79179535 5.67589585 -5.99707031 4.4362793 C-4.15085878 1.72070727 -3.3253194 0.52152491 0 0 Z " fill="#3FCC8D" transform="translate(94.71484375,157.57421875)"/>
<path d="M0 0 C6.6 0 13.2 0 20 0 C20 13.86 20 27.72 20 42 C20.66 42 21.32 42 22 42 C22.33 41.01 22.66 40.02 23 39 C24.92578125 37.6484375 24.92578125 37.6484375 27.3125 36.375 C28.48232422 35.73691406 28.48232422 35.73691406 29.67578125 35.0859375 C36.85322784 31.73244144 46.8515073 31.56263887 54.3125 34.125 C56.13671875 34.96875 56.13671875 34.96875 58 36 C58.74894531 36.4021875 59.49789062 36.804375 60.26953125 37.21875 C68.25690971 41.98733415 73.86999632 49.90621034 76.55712891 58.85546875 C78.75478397 69.49725599 78.70659624 83.79044938 73.671875 93.4921875 C67.7758083 102.33628755 61.1463707 108.96340733 50.59375 111.6015625 C41.87751545 112.94050214 33.55946866 112.91915528 26 108 C24.10949766 106.429771 22.61150381 104.87142378 21 103 C20.67 105.31 20.34 107.62 20 110 C13.4 110 6.8 110 0 110 C0 73.7 0 37.4 0 0 Z " fill="#222222" transform="translate(566,185)"/>
<path d="M0 0 C8.39879435 5.73225698 13.36905331 14.69553538 15.30078125 24.5703125 C16.93679963 36.22513368 16.17298345 48.0243485 9.5546875 58.02734375 C3.34616298 66.10231405 -3.10769339 71.54258896 -13.2578125 73.71484375 C-24.30080733 74.78863772 -31.50347631 73.7183127 -40.2578125 66.71484375 C-40.5878125 77.93484375 -40.9178125 89.15484375 -41.2578125 100.71484375 C-48.1878125 100.71484375 -55.1178125 100.71484375 -62.2578125 100.71484375 C-62.2578125 66.39484375 -62.2578125 32.07484375 -62.2578125 -3.28515625 C-55.6578125 -3.28515625 -49.0578125 -3.28515625 -42.2578125 -3.28515625 C-41.9278125 -0.97515625 -41.5978125 1.33484375 -41.2578125 3.71484375 C-40.78472656 3.31652344 -40.31164062 2.91820312 -39.82421875 2.5078125 C-27.48156226 -7.38074855 -13.73356006 -7.81719941 0 0 Z " fill="#232323" transform="translate(452.2578125,223.28515625)"/>
<path d="M0 0 C6.82990292 5.49151791 10.85036786 12.86969049 12.75 21.3125 C12.75 26.9225 12.75 32.5325 12.75 38.3125 C-4.74 38.3125 -22.23 38.3125 -40.25 38.3125 C-37.40112519 46.85912442 -36.59285224 49.23467031 -29.32421875 53.421875 C-24.43754921 55.52010599 -18.88043639 54.75108749 -13.9375 53.125 C-9.60301196 51.31176795 -7.33491948 48.48233896 -5.25 44.3125 C0.79801071 44.86231916 6.05601106 46.21679574 11.75 48.3125 C11.38085211 55.69545782 6.67973861 60.70189221 1.5 65.5625 C-7.12826397 72.59932862 -17.956771 74.1180525 -28.703125 73.07421875 C-39.12019867 71.45269313 -47.74633222 65.50712141 -54.25 57.3125 C-61.21785253 45.95940695 -62.29353732 32.03973765 -59.56640625 19.05859375 C-55.48955908 8.24902802 -47.44160872 0.04449851 -37.14453125 -4.92578125 C-24.86111057 -9.86447616 -10.63697618 -7.1644924 0 0 Z " fill="#212121" transform="translate(867.25,224.6875)"/>
<path d="M0 0 C0.97275879 0.01168213 1.94551758 0.02336426 2.94775391 0.03540039 C12.80947967 0.34010264 18.54554049 2.73333602 25.5 9.75 C32.41825082 17.30374777 32.49093859 27.44145457 32.35546875 37.1328125 C32.35122391 38.29505341 32.34697906 39.45729431 32.34260559 40.65475464 C32.32593926 44.33258153 32.28830894 48.00984136 32.25 51.6875 C32.23493762 54.19530453 32.22125195 56.70311774 32.20898438 59.2109375 C32.17607513 65.32834036 32.12437619 71.44532435 32.0625 77.5625 C26.1225 77.5625 20.1825 77.5625 14.0625 77.5625 C13.4025 75.5825 12.7425 73.6025 12.0625 71.5625 C11.54300781 71.97242188 11.02351562 72.38234375 10.48828125 72.8046875 C9.79089844 73.34351563 9.09351563 73.88234375 8.375 74.4375 C7.69050781 74.97117187 7.00601563 75.50484375 6.30078125 76.0546875 C-0.61167433 80.71124571 -8.89312873 80.56804641 -16.9375 79.5625 C-25.1912907 77.13430147 -29.29668426 72.52372361 -33.9375 65.5625 C-35.7063415 59.54843891 -35.93299003 53.06452999 -33.3125 47.3125 C-29.682218 40.91507997 -23.69603703 37.14888618 -16.9375 34.5625 C-12.69830369 33.60592011 -8.4307378 33.01159837 -4.125 32.4375 C-1.88838965 32.12908991 0.34735023 31.8142797 2.58203125 31.4921875 C3.56276611 31.36054199 4.54350098 31.22889648 5.55395508 31.09326172 C8.29483598 30.67515841 8.29483598 30.67515841 11.0625 28.5625 C11.6463196 25.6475745 11.6463196 25.6475745 11.0625 22.5625 C8.83043569 19.71469381 7.51257001 18.71252334 4.0625 17.5625 C-0.87297304 17.0443178 -4.81579589 17.05263449 -9.375 19.125 C-12.53784966 22.13356431 -13.52071113 24.46955438 -14.9375 28.5625 C-21.07904225 27.97759121 -26.94429849 27.02183748 -32.9375 25.5625 C-32.46020636 17.92580177 -29.29758403 12.4920427 -23.6875 7.3125 C-16.2991037 1.58604892 -9.25398235 -0.14766144 0 0 Z " fill="#222222" transform="translate(513.9375,217.4375)"/>
<path d="M0 0 C1.38759521 0.01921509 1.38759521 0.01921509 2.80322266 0.03881836 C11.5221079 0.29842821 17.88172629 1.78151436 24.4375 7.75 C32.48713624 16.61599086 32.71372326 25.97731967 32.66015625 37.4609375 C32.6587413 38.60664215 32.65732635 39.7523468 32.65586853 40.93276978 C32.6502858 44.58020678 32.63773641 48.22758165 32.625 51.875 C32.61998277 54.35286369 32.61542025 56.83072835 32.61132812 59.30859375 C32.60032201 65.37241965 32.5830692 71.4361993 32.5625 77.5 C26.2925 77.5 20.0225 77.5 13.5625 77.5 C13.0675 74.035 13.0675 74.035 12.5625 70.5 C12.04300781 70.98210937 11.52351562 71.46421875 10.98828125 71.9609375 C9.94220703 72.90839844 9.94220703 72.90839844 8.875 73.875 C8.19050781 74.50148438 7.50601563 75.12796875 6.80078125 75.7734375 C0.20537333 80.86099474 -8.4777632 80.4949671 -16.4375 79.5 C-23.09995534 77.53995948 -27.59000698 74.21294418 -31.4375 68.5 C-32.3346875 67.1696875 -32.3346875 67.1696875 -33.25 65.8125 C-35.44416211 59.69194254 -35.54829984 53.1909018 -32.875 47.1875 C-29.14585937 40.77968089 -23.46214883 36.71632482 -16.4375 34.5 C-12.21088145 33.64269203 -7.95771994 33.03454456 -3.6875 32.4375 C-1.4417291 32.1201351 0.80312811 31.79621562 3.046875 31.46484375 C4.03397461 31.3268335 5.02107422 31.18882324 6.03808594 31.04663086 C8.79162734 30.61161538 8.79162734 30.61161538 11.5625 28.5 C12.1463196 25.5850745 12.1463196 25.5850745 11.5625 22.5 C9.33043569 19.65219381 8.01257001 18.65002334 4.5625 17.5 C-0.37297304 16.9818178 -4.31579589 16.99013449 -8.875 19.0625 C-12.03784966 22.07106431 -13.02071113 24.40705438 -14.4375 28.5 C-20.57904225 27.91509121 -26.44429849 26.95933748 -32.4375 25.5 C-31.96020636 17.86330177 -28.79758403 12.4295427 -23.1875 7.25 C-15.96114725 1.64382315 -9.06027408 -0.19023117 0 0 Z " fill="#222222" transform="translate(689.4375,217.5)"/>
<path d="M0 0 C6.6 0 13.2 0 20 0 C20.01401855 2.0728125 20.01401855 2.0728125 20.02832031 4.1875 C20.0683434 9.33902629 20.13413701 14.48996312 20.20751953 19.64111328 C20.23565772 21.86597086 20.25690765 24.09092707 20.27099609 26.31591797 C20.29252432 29.52362303 20.33922678 32.73015103 20.390625 35.9375 C20.39185364 36.92427734 20.39308228 37.91105469 20.39434814 38.92773438 C20.5288419 45.34167174 21.61601958 49.51382607 25 55 C29.0452166 57.77386281 34.2447152 57.55334223 39 57 C43.27820735 55.23291436 45.10472766 53.18176911 47 49 C47.47591477 45.2682972 47.48875909 41.55138669 47.51171875 37.79296875 C47.52966995 36.71243729 47.54762115 35.63190582 47.56611633 34.51863098 C47.62020263 31.07496008 47.65411045 27.63142768 47.6875 24.1875 C47.72067447 21.84959011 47.75516424 19.51169849 47.79101562 17.17382812 C47.87592855 11.44931868 47.94274833 5.72485021 48 0 C54.93 0 61.86 0 69 0 C69 24.75 69 49.5 69 75 C62.73 75 56.46 75 50 75 C49.34 73.35 48.68 71.7 48 70 C47.39671875 70.42152344 46.7934375 70.84304688 46.171875 71.27734375 C44.97304688 72.09912109 44.97304688 72.09912109 43.75 72.9375 C42.96109375 73.48277344 42.1721875 74.02804687 41.359375 74.58984375 C35.51408401 78.08346966 28.60450608 77.5541712 22 77 C13.35922977 74.75246812 7.79591024 70.7302269 3.11328125 63.1953125 C-0.39153631 56.28405822 -0.26225755 49.98417842 -0.1953125 42.3828125 C-0.1924826 41.17051971 -0.18965271 39.95822693 -0.18673706 38.709198 C-0.17556667 34.84769711 -0.15046737 30.98643047 -0.125 27.125 C-0.11496616 24.50260752 -0.10584102 21.8802114 -0.09765625 19.2578125 C-0.07563754 12.83845178 -0.04112886 6.41926558 0 0 Z " fill="#222222" transform="translate(300,220)"/>
<path d="M0 0 C18.48 0 36.96 0 56 0 C56 3 56 3 54.1640625 4.8515625 C53.44992188 5.56054688 52.73578125 6.26953125 52 7 C50.53843177 9.57998643 50.53843177 9.57998643 49.375 12.375 C48.95089844 13.35082031 48.52679688 14.32664063 48.08984375 15.33203125 C46.92334454 18.18765476 45.93775913 21.06168805 45 24 C44.02043471 26.48784993 43.01483357 28.96384317 42 31.4375 C41.2910417 33.25420564 40.63887192 35.09353645 40.02734375 36.9453125 C39.00242713 39.9927832 37.8216563 42.91735561 36.5625 45.875 C34.87136392 49.89021197 33.24963078 53.91009787 31.75 58 C30.85298322 60.39204474 29.89599656 62.75694968 28.9375 65.125 C27.84816147 67.82358862 26.8425289 70.4816763 25.9375 73.25 C25 76 25 76 23.5625 78.8125 C21.96325235 82.0749652 20.8367802 85.2969848 19.74609375 88.75390625 C19.49988281 89.49511719 19.25367187 90.23632812 19 91 C18.76667969 91.74507813 18.53335938 92.49015625 18.29296875 93.2578125 C16.36483224 97.34709295 13.62564665 100.74176496 10.875 104.3125 C10.03001953 105.42334961 10.03001953 105.42334961 9.16796875 106.55664062 C7.78365711 108.37501609 6.39425774 110.18924674 5 112 C3.68 111.67 2.36 111.34 1 111 C0.86681909 101.54768844 0.73631371 92.09534424 0.60884857 82.64295387 C0.54952803 78.24958157 0.48942428 73.85622349 0.42724609 69.46289062 C0.10020822 46.30560139 -0.0500487 23.16003676 0 0 Z " fill="#2EA871" transform="translate(98,230)"/>
<path d="M0 0 C0.84014648 0.00644531 1.68029297 0.01289063 2.54589844 0.01953125 C10.43712174 0.25189583 15.92152152 1.98886217 21.765625 7.4375 C26.17206237 12.16635962 28.6875 15.89862891 28.6875 22.5 C26.60548472 23.00546036 24.52182933 23.50416835 22.4375 24 C21.27734375 24.2784375 20.1171875 24.556875 18.921875 24.84375 C15.6875 25.5 15.6875 25.5 11.6875 25.5 C11.295625 24.571875 10.90375 23.64375 10.5 22.6875 C8.46101861 19.10170513 7.5005542 17.99206469 3.6875 16.5 C-0.56000489 16.09618792 -4.25153065 16.14634355 -8.3125 17.5 C-9.15949339 20.81097418 -9.56044588 22.8444311 -8.3359375 26.08203125 C-5.50771861 29.46169823 -2.39677104 29.77946495 1.75 30.5 C11.14482448 32.42202947 19.27381601 34.92019165 25.6875 42.5 C26.265 43.180625 26.8425 43.86125 27.4375 44.5625 C30.46390644 49.25342998 30.3583721 55.11760082 29.6875 60.5 C26.95576804 68.85444484 22.25567118 74.09237267 14.58203125 78.13671875 C10.03613265 80.00916162 5.60484667 79.94055682 0.75 79.875 C-0.10529297 79.88660156 -0.96058594 79.89820313 -1.84179688 79.91015625 C-10.5203028 79.87043769 -17.79423831 77.35216196 -24.3125 71.5 C-28.75002875 66.81020864 -29.97586519 62.89606131 -30.3125 56.5 C-27.8549552 55.83030409 -25.39655076 55.1641232 -22.9375 54.5 C-22.23882813 54.30921875 -21.54015625 54.1184375 -20.8203125 53.921875 C-15.5390625 52.5 -15.5390625 52.5 -13.3125 52.5 C-13.05855469 53.05429687 -12.80460938 53.60859375 -12.54296875 54.1796875 C-12.19878906 54.90414062 -11.85460937 55.62859375 -11.5 56.375 C-11.16355469 57.09429687 -10.82710937 57.81359375 -10.48046875 58.5546875 C-9.31782903 60.80542806 -9.31782903 60.80542806 -6.3125 62.5 C-1.02836428 63.71941594 2.59712052 63.33253661 7.6875 61.5 C9.06521762 60.33524938 9.06521762 60.33524938 9 57.125 C9.07008264 53.57921357 9.07008264 53.57921357 7.19140625 51.8984375 C3.70980263 49.95395373 0.19777965 49.28773711 -3.6875 48.5 C-13.24917051 46.54118556 -20.35974741 43.38893084 -26.6875 35.5625 C-29.77757807 29.6549978 -29.46129971 21.57105897 -27.6875 15.28515625 C-24.43710246 8.88593609 -17.85400893 3.7370291 -11.30444336 1.08886719 C-7.57402755 -0.01393499 -3.8662356 -0.03084352 0 0 Z " fill="#222222" transform="translate(766.3125,217.5)"/>
<path d="M0 0 C0.84014648 0.00644531 1.68029297 0.01289063 2.54589844 0.01953125 C10.43712174 0.25189583 15.92152152 1.98886217 21.765625 7.4375 C26.17206237 12.16635962 28.6875 15.89862891 28.6875 22.5 C26.60548472 23.00546036 24.52182933 23.50416835 22.4375 24 C21.27734375 24.2784375 20.1171875 24.556875 18.921875 24.84375 C15.6875 25.5 15.6875 25.5 11.6875 25.5 C11.295625 24.571875 10.90375 23.64375 10.5 22.6875 C8.46101861 19.10170513 7.5005542 17.99206469 3.6875 16.5 C-0.56000489 16.09618792 -4.25153065 16.14634355 -8.3125 17.5 C-8.539375 18.758125 -8.76625 20.01625 -9 21.3125 C-9.19142578 22.37404297 -9.19142578 22.37404297 -9.38671875 23.45703125 C-9.47489355 25.52560203 -9.47489355 25.52560203 -8.3359375 27.14453125 C-5.25233317 29.21018897 -1.83305014 29.67193282 1.75 30.375 C11.09847776 32.39813381 19.29655086 34.94706011 25.6875 42.5 C26.265 43.180625 26.8425 43.86125 27.4375 44.5625 C30.32803736 49.04283291 30.14694784 54.34397427 29.6875 59.5 C28.14580817 66.58133029 24.33096346 71.54946518 18.77734375 76.046875 C12.95690448 79.7013307 7.25319742 79.95660154 0.5625 80 C-0.2845752 80.00636475 -1.13165039 80.01272949 -2.00439453 80.01928711 C-10.58041629 79.84616087 -17.87228517 77.28209068 -24.3125 71.5 C-28.75002875 66.81020864 -29.97586519 62.89606131 -30.3125 56.5 C-27.8549552 55.83030409 -25.39655076 55.1641232 -22.9375 54.5 C-22.23882812 54.30921875 -21.54015625 54.1184375 -20.8203125 53.921875 C-15.5390625 52.5 -15.5390625 52.5 -13.3125 52.5 C-13.12816406 53.04269531 -12.94382813 53.58539063 -12.75390625 54.14453125 C-11.42528992 57.42178486 -10.37603866 59.85120035 -7.2890625 61.734375 C-2.4037111 63.50177175 1.58229578 63.85444194 6.6875 62.5 C9.04389408 60.56110754 9.04389408 60.56110754 9.0625 57.0625 C9.07932702 53.51256322 9.07932702 53.51256322 6.94433594 51.85083008 C4.62611804 50.4632598 2.83863671 49.85947045 0.203125 49.32421875 C-0.65023437 49.13537109 -1.50359375 48.94652344 -2.3828125 48.75195312 C-4.15196448 48.37929648 -5.92280257 48.014546 -7.6953125 47.65820312 C-15.60471131 45.88274498 -21.23136538 42.34636471 -26.3125 36 C-29.54908544 30.27542711 -29.22387628 23.84258613 -28.3125 17.5 C-25.74273296 10.3454063 -19.75253748 5.29052883 -13.16796875 1.86328125 C-8.82407226 0.08534374 -4.64847776 -0.03708399 0 0 Z " fill="#222222" transform="translate(255.3125,217.5)"/>
<path d="M0 0 C5.38870318 7.00043011 5.6256021 14.48734289 5 23 C4.32193481 25.7621185 3.4433001 27.47422483 2 30 C1.2265625 31.36125 1.2265625 31.36125 0.4375 32.75 C-4.20495511 37.03534318 -10.38712468 38.34121752 -16.625 38.125 C-22.04810325 37.24038032 -25.50649611 34.07575453 -29 30 C-33.05873336 23.53139371 -32.92886925 16.01254668 -31.56640625 8.66015625 C-29.91596878 3.31929958 -26.74349311 -0.11224471 -22 -3 C-14.41910122 -6.23193524 -6.3971791 -5.30188044 0 0 Z " fill="#FCFCFC" transform="translate(618,241)"/>
<path d="M0 0 C4.83323508 2.79665014 6.71970559 6.63203035 8.375 11.76171875 C10.29515953 19.40635389 9.52687803 25.9507236 5.75 32.875 C1.77354253 37.67013988 -1.74615278 39.16367063 -7.78125 40.2109375 C-13.36945556 40.69906389 -17.05243091 39.31089468 -21.6875 36.25 C-26.7964681 30.90340548 -28.375 24.67420482 -28.375 17.4375 C-27.76128224 11.63594926 -26.3011722 6.8802738 -22.375 2.4375 C-15.66424162 -2.54896629 -7.6634038 -3.29042059 0 0 Z " fill="#FCFDFC" transform="translate(438.375,238.5625)"/>
<path d="M0 0 C0.46685909 6.41931243 -0.22614582 11.61935076 -4 17 C-7.64516414 19.94934105 -11.06338971 20.9047515 -15.6875 21.375 C-18.8921918 21.0122047 -21.17230453 20.53503468 -24 19 C-26.14291019 15.78563471 -26.30025791 13.82573391 -26.4609375 10.03515625 C-25.7529215 6.90908562 -24.57523383 5.91359683 -22 4 C-19.05318211 2.95936116 -16.06358642 2.34705678 -13 1.75 C-12.19304688 1.57726562 -11.38609375 1.40453125 -10.5546875 1.2265625 C-6.89636499 0.46592119 -3.76939457 0 0 0 Z " fill="#F9F9F9" transform="translate(526,261)"/>
<path d="M0 0 C0.90511151 9.26901233 0.90511151 9.26901233 -1.16015625 13.21875 C-4.59962973 17.37074868 -7.70078542 19.62001733 -13.13671875 20.24609375 C-17.01491866 20.45763193 -19.50889947 20.23051658 -23.0625 18.5625 C-25.52346523 15.30767502 -25.52333562 13.20350043 -25.46875 9.21875 C-24.86214373 6.34748031 -24.1167877 5.05104895 -22 3 C-14.92325734 0.59013084 -7.45378849 -0.44722731 0 0 Z " fill="#FBFBFB" transform="translate(701,262)"/>
<path d="M0 0 C3.37037291 2.40740922 5.31141061 4.40461592 7.625 7.875 C7.625 9.855 7.625 11.835 7.625 13.875 C-3.265 13.875 -14.155 13.875 -25.375 13.875 C-24.24314891 7.08389349 -24.24314891 7.08389349 -21.5625 4.125 C-21.06105469 3.55265625 -20.55960938 2.9803125 -20.04296875 2.390625 C-14.49415128 -2.65139181 -6.79697227 -2.26565742 0 0 Z " fill="#FAFAFA" transform="translate(852.375,235.125)"/>
</svg>
