<?xml version="1.0" encoding="UTF-8"?>
<svg version="1.1" xmlns="http://www.w3.org/2000/svg" width="225" height="225">
<path d="M0 0 C74.25 0 148.5 0 225 0 C225 74.25 225 148.5 225 225 C150.75 225 76.5 225 0 225 C0 150.75 0 76.5 0 0 Z " fill="#FEFEFE" transform="translate(0,0)"/>
<path d="M0 0 C6.10148054 3.5382556 9.93757671 8.74200459 13 15 C14.85203127 25.08328136 12.95344897 32.77660895 7.4375 41.375 C1.46822443 46.95497499 -4.23478234 49.36617483 -12.4375 49.6875 C-20.75776074 49.35288082 -27.13904739 46.86460963 -32.875 40.75 C-38.34871313 33.52407842 -39.53493087 26.02284212 -38.4375 17.0625 C-37.48192967 14.08798106 -36.17692753 11.64748258 -34.4375 9.0625 C-33.86 8.175625 -33.2825 7.28875 -32.6875 6.375 C-24.1256008 -2.42472973 -11.39194991 -5.10008834 0 0 Z " fill="#F2F2F3" transform="translate(64.4375,88.9375)"/>
<path d="M0 0 C0 2.64 0 5.28 0 8 C4.62 8 9.24 8 14 8 C14.66 9.98 15.32 11.96 16 14 C18.10232344 11.1315587 18.10232344 11.1315587 19 8 C21.97 8 24.94 8 28 8 C28.66 9.65 29.32 11.3 30 13 C30.66 11.35 31.32 9.7 32 8 C38.27 8 44.54 8 51 8 C51 15.92 51 23.84 51 32 C47.7 32 44.4 32 41 32 C40.67 25.73 40.34 19.46 40 13 C38.35 19.27 36.7 25.54 35 32 C32.03 32 29.06 32 26 32 C25.01 29.03 24.02 26.06 23 23 C22.01 25.97 21.02 28.94 20 32 C17.03 32 14.06 32 11 32 C10.58427734 30.42798828 10.58427734 30.42798828 10.16015625 28.82421875 C9.79432048 27.44529933 9.42843233 26.0663938 9.0625 24.6875 C8.88009766 23.99720703 8.69769531 23.30691406 8.50976562 22.59570312 C7.7406739 19.70112156 6.94738424 16.84215271 6 14 C5.67 14.33 5.34 14.66 5 15 C3.00041636 15.04080783 0.99954746 15.04254356 -1 15 C-1 17.64 -1 20.28 -1 23 C0.98 23 2.96 23 5 23 C5 25.64 5 28.28 5 31 C1.36217368 32.21260877 -1.17735999 32.39544552 -5 32 C-7.9375 30.25 -7.9375 30.25 -10 27 C-10.4092855 22.96486476 -10.28999239 19.04056058 -10 15 C-10.99 15 -11.98 15 -13 15 C-13 12.69 -13 10.38 -13 8 C-12.01 8 -11.02 8 -10 8 C-10 6.02 -10 4.04 -10 2 C-6.38026598 0.68373308 -3.90432869 0 0 0 Z " fill="#151931" transform="translate(97,97)"/>
<path d="M0 0 C6.10148054 3.5382556 9.93757671 8.74200459 13 15 C14.85203127 25.08328136 12.95344897 32.77660895 7.4375 41.375 C1.46822443 46.95497499 -4.23478234 49.36617483 -12.4375 49.6875 C-20.75776074 49.35288082 -27.13904739 46.86460963 -32.875 40.75 C-38.34871313 33.52407842 -39.53493087 26.02284212 -38.4375 17.0625 C-37.48192967 14.08798106 -36.17692753 11.64748258 -34.4375 9.0625 C-33.86 8.175625 -33.2825 7.28875 -32.6875 6.375 C-24.1256008 -2.42472973 -11.39194991 -5.10008834 0 0 Z M-29.08203125 13.015625 C-32.0640488 17.51872932 -32.03253355 22.82792952 -31.4375 28.0625 C-29.86750548 33.57248076 -26.70110341 37.76390142 -21.9765625 40.984375 C-16.5999285 43.26737651 -11.10988844 43.04756513 -5.4375 42.0625 C-0.44379526 39.87295254 3.5142241 36.01320946 5.93359375 31.109375 C7.50041344 26.00991216 7.59350862 20.75863316 5.6796875 15.75390625 C4.47092954 13.63657857 3.17445665 11.88938421 1.5625 10.0625 C1.10101563 9.53398438 0.63953125 9.00546875 0.1640625 8.4609375 C-4.52072962 4.20419745 -9.95997446 4.29021719 -16.046875 4.50390625 C-22.00993495 5.48629977 -25.30136613 8.52552391 -29.08203125 13.015625 Z " fill="#131730" transform="translate(64.4375,88.9375)"/>
<path d="M0 0 C3.18172489 1.73367473 4.97220653 3.17120041 6.99609375 6.20703125 C7.66145213 10.27622303 7.91886709 14.43246714 5.98046875 18.16015625 C3.85011965 20.80384248 2.23042127 22.12892208 -1.00390625 23.20703125 C-5.53940079 23.60676975 -9.65970596 23.72183136 -13.94140625 22.08203125 C-17.05705133 19.24962663 -18.89016496 16.52735356 -19.1015625 12.21484375 C-18.73508211 7.47741435 -17.48865924 4.59221987 -14.00390625 1.20703125 C-9.98775946 -1.80507884 -4.55294908 -1.80165431 0 0 Z " fill="#10152D" transform="translate(191.00390625,104.79296875)"/>
<path d="M0 0 C0 2.64 0 5.28 0 8 C4.62 8 9.24 8 14 8 C13.67 9.32 13.34 10.64 13 12 C13 11.01 13 10.02 13 9 C11.02 9 9.04 9 7 9 C7 9.66 7 10.32 7 11 C6.34 11 5.68 11 5 11 C5 12.32 5 13.64 5 15 C3.02 15 1.04 15 -1 15 C-1 17.64 -1 20.28 -1 23 C0.98 23 2.96 23 5 23 C5 25.64 5 28.28 5 31 C1.36217368 32.21260877 -1.17735999 32.39544552 -5 32 C-7.9375 30.25 -7.9375 30.25 -10 27 C-10.4092855 22.96486476 -10.28999239 19.04056058 -10 15 C-10.99 15 -11.98 15 -13 15 C-13 12.69 -13 10.38 -13 8 C-12.01 8 -11.02 8 -10 8 C-10 6.02 -10 4.04 -10 2 C-6.38026598 0.68373308 -3.90432869 0 0 0 Z " fill="#0F132B" transform="translate(97,97)"/>
<path d="M0 0 C3.3 0 6.6 0 10 0 C10 10.23 10 20.46 10 31 C6.7 31 3.4 31 0 31 C0 20.77 0 10.54 0 0 Z " fill="#15182F" transform="translate(150,97)"/>
<path d="M0 0 C2.97 0 5.94 0 9 0 C9 7.59 9 15.18 9 23 C6.03 23 3.06 23 0 23 C0 15.41 0 7.82 0 0 Z " fill="#090C25" transform="translate(162,105)"/>
<path d="M0 0 C2.31 0 4.62 0 7 0 C7 6.93 7 13.86 7 21 C4.69 21 2.38 21 0 21 C-0.19645093 17.87549468 -0.38063489 14.75038555 -0.5625 11.625 C-0.61857422 10.73554687 -0.67464844 9.84609375 -0.73242188 8.9296875 C-0.78076172 8.07890625 -0.82910156 7.228125 -0.87890625 6.3515625 C-0.9260376 5.56604004 -0.97316895 4.78051758 -1.02172852 3.97119141 C-1 2 -1 2 0 0 Z " fill="#0D122B" transform="translate(139,106)"/>
<path d="M0 0 C6.27 0 12.54 0 19 0 C19 7.92 19 15.84 19 24 C15.7 24 12.4 24 9 24 C9 17.4 9 10.8 9 4 C9.33 4 9.66 4 10 4 C10 9.94 10 15.88 10 22 C12.31 22 14.62 22 17 22 C17 15.07 17 8.14 17 1 C11.72 1 6.44 1 1 1 C0.67 2.32 0.34 3.64 0 5 C0 3.35 0 1.7 0 0 Z " fill="#1E1F36" transform="translate(129,105)"/>
<path d="M0 0 C2.5625 0.3125 2.5625 0.3125 4.4375 1.4375 C5.5625 3.3125 5.5625 3.3125 5.3125 6.4375 C4.5625 9.3125 4.5625 9.3125 3.5625 10.3125 C0.125 10.5625 0.125 10.5625 -3.4375 10.3125 C-5.4375 7.3125 -5.4375 7.3125 -5.1875 4.75 C-4.19253762 1.51637226 -3.41216263 0.43745675 0 0 Z " fill="#151930" transform="translate(45.4375,100.6875)"/>
<path d="M0 0 C3.625 0.375 3.625 0.375 7 1 C8.33157895 6.44736842 8.33157895 6.44736842 6.875 8.875 C4.36737712 10.37957373 2.87879197 10.4318188 0 10 C-1.875 8.8125 -1.875 8.8125 -3 7 C-2.75546876 3.65807308 -2.39456443 2.39456443 0 0 Z " fill="#12172E" transform="translate(43,114)"/>
<path d="M0 0 C3 0.25 3 0.25 5 2.25 C5.25 5.25 5.25 5.25 5 8.25 C4.34 8.91 3.68 9.57 3 10.25 C-0.625 9.875 -0.625 9.875 -4 9.25 C-4.625 5.875 -4.625 5.875 -5 2.25 C-3 0.25 -3 0.25 0 0 Z " fill="#12162D" transform="translate(58,113.75)"/>
<path d="M0 0 C2 2 2 2 2.25 5 C2 8 2 8 0 10 C-3 10.25 -3 10.25 -6 10 C-6.66 9.34 -7.32 8.68 -8 8 C-7.75 4.4375 -7.75 4.4375 -7 1 C-4.48718205 -0.25640898 -2.78302919 -0.20872719 0 0 Z " fill="#12162D" transform="translate(61,101)"/>
<path d="M0 0 C0.8353125 1.2065625 0.8353125 1.2065625 1.6875 2.4375 C4.21864487 5.24228216 5.32579134 5.69381595 9 6 C9 6.99 9 7.98 9 9 C8.05125 9.28875 7.1025 9.5775 6.125 9.875 C2.94788422 10.76825109 2.94788422 10.76825109 1 13 C0.34 12.67 -0.32 12.34 -1 12 C-1 11.34 -1 10.68 -1 10 C-3.97 9.505 -3.97 9.505 -7 9 C-6.01 8.67 -5.02 8.34 -4 8 C-4 7.34 -4 6.68 -4 6 C-3 5 -2 4 -1 3 C-0.67 2.01 -0.34 1.02 0 0 Z " fill="#ECECEE" transform="translate(51,105)"/>
<path d="M0 0 C3.3 0 6.6 0 10 0 C10 1.98 10 3.96 10 6 C6.7 6 3.4 6 0 6 C0 4.02 0 2.04 0 0 Z " fill="#12152D" transform="translate(161,97)"/>
<path d="M0 0 C3.3 0 6.6 0 10 0 C10 1.98 10 3.96 10 6 C6.7 6 3.4 6 0 6 C0 4.02 0 2.04 0 0 Z " fill="#0E122B" transform="translate(138,97)"/>
<path d="M0 0 C3.53571429 0.53571429 3.53571429 0.53571429 5 2 C5.1875 4.4375 5.1875 4.4375 5 7 C4.34 7.66 3.68 8.32 3 9 C0.06546739 8.63318342 -0.86437246 8.13562754 -3 6 C-2.63318342 3.06546739 -2.13562754 2.13562754 0 0 Z " fill="#E7E7E9" transform="translate(184,112)"/>
</svg>
