<?xml version="1.0" encoding="UTF-8"?>
<svg version="1.1" xmlns="http://www.w3.org/2000/svg" width="3840" height="2160">
<path d="M0 0 C1267.2 0 2534.4 0 3840 0 C3840 712.8 3840 1425.6 3840 2160 C2572.8 2160 1305.6 2160 0 2160 C0 1447.2 0 734.4 0 0 Z " fill="#FEFEFE" transform="translate(0,0)"/>
<path d="M0 0 C0.66 0 1.32 0 2 0 C4 3 4 3 4 7 C4.66 7 5.32 7 6 7 C6.3403125 7.63164063 6.680625 8.26328125 7.03125 8.9140625 C12.70039779 19.37786187 18.5860797 29.6963876 24.75 39.875 C33 53.52794801 33 53.52794801 33 57 C33.66 57 34.32 57 35 57 C36.00484204 58.95585325 37.00373805 60.91476237 38 62.875 C38.8353125 64.51082031 38.8353125 64.51082031 39.6875 66.1796875 C41 69 41 69 41 71 C41.66 71 42.32 71 43 71 C44.09399414 72.49023438 44.09399414 72.49023438 45.28515625 74.59375 C45.72891602 75.36904053 46.17267578 76.14433105 46.62988281 76.94311523 C47.10264648 77.78688721 47.57541016 78.63065918 48.0625 79.5 C48.79678223 80.78982788 48.79678223 80.78982788 49.54589844 82.10571289 C51.0387049 84.73265508 52.5207591 87.36539937 54 90 C54.82674322 91.46749282 55.65356047 92.93494393 56.48046875 94.40234375 C57.61113653 96.41090235 58.74033763 98.42022447 59.86547852 100.43188477 C62.02891849 104.29693948 64.24231212 108.12635716 66.5 111.9375 C69.34887478 116.77596018 71.96783219 121.7104358 74.5625 126.6875 C77.26521629 131.86207557 80.05541025 136.78836227 83.41015625 141.57421875 C86.03197337 145.57458345 88.28368874 149.78400645 90.59350586 153.9699707 C93.42398102 159.06843553 96.48870452 163.95175897 99.78515625 168.765625 C101 171 101 171 101 175 C101.66 175 102.32 175 103 175 C119.25 203.4375 119.25 203.4375 121.13671875 206.7421875 C122.4276974 208.99937029 123.72162295 211.25462879 125.01953125 213.5078125 C128.40393394 219.3901883 131.75042367 225.29202646 135 231.25 C135.86625 232.83554687 135.86625 232.83554687 136.75 234.453125 C138 237 138 237 138 239 C138.66 239 139.32 239 140 239 C141.14160156 240.56958008 141.14160156 240.56958008 142.390625 242.76953125 C142.85339844 243.57712891 143.31617188 244.38472656 143.79296875 245.21679688 C144.27378906 246.07337891 144.75460937 246.92996094 145.25 247.8125 C145.71535156 248.62654297 146.18070313 249.44058594 146.66015625 250.27929688 C149.11711595 254.59420543 151.5146668 258.93837811 153.87890625 263.3046875 C157.99671202 270.88115628 162.36183123 278.31433863 166.69726562 285.76757812 C167.33728516 286.87166016 167.97730469 287.97574219 168.63671875 289.11328125 C169.21123779 290.10110596 169.78575684 291.08893066 170.37768555 292.10668945 C172.01597537 295.02849121 173.50310836 298.00393061 175 301 C175.77370229 302.3324699 176.56645995 303.65416293 177.3828125 304.9609375 C177.82343018 305.67185547 178.26404785 306.38277344 178.71801758 307.11523438 C179.18232178 307.86095703 179.64662598 308.60667969 180.125 309.375 C184.22171258 316.01043399 188.14973303 322.71335938 191.94042969 329.52758789 C194.30724314 333.78009032 196.75548423 337.96840875 199.28125 342.12890625 C205.57767041 352.64679035 211.62800512 363.31648601 217.6796875 373.9765625 C219.60857683 377.34630893 221.58781509 380.68498182 223.5703125 384.0234375 C224.20606201 385.09891846 224.84181152 386.17439941 225.49682617 387.2824707 C226.77228433 389.43818593 228.05353377 391.5904871 229.34106445 393.73901367 C229.92847412 394.73392822 230.51588379 395.72884277 231.12109375 396.75390625 C231.6514624 397.64408447 232.18183105 398.5342627 232.72827148 399.45141602 C234.00117284 402.00235041 234.58617855 404.19163274 235 407 C235.66 407 236.32 407 237 407 C238.42436585 409.61133738 239.84824096 412.222924 241.26953125 414.8359375 C242.40324943 416.90887594 243.54616392 418.97681731 244.69921875 421.0390625 C245.23160156 421.99554687 245.76398437 422.95203125 246.3125 423.9375 C246.80363281 424.81277344 247.29476562 425.68804688 247.80078125 426.58984375 C248.87804128 428.75489078 249.53427233 430.63848674 250 433 C250.66 433 251.32 433 252 433 C252.84114171 434.43294498 253.67265687 435.87154405 254.5 437.3125 C254.9640625 438.11300781 255.428125 438.91351562 255.90625 439.73828125 C257 442 257 442 257 445 C257.66 445 258.32 445 259 445 C260.0076952 446.7664657 261.00591714 448.53833823 262 450.3125 C262.8353125 451.79169922 262.8353125 451.79169922 263.6875 453.30078125 C265 456 265 456 265 459 C265.66 459 266.32 459 267 459 C267.556875 460.00417969 268.11375 461.00835938 268.6875 462.04296875 C273.06463664 469.89865014 277.54769472 477.63970543 282.37109375 485.23046875 C284 488 284 488 284.953125 490.4453125 C286.32908374 493.80306255 288.30310822 496.68659407 290.3125 499.6875 C293.48736735 504.51534017 296.26995655 509.33155772 298.75 514.55859375 C300.68177173 518.3315854 303.01451634 521.82736859 305.3515625 525.359375 C307 528 307 528 308.34765625 530.72265625 C310.60041316 535.19089041 313.2121681 539.41472557 315.8125 543.6875 C319.63818707 550.00974605 323.36487181 556.33847067 326.8203125 562.87109375 C327.90385014 564.82648453 329.07909148 566.61875942 330.375 568.4375 C332 571 332 571 332 575 C332.66 575 333.32 575 334 575 C335.6785249 577.99349833 337.34165548 580.99527676 339 584 C339.62390625 585.12921875 340.2478125 586.2584375 340.890625 587.421875 C341.53168968 588.59350953 342.17231752 589.7653832 342.8125 590.9375 C343.41707031 592.03964844 344.02164063 593.14179687 344.64453125 594.27734375 C346 597 346 597 346 599 C346.66 599 347.32 599 348 599 C348.35191406 599.65484375 348.70382812 600.3096875 349.06640625 600.984375 C353.50454842 609.1885647 358.13888803 617.26750466 362.96484375 625.25 C363.91037109 626.8278125 363.91037109 626.8278125 364.875 628.4375 C365.44992187 629.38496094 366.02484375 630.33242187 366.6171875 631.30859375 C367.96416377 633.93025094 368.58905793 636.09706304 369 639 C369.66 639 370.32 639 371 639 C371.91432982 640.62547524 372.8286484 642.25095681 373.74291992 643.87646484 C374.54888737 645.30918606 375.35504407 646.74180082 376.16137695 648.17431641 C378.24215605 651.87159849 380.32019236 655.57035026 382.390625 659.2734375 C386.06099796 665.83149051 389.76373257 672.35291779 393.671875 678.7734375 C395.00522086 681.00875261 396.25814646 683.27528873 397.5 685.5625 C399.68106755 689.56941237 402.19134064 693.26208063 404.86328125 696.95703125 C406 699 406 699 406 703 C406.66 703 407.32 703 408 703 C409.14160156 704.56958008 409.14160156 704.56958008 410.390625 706.76953125 C410.84977295 707.57044189 411.3089209 708.37135254 411.78198242 709.1965332 C412.26642822 710.05980225 412.75087402 710.92307129 413.25 711.8125 C413.99697144 713.12383911 413.99697144 713.12383911 414.7590332 714.46166992 C417.75014428 719.72823346 420.68417982 725.02429078 423.55859375 730.35546875 C428.58762967 739.58218236 433.94421653 748.62645749 439.28369141 757.67553711 C442.58506038 763.27695703 445.83156877 768.90683758 449.0390625 774.5625 C450.43542501 777.01030679 451.8449294 779.44617336 453.2734375 781.875 C453.64581543 782.51284424 454.01819336 783.15068848 454.40185547 783.80786133 C455.11708121 785.03207719 455.83722373 786.25343794 456.56298828 787.47143555 C458.16337674 790.22389385 459 791.7542394 459 795 C459.66 795 460.32 795 461 795 C462.2890625 796.609375 462.2890625 796.609375 463.625 798.75 C464.07101562 799.44609375 464.51703125 800.1421875 464.9765625 800.859375 C466 803 466 803 466 807 C466.66 807 467.32 807 468 807 C468.84114171 808.43294498 469.67265687 809.87154405 470.5 811.3125 C470.9640625 812.11300781 471.428125 812.91351562 471.90625 813.73828125 C473 816 473 816 473 819 C473.66 819 474.32 819 475 819 C475.36351562 819.67804687 475.72703125 820.35609375 476.1015625 821.0546875 C479.21103051 826.81118981 482.4345571 832.45281586 485.8984375 838.00390625 C487 840 487 840 487 842 C166.24 842 -154.52 842 -485 842 C-483.42348479 838.05871197 -481.76000559 834.52919952 -479.75 830.8125 C-479.18796875 829.76707031 -478.6259375 828.72164062 -478.046875 827.64453125 C-476.00508772 823.95083785 -473.82193859 820.34576672 -471.64160156 816.73266602 C-468.71886849 811.86738474 -465.86152068 806.96394754 -463 802.0625 C-462.40960938 801.05509766 -461.81921875 800.04769531 -461.2109375 799.00976562 C-457.84197318 793.24022871 -454.5783545 787.42737114 -451.39794922 781.55200195 C-449.36520963 777.84116944 -447.22411136 774.19930332 -445.0625 770.5625 C-444.18478627 769.07688764 -443.30718233 767.59121041 -442.4296875 766.10546875 C-441.61984255 764.73694905 -440.80995161 763.36845657 -440 762 C-433.16495233 750.42945967 -426.59635073 738.70766695 -420 727 C-419.34 727 -418.68 727 -418 727 C-417.731875 726.13375 -417.46375 725.2675 -417.1875 724.375 C-416.02888013 721.08208036 -414.61790161 718.08872125 -413 715 C-412.34 715 -411.68 715 -411 715 C-410.90847656 714.48179687 -410.81695312 713.96359375 -410.72265625 713.4296875 C-409.73082148 710.09497818 -408.09505753 707.16483027 -406.4375 704.125 C-406.07889893 703.46081055 -405.72029785 702.79662109 -405.35083008 702.11230469 C-401.67860651 695.34442797 -397.85778782 688.6634517 -394 682 C-393.13397505 680.4987784 -392.26809732 678.99747187 -391.40234375 677.49609375 C-386.49721419 668.99880625 -381.55515739 660.52444116 -376.56567383 652.07641602 C-373.9365547 647.61715682 -371.36076834 643.13084969 -368.8125 638.625 C-366.48327134 634.52201003 -364.07780687 630.51358547 -361.5 626.5625 C-358.39641361 621.76284939 -355.70692597 616.8164331 -353.05078125 611.76245117 C-347.78122887 601.7465015 -342.09227487 592.00041015 -336.0546875 582.42578125 C-334.35848455 579.59770142 -332.76367534 576.75470542 -331.1953125 573.85546875 C-327.37054238 566.79025174 -323.28621159 559.88356467 -319.2109375 552.9609375 C-315.34674714 546.37308874 -311.61544855 539.72764785 -308 533 C-307.34 533 -306.68 533 -306 533 C-305.76539063 532.1853125 -305.53078125 531.370625 -305.2890625 530.53125 C-303.72368547 526.24306565 -301.62858069 522.45878726 -299.375 518.5 C-298.70621826 517.31132324 -298.70621826 517.31132324 -298.02392578 516.09863281 C-296.68847188 513.72904841 -295.34555182 511.36386218 -294 509 C-293.63003906 508.34837891 -293.26007813 507.69675781 -292.87890625 507.02539062 C-290.59793061 503.01001276 -288.30056485 499.00417675 -286 495 C-284.51948051 492.41743969 -283.04078614 489.83383916 -281.5625 487.25 C-281.04888916 486.3542627 -281.04888916 486.3542627 -280.52490234 485.44042969 C-279.30686071 483.31211445 -278.09691573 481.19383146 -277 479 C-276.34 479 -275.68 479 -275 479 C-274.77570313 478.20335937 -274.55140625 477.40671875 -274.3203125 476.5859375 C-272.62416353 471.97923704 -270.29929908 467.88280259 -267.875 463.625 C-267.40707031 462.79355469 -266.93914062 461.96210937 -266.45703125 461.10546875 C-265.30929451 459.06765046 -264.15686718 457.03264431 -263 455 C-262.34 455 -261.68 455 -261 455 C-260.77828125 454.19949219 -260.5565625 453.39898438 -260.328125 452.57421875 C-258.62475462 447.99014845 -256.24759838 444.00381473 -253.75 439.8125 C-252.74504682 438.10347977 -251.74113183 436.39384862 -250.73828125 434.68359375 C-250.25955566 433.86874512 -249.78083008 433.05389648 -249.28759766 432.21435547 C-247.78413676 429.62876761 -246.34769612 427.01251377 -244.9375 424.375 C-242.54623428 419.932137 -240.00957783 415.5894692 -237.4375 411.25 C-233.33072123 404.31847784 -229.33157614 397.33079407 -225.375 390.3125 C-224.81844727 389.32556152 -224.26189453 388.33862305 -223.68847656 387.32177734 C-222.12514363 384.5481371 -220.5625469 381.7740831 -219 379 C-215.13252453 372.13696103 -211.22394815 365.31595584 -207.0625 358.625 C-202.85380445 351.84661167 -198.96779931 344.90798615 -195.08496094 337.94042969 C-188.52925853 326.2156946 -181.74980687 314.61367253 -175 303 C-174.52643066 302.18337891 -174.05286133 301.36675781 -173.56494141 300.52539062 C-172.1925025 298.16077604 -170.81568754 295.79876762 -169.4375 293.4375 C-168.81125732 292.35698364 -168.81125732 292.35698364 -168.17236328 291.25463867 C-166.60742558 288.58242147 -165.19969905 286.19969905 -163 284 C-162.27330664 282.32237646 -161.55000632 280.64310825 -160.85253906 278.953125 C-159.42177633 275.67531805 -157.64753949 272.60262094 -155.875 269.5 C-155.28730835 268.46286865 -155.28730835 268.46286865 -154.68774414 267.40478516 C-151.64326378 262.05977412 -148.49791584 256.77891251 -145.31274414 251.5168457 C-142.74917158 247.2752169 -140.25861724 242.99785685 -137.8125 238.6875 C-135.11710109 233.93846382 -132.36938985 229.23214474 -129.51953125 224.57421875 C-128.22251568 222.37696102 -126.97813062 220.16359776 -125.74609375 217.9296875 C-122.67453378 212.37709826 -119.4608214 206.91035164 -116.25 201.4375 C-111.43904403 193.21507042 -106.68825124 184.96540067 -102.04296875 176.6484375 C-98.7423247 170.73898746 -95.36708463 164.87175521 -92 159 C-91.34 159 -90.68 159 -90 159 C-89.690625 157.8553125 -89.690625 157.8553125 -89.375 156.6875 C-85.84017946 147.207754 -80.05196654 138.53729474 -75.01904297 129.77636719 C-73.40252756 126.95850275 -71.79607288 124.13490394 -70.1875 121.3125 C-69.53910156 120.18199219 -68.89070313 119.05148437 -68.22265625 117.88671875 C-66.50826383 114.89705341 -64.813518 111.89668192 -63.12109375 108.89453125 C-62.12264556 107.13787887 -61.1239493 105.38136746 -60.125 103.625 C-59.64828857 102.77333252 -59.17157715 101.92166504 -58.68041992 101.04418945 C-58.23158447 100.25874756 -57.78274902 99.47330566 -57.3203125 98.6640625 C-56.92086426 97.95717285 -56.52141602 97.2502832 -56.10986328 96.52197266 C-55.7436084 96.01972168 -55.37735352 95.5174707 -55 95 C-54.34 95 -53.68 95 -53 95 C-52.938125 94.35804688 -52.87625 93.71609375 -52.8125 93.0546875 C-51.63514964 88.62830296 -49.33730774 85.03878638 -47 81.125 C-46.50814209 80.2894458 -46.01628418 79.4538916 -45.50952148 78.59301758 C-44.01386374 76.05746875 -42.50794942 73.5282535 -41 71 C-40.13656841 69.54305784 -39.27327749 68.08603229 -38.41015625 66.62890625 C-32.72016659 57.06336043 -32.72016659 57.06336043 -29.91796875 52.92578125 C-28.11607518 50.17706784 -26.66460888 47.46235742 -25.25 44.5 C-20.08594101 34.00320673 -14.06977638 24.06061852 -7.8984375 14.1328125 C-5.09795148 9.51143433 -2.52651049 4.77548762 0 0 Z " fill="#000000" transform="translate(536,659)"/>
<path d="M0 0 C1.77904221 -0.00939606 1.77904221 -0.00939606 3.59402466 -0.01898193 C24.03029612 -0.08715523 44.12696287 1.40627679 64.125 5.8125 C65.11580566 6.02600098 66.10661133 6.23950195 67.12744141 6.45947266 C81.16275971 9.56753746 94.39212685 14.33260876 107.71289062 19.67675781 C109.27599346 20.29864602 110.84780247 20.89861266 112.421875 21.4921875 C117.69755431 23.49269677 122.75352797 25.88585667 127.8125 28.375 C128.47846191 28.69911865 129.14442383 29.0232373 129.83056641 29.35717773 C134.44265297 31.66666373 138.45768649 34.40116888 142.625 37.4375 C145.38461037 38.72824371 145.38461037 38.72824371 147.625 39.4375 C147.625 40.0975 147.625 40.7575 147.625 41.4375 C148.62660156 41.76041016 148.62660156 41.76041016 149.6484375 42.08984375 C153.61163702 43.88420574 156.81026975 46.35999783 160.25 49 C160.95423096 49.5350415 161.65846191 50.07008301 162.3840332 50.62133789 C170.13481342 56.53926474 177.77877667 62.47078314 184.625 69.4375 C185.61113281 70.40623047 185.61113281 70.40623047 186.6171875 71.39453125 C192.97244816 77.6574956 198.73764404 83.95373618 203.625 91.4375 C204.70155244 92.79706365 205.78569336 94.15063366 206.875 95.5 C224.625 118.11509636 224.625 118.11509636 224.625 127.4375 C225.285 127.4375 225.945 127.4375 226.625 127.4375 C239.48460863 155.97323097 249.06006837 186.89548422 249.625 218.4375 C249.65078125 219.55382813 249.6765625 220.67015625 249.703125 221.8203125 C250.1240628 242.31998349 249.00387341 262.16425953 245.625 282.4375 C123.855 282.4375 2.085 282.4375 -123.375 282.4375 C-120.24256514 289.64180703 -120.24256514 289.64180703 -116.375 296.4375 C-116.375 297.7575 -116.375 299.0775 -116.375 300.4375 C-115.715 300.4375 -115.055 300.4375 -114.375 300.4375 C-113.28642134 301.99648938 -112.28066332 303.61350644 -111.3125 305.25 C-107.49662902 311.4368201 -103.05030418 316.88935714 -98.375 322.4375 C-97.73433594 323.28183594 -97.09367187 324.12617187 -96.43359375 324.99609375 C-93.51128759 328.46182686 -90.02349968 330.9459316 -86.421875 333.66796875 C-85.74640625 334.25191406 -85.0709375 334.83585937 -84.375 335.4375 C-84.375 336.0975 -84.375 336.7575 -84.375 337.4375 C-83.62992188 337.71335937 -82.88484375 337.98921875 -82.1171875 338.2734375 C-79.60450279 339.34007574 -77.7040414 340.47806863 -75.5 342.0625 C-41.38941007 365.33527707 2.56792237 372.41946701 42.87890625 365.28051758 C67.2331166 360.56971059 88.89842656 351.59844988 108.47167969 336.29858398 C113.43424427 332.4375 113.43424427 332.4375 115.625 332.4375 C115.625 331.7775 115.625 331.1175 115.625 330.4375 C117.234375 328.7109375 117.234375 328.7109375 119.375 326.8125 C120.41914062 325.86503906 120.41914062 325.86503906 121.484375 324.8984375 C123.625 323.4375 123.625 323.4375 127.625 323.4375 C129.63623047 324.29199219 129.63623047 324.29199219 131.7421875 325.484375 C132.51433594 325.9175 133.28648437 326.350625 134.08203125 326.796875 C134.87996094 327.25578125 135.67789063 327.7146875 136.5 328.1875 C137.29019531 328.6309375 138.08039062 329.074375 138.89453125 329.53125 C143.26572215 332.0041367 147.47393356 334.61306304 151.625 337.4375 C154.68139852 339.31930673 157.7279865 341.09150908 161.0859375 342.38671875 C163.56531731 343.41280055 165.49866568 344.58564638 167.6875 346.125 C175.70341259 351.58858221 184.19709394 356.23626889 192.72265625 360.84765625 C197.78037589 363.61817024 202.77355646 366.50224753 207.77392578 369.37451172 C210.97242164 371.21126337 214.17357613 373.04335819 217.375 374.875 C217.97159424 375.21708496 218.56818848 375.55916992 219.18286133 375.91162109 C221.31174678 377.12998716 223.43058146 378.34029073 225.625 379.4375 C223.15808241 385.00065089 218.76350469 389.07363808 214.625 393.4375 C214.10824707 393.98293457 213.59149414 394.52836914 213.05908203 395.09033203 C204.82521909 403.70943345 196.23546323 411.39148038 186.625 418.4375 C185.95033691 418.93523926 185.27567383 419.43297852 184.58056641 419.94580078 C175.25740085 426.78650469 165.7984898 432.93764975 155.625 438.4375 C154.61308594 438.99179688 153.60117188 439.54609375 152.55859375 440.1171875 C150.71017262 441.12816069 148.85882139 442.13380434 147.00390625 443.1328125 C145.00732507 444.22781762 143.06819956 445.37728608 141.125 446.5625 C137.33018206 448.59543818 133.53377262 450.01728821 129.46875 451.41015625 C126.7653991 452.3867789 124.14805878 453.50076911 121.51269531 454.64575195 C113.31288368 458.0849642 104.6909938 461.29044795 95.9453125 462.953125 C92.87791898 463.59345631 89.89177307 464.46545788 86.875 465.3125 C80.7555838 466.97901109 74.5986619 468.34432499 68.375 469.5625 C67.59157227 469.72089355 66.80814453 469.87928711 66.00097656 470.04248047 C48.75457358 473.31264005 31.44624682 473.84469476 13.9375 473.8125 C12.82004395 473.81195618 11.70258789 473.81141235 10.55126953 473.81085205 C-22.34112985 473.73752579 -55.37353466 470.0807444 -86.375 458.4375 C-87.76520565 457.93503614 -89.15585199 457.43379038 -90.546875 456.93359375 C-96.6764993 454.70679979 -102.70054221 452.44648842 -108.4609375 449.36328125 C-110.85277714 448.20641187 -113.30186872 447.36800062 -115.8125 446.5 C-121.01513562 444.67617103 -125.66049155 442.27784583 -130.375 439.4375 C-130.375 438.7775 -130.375 438.1175 -130.375 437.4375 C-131.05046875 437.36015625 -131.7259375 437.2828125 -132.421875 437.203125 C-136.26596751 436.20650842 -139.3129817 434.3023689 -142.625 432.1875 C-143.31811279 431.74857422 -144.01122559 431.30964844 -144.7253418 430.85742188 C-156.2631615 423.41483592 -167.07483971 414.96529387 -177.0859375 405.57421875 C-179.04917139 403.74164377 -181.05107436 402.01640807 -183.125 400.3125 C-189.46676245 394.91974238 -194.46041395 388.15668263 -199.578125 381.63671875 C-201.25103311 379.50538957 -201.25103311 379.50538957 -202.83178711 378.01513672 C-204.38395909 376.42834107 -205.60549579 374.82263431 -206.86328125 372.99609375 C-207.31985107 372.33432129 -207.7764209 371.67254883 -208.24682617 370.99072266 C-208.72224854 370.29253418 -209.1976709 369.5943457 -209.6875 368.875 C-210.17516846 368.16134277 -210.66283691 367.44768555 -211.1652832 366.71240234 C-221.375 351.6738343 -221.375 351.6738343 -221.375 348.4375 C-222.035 348.4375 -222.695 348.4375 -223.375 348.4375 C-223.6225 347.7775 -223.87 347.1175 -224.125 346.4375 C-225.35016596 343.4971017 -226.75159272 340.68154859 -228.1796875 337.8359375 C-228.57414062 337.04445313 -228.96859375 336.25296875 -229.375 335.4375 C-229.83132813 334.52226563 -230.28765625 333.60703125 -230.7578125 332.6640625 C-234.84056 324.17793287 -237.9017768 315.52959826 -240.7109375 306.55224609 C-241.29162427 304.7030149 -241.8940162 302.86062787 -242.5 301.01953125 C-244.80400325 293.63052081 -246.25249517 286.18337277 -247.5625 278.5625 C-247.81314209 277.12849854 -247.81314209 277.12849854 -248.06884766 275.66552734 C-250.32608795 261.82220505 -250.63965266 247.75279847 -250.6875 233.75 C-250.69011841 233.00169922 -250.69273682 232.25339844 -250.69543457 231.48242188 C-250.70108045 216.21597497 -249.06828656 201.47777774 -246.375 186.4375 C-246.21483398 185.51533691 -246.05466797 184.59317383 -245.88964844 183.64306641 C-243.80017851 171.86706234 -240.46481404 160.66646732 -236.375 149.4375 C-236.1282251 148.756875 -235.8814502 148.07625 -235.62719727 147.375 C-228.28848444 127.44304645 -218.02417003 107.73744581 -204.375 91.4375 C-203.06108744 89.75109961 -201.74852667 88.06364489 -200.4375 86.375 C-188.79048486 71.96703904 -175.68537962 59.01889921 -160.6875 48.125 C-159.92107178 47.56756104 -159.15464355 47.01012207 -158.36499023 46.43579102 C-152.42895933 42.23548812 -152.42895933 42.23548812 -148.375 41.4375 C-148.375 40.7775 -148.375 40.1175 -148.375 39.4375 C-146.22184206 38.24130114 -144.06847823 37.04549567 -141.9140625 35.8515625 C-140.3839709 34.99941918 -138.85691883 34.14173719 -137.3359375 33.2734375 C-125.39944703 26.49867264 -113.25130613 20.63196561 -100.28808594 16.10791016 C-98.49076701 15.47806868 -96.70204953 14.82383307 -94.9140625 14.16796875 C-82.99261922 9.94858152 -70.75021828 6.98712326 -58.375 4.4375 C-56.81072266 4.11338135 -56.81072266 4.11338135 -55.21484375 3.78271484 C-36.90398077 0.21186966 -18.59352121 0.04612905 0 0 Z " fill="#000000" transform="translate(1924.375,869.5625)"/>
<path d="M0 0 C3.73844623 0.01072026 7.47641206 0.0000538 11.21484375 -0.01269531 C23.56981037 -0.01988393 35.5406282 0.28544335 47.74609375 2.26074219 C49.44328783 2.47995286 51.14113456 2.69422443 52.83984375 2.90136719 C74.14327883 5.76228279 94.70463887 11.33064193 114.4453125 19.84277344 C116.40990108 20.68673279 118.3871066 21.50349261 120.38671875 22.26074219 C130.45815689 26.12045501 139.5424997 31.69554665 148.74609375 37.26074219 C149.70201416 37.83332764 149.70201416 37.83332764 150.67724609 38.41748047 C165.55104928 47.38448195 178.9234986 58.10025908 191.24609375 70.32324219 C192.06553467 71.1326123 192.88497559 71.94198242 193.72924805 72.77587891 C194.48761963 73.54561035 195.24599121 74.3153418 196.02734375 75.10839844 C196.69830078 75.789104 197.36925781 76.46980957 198.06054688 77.17114258 C199.8843845 79.43218345 200.71330373 81.56598463 201.74609375 84.26074219 C203.07365572 84.9388288 204.40801582 85.60365035 205.74609375 86.26074219 C207.51863351 88.29177733 209.14247139 90.29307092 210.74609375 92.44824219 C211.17148438 93.00060547 211.596875 93.55296875 212.03515625 94.12207031 C214.55701225 97.45231267 216.72277296 100.8521808 218.74560547 104.50415039 C220.80459016 108.11918086 223.16724237 111.55347869 225.47851562 115.01074219 C228.06032072 118.95162355 229.96854226 122.87735605 231.74609375 127.26074219 C232.42584396 128.82231674 233.1097478 130.38208709 233.796875 131.94042969 C241.56644912 149.72488216 247.97470117 167.17708357 251.74609375 186.26074219 C251.99601074 187.49920898 251.99601074 187.49920898 252.25097656 188.76269531 C255.12011895 203.86281942 255.05822367 219.13476079 255.12109375 234.44824219 C255.12903961 235.46600739 255.13698547 236.48377258 255.14517212 237.53237915 C255.33065301 268.50706441 255.33065301 268.50706441 250.74609375 282.26074219 C129.30609375 282.26074219 7.86609375 282.26074219 -117.25390625 282.26074219 C-104.19227853 312.11589126 -85.68758613 335.5003613 -56.25390625 350.26074219 C-55.3825 350.74929688 -54.51109375 351.23785156 -53.61328125 351.74121094 C-35.68699602 361.4804916 -12.5924965 366.8137402 7.74609375 367.26074219 C8.60976562 367.28652344 9.4734375 367.31230469 10.36328125 367.33886719 C37.20027665 368.06615704 63.1709364 363.57517407 87.92578125 352.95996094 C89.74609375 352.26074219 89.74609375 352.26074219 91.74609375 352.26074219 C91.74609375 351.60074219 91.74609375 350.94074219 91.74609375 350.26074219 C93.36859316 349.42255061 94.99417872 348.59033059 96.62109375 347.76074219 C97.52601563 347.29667969 98.4309375 346.83261719 99.36328125 346.35449219 C101.74609375 345.26074219 101.74609375 345.26074219 103.74609375 345.26074219 C103.74609375 344.60074219 103.74609375 343.94074219 103.74609375 343.26074219 C105.47030802 342.04588833 107.25244259 340.91255514 109.05859375 339.82324219 C112.34380814 337.83493596 115.05122105 335.97219872 117.74609375 333.26074219 C118.40609375 333.26074219 119.06609375 333.26074219 119.74609375 333.26074219 C119.74609375 332.60074219 119.74609375 331.94074219 119.74609375 331.26074219 C121.42578125 329.60449219 121.42578125 329.60449219 123.62109375 327.76074219 C125.73644879 325.97140961 127.78628499 324.22055094 129.74609375 322.26074219 C133.85715992 322.54491727 137.22154733 325.25299344 140.62109375 327.38574219 C147.79730712 331.80098458 155.14886766 335.62016081 162.74609375 339.26074219 C162.74609375 339.92074219 162.74609375 340.58074219 162.74609375 341.26074219 C163.69742188 341.60105469 163.69742188 341.60105469 164.66796875 341.94824219 C168.93874649 343.76928447 172.93828157 346.01073983 176.99609375 348.26074219 C178.32084717 348.99224487 178.32084717 348.99224487 179.67236328 349.73852539 C186.77635725 353.68044563 193.78828724 357.76526442 200.7734375 361.91308594 C204.55280793 364.15533465 208.36299199 366.33971989 212.18359375 368.51074219 C213.29992188 369.15011719 214.41625 369.78949219 215.56640625 370.44824219 C217.63686755 371.628456 219.71471404 372.79583677 221.80078125 373.94824219 C222.71085937 374.46386719 223.6209375 374.97949219 224.55859375 375.51074219 C225.34878906 375.94902344 226.13898437 376.38730469 226.953125 376.83886719 C228.74609375 378.26074219 228.74609375 378.26074219 229.74609375 380.10449219 C229.74609375 383.45002831 228.0373051 384.99070968 225.93359375 387.51074219 C225.20527344 388.40277344 224.47695312 389.29480469 223.7265625 390.21386719 C223.07300781 390.88933594 222.41945313 391.56480469 221.74609375 392.26074219 C221.08609375 392.26074219 220.42609375 392.26074219 219.74609375 392.26074219 C219.34342285 393.15587524 219.34342285 393.15587524 218.93261719 394.0690918 C217.73659771 396.2782825 216.58445085 397.61910073 214.76171875 399.32714844 C214.16278809 399.89014648 213.56385742 400.45314453 212.94677734 401.03320312 C212.30305176 401.62391602 211.65932617 402.21462891 210.99609375 402.82324219 C210.33303223 403.43586914 209.6699707 404.04849609 208.98681641 404.6796875 C204.4914254 408.78422125 199.88911852 412.72652414 195.12109375 416.51074219 C194.55422852 416.96392822 193.98736328 417.41711426 193.40332031 417.8840332 C190.3233603 420.27316536 187.4478176 422.02224722 183.74609375 423.26074219 C183.74609375 423.92074219 183.74609375 424.58074219 183.74609375 425.26074219 C182.82828125 425.78023437 181.91046875 426.29972656 180.96484375 426.83496094 C173.16043719 431.24205136 173.16043719 431.24205136 165.49609375 435.88574219 C164.58150391 436.46195313 164.58150391 436.46195313 163.6484375 437.04980469 C162.26089625 437.9330445 160.87880221 438.82485877 159.5 439.72167969 C153.82943983 443.29640082 148.12878755 445.80537904 141.83984375 448.11230469 C139.23497273 449.07926438 136.71307897 450.115142 134.18359375 451.26074219 C133.46042969 451.58429688 132.73726562 451.90785156 131.9921875 452.24121094 C130.45705366 452.93802821 128.92859899 453.64970046 127.40625 454.37402344 C93.20273118 469.79323089 53.24335127 473.70262431 16.18359375 473.63574219 C15.14248444 473.63586304 14.10137512 473.63598389 13.02871704 473.6361084 C-4.06467823 473.60799561 -20.44208155 472.53033663 -37.25390625 469.26074219 C-38.16785156 469.08994141 -39.08179687 468.91914062 -40.0234375 468.74316406 C-45.46738403 467.71486305 -50.86459444 466.54290688 -56.25390625 465.26074219 C-56.98448242 465.0904248 -57.71505859 464.92010742 -58.46777344 464.74462891 C-65.90721521 463.00198311 -73.16237236 461.14988562 -80.25390625 458.26074219 C-81.13046875 457.97199219 -82.00703125 457.68324219 -82.91015625 457.38574219 C-110.12266299 448.23013244 -134.70343757 434.71724467 -157.58105469 417.51806641 C-159.11563421 416.36466819 -160.65709828 415.22044465 -162.19921875 414.07714844 C-163.02164063 413.45710938 -163.8440625 412.83707031 -164.69140625 412.19824219 C-165.39136719 411.67101563 -166.09132813 411.14378906 -166.8125 410.60058594 C-167.52599609 409.93736328 -167.52599609 409.93736328 -168.25390625 409.26074219 C-168.25390625 408.60074219 -168.25390625 407.94074219 -168.25390625 407.26074219 C-168.83140625 407.01066406 -169.40890625 406.76058594 -170.00390625 406.50292969 C-172.5560663 405.09392466 -174.23113687 403.47962456 -176.25390625 401.38574219 C-177.24390625 400.36867188 -177.24390625 400.36867188 -178.25390625 399.33105469 C-178.91390625 398.64785156 -179.57390625 397.96464844 -180.25390625 397.26074219 C-180.99640625 396.55691406 -181.73890625 395.85308594 -182.50390625 395.12792969 C-184.25390625 393.26074219 -184.25390625 393.26074219 -184.25390625 391.26074219 C-185.24390625 390.93074219 -186.23390625 390.60074219 -187.25390625 390.26074219 C-194.42786397 382.70534705 -200.32353403 373.80357904 -206.25390625 365.26074219 C-206.90230469 364.33003906 -207.55070312 363.39933594 -208.21875 362.44042969 C-212.25390625 356.53485983 -212.25390625 356.53485983 -212.25390625 354.26074219 C-212.91390625 354.26074219 -213.57390625 354.26074219 -214.25390625 354.26074219 C-216.15669898 350.51423556 -218.04980031 346.76290777 -219.94140625 343.01074219 C-220.73708008 341.44453125 -220.73708008 341.44453125 -221.54882812 339.84667969 C-232.01894718 319.0349093 -238.71424683 297.25944074 -242.25390625 274.26074219 C-242.4245459 273.19057861 -242.59518555 272.12041504 -242.77099609 271.01782227 C-244.49538051 259.00347873 -244.65122651 247.07121304 -244.62890625 234.94824219 C-244.62869476 233.88826019 -244.62848328 232.8282782 -244.62826538 231.73617554 C-244.5954598 215.24771857 -243.76812159 199.42388904 -240.25390625 183.26074219 C-240.05071777 182.2973291 -239.8475293 181.33391602 -239.63818359 180.34130859 C-235.67111258 161.83142194 -229.85429746 145.24205614 -221.3203125 128.37792969 C-220.02515319 125.81390871 -218.75930802 123.24034834 -217.53125 120.64355469 C-211.25592787 107.55884045 -203.38263659 96.15996435 -193.8515625 85.26464844 C-191.49068541 82.53455147 -189.2690602 79.74358871 -187.06640625 76.88574219 C-184.14087051 73.19001439 -181.06349819 70.09303674 -177.40625 67.12402344 C-175.49567281 65.47003919 -173.7686915 63.75727218 -172.0078125 61.94824219 C-168.34038808 58.25158362 -164.40979309 55.07637575 -160.25390625 51.94824219 C-159.14631958 51.10966675 -159.14631958 51.10966675 -158.01635742 50.25415039 C-122.03925968 23.26074219 -122.03925968 23.26074219 -109.25390625 23.26074219 C-109.25390625 22.60074219 -109.25390625 21.94074219 -109.25390625 21.26074219 C-107.60867818 20.65492924 -105.96268301 20.05119952 -104.31640625 19.44824219 C-103.39988281 19.11179687 -102.48335937 18.77535156 -101.5390625 18.42871094 C-98.25705126 17.26186033 -94.96015995 16.15492428 -91.65307617 15.06176758 C-89.26553781 14.26462569 -86.88895313 13.43960066 -84.51171875 12.61230469 C-70.00448083 7.67406244 -55.38993443 4.5841596 -40.25390625 2.26074219 C-39.13338867 2.07237793 -38.01287109 1.88401367 -36.85839844 1.68994141 C-24.61248481 -0.14385406 -12.36080753 -0.04215386 0 0 Z " fill="#000000" transform="translate(3336.25390625,869.7392578125)"/>
<path d="M0 0 C44.88 0 89.76 0 136 0 C136.33 1.65 136.66 3.3 137 5 C137.66 5 138.32 5 139 5 C140.40252962 7.5635981 141.80249665 10.12854397 143.19921875 12.6953125 C144.44676424 14.98473437 145.69927213 17.27091091 146.95703125 19.5546875 C147.90642578 21.29105469 147.90642578 21.29105469 148.875 23.0625 C149.76832031 24.68865234 149.76832031 24.68865234 150.6796875 26.34765625 C152 29 152 29 152 31 C152.66 31 153.32 31 154 31 C154.84114171 32.43294498 155.67265687 33.87154405 156.5 35.3125 C156.9640625 36.11300781 157.428125 36.91351562 157.90625 37.73828125 C159 40 159 40 159 43 C159.66 43 160.32 43 161 43 C162.0076952 44.7664657 163.00591714 46.53833823 164 48.3125 C164.556875 49.29863281 165.11375 50.28476562 165.6875 51.30078125 C167 54 167 54 167 57 C167.66 57 168.32 57 169 57 C169.556875 58.00417969 170.11375 59.00835938 170.6875 60.04296875 C175.06463664 67.89865014 179.54769472 75.63970543 184.37109375 83.23046875 C186 86 186 86 186.953125 88.4453125 C188.32908374 91.80306255 190.30310822 94.68659407 192.3125 97.6875 C195.48773121 102.51589346 198.27587787 107.32942942 200.74609375 112.5625 C202.21067867 115.40954359 203.92113584 118.01800509 205.6875 120.6875 C208.36550503 124.78601205 210.04200061 128.21000305 211 133 C211.66 133 212.32 133 213 133 C214.14160156 134.56958008 214.14160156 134.56958008 215.390625 136.76953125 C215.84969238 137.57028076 216.30875977 138.37103027 216.78173828 139.19604492 C217.26626465 140.0594751 217.75079102 140.92290527 218.25 141.8125 C218.74870605 142.68817627 219.24741211 143.56385254 219.76123047 144.46606445 C222.72437738 149.6842 225.6384123 154.92791479 228.484375 160.2109375 C231.91130181 166.51718941 235.46595585 172.75335475 239 179 C239.34321289 179.60779297 239.68642578 180.21558594 240.04003906 180.84179688 C244.13582639 188.08849782 248.33433756 195.25943974 252.63793945 202.38378906 C255.89767268 207.79346932 259.03131695 213.26836836 262.140625 218.765625 C264.2923763 222.50858734 266.55416567 226.17371551 268.87109375 229.81640625 C270.10765813 232.20823839 270.59466791 234.34903494 271 237 C271.66 237 272.32 237 273 237 C273.91432982 238.62547524 274.8286484 240.25095681 275.74291992 241.87646484 C276.54888737 243.30918606 277.35504407 244.74180082 278.16137695 246.17431641 C280.24215605 249.87159849 282.32019236 253.57035026 284.390625 257.2734375 C288.06214265 263.8335358 291.77211347 270.35307166 295.671875 276.78125 C297.87857542 280.46773776 299.93639698 284.23222031 302 288 C302.54269531 288.969375 303.08539062 289.93875 303.64453125 290.9375 C304.19496094 291.9275 304.74539063 292.9175 305.3125 293.9375 C305.82425781 294.85402344 306.33601563 295.77054688 306.86328125 296.71484375 C308 299 308 299 308 301 C308.66 301 309.32 301 310 301 C310.3403125 301.63164063 310.680625 302.26328125 311.03125 302.9140625 C313.95118972 308.3035257 316.9115022 313.66931783 319.9375 319 C320.27136719 319.58845703 320.60523438 320.17691406 320.94921875 320.78320312 C323.68496957 325.55498388 326.65394632 330.14798366 329.75 334.6953125 C331 337 331 337 331 341 C331.66 341 332.32 341 333 341 C349.25 369.4375 349.25 369.4375 351.11328125 372.703125 C352.48027543 375.09182705 353.85258794 377.47697463 355.23046875 379.859375 C355.59946289 380.4994751 355.96845703 381.1395752 356.34863281 381.79907227 C357.37513381 383.57933801 358.40427874 385.35807853 359.43359375 387.13671875 C361 390 361 390 362 393 C362.66 393 363.32 393 364 393 C364.25007813 392.319375 364.50015625 391.63875 364.7578125 390.9375 C366.22158732 387.47599478 368.01212408 384.2564433 369.875 381 C370.26212158 380.3179248 370.64924316 379.63584961 371.0480957 378.93310547 C371.89950177 377.43467086 372.7525244 375.93715394 373.60693359 374.44042969 C375.09148174 371.83973861 376.57122546 369.23634666 378.05078125 366.6328125 C379.09605494 364.79670462 380.14162452 362.96076516 381.1875 361.125 C381.67395996 360.27035156 382.16041992 359.41570312 382.66162109 358.53515625 C385.08261383 354.29739555 387.53796559 350.08560894 390.05859375 345.90625 C392.75000038 341.44200555 395.33553292 336.92703793 397.875 332.375 C398.2771875 331.65699219 398.679375 330.93898438 399.09375 330.19921875 C400.06384837 328.46690023 401.03212923 326.73356409 402 325 C402.66 325 403.32 325 404 325 C404.23589844 324.18273438 404.47179688 323.36546875 404.71484375 322.5234375 C406.26297738 318.27901036 408.33015572 314.54155697 410.5625 310.625 C410.99997559 309.84785645 411.43745117 309.07071289 411.88818359 308.27001953 C412.79809721 306.65468565 413.71023053 305.04060023 414.62451172 303.42773438 C415.97536063 301.04348845 417.31904874 298.65536178 418.66015625 296.265625 C420.76908766 292.50795223 422.88308379 288.75317994 425 285 C425.66 285 426.32 285 427 285 C427.22558594 284.19304687 427.45117188 283.38609375 427.68359375 282.5546875 C429.33901543 278.08455773 431.62832016 274.21032229 434.0625 270.125 C435.05689878 268.43412812 436.05037342 266.74271244 437.04296875 265.05078125 C437.53974121 264.20596191 438.03651367 263.36114258 438.54833984 262.49072266 C440.70466589 258.79095166 442.79142459 255.05356635 444.875 251.3125 C447.41208907 246.76876405 450.01572707 242.29569557 452.82421875 237.9140625 C454.85547396 234.60736797 456.66671646 231.18071507 458.5078125 227.765625 C460.63495974 223.82316363 462.81712224 219.91179422 465 216 C465.66 216 466.32 216 467 216 C467.07863281 215.32195312 467.15726563 214.64390625 467.23828125 213.9453125 C468.21915158 210.15261391 470.12129588 207.15371215 472.1875 203.875 C473.0147198 202.53099213 473.84023431 201.18593322 474.6640625 199.83984375 C475.06657227 199.1835498 475.46908203 198.52725586 475.88378906 197.85107422 C477.86753238 194.56132316 479.66569213 191.17551904 481.484375 187.79296875 C486.29670946 178.92487819 491.42861897 170.24529274 496.64160156 161.60864258 C500.53979544 155.13539501 504.27368803 148.57321432 508 142 C512.38722429 134.29516395 516.80174916 126.60725074 521.25 118.9375 C525.19249607 112.1395957 529.10642199 105.32603517 533 98.5 C540.23119229 85.82734135 547.51861834 73.18880499 554.9375 60.625 C561.12440221 50.14370352 567.13317263 39.56040172 573.1484375 28.97998047 C574.72720276 26.20304514 576.3134488 23.44099472 577.97683716 20.71348572 C579.50186503 18.09567719 580.53191991 15.55517379 581.47799683 12.68043518 C583.38948931 7.58433074 585.54671253 3.29632898 590 0 C599.05045538 -2.98088863 609.25486424 -2.03254894 618.67822504 -1.72369695 C622.490692 -1.61684319 626.30342378 -1.60739554 630.11715698 -1.58726501 C637.32609524 -1.53458654 644.53060953 -1.3953361 651.73760593 -1.22432369 C659.94745272 -1.03377802 668.15752002 -0.94071117 676.36903024 -0.85550129 C693.24857232 -0.67817661 710.12381741 -0.37950836 727 0 C725.80194313 3.03770025 724.5789707 5.93093088 722.9765625 8.77734375 C722.595 9.45603516 722.2134375 10.13472656 721.8203125 10.83398438 C721.42585938 11.52814453 721.03140625 12.22230469 720.625 12.9375 C720.23828125 13.62779297 719.8515625 14.31808594 719.453125 15.02929688 C717.12919164 19.14297086 714.62949874 23.07205043 712 27 C711.01840688 28.73706008 710.0592664 30.48703402 709.125 32.25 C707.16671996 35.89102318 705.1484901 39.46792727 703 43 C700.40327459 47.27854238 697.99699915 51.63702748 695.6171875 56.0390625 C690.92567616 64.62883447 685.97164921 73.07038951 681 81.5 C673.71635879 93.85642441 666.68340788 106.30863503 660 119 C659.34 119 658.68 119 658 119 C657.731875 119.86625 657.46375 120.7325 657.1875 121.625 C656.02888013 124.91791964 654.61790161 127.91127875 653 131 C652.34 131 651.68 131 651 131 C650.75765625 131.84175781 650.5153125 132.68351563 650.265625 133.55078125 C648.85142872 137.40490259 646.91702363 140.72678501 644.75 144.1875 C642.08988865 148.47426481 639.54467863 152.79157229 637.14453125 157.23046875 C633.87576232 163.27524567 630.41995536 169.20143021 626.9375 175.125 C623.29107654 181.33451766 619.66833857 187.54892667 616.19116211 193.85498047 C614.11284162 197.59757605 611.96149419 201.29767584 609.8125 205 C609.3383667 205.81815186 608.8642334 206.63630371 608.37573242 207.47924805 C605.20925038 212.93628712 602.01783273 218.37821094 598.8125 223.8125 C594.87000337 230.49843525 590.99303732 237.2189454 587.15722656 243.96679688 C584.25560767 249.06483108 581.34069223 254.15529909 578.42895508 259.24755859 C576.20437048 263.13890888 573.98051697 267.03059121 571.76953125 270.9296875 C568.01224291 277.54431487 564.15731509 284.08738217 560.22070312 290.59594727 C557.47536367 295.1550012 554.89951939 299.78696113 552.3828125 304.4765625 C551.04314734 306.9212622 549.63557812 309.30568844 548.1875 311.6875 C545.52387902 316.07093925 543.00195175 320.52326012 540.5 325 C537.62132108 330.14532721 534.69378056 335.24700438 531.63671875 340.2890625 C525.46940768 350.50413143 519.49430695 360.83440871 513.5625 371.1875 C513.05444824 372.07219971 512.54639648 372.95689941 512.02294922 373.8684082 C510.07405111 377.27979656 508.16211104 380.67176528 506.421875 384.1953125 C504.73730722 387.51816873 502.7415165 390.58713873 500.6875 393.6875 C497.38589806 398.74143433 494.36806648 403.85406795 491.546875 409.1953125 C489.09969966 413.63236273 486.3612029 417.8813905 483.63671875 422.15234375 C482.25963336 424.54827513 481.44776195 426.30693898 481 429 C480.34 429 479.68 429 479 429 C478.7525 429.84304688 478.505 430.68609375 478.25 431.5546875 C476.87745134 435.33777476 475.04495673 438.67969247 473 442.125 C469.84607185 447.47873498 469.84607185 447.47873498 467 453 C466.34 453 465.68 453 465 453 C464.61714844 454.28390625 464.61714844 454.28390625 464.2265625 455.59375 C462.93371754 459.18407105 461.30444916 462.20994326 459.375 465.5 C458.65222115 466.74211617 457.92956837 467.9843057 457.20703125 469.2265625 C456.83916504 469.8546582 456.47129883 470.48275391 456.09228516 471.12988281 C454.39618871 474.03379402 452.72990127 476.95454167 451.0625 479.875 C450.73701172 480.44307373 450.41152344 481.01114746 450.07617188 481.59643555 C448.26602515 484.76022269 446.47620767 487.93419846 444.70703125 491.12109375 C441.13310847 497.55041634 437.54046951 503.84252811 433.37109375 509.91015625 C431.34244317 513.00225899 429.64308774 516.24928587 427.8984375 519.5078125 C425.32251056 524.246246 422.66618719 528.93689286 420 533.625 C419.50161621 534.50768555 419.00323242 535.39037109 418.48974609 536.29980469 C415.61665525 541.34160356 412.56785308 546.18774084 409.3125 550.99023438 C407.64555559 553.542743 406.29878169 556.18145433 405 558.9375 C402.79201654 563.4672805 400.41665735 567.78351521 397.78515625 572.078125 C395.38294842 576.00996626 393.03273778 579.97148486 390.6875 583.9375 C390.24245117 584.68410889 389.79740234 585.43071777 389.33886719 586.19995117 C388.9215332 586.90611572 388.50419922 587.61228027 388.07421875 588.33984375 C387.69869873 588.97269287 387.32317871 589.60554199 386.9362793 590.25756836 C385.85478344 592.1515087 385.85478344 592.1515087 385 595 C384.34 595 383.68 595 383 595 C382.87778076 595.58322021 382.75556152 596.16644043 382.62963867 596.76733398 C381.98761891 599.04390269 381.14591959 600.70410084 379.92578125 602.72265625 C379.508125 603.42116699 379.09046875 604.11967773 378.66015625 604.83935547 C378.21542969 605.57299316 377.77070312 606.30663086 377.3125 607.0625 C376.40095419 608.58640926 375.49079745 610.11115027 374.58203125 611.63671875 C374.13939941 612.37970215 373.69676758 613.12268555 373.24072266 613.88818359 C371.11519374 617.50601616 369.12816807 621.1953588 367.15625 624.8984375 C366 627 366 627 364 630 C363.34 630 362.68 630 362 630 C360.71341646 627.74847881 359.42685283 625.49694627 358.14038086 623.24536133 C357.03737777 621.31531113 355.93401895 619.38546419 354.83032227 617.45581055 C350.06002723 609.11389569 350.06002723 609.11389569 347.80859375 605.12109375 C343.67280247 597.80790958 339.34690138 590.63715978 334.94091797 583.484375 C331.87750528 578.49166869 328.96179295 573.44884903 326.21484375 568.2734375 C325.06837666 566.1279589 323.86062912 564.03251131 322.625 561.9375 C321 559 321 559 321 557 C320.34 557 319.68 557 319 557 C317.99515796 555.04414675 316.99626195 553.08523763 316 551.125 C315.443125 550.03445313 314.88625 548.94390625 314.3125 547.8203125 C313 545 313 545 313 543 C312.34 543 311.68 543 311 543 C309.99515796 541.04414675 308.99626195 539.08523763 308 537.125 C307.443125 536.03445313 306.88625 534.94390625 306.3125 533.8203125 C305 531 305 531 305 529 C304.34 529 303.68 529 303 529 C302.16180842 527.37750059 301.3295884 525.75191503 300.5 524.125 C300.0359375 523.22007812 299.571875 522.31515625 299.09375 521.3828125 C298 519 298 519 298 517 C297.34 517 296.68 517 296 517 C295.46890625 515.99839844 294.9378125 514.99679687 294.390625 513.96484375 C293.67714013 512.62236564 292.96359525 511.27991943 292.25 509.9375 C291.90195313 509.28072266 291.55390625 508.62394531 291.1953125 507.94726562 C289.4335959 504.63589091 287.63574406 501.36240733 285.734375 498.12890625 C284 495 284 495 284 493 C283.34 493 282.68 493 282 493 C281.62875 492.05125 281.2575 491.1025 280.875 490.125 C279.5641005 487.06394271 278.0179822 484.26974855 276.28125 481.4296875 C272.98801929 475.99490792 269.79036152 470.51007376 266.625 465 C266.07972656 464.06027344 265.53445313 463.12054687 264.97265625 462.15234375 C264.45832031 461.25644531 263.94398438 460.36054687 263.4140625 459.4375 C262.9495166 458.63183594 262.4849707 457.82617188 262.00634766 456.99609375 C261 455 261 455 261 453 C260.34 453 259.68 453 259 453 C258.57589844 452.11699219 258.15179687 451.23398438 257.71484375 450.32421875 C254.39179851 443.49346149 250.87073459 437.01406493 246.69140625 430.65625 C244.39815534 427.0548398 242.4105575 423.31419087 240.3984375 419.55078125 C239.16931569 417.30883561 237.87686468 415.1529954 236.5 413 C233.97089469 409.04069776 231.76631149 404.93156286 229.5390625 400.796875 C228.06382948 398.11599469 226.52246033 395.49221654 224.9375 392.875 C222.95822902 389.60580836 221.01027374 386.32445454 219.125 383 C218.71507812 382.278125 218.30515625 381.55625 217.8828125 380.8125 C217 379 217 379 217 377 C216.34 377 215.68 377 215 377 C213.99515796 375.04414675 212.99626195 373.08523763 212 371.125 C211.443125 370.03445313 210.88625 368.94390625 210.3125 367.8203125 C209 365 209 365 209 363 C208.34 363 207.68 363 207 363 C205.99515796 361.04414675 204.99626195 359.08523763 204 357.125 C203.443125 356.03445313 202.88625 354.94390625 202.3125 353.8203125 C201 351 201 351 201 349 C200.34 349 199.68 349 199 349 C198.55269531 348.16597656 198.10539062 347.33195312 197.64453125 346.47265625 C197.03996094 345.34730469 196.43539063 344.22195313 195.8125 343.0625 C195.49659912 342.47364014 195.18069824 341.88478027 194.85522461 341.27807617 C192.58192385 337.05080695 190.24635263 332.86425745 187.84765625 328.70703125 C187 327 187 327 187 325 C186.34 325 185.68 325 185 325 C184.773125 324.35546875 184.54625 323.7109375 184.3125 323.046875 C182.53250772 318.91475006 180.27737563 315.12525913 178 311.25 C177.51668213 310.42250244 177.03336426 309.59500488 176.53540039 308.74243164 C175.52916176 307.02093665 174.52141198 305.30032411 173.51220703 303.58056641 C172.04203767 301.07173687 170.58048991 298.55807691 169.12109375 296.04296875 C168.22682544 294.50765932 167.33230526 292.97249655 166.4375 291.4375 C166.02048828 290.71788086 165.60347656 289.99826172 165.17382812 289.25683594 C163.60828527 286.58398955 162.20030911 284.20030911 160 282 C159.27330664 280.32237646 158.55000632 278.64310825 157.85253906 276.953125 C156.42177633 273.67531805 154.64753949 270.60262094 152.875 267.5 C152.48320557 266.8085791 152.09141113 266.1171582 151.68774414 265.40478516 C148.64196381 260.05749184 145.49572091 254.77406839 142.30834961 249.51025391 C139.78414118 245.33494595 137.33909042 241.12188024 134.9375 236.875 C131.71766429 231.19707897 128.32766906 225.64643601 124.87890625 220.10546875 C122.56768159 216.28546126 120.47546222 212.36805416 118.375 208.4296875 C117.13644678 206.24110767 115.81498538 204.26225721 114.3125 202.25 C111.94719945 198.92579382 110.54532207 195.76252331 109 192 C108.2882336 190.71934002 107.55901405 189.44822128 106.8125 188.1875 C105 185 105 185 105 183 C104.34 183 103.68 183 103 183 C102.56429688 182.10539063 102.12859375 181.21078125 101.6796875 180.2890625 C98.40923328 173.63184663 95.04433528 167.16391255 91.06640625 160.890625 C90 159 90 159 90 157 C89.34 157 88.68 157 88 157 C87.52691406 156.1028125 87.05382813 155.205625 86.56640625 154.28125 C82.18651246 146.00562673 77.68890392 137.80543569 73.078125 129.65625 C72.73716797 129.05296875 72.39621094 128.4496875 72.04492188 127.828125 C71.32135767 126.56222575 70.58756425 125.30213917 69.84570312 124.046875 C67 119.20567882 67 119.20567882 67 117 C66.34 117 65.68 117 65 117 C64.63648438 116.24976563 64.27296875 115.49953125 63.8984375 114.7265625 C60.89564625 108.61318748 57.73725226 102.72210743 54.1015625 96.9609375 C53 95 53 95 53 93 C52.34 93 51.68 93 51 93 C50.57589844 92.11699219 50.15179687 91.23398437 49.71484375 90.32421875 C46.39100156 83.4918233 42.87013234 77.01031836 38.6875 70.65234375 C36.96889766 67.9511146 35.44222402 65.20027608 33.9375 62.375 C31.65559581 58.09719029 29.11689528 54.12508346 26.37890625 50.12890625 C24.63937246 47.44322377 23.24541186 44.65893527 21.87109375 41.7734375 C20.9464801 39.81815638 20.9464801 39.81815638 19.375 37.375 C17.81080843 34.67321457 16.90135311 31.98139876 16 29 C15.34 29 14.68 29 14 29 C13.731875 28.278125 13.46375 27.55625 13.1875 26.8125 C12.05967316 23.95320276 12.05967316 23.95320276 10.375 21.3125 C9 19 9 19 9 17 C8.34 17 7.68 17 7 17 C5.82592979 14.73272667 4.66060261 12.46165376 3.5 10.1875 C3.16613281 9.54490234 2.83226562 8.90230469 2.48828125 8.24023438 C0.99760916 5.30452301 0 3.33873483 0 0 Z " fill="#010101" transform="translate(1042,725)"/>
<path d="M0 0 C1.17049393 -0.00570007 2.34098785 -0.01140015 3.54695129 -0.01727295 C6.01688754 -0.02667 8.48683602 -0.0332357 10.95678711 -0.03710938 C14.65176642 -0.04673109 18.34616835 -0.0777719 22.04101562 -0.109375 C43.00622593 -0.20491369 63.21170208 1.68450706 83.58203125 6.703125 C84.84595703 6.99832031 86.10988281 7.29351563 87.41210938 7.59765625 C93.41120356 9.03339097 98.92880555 10.61335658 104.51953125 13.203125 C107.6783993 14.21380906 110.85491936 15.12927221 114.04296875 16.04296875 C122.75201655 18.9492465 130.9510151 23.28652792 139.20703125 27.265625 C140.30853516 27.79478516 141.41003906 28.32394531 142.54492188 28.86914062 C147.55480381 31.27884244 152.55137601 33.70825603 157.51953125 36.203125 C157.51953125 36.863125 157.51953125 37.523125 157.51953125 38.203125 C158.75703125 38.5125 158.75703125 38.5125 160.01953125 38.828125 C164.51497084 40.59419055 167.76876681 43.20933302 171.51953125 46.203125 C173.08134008 47.41235157 174.64384457 48.62068014 176.20703125 49.828125 C177.64525602 50.95219829 179.082851 52.07707832 180.51953125 53.203125 C181.36515625 53.863125 182.21078125 54.523125 183.08203125 55.203125 C200.48175492 69.47982134 217.9410159 86.07386475 228.51953125 106.203125 C228.51953125 106.863125 228.51953125 107.523125 228.51953125 108.203125 C229.17953125 108.203125 229.83953125 108.203125 230.51953125 108.203125 C230.51953125 109.523125 230.51953125 110.843125 230.51953125 112.203125 C229.53855469 112.74839844 228.55757812 113.29367187 227.546875 113.85546875 C220.09519026 118.01320506 212.70305227 122.2441307 205.40722656 126.66992188 C199.22747568 130.40832982 192.96563472 134.00211551 186.68823242 137.57373047 C185.52771362 138.23912842 185.52771362 138.23912842 184.34375 138.91796875 C183.65369873 139.31105225 182.96364746 139.70413574 182.25268555 140.10913086 C180.36244014 141.21320663 180.36244014 141.21320663 178.51953125 143.203125 C177.06546875 143.7909375 177.06546875 143.7909375 175.58203125 144.390625 C172.19505836 145.7749272 169.26901764 147.57872596 166.20703125 149.578125 C162.79811465 151.79831492 159.43766665 153.82034963 155.76953125 155.578125 C147.70204752 159.46246902 139.96448671 164.23982136 132.51953125 169.203125 C130.44140625 169.0390625 130.44140625 169.0390625 128.51953125 168.203125 C127.56715287 166.36639527 126.62859232 164.52102072 125.765625 162.640625 C112.85546462 137.38689436 85.14250064 119.84022803 58.86474609 111.20385742 C34.8114542 103.95304606 3.91918104 102.85453507 -20.48046875 109.203125 C-21.61742188 109.43128906 -22.754375 109.65945313 -23.92578125 109.89453125 C-30.34963387 111.19867766 -35.97809519 113.08492689 -41.8671875 115.95703125 C-44.37053952 117.15070733 -46.87843091 118.12336151 -49.48046875 119.078125 C-59.76121106 123.15469107 -68.12709206 130.11778828 -76.48046875 137.203125 C-77.12886719 137.71617187 -77.77726562 138.22921875 -78.4453125 138.7578125 C-84.57875871 143.68125912 -90.21200183 150.00254305 -93.48046875 157.203125 C-94.14046875 157.203125 -94.80046875 157.203125 -95.48046875 157.203125 C-95.72925781 157.86699219 -95.97804688 158.53085938 -96.234375 159.21484375 C-98.0705766 163.61827392 -100.28464227 167.81835937 -102.47070312 172.05664062 C-105.44389392 177.90783532 -107.96252361 183.79195564 -109.48046875 190.203125 C-110.14046875 190.203125 -110.80046875 190.203125 -111.48046875 190.203125 C-111.55394531 191.11191406 -111.55394531 191.11191406 -111.62890625 192.0390625 C-112.01476973 196.36339465 -112.50091733 200.58224912 -113.41796875 204.828125 C-117.13335677 222.79048963 -117.25520171 240.15731314 -115.16796875 258.328125 C-115.05042236 259.370896 -114.93287598 260.41366699 -114.81176758 261.48803711 C-114.11662864 267.01050509 -113.08678755 272.0849596 -111.16894531 277.31616211 C-110.53287833 279.05948187 -110.0312444 280.85028094 -109.54296875 282.640625 C-107.47967957 289.55871224 -104.70825886 296.09904288 -101.21484375 302.4140625 C-100.48046875 304.203125 -100.48046875 304.203125 -100.48046875 308.203125 C-99.82046875 308.203125 -99.16046875 308.203125 -98.48046875 308.203125 C-97.4296875 309.86328125 -97.4296875 309.86328125 -96.16796875 312.265625 C-86.66765677 328.61824025 -70.28448982 345.42611053 -52.48046875 352.203125 C-50.99448668 352.96073661 -49.5154818 353.73215619 -48.04296875 354.515625 C-32.08290581 362.50740909 -14.30312542 366.81141826 3.51953125 367.203125 C4.38320312 367.22890625 5.246875 367.2546875 6.13671875 367.28125 C25.22664765 367.79859225 43.32347943 366.33079085 61.51953125 360.203125 C62.15310547 359.99316895 62.78667969 359.78321289 63.43945312 359.56689453 C76.90340594 355.04497672 88.77976184 349.012198 99.62890625 339.671875 C101.51953125 338.203125 101.51953125 338.203125 103.51953125 338.203125 C103.51953125 337.543125 103.51953125 336.883125 103.51953125 336.203125 C105.19921875 334.58203125 105.19921875 334.58203125 107.39453125 332.765625 C109.98146847 330.61911616 111.63137499 329.03535938 113.51953125 326.203125 C114.17953125 326.203125 114.83953125 326.203125 115.51953125 326.203125 C115.92558594 325.33107422 115.92558594 325.33107422 116.33984375 324.44140625 C117.51698479 322.20795653 118.83636797 320.37264099 120.39453125 318.390625 C123.1380108 314.80402734 125.34798373 311.15844369 127.51953125 307.203125 C128.17953125 306.213125 128.83953125 305.223125 129.51953125 304.203125 C133.97374991 304.77017498 136.89492839 306.47226935 140.64453125 308.890625 C145.67032457 312.08482132 150.76822442 315.0212768 156.0234375 317.828125 C158.33630322 319.10219187 160.55119062 320.45998689 162.76953125 321.890625 C166.22417456 324.10330977 169.70733957 325.69413246 173.51953125 327.203125 C173.51953125 327.863125 173.51953125 328.523125 173.51953125 329.203125 C174.76669922 329.56083984 174.76669922 329.56083984 176.0390625 329.92578125 C180.09397646 331.41394833 183.52819778 333.40441209 187.20703125 335.640625 C188.71702981 336.54366824 190.22746308 337.4459849 191.73828125 338.34765625 C192.52074219 338.8163916 193.30320312 339.28512695 194.109375 339.76806641 C198.12138689 342.15690412 202.1641962 344.49196519 206.20703125 346.828125 C206.99730713 347.28695068 207.78758301 347.74577637 208.60180664 348.21850586 C212.31500108 350.37079832 216.0373366 352.49989289 219.796875 354.5703125 C220.45018799 354.93302246 221.10350098 355.29573242 221.77661133 355.66943359 C223.5228781 356.63580316 225.27490849 357.59173708 227.02734375 358.546875 C229.51953125 360.203125 229.51953125 360.203125 230.51953125 363.203125 C229.83862305 364.9206543 229.83862305 364.9206543 228.71875 366.77734375 C228.31849609 367.44443359 227.91824219 368.11152344 227.50585938 368.79882812 C227.07724609 369.48912109 226.64863281 370.17941406 226.20703125 370.890625 C225.79001953 371.59251953 225.37300781 372.29441406 224.94335938 373.01757812 C223.8655762 374.78638018 222.69875282 376.50027041 221.51953125 378.203125 C220.85953125 378.203125 220.19953125 378.203125 219.51953125 378.203125 C219.16181641 379.02490234 219.16181641 379.02490234 218.796875 379.86328125 C217.20709825 382.77544111 215.22229806 385.1067459 213.08203125 387.640625 C210.82557561 390.3134283 208.73723627 392.83465926 206.95703125 395.84765625 C205.49360561 398.24560642 204.11024162 399.67301789 201.95703125 401.453125 C197.72780602 405.00755734 193.67185672 408.72442073 189.62109375 412.48046875 C187.51953125 414.203125 187.51953125 414.203125 185.51953125 414.203125 C185.51953125 414.863125 185.51953125 415.523125 185.51953125 416.203125 C184.85953125 416.203125 184.19953125 416.203125 183.51953125 416.203125 C183.51953125 416.863125 183.51953125 417.523125 183.51953125 418.203125 C182.18457031 419.43310547 182.18457031 419.43310547 180.28515625 420.8203125 C179.57609131 421.33891846 178.86702637 421.85752441 178.13647461 422.3918457 C177.3553833 422.94831787 176.57429199 423.50479004 175.76953125 424.078125 C174.96330322 424.65457764 174.1570752 425.23103027 173.32641602 425.82495117 C144.59607645 446.07413209 112.11723471 460.66623172 77.51953125 467.203125 C75.84217282 467.54291564 74.16509121 467.88407548 72.48828125 468.2265625 C67.74275711 469.17548244 62.98581971 470.00343849 58.20703125 470.765625 C57.45486328 470.89130859 56.70269531 471.01699219 55.92773438 471.14648438 C8.30453412 478.75822601 -42.6284272 472.6406923 -87.66796875 456.265625 C-88.57482422 455.94400391 -89.48167969 455.62238281 -90.41601562 455.29101562 C-96.68907291 453.0176489 -102.55748279 450.26278385 -108.48046875 447.203125 C-109.78278199 446.56931686 -111.08730928 445.94002733 -112.39453125 445.31640625 C-119.63785772 441.81942951 -126.63675652 438.05991517 -133.48046875 433.828125 C-134.18123535 433.39927002 -134.88200195 432.97041504 -135.60400391 432.52856445 C-137.26776195 431.47839836 -138.88033535 430.34790129 -140.48046875 429.203125 C-140.48046875 428.543125 -140.48046875 427.883125 -140.48046875 427.203125 C-141.18558594 426.955625 -141.89070313 426.708125 -142.6171875 426.453125 C-145.84934318 425.04208841 -148.44375777 423.2780524 -151.29296875 421.203125 C-152.26878906 420.501875 -153.24460937 419.800625 -154.25 419.078125 C-154.98605469 418.459375 -155.72210937 417.840625 -156.48046875 417.203125 C-156.48046875 416.543125 -156.48046875 415.883125 -156.48046875 415.203125 C-157.04894531 414.95175781 -157.61742188 414.70039062 -158.203125 414.44140625 C-160.79412007 413.03258046 -162.73380572 411.37037762 -164.91796875 409.390625 C-166.02978516 408.39095703 -166.02978516 408.39095703 -167.1640625 407.37109375 C-172.67414858 402.21409919 -177.45406838 396.7274663 -182.16552734 390.84326172 C-183.08477236 389.69668021 -184.00724014 388.55267839 -184.93212891 387.41064453 C-186.4340518 385.55504144 -187.9269584 383.69250325 -189.41796875 381.828125 C-189.89057129 381.24554932 -190.36317383 380.66297363 -190.85009766 380.06274414 C-193.34948826 376.91242331 -195.22474718 374.03486969 -196.48046875 370.203125 C-197.14046875 370.203125 -197.80046875 370.203125 -198.48046875 370.203125 C-201.48046875 364.453125 -201.48046875 364.453125 -201.48046875 362.203125 C-202.14046875 362.203125 -202.80046875 362.203125 -203.48046875 362.203125 C-203.97675781 361.21054688 -204.47304687 360.21796875 -204.984375 359.1953125 C-205.30937988 358.54578613 -205.63438477 357.89625977 -205.96923828 357.22705078 C-206.69442911 355.77567978 -207.41802297 354.32350989 -208.14013672 352.87060547 C-209.84461996 349.44600152 -211.55870265 346.0314233 -213.359375 342.65625 C-217.81584812 334.16203277 -220.96802522 325.60004834 -223.78515625 316.44824219 C-224.44421832 314.32017518 -225.13107008 312.20309895 -225.82421875 310.0859375 C-229.57249913 298.35439831 -231.69494827 286.3734077 -233.48046875 274.203125 C-233.6599707 273.03177002 -233.83947266 271.86041504 -234.02441406 270.65356445 C-235.58290114 259.59848236 -235.87767791 248.67054389 -235.85546875 237.515625 C-235.8555896 236.5779126 -235.85571045 235.6402002 -235.85583496 234.67407227 C-235.8257591 218.19949479 -234.53239472 202.41893768 -231.48046875 186.203125 C-231.30435059 185.23407227 -231.12823242 184.26501953 -230.94677734 183.26660156 C-229.46169359 175.20872505 -227.82196693 167.71241574 -224.48046875 160.203125 C-224.00160309 158.25573799 -223.52363252 156.30804977 -223.06640625 154.35546875 C-221.92463108 150.16134796 -220.15540679 146.20663544 -218.48046875 142.203125 C-218.12082031 141.29820312 -217.76117187 140.39328125 -217.390625 139.4609375 C-206.9714342 113.57082704 -191.70622658 91.32440575 -172.48046875 71.203125 C-171.22943359 69.89021484 -171.22943359 69.89021484 -169.953125 68.55078125 C-156.58169905 54.84137297 -140.91027795 43.92134744 -124.48046875 34.203125 C-123.87605957 33.83880371 -123.27165039 33.47448242 -122.64892578 33.09912109 C-120.78636807 31.97733692 -118.91606821 30.86969982 -117.04296875 29.765625 C-115.37427734 28.77755859 -115.37427734 28.77755859 -113.671875 27.76953125 C-110.51618936 26.22065739 -107.95652545 25.5753724 -104.48046875 25.203125 C-104.48046875 24.543125 -104.48046875 23.883125 -104.48046875 23.203125 C-103.59746094 22.90019531 -102.71445313 22.59726562 -101.8046875 22.28515625 C-100.60457031 21.86621094 -99.40445313 21.44726562 -98.16796875 21.015625 C-96.41033203 20.40654297 -96.41033203 20.40654297 -94.6171875 19.78515625 C-91.48692036 18.65024166 -88.54744298 17.27319728 -85.5546875 15.81640625 C-78.17833312 12.4234731 -70.45452435 10.54248578 -62.60546875 8.578125 C-61.83444824 8.38202637 -61.06342773 8.18592773 -60.26904297 7.98388672 C-48.09305251 4.89634031 -35.99642534 2.43103576 -23.48046875 1.203125 C-22.68819382 1.11919495 -21.89591888 1.03526489 -21.07963562 0.9487915 C-14.04221765 0.24324241 -7.0699807 0.0274933 0 0 Z " fill="#010101" transform="translate(2820.48046875,869.796875)"/>
<path d="M0 0 C39.27 0 78.54 0 119 0 C119.33 33.66 119.66 67.32 120 102 C121.32 97.71 122.64 93.42 124 89 C125.29168424 85.95018999 126.55793876 82.9684984 128 80 C128.66 80 129.32 80 130 80 C130.1546875 78.9171875 130.1546875 78.9171875 130.3125 77.8125 C131.06793947 74.72206579 132.15531315 72.58256159 134 70 C134.66 70 135.32 70 136 70 C136.28875 69.236875 136.5775 68.47375 136.875 67.6875 C138 65 138 65 140 62 C140.66 62 141.32 62 142 62 C142.66 60.68 143.32 59.36 144 58 C144.66 58 145.32 58 146 58 C146.28875 57.401875 146.5775 56.80375 146.875 56.1875 C148 54 148 54 150 51 C150.66 51 151.32 51 152 51 C152 50.34 152 49.68 152 49 C171.64389752 30.39843173 196.53283475 18.35551939 222 10 C222.71236816 9.7642627 223.42473633 9.52852539 224.15869141 9.28564453 C231.21153255 7.04930794 238.34893328 5.67601855 245.625 4.375 C246.800625 4.1584375 247.97625 3.941875 249.1875 3.71875 C263.80413278 1.05819437 276.61180195 1 292 1 C292 42.91 292 84.82 292 128 C283.75 126.35 275.5 124.7 267 123 C261.4090327 122.62010414 256.23437442 122.36249208 250.6875 122.5 C249.32284048 122.5190127 247.95817556 122.53764118 246.59350586 122.5559082 C225.10612432 122.95459378 204.79607211 126.95836329 185.5625 136.75 C183 138 183 138 181 138 C181 138.66 181 139.32 181 140 C180.443125 140.29132813 179.88625 140.58265625 179.3125 140.8828125 C155.26067239 153.80254422 137.75884595 175.7226483 128 201 C127.27394848 203.8155142 127.27394848 203.8155142 127 206 C126.34 206 125.68 206 125 206 C124.81824219 207.21623047 124.81824219 207.21623047 124.6328125 208.45703125 C123.68037339 214.75045582 122.66729005 221.01879799 121.46484375 227.26953125 C120.34059389 233.87331827 119.85001979 240.24864129 119.84178162 246.93444824 C119.83684364 247.79882964 119.83190566 248.66321103 119.82681805 249.5537858 C119.81154083 252.43103768 119.80310912 255.30826742 119.79467773 258.18554688 C119.78509151 260.25566805 119.775081 262.3257873 119.76467896 264.39590454 C119.73770446 270.00267764 119.71665463 275.6094591 119.69667697 281.21626091 C119.67477132 287.08059069 119.64740507 292.94489494 119.62062073 298.8092041 C119.57075568 309.90828784 119.52579394 321.0073858 119.48259836 332.10649729 C119.42392835 347.10884721 119.35767478 362.11116352 119.29184818 377.11348343 C119.18837032 400.74229962 119.09501679 424.37114476 119 448 C79.73 448 40.46 448 0 448 C0 300.16 0 152.32 0 0 Z " fill="#010101" transform="translate(2253,882)"/>
<path d="M0 0 C38.94 0 77.88 0 118 0 C118 199.65 118 399.3 118 605 C79.06 605 40.12 605 0 605 C0 405.35 0 205.7 0 0 Z " fill="#000000" transform="translate(3671,725)"/>
<path d="M0 0 C2.11921338 0.0053614 4.23821489 0.00002369 6.35742188 -0.00634766 C22.09930716 -0.01544408 35.51204141 2.72821493 50.56054688 7.13037109 C51.85774658 7.50391724 51.85774658 7.50391724 53.18115234 7.88500977 C57.5825887 9.19701769 61.24408351 10.61280757 65.12304688 13.13037109 C65.88230469 13.41783203 66.6415625 13.70529297 67.42382812 14.00146484 C80.96603343 19.66528153 93.22434946 30.1302972 102.55273438 41.25927734 C103.52633702 42.41936607 104.52739509 43.5576688 105.56835938 44.65771484 C113.65308683 53.33885661 119.25190095 64.31474024 123.15039062 75.42333984 C124.04039723 78.08930005 124.04039723 78.08930005 125.25195312 80.30615234 C126.12304688 82.13037109 126.12304688 82.13037109 126.12304688 85.13037109 C44.28304688 85.13037109 -37.55695313 85.13037109 -121.87695312 85.13037109 C-118.7175155 69.33318296 -110.39369076 55.15488473 -99.87695312 43.13037109 C-99.05453125 42.16357422 -98.23210937 41.19677734 -97.38476562 40.20068359 C-88.38959791 29.84200996 -77.94186713 21.70763128 -65.87695312 15.13037109 C-65.10222656 14.70240234 -64.3275 14.27443359 -63.52929688 13.83349609 C-53.7220816 8.66676805 -43.40187104 5.31192891 -32.62695312 2.88037109 C-31.54704102 2.63565063 -31.54704102 2.63565063 -30.4453125 2.38598633 C-20.33452138 0.22513823 -10.31147355 -0.03100119 0 0 Z " fill="#FDFDFD" transform="translate(1921.876953125,974.86962890625)"/>
<path d="M0 0 C0.95390625 0.37640625 1.9078125 0.7528125 2.890625 1.140625 C29.47985844 12.18059912 50.37825412 34.58961944 61.6640625 60.7578125 C65 69.08833799 65 69.08833799 65 74 C-16.51 74 -98.02 74 -182 74 C-180.07857834 62.47147005 -175.1146597 52.85300616 -169 43 C-168.47664063 42.0615625 -167.95328125 41.123125 -167.4140625 40.15625 C-166.94742188 39.4446875 -166.48078125 38.733125 -166 38 C-165.34 38 -164.68 38 -164 38 C-163.74476563 37.43925781 -163.48953125 36.87851562 -163.2265625 36.30078125 C-159.25049569 28.84249031 -152.89088421 21.88508693 -146 17 C-145.34 17 -144.68 17 -144 17 C-144 16.34 -144 15.68 -144 15 C-142.03003156 13.51636752 -140.08251545 12.18525969 -138 10.875 C-137.37279053 10.47829102 -136.74558105 10.08158203 -136.09936523 9.67285156 C-95.67467695 -15.41110903 -43.68991869 -18.72425087 0 0 Z " fill="#FDFDFD" transform="translate(3400,986)"/>
<path d="M0 0 C5.28 0 10.56 0 16 0 C16 0.33 16 0.66 16 1 C17.98 1.33 19.96 1.66 22 2 C22 2.33 22 2.66 22 3 C24.475 3.495 24.475 3.495 27 4 C27 4.33 27 4.66 27 5 C12.81 5 -1.38 5 -16 5 C-16 4.67 -16 4.34 -16 4 C-14.02 3.67 -12.04 3.34 -10 3 C-10 2.67 -10 2.34 -10 2 C-6.7 1.67 -3.4 1.34 0 1 C0 0.67 0 0.34 0 0 Z " fill="#101010" transform="translate(2829,1338)"/>
<path d="M0 0 C0.66 0 1.32 0 2 0 C4 3 4 3 4 7 C4.66 7 5.32 7 6 7 C5.67 7.66 5.34 8.32 5 9 C4.34 9 3.68 9 3 9 C2.34 9.66 1.68 10.32 1 11 C0.34 11 -0.32 11 -1 11 C-2.78546868 12.10170737 -2.78546868 12.10170737 -4.625 13.5 C-5.25664063 13.9640625 -5.88828125 14.428125 -6.5390625 14.90625 C-7.02117188 15.2671875 -7.50328125 15.628125 -8 16 C-6.57250019 12.20950293 -4.83763458 8.72877544 -2.875 5.1875 C-2.33617187 4.21167969 -1.79734375 3.23585938 -1.2421875 2.23046875 C-0.83226562 1.49441406 -0.42234375 0.75835938 0 0 Z " fill="#252525" transform="translate(536,659)"/>
<path d="M0 0 C0.66 0.33 1.32 0.66 2 1 C1.57847656 1.48210938 1.15695313 1.96421875 0.72265625 2.4609375 C0.17480469 3.09257813 -0.37304688 3.72421875 -0.9375 4.375 C-1.75541016 5.31472656 -1.75541016 5.31472656 -2.58984375 6.2734375 C-4.06958624 7.95632334 -4.06958624 7.95632334 -5 10 C-5.58265625 10.11214844 -6.1653125 10.22429688 -6.765625 10.33984375 C-9.94931454 11.2804793 -11.4729368 13.18497812 -13.75 15.5625 C-14.54921875 16.38878906 -15.3484375 17.21507812 -16.171875 18.06640625 C-16.77515625 18.70449219 -17.3784375 19.34257813 -18 20 C-17.67 20.66 -17.34 21.32 -17 22 C-17.721875 22.391875 -18.44375 22.78375 -19.1875 23.1875 C-22.227326 25.14649898 -24.52127727 27.37963597 -27 30 C-26.67 28.68 -26.34 27.36 -26 26 C-25.34 26 -24.68 26 -24 26 C-23.74476563 25.43925781 -23.48953125 24.87851562 -23.2265625 24.30078125 C-19.25049569 16.84249031 -12.89088421 9.88508693 -6 5 C-5.34 5 -4.68 5 -4 5 C-4 4.34 -4 3.68 -4 3 C-2 1.375 -2 1.375 0 0 Z " fill="#D3D3D3" transform="translate(3260,998)"/>
<path d="M0 0 C10.23 0 20.46 0 31 0 C31 0.33 31 0.66 31 1 C33.475 1.495 33.475 1.495 36 2 C36 2.33 36 2.66 36 3 C30.72 3 25.44 3 20 3 C20 2.34 20 1.68 20 1 C13.4 1 6.8 1 0 1 C0 0.67 0 0.34 0 0 Z " fill="#111111" transform="translate(3340,1340)"/>
<path d="M0 0 C0.66 0.33 1.32 0.66 2 1 C-0.50459888 4.75689831 -0.50459888 4.75689831 -2.89355469 5.92919922 C-5.20656425 7.10500589 -6.63978403 8.41089114 -8.453125 10.2578125 C-9.071875 10.88300781 -9.690625 11.50820313 -10.328125 12.15234375 C-11.27945313 13.12880859 -11.27945313 13.12880859 -12.25 14.125 C-13.22453125 15.11306641 -13.22453125 15.11306641 -14.21875 16.12109375 C-15.81711727 17.74296643 -17.41061897 19.3693281 -19 21 C-19.66 20.67 -20.32 20.34 -21 20 C-14.87566475 12.75665041 -8.44782331 6.83856149 -1 1 C-0.67 0.67 -0.34 0.34 0 0 Z " fill="#D5D5D5" transform="translate(2752,999)"/>
<path d="M0 0 C0.33 1.65 0.66 3.3 1 5 C-0.258125 5.04125 -1.51625 5.0825 -2.8125 5.125 C-3.52019531 5.14820313 -4.22789063 5.17140625 -4.95703125 5.1953125 C-7 5 -7 5 -10 3 C-10.33 2.34 -10.66 1.68 -11 1 C-7.32589215 -0.17571451 -3.83070817 -0.07366746 0 0 Z " fill="#F3F3F3" transform="translate(1999,1338)"/>
<path d="M0 0 C2 2 2 2 2.125 4.625 C2.08375 5.40875 2.0425 6.1925 2 7 C1.38125 7.061875 0.7625 7.12375 0.125 7.1875 C-2.23446438 7.81210579 -2.23446438 7.81210579 -3.125 10.3125 C-3.41375 11.199375 -3.7025 12.08625 -4 13 C-4.9375 15.25 -4.9375 15.25 -6 17 C-6.99 17.33 -7.98 17.66 -9 18 C-7.45614871 13.85967154 -5.48971062 10.06446947 -3.375 6.1875 C-3.05015625 5.59001953 -2.7253125 4.99253906 -2.390625 4.37695312 C-1.59620849 2.91662865 -0.79844624 1.45812509 0 0 Z " fill="#222222" transform="translate(306,1057)"/>
<path d="M0 0 C0.66 0.33 1.32 0.66 2 1 C1 4 1 4 -0.6875 4.9375 C-1.8321875 5.4634375 -1.8321875 5.4634375 -3 6 C-7.71891616 8.8112692 -10.68703647 11.71263544 -14 16 C-14.99 15.34 -15.98 14.68 -17 14 C-14.91784697 12.22776281 -12.83433081 10.45717274 -10.75 8.6875 C-10.16347656 8.18798828 -9.57695312 7.68847656 -8.97265625 7.17382812 C-6.04373434 4.68918088 -3.11144626 2.2565687 0 0 Z " fill="#343434" transform="translate(3182,917)"/>
<path d="M0 0 C2.66196472 0.38393722 5.32819426 0.68828933 8 1 C5.30442091 3.75942175 4.05259984 3.99899659 0.109375 4.07421875 C-1.34512042 3.96182592 -2.79838312 3.83240522 -4.25 3.6875 C-4.99507812 3.62626953 -5.74015625 3.56503906 -6.5078125 3.50195312 C-8.33982155 3.3492857 -10.17014316 3.17660246 -12 3 C-7.67862227 -0.34906774 -5.31615499 -1.47670972 0 0 Z " fill="#161616" transform="translate(1908,1338)"/>
<path d="M0 0 C1.98 0.495 1.98 0.495 4 1 C4 1.66 4 2.32 4 3 C4.66 3 5.32 3 6 3 C8 5 10 7 12 9 C11.34 9.66 10.68 10.32 10 11 C6.37 8.03 2.74 5.06 -1 2 C-0.67 1.34 -0.34 0.68 0 0 Z " fill="#1F1F1F" transform="translate(1756,1280)"/>
<path d="M0 0 C0.66 0.33 1.32 0.66 2 1 C-2.66666667 5.66666667 -7.33333333 10.33333333 -12 15 C-12 11.47967572 -11.29648649 10.5614657 -9 8 C-8.34 8 -7.68 8 -7 8 C-7 7.34 -7 6.68 -7 6 C-5.46875 4.4921875 -5.46875 4.4921875 -3.5 2.875 C-2.8503125 2.33617187 -2.200625 1.79734375 -1.53125 1.2421875 C-0.77328125 0.62730469 -0.77328125 0.62730469 0 0 Z M-15 15 C-14.34 15.33 -13.68 15.66 -13 16 C-14.98 16.99 -14.98 16.99 -17 18 C-16.34 17.01 -15.68 16.02 -15 15 Z " fill="#2B2B2B" transform="translate(2412,925)"/>
<path d="M0 0 C0.66 0.33 1.32 0.66 2 1 C2 1.99 2 2.98 2 4 C-0.99833285 6.46921528 -2.40259059 7.05635938 -6.3125 6.6875 C-7.199375 6.460625 -8.08625 6.23375 -9 6 C-3.30379747 1.25316456 -3.30379747 1.25316456 0 0 Z " fill="#252525" transform="translate(1785,904)"/>
<path d="M0 0 C-0.66 0 -1.32 0 -2 0 C-2.08121094 0.61359375 -2.16242187 1.2271875 -2.24609375 1.859375 C-3 4 -3 4 -4.84765625 5.265625 C-5.57855469 5.59046875 -6.30945312 5.9153125 -7.0625 6.25 C-8.16271484 6.75273438 -8.16271484 6.75273438 -9.28515625 7.265625 C-10.13400391 7.62914062 -10.13400391 7.62914062 -11 8 C-10.67 6.68 -10.34 5.36 -10 4 C-9.34 4 -8.68 4 -8 4 C-8 3.34 -8 2.68 -8 2 C-7.34 2 -6.68 2 -6 2 C-6 1.34 -6 0.68 -6 0 C-3 -1 -3 -1 0 0 Z " fill="#141414" transform="translate(2976,1305)"/>
<path d="M0 0 C-1.44950455 3.7910119 -3.15172566 7.3874638 -5 11 C-5.99 10.34 -6.98 9.68 -8 9 C-6.68994234 5.06982701 -4.75047804 0 0 0 Z " fill="#DEDEDE" transform="translate(184,1269)"/>
<path d="M0 0 C6.435 2.97 6.435 2.97 13 6 C13 6.33 13 6.66 13 7 C10.69 7.33 8.38 7.66 6 8 C6 7.34 6 6.68 6 6 C4.35 5.67 2.7 5.34 1 5 C0.67 3.35 0.34 1.7 0 0 Z " fill="#2D2D2D" transform="translate(1855,1216)"/>
<path d="M0 0 C2 2 2 2 2 6 C1.01 6.495 1.01 6.495 0 7 C-0.65213292 9.02463255 -0.65213292 9.02463255 -1 11 C-1.99 11 -2.98 11 -4 11 C-4 7.80389448 -3.45328458 6.58282374 -2 3.8125 C-1.62875 3.09707031 -1.2575 2.38164063 -0.875 1.64453125 C-0.441875 0.83048828 -0.441875 0.83048828 0 0 Z " fill="#1C1C1C" transform="translate(1413,1104)"/>
<path d="M0 0 C0.66 0.33 1.32 0.66 2 1 C0.75 3.9375 0.75 3.9375 -1 7 C-3 7.6875 -3 7.6875 -5 8 C-5.495 8.53625 -5.99 9.0725 -6.5 9.625 C-6.995 10.07875 -7.49 10.5325 -8 11 C-10.09375 10.5859375 -10.09375 10.5859375 -12 10 C-10.5665848 8.84906075 -9.12811091 7.70441965 -7.6875 6.5625 C-6.88699219 5.92441406 -6.08648438 5.28632812 -5.26171875 4.62890625 C-3 3 -3 3 0 2 C0 1.34 0 0.68 0 0 Z " fill="#313131" transform="translate(3456,1201)"/>
<path d="M0 0 C-3.2870757 3.81300782 -6.39727838 5.22972246 -11 7 C-11.33 6.01 -11.66 5.02 -12 4 C-10.56988027 3.13353333 -9.13059381 2.28218171 -7.6875 1.4375 C-6.48673828 0.72400391 -6.48673828 0.72400391 -5.26171875 -0.00390625 C-3 -1 -3 -1 0 0 Z " fill="#1C1C1C" transform="translate(2448,905)"/>
<path d="M0 0 C-0.33 0.99 -0.66 1.98 -1 3 C-2.98 3 -4.96 3 -7 3 C-7.33 3.99 -7.66 4.98 -8 6 C-8.66 6 -9.32 6 -10 6 C-10.639375 6.20625 -11.27875 6.4125 -11.9375 6.625 C-14 7 -14 7 -17 5 C-14.54285453 4.16301614 -12.08441143 3.33027576 -9.625 2.5 C-8.92632813 2.26152344 -8.22765625 2.02304687 -7.5078125 1.77734375 C-2.2265625 0 -2.2265625 0 0 0 Z " fill="#2F2F2F" transform="translate(1843,880)"/>
<path d="M0 0 C2 2 2 2 2 4 C0.68477753 7.39765806 -0.9897262 8.9931508 -4 11 C-4.66 10.67 -5.32 10.34 -6 10 C-4.68 7.36 -3.36 4.72 -2 2 C-1.34 2 -0.68 2 0 2 C0 1.34 0 0.68 0 0 Z " fill="#222222" transform="translate(1469,1008)"/>
<path d="M0 0 C2.48092261 2.91238742 3.70390197 5.15072555 4 9 C3.01 10.485 3.01 10.485 2 12 C-0.05257931 8.55166676 -1.0632763 6.68338409 -0.6875 2.625 C-0.460625 1.75875 -0.23375 0.8925 0 0 Z " fill="#232323" transform="translate(2603,1196)"/>
<path d="M0 0 C0.99 0.33 1.98 0.66 3 1 C2.67 1.66 2.34 2.32 2 3 C2 3.33 2 3.66 2 4 C0.47486914 8.27036641 -2.53046075 10.28470841 -6 13 C-4.31326082 8.50202887 -2.18326108 4.27113698 0 0 Z " fill="#D4D4D4" transform="translate(3229,1032)"/>
<path d="M0 0 C-0.33 0.99 -0.66 1.98 -1 3 C-5.95 2.67 -10.9 2.34 -16 2 C-16 1.67 -16 1.34 -16 1 C-10.59255982 0.22750855 -5.46137814 -0.09752461 0 0 Z " fill="#242424" transform="translate(3320,1338)"/>
<path d="M0 0 C0.66 0.99 1.32 1.98 2 3 C0.6930079 5.91559775 -0.65932466 7.83937661 -3 10 C-3.721875 10.721875 -4.44375 11.44375 -5.1875 12.1875 C-6.0846875 13.0846875 -6.0846875 13.0846875 -7 14 C-5.83188097 10.04636637 -4.56620675 7.20775844 -2 4 C-1.30419733 2.68163705 -0.62775567 1.35208914 0 0 Z " fill="#282828" transform="translate(1486,978)"/>
<path d="M0 0 C0.66 1.32 1.32 2.64 2 4 C1.01 4.33 0.02 4.66 -1 5 C-2.88455518 6.85978416 -2.88455518 6.85978416 -4.6875 9.0625 C-5.31011719 9.79597656 -5.93273438 10.52945313 -6.57421875 11.28515625 C-7.27998047 12.13400391 -7.27998047 12.13400391 -8 13 C-8 9.00717059 -6.52191924 7.84668408 -4 4.8125 C-3.2575 3.91144531 -2.515 3.01039063 -1.75 2.08203125 C-1.1725 1.39496094 -0.595 0.70789063 0 0 Z " fill="#303030" transform="translate(3142,955)"/>
<path d="M0 0 C1 3 1 3 1 7 C0.34 7 -0.32 7 -1 7 C-1 7.66 -1 8.32 -1 9 C-3.5 10.625 -3.5 10.625 -6 12 C-4.68139111 7.38486888 -2.78644563 3.90102388 0 0 Z " fill="#2A2A2A" transform="translate(173,1288)"/>
<path d="M0 0 C2 2 2 2 2 6 C0.02 6.99 0.02 6.99 -2 8 C-2 8.66 -2 9.32 -2 10 C-2.99 10.33 -3.98 10.66 -5 11 C-3.55049545 7.2089881 -1.84827434 3.6125362 0 0 Z " fill="#242424" transform="translate(205,1232)"/>
<path d="M0 0 C0.33 0.66 0.66 1.32 1 2 C1.66 2.33 2.32 2.66 3 3 C2.01 3.66 1.02 4.32 0 5 C0 5.66 0 6.32 0 7 C-2.61941217 8.74627478 -4.03824877 9.38722388 -7 10 C-4.75421558 6.59260295 -2.48862878 3.23521742 0 0 Z " fill="#202020" transform="translate(1723,957)"/>
<path d="M0 0 C2.89932357 2.39509338 3.50168276 4.31245243 4 8 C3.01 8.33 2.02 8.66 1 9 C-1 6 -1 6 -0.625 2.8125 C-0.41875 1.884375 -0.2125 0.95625 0 0 Z " fill="#232323" transform="translate(2714,1165)"/>
<path d="M0 0 C0.66 0.33 1.32 0.66 2 1 C0.7508258 4.45925163 -0.67527795 7.14693203 -3 10 C-3.75 8.375 -3.75 8.375 -4 6 C-2.0625 2.75 -2.0625 2.75 0 0 Z " fill="#0F0F0F" transform="translate(1421,1323)"/>
<path d="M0 0 C2 3 2 3 2 5 C-1.465 6.485 -1.465 6.485 -5 8 C-3.8141763 4.62496331 -2.72426311 2.35277269 0 0 Z " fill="#EDEDED" transform="translate(1461,1261)"/>
<path d="M0 0 C-1.47446854 3.88723524 -3.5052928 4.93901883 -7 7 C-7.33 7.99 -7.66 8.98 -8 10 C-8.66 9.67 -9.32 9.34 -10 9 C-9.6121322 6.51339545 -9.29037521 5.27654781 -7.44140625 3.515625 C-6.82136719 3.09796875 -6.20132812 2.6803125 -5.5625 2.25 C-4.94503906 1.82203125 -4.32757812 1.3940625 -3.69140625 0.953125 C-2 0 -2 0 0 0 Z " fill="#CFCFCF" transform="translate(1852,993)"/>
<path d="M0 0 C0.66 0.99 1.32 1.98 2 3 C1.71125 3.556875 1.4225 4.11375 1.125 4.6875 C-0.0413253 7.08494645 -1.0339881 9.51596939 -2 12 C-2.99 11.67 -3.98 11.34 -5 11 C-3.55049545 7.2089881 -1.84827434 3.6125362 0 0 Z " fill="#292929" transform="translate(385,920)"/>
<path d="M0 0 C0.66 0.99 1.32 1.98 2 3 C0.06336189 6.87327622 -2.41226895 9.6081793 -6 12 C-4.43358249 7.69235185 -2.31663844 3.93828536 0 0 Z " fill="#353535" transform="translate(412,874)"/>
<path d="M0 0 C0.66 0.33 1.32 0.66 2 1 C0.7508258 4.45925163 -0.67527795 7.14693203 -3 10 C-3.75 8.375 -3.75 8.375 -4 6 C-2.0625 2.75 -2.0625 2.75 0 0 Z " fill="#0F0F0F" transform="translate(1749,755)"/>
<path d="M0 0 C1.32 0.33 2.64 0.66 4 1 C4 1.66 4 2.32 4 3 C2.8553125 3.6496875 2.8553125 3.6496875 1.6875 4.3125 C-1.31928549 6.20048159 -2.39854927 7.88138542 -4 11 C-4.33 10.34 -4.66 9.68 -5 9 C-4.00390625 6.8359375 -4.00390625 6.8359375 -2.5625 4.375 C-2.08941406 3.55773438 -1.61632812 2.74046875 -1.12890625 1.8984375 C-0.75636719 1.27195312 -0.38382812 0.64546875 0 0 Z " fill="#2D2D2D" transform="translate(97,1419)"/>
<path d="M0 0 C0.66 0.99 1.32 1.98 2 3 C0.70700306 5.88437779 -0.65941363 7.87219421 -3 10 C-3.66 9.67 -4.32 9.34 -5 9 C-3.35 6.03 -1.7 3.06 0 0 Z " fill="#353535" transform="translate(141,1343)"/>
<path d="M0 0 C3.625 0.375 3.625 0.375 7 1 C7 1.99 7 2.98 7 4 C6.2575 3.979375 5.515 3.95875 4.75 3.9375 C2.29537721 3.99328688 0.33890739 4.3069904 -2 5 C-2 2 -2 2 0 0 Z " fill="#0E0E0E" transform="translate(3318,1234)"/>
<path d="M0 0 C2 0.6875 2 0.6875 4 2.6875 C4 3.6775 4 4.6675 4 5.6875 C0.62496331 4.5016763 -1.64722731 3.41176311 -4 0.6875 C-2 -0.3125 -2 -0.3125 0 0 Z " fill="#262626" transform="translate(3204,1300.3125)"/>
<path d="M0 0 C3.8063457 0.67170806 7.35206816 1.72746564 11 3 C9.3125 4.125 9.3125 4.125 7 5 C4.48914859 4.22283171 2.34307967 3.17153984 0 2 C0 1.34 0 0.68 0 0 Z " fill="#1E1E1E" transform="translate(2771,1225)"/>
<path d="M0 0 C0.66 0.33 1.32 0.66 2 1 C0.63016497 4.16115776 0.0109362 4.9927092 -3 7 C-3.99 5.68 -4.98 4.36 -6 3 C-4.03533587 1.93224776 -2.03144641 0.93446535 0 0 Z " fill="#242424" transform="translate(1803,894)"/>
<path d="M0 0 C0.99 0.33 1.98 0.66 3 1 C3 3.31 3 5.62 3 8 C2.01 8 1.02 8 0 8 C-0.38063221 5.6739143 -0.71269945 3.33944736 -1 1 C-0.67 0.67 -0.34 0.34 0 0 Z " fill="#0B0B0B" transform="translate(2596,1176)"/>
<path d="M0 0 C2.97 0.495 2.97 0.495 6 1 C4.68 2.32 3.36 3.64 2 5 C1.01 4.67 0.02 4.34 -1 4 C-0.67 2.68 -0.34 1.36 0 0 Z " fill="#111111" transform="translate(2738,1005)"/>
<path d="M0 0 C3.03869411 1.51934706 3.64410306 3.98004772 5 7 C5 7.66 5 8.32 5 9 C2.5625 8.1875 2.5625 8.1875 0 7 C-0.33 6.01 -0.66 5.02 -1 4 C-0.34 4 0.32 4 1 4 C0.67 2.68 0.34 1.36 0 0 Z " fill="#212121" transform="translate(1323,978)"/>
<path d="M0 0 C0.66 1.32 1.32 2.64 2 4 C0.625 5.5 0.625 5.5 -1 7 C-1.66 7 -2.32 7 -3 7 C-3 5.02 -3 3.04 -3 1 C-2.01 1.495 -2.01 1.495 -1 2 C-0.67 1.34 -0.34 0.68 0 0 Z " fill="#EFEFEF" transform="translate(172,1284)"/>
<path d="M0 0 C0.99 0.33 1.98 0.66 3 1 C2.375 2.875 2.375 2.875 1 5 C-2.125 6.25 -2.125 6.25 -5 7 C-3.35 4.69 -1.7 2.38 0 0 Z " fill="#2B2B2B" transform="translate(2941,1188)"/>
<path d="M0 0 C4 4 4 4 4 7 C3.34 7 2.68 7 2 7 C2 8.65 2 10.3 2 12 C1.67 12 1.34 12 1 12 C0.67 8.04 0.34 4.08 0 0 Z " fill="#1F1F1F" transform="translate(2587,1140)"/>
<path d="M0 0 C0.66 0 1.32 0 2 0 C-2.12195122 8.56097561 -2.12195122 8.56097561 -5 10 C-3.85569823 6.12697862 -2.76679902 2.99736561 0 0 Z " fill="#CFCFCF" transform="translate(1532,1136)"/>
<path d="M0 0 C0.66 0.33 1.32 0.66 2 1 C2 3.64 2 6.28 2 9 C1.01 9 0.02 9 -1 9 C-1.09765625 2.84765625 -1.09765625 2.84765625 -1 1 C-0.67 0.67 -0.34 0.34 0 0 Z " fill="#090909" transform="translate(3093,1111)"/>
<path d="M0 0 C1.485 0.99 1.485 0.99 3 2 C2.34 5.96 1.68 9.92 1 14 C0.67 14 0.34 14 0 14 C0 9.38 0 4.76 0 0 Z " fill="#DFDFDF" transform="translate(2372,978)"/>
<path d="M0 0 C2.31 1.98 4.62 3.96 7 6 C6.01 6.33 5.02 6.66 4 7 C1.3125 5.0625 1.3125 5.0625 -1 3 C-0.67 2.01 -0.34 1.02 0 0 Z " fill="#1A1A1A" transform="translate(3529,943)"/>
<path d="M0 0 C0.66 0.33 1.32 0.66 2 1 C1.01 1.78375 0.02 2.5675 -1 3.375 C-2.485 4.674375 -2.485 4.674375 -4 6 C-4 6.66 -4 7.32 -4 8 C-5.32 7.34 -6.64 6.68 -8 6 C-5.36 4.02 -2.72 2.04 0 0 Z " fill="#2B2B2B" transform="translate(3192,910)"/>
<path d="M0 0 C0 1.65 0 3.3 0 5 C-1.65 5.33 -3.3 5.66 -5 6 C-5.33 5.01 -5.66 4.02 -6 3 C-2.25 0 -2.25 0 0 0 Z " fill="#2B2B2B" transform="translate(3200,906)"/>
<path d="M0 0 C0.66 1.32 1.32 2.64 2 4 C0.71034824 5.37562854 -0.62689293 6.70766393 -2 8 C-2.66 8 -3.32 8 -4 8 C-2.87548273 5.0280615 -1.77706209 2.66559313 0 0 Z " fill="#393939" transform="translate(158,1314)"/>
<path d="M0 0 C1.32 0.33 2.64 0.66 4 1 C2.25 4.875 2.25 4.875 0 6 C-0.66 5.34 -1.32 4.68 -2 4 C-1.34 2.68 -0.68 1.36 0 0 Z " fill="#1D1D1D" transform="translate(2146,1248)"/>
<path d="M0 0 C0.33 0.66 0.66 1.32 1 2 C1.66 2 2.32 2 3 2 C3 3.32 3 4.64 3 6 C1.35 6 -0.3 6 -2 6 C-1.34 4.02 -0.68 2.04 0 0 Z " fill="#181818" transform="translate(257,1142)"/>
<path d="M0 0 C0.66 0.33 1.32 0.66 2 1 C1 4 1 4 -0.8125 5.125 C-2.86604461 5.94641784 -4.83980804 6.53710172 -7 7 C-4.66666667 4.66666667 -2.33333333 2.33333333 0 0 Z " fill="#272727" transform="translate(3182,917)"/>
<path d="M0 0 C1.32 0 2.64 0 4 0 C3.8125 1.875 3.8125 1.875 3 4 C0.4375 5.25 0.4375 5.25 -2 6 C-1.34 4.02 -0.68 2.04 0 0 Z " fill="#232323" transform="translate(116,1386)"/>
<path d="M0 0 C0 3.55816066 -0.83264416 4.31247876 -3 7 C-3.33 7.66 -3.66 8.32 -4 9 C-4.66 9 -5.32 9 -6 9 C-5.69381595 5.32579134 -5.24228216 4.21864487 -2.4375 1.6875 C-1.633125 1.130625 -0.82875 0.57375 0 0 Z " fill="#DDDDDD" transform="translate(2121,1279)"/>
<path d="M0 0 C0 0.66 0 1.32 0 2 C0.66 2.66 1.32 3.32 2 4 C-4.75 3.25 -4.75 3.25 -7 1 C-4.53721199 -0.231394 -2.7204945 -0.07159196 0 0 Z " fill="#0D0D0D" transform="translate(2805,1235)"/>
<path d="M0 0 C0 3 0 3 -1.4375 4.5 C-1.953125 4.995 -2.46875 5.49 -3 6 C-3.33 6.99 -3.66 7.98 -4 9 C-4.66 8.67 -5.32 8.34 -6 8 C-5.6875 6.0625 -5.6875 6.0625 -5 4 C-4.01 3.67 -3.02 3.34 -2 3 C-2 2.34 -2 1.68 -2 1 C-1.34 0.67 -0.68 0.34 0 0 Z " fill="#2B2B2B" transform="translate(2926,1205)"/>
<path d="M0 0 C2.475 0.99 2.475 0.99 5 2 C5 2.99 5 3.98 5 5 C3.02 4.34 1.04 3.68 -1 3 C-0.67 2.01 -0.34 1.02 0 0 Z " fill="#0E0E0E" transform="translate(3001,1203)"/>
<path d="M0 0 C0 0.99 0 1.98 0 3 C-1.65 3.33 -3.3 3.66 -5 4 C-5 3.34 -5 2.68 -5 2 C-5.66 1.34 -6.32 0.68 -7 0 C-4.3333581 -1.33332095 -2.83319697 -0.67102033 0 0 Z " fill="#F5F5F5" transform="translate(1965,980)"/>
<path d="M0 0 C4.55384615 -0.36923077 4.55384615 -0.36923077 6.8125 1.5 C7.204375 1.995 7.59625 2.49 8 3 C5.39417629 3.93065133 4.35801776 4.14917407 1.75 3.0625 C1.1725 2.711875 0.595 2.36125 0 2 C0 1.34 0 0.68 0 0 Z " fill="#0F0F0F" transform="translate(3512,1220)"/>
<path d="M0 0 C0.66 1.32 1.32 2.64 2 4 C1.34 4 0.68 4 0 4 C-0.28875 4.639375 -0.5775 5.27875 -0.875 5.9375 C-2 8 -2 8 -4 9 C-2.94124926 5.59687262 -1.99097846 2.98646769 0 0 Z " fill="#3E3E3E" transform="translate(1461,1021)"/>
<path d="M0 0 C0.66 0.99 1.32 1.98 2 3 C0.63016497 6.16115776 0.0109362 6.9927092 -3 9 C-2.44271087 5.65626525 -1.64826111 2.96687001 0 0 Z " fill="#F1F1F1" transform="translate(3108,1005)"/>
<path d="M0 0 C0.66 1.32 1.32 2.64 2 4 C0.02 5.32 -1.96 6.64 -4 8 C-2.87548273 5.0280615 -1.77706209 2.66559313 0 0 Z " fill="#383838" transform="translate(366,954)"/>
<path d="M0 0 C1.65 1.65 3.3 3.3 5 5 C4.34 5.66 3.68 6.32 3 7 C2.34 7 1.68 7 1 7 C0.67 4.69 0.34 2.38 0 0 Z " fill="#262626" transform="translate(3028,949)"/>
<path d="M0 0 C0.66 1.32 1.32 2.64 2 4 C0.68 4.99 -0.64 5.98 -2 7 C-2 6.34 -2 5.68 -2 5 C-2.66 4.67 -3.32 4.34 -4 4 C-2.68 2.68 -1.36 1.36 0 0 Z " fill="#242424" transform="translate(2654,935)"/>
<path d="M0 0 C-0.598125 0.268125 -1.19625 0.53625 -1.8125 0.8125 C-3.97224808 1.98493467 -5.35790256 3.19369282 -7 5 C-7.99 4.67 -8.98 4.34 -10 4 C-4.5 -1.5 -4.5 -1.5 0 0 Z " fill="#424242" transform="translate(2488,890)"/>
<path d="M0 0 C0.99 0 1.98 0 3 0 C2.34 1.65 1.68 3.3 1 5 C-0.32 4.67 -1.64 4.34 -3 4 C-1 1 -1 1 0 0 Z " fill="#EFEFEF" transform="translate(1596,782)"/>
<path d="M0 0 C1 3 1 3 -0.25 5.5625 C-2 8 -2 8 -5 10 C-3.66511872 6.40608886 -2.03977277 3.24509304 0 0 Z " fill="#353535" transform="translate(475,765)"/>
<path d="M0 0 C0.66 1.32 1.32 2.64 2 4 C0.35 5.32 -1.3 6.64 -3 8 C-2.45276317 4.62537285 -1.9451 2.91765 0 0 Z " fill="#343434" transform="translate(486,746)"/>
<path d="M0 0 C0.66 1.32 1.32 2.64 2 4 C1.34 4 0.68 4 0 4 C-0.28875 4.639375 -0.5775 5.27875 -0.875 5.9375 C-2 8 -2 8 -4 9 C-2.80100302 5.9168649 -1.52299523 2.93720508 0 0 Z " fill="#3F3F3F" transform="translate(82,1445)"/>
<path d="M0 0 C1.5625 1.25 1.5625 1.25 3 3 C2.6875 5.1875 2.6875 5.1875 2 7 C0.4375 5.75 0.4375 5.75 -1 4 C-0.6875 1.8125 -0.6875 1.8125 0 0 Z " fill="#0E0E0E" transform="translate(1397,1337)"/>
<path d="M0 0 C0.99 0.33 1.98 0.66 3 1 C1.35 2.65 -0.3 4.3 -2 6 C-2.66 5.01 -3.32 4.02 -4 3 C-3.01 2.67 -2.02 2.34 -1 2 C-0.67 1.34 -0.34 0.68 0 0 Z " fill="#181818" transform="translate(2125,1272)"/>
<path d="M0 0 C1 3 1 3 0 6 C-2.0625 7.1875 -2.0625 7.1875 -4 8 C-2.25 2.25 -2.25 2.25 0 0 Z " fill="#C9C9C9" transform="translate(1494,1202)"/>
<path d="M0 0 C1.32 0.33 2.64 0.66 4 1 C4.33 2.32 4.66 3.64 5 5 C3.68 4.67 2.36 4.34 1 4 C0.67 2.68 0.34 1.36 0 0 Z " fill="#0A0A0A" transform="translate(1187,977)"/>
<path d="M0 0 C0.33 0.66 0.66 1.32 1 2 C1.66 2 2.32 2 3 2 C2.67 2.99 2.34 3.98 2 5 C-0.5625 6.1875 -0.5625 6.1875 -3 7 C-1.125 1.125 -1.125 1.125 0 0 Z " fill="#2F2F2F" transform="translate(1490,971)"/>
<path d="M0 0 C0.66 0.99 1.32 1.98 2 3 C0.02 5.31 -1.96 7.62 -4 10 C-4 5.75354935 -2.18249194 3.61475228 0 0 Z " fill="#393939" transform="translate(2625,968)"/>
<path d="M0 0 C1.32 1.65 2.64 3.3 4 5 C3.67 5.66 3.34 6.32 3 7 C2.01 6.67 1.02 6.34 0 6 C-0.75 4.0625 -0.75 4.0625 -1 2 C-0.67 1.34 -0.34 0.68 0 0 Z " fill="#222222" transform="translate(1316,966)"/>
<path d="M0 0 C1.65 0 3.3 0 5 0 C5 1.65 5 3.3 5 5 C4.01 5.495 4.01 5.495 3 6 C2.01 4.02 1.02 2.04 0 0 Z " fill="#131313" transform="translate(1168,946)"/>
<path d="M0 0 C0.99 0 1.98 0 3 0 C2.67 1.65 2.34 3.3 2 5 C0.68 5.33 -0.64 5.66 -2 6 C-1.34 4.02 -0.68 2.04 0 0 Z " fill="#181818" transform="translate(1569,834)"/>
</svg>
