<?xml version="1.0" encoding="UTF-8"?>
<svg version="1.1" xmlns="http://www.w3.org/2000/svg" width="370" height="136">
<path d="M0 0 C122.1 0 244.2 0 370 0 C370 44.88 370 89.76 370 136 C247.9 136 125.8 136 0 136 C0 91.12 0 46.24 0 0 Z " fill="#FEFEFE" transform="translate(0,0)"/>
<path d="M0 0 C2.18829428 1.912727 2.18829428 1.912727 4.1875 1.48046875 C8.35505085 0.01169649 12.27018642 -2.02095603 16.24609375 -3.9375 C26.63304061 -8.41265948 39.05459761 -7.22821002 49.50390625 -3.5703125 C53.95520753 -1.66176521 57.68834857 0.63104893 61.4375 3.6875 C62.46810547 4.51507813 62.46810547 4.51507813 63.51953125 5.359375 C71.68543032 12.66652752 76.9472962 23.35051519 77.67578125 34.25390625 C77.956345 49.3600493 74.1010912 60.58316443 63.8125 71.875 C53.7273725 81.55440398 41.59090982 84.1512446 28.125 83.9375 C20.1970256 83.40001021 14.08415845 80.84070506 7.4453125 76.578125 C5.50114583 75.51580761 5.50114583 75.51580761 3.4765625 75.89453125 C1.10947077 76.81506692 -1.07435978 77.92395978 -3.3125 79.125 C-14.44357779 84.71477201 -26.30742702 85.44857506 -38.375 82.125 C-49.22714395 78.32142994 -58.43779196 71.04480365 -64.09765625 60.94921875 C-70.17474375 48.13949787 -71.47273838 36.43253259 -66.82421875 22.796875 C-61.93529083 10.7486192 -54.2622769 2.37369496 -42.5625 -3.3125 C-29.41273422 -8.65271023 -11.8509382 -8.50304816 0 0 Z " fill="#F79D1A" transform="translate(269.5625,29.3125)"/>
<path d="M0 0 C0.886875 0.7425 1.77375 1.485 2.6875 2.25 C1.82125 3.219375 0.955 4.18875 0.0625 5.1875 C-9.1202362 15.97667232 -13.74778649 26.64464381 -13.58984375 40.9296875 C-12.49322023 54.05827892 -6.0013616 64.73362777 2.6875 74.25 C-8.11617384 82.492803 -18.82397293 84.47749781 -32.3125 83.25 C-45.31060953 80.8101314 -55.63248746 74.00885944 -63.3125 63.25 C-69.39246777 52.40507021 -72.19250448 41.29752156 -69.625 28.94140625 C-65.7061586 15.07850481 -58.59737718 4.64367528 -45.96484375 -2.4609375 C-31.77422993 -9.35770121 -13.16620579 -9.26119886 0 0 Z " fill="#EB001A" transform="translate(270.3125,29.75)"/>
<path d="M0 0 C9.83848224 7.62984337 15.67044133 16.67677248 18 29 C19.34052081 42.23937047 16.85168967 53.10271083 8.8828125 63.796875 C6.18511314 66.95351907 3.27894881 69.45714174 0 72 C-9.85661755 63.1931997 -15.86611575 52.14125685 -17.34765625 38.890625 C-17.55669451 31.87421038 -16.3456506 25.59650213 -14 19 C-13.75636719 18.31421875 -13.51273437 17.6284375 -13.26171875 16.921875 C-10.38912655 10.22369792 -4.98663477 5.17696435 0 0 Z " fill="#FE5E00" transform="translate(273,32)"/>
<path d="M0 0 C1.33744263 0.02876221 1.33744263 0.02876221 2.7019043 0.05810547 C4.89538853 9.38607183 6.93986868 18.73876615 8.8894043 28.12060547 C9.16204102 29.41160156 9.43467773 30.70259766 9.71557617 32.03271484 C9.97274414 33.26957031 10.22991211 34.50642578 10.49487305 35.78076172 C10.727146 36.89201416 10.95941895 38.0032666 11.19873047 39.14819336 C11.7019043 42.05810547 11.7019043 42.05810547 11.7019043 46.05810547 C8.0719043 46.05810547 4.4419043 46.05810547 0.7019043 46.05810547 C0.3719043 44.07810547 0.0419043 42.09810547 -0.2980957 40.05810547 C-5.2480957 40.05810547 -10.1980957 40.05810547 -15.2980957 40.05810547 C-16.2880957 42.03810547 -17.2780957 44.01810547 -18.2980957 46.05810547 C-22.2580957 46.05810547 -26.2180957 46.05810547 -30.2980957 46.05810547 C-26.83307144 36.27093167 -22.96401637 26.6587766 -18.91955566 17.09875488 C-18.38053136 15.82232385 -17.84463618 14.54456686 -17.31188965 13.26550293 C-16.55223092 11.4450818 -15.7789184 9.63037692 -15.00512695 7.81591797 C-14.5562915 6.75518066 -14.10745605 5.69444336 -13.64501953 4.6015625 C-10.54630599 -1.24987807 -5.81653997 -0.12508688 0 0 Z " fill="#1433CB" transform="translate(135.298095703125,42.94189453125)"/>
<path d="M0 0 C3.77068832 -0.086985 7.54111932 -0.14038579 11.3125 -0.1875 C12.38435547 -0.21263672 13.45621094 -0.23777344 14.56054688 -0.26367188 C15.58857422 -0.27333984 16.61660156 -0.28300781 17.67578125 -0.29296875 C19.0975769 -0.31653442 19.0975769 -0.31653442 20.5480957 -0.34057617 C23 0 23 0 24.74829102 1.17407227 C26.39238959 3.57239745 26.80759208 5.65325404 27.3515625 8.5078125 C27.66867188 10.11076172 27.66867188 10.11076172 27.9921875 11.74609375 C28.20101563 12.86113281 28.40984375 13.97617187 28.625 15.125 C29.05156605 17.33654186 29.48109025 19.54751591 29.9140625 21.7578125 C30.1917749 23.22951904 30.1917749 23.22951904 30.47509766 24.73095703 C30.77865142 26.95516669 30.77865142 26.95516669 32 28 C37.445 14.14 37.445 14.14 43 0 C47.29 0 51.58 0 56 0 C49.91752098 15.44147969 43.50853687 30.73365249 37 46 C32.71 46 28.42 46 24 46 C23.71801758 44.86457764 23.43603516 43.72915527 23.14550781 42.55932617 C22.09472159 38.34541803 21.02402879 34.13678169 19.94726562 29.92944336 C19.48413767 28.10822836 19.0264108 26.28563097 18.57421875 24.46166992 C17.92304015 21.83910525 17.25255736 19.22213632 16.578125 16.60546875 C16.38003235 15.78974899 16.1819397 14.97402924 15.97784424 14.1335907 C14.81501679 9.62861375 14.81501679 9.62861375 12 6.02148438 C9.62628252 4.80912671 7.31911453 4.02238691 4.75 3.3125 C3.85796875 3.06113281 2.9659375 2.80976562 2.046875 2.55078125 C1.37140625 2.36902344 0.6959375 2.18726563 0 2 C0 1.34 0 0.68 0 0 Z " fill="#1534CB" transform="translate(0,43)"/>
<path d="M0 0 C0.76699219 0.00515625 1.53398438 0.0103125 2.32421875 0.015625 C7.93913879 0.09456939 7.93913879 0.09456939 10.25 1.25 C9.92 4.55 9.59 7.85 9.25 11.25 C8.63125 11.085 8.0125 10.92 7.375 10.75 C2.99529271 10.04924683 -1.32428989 10.17265749 -5.75 10.25 C-6.08 11.9 -6.41 13.55 -6.75 15.25 C-6.08613281 15.62511719 -5.42226562 16.00023437 -4.73828125 16.38671875 C5.61697751 22.38823368 5.61697751 22.38823368 8.25 26.25 C9.16916848 31.17707428 8.7834221 35.04980028 6.75 39.625 C2.25206465 44.34783212 -3.56834878 46.94880904 -10.08203125 47.41796875 C-15.38964007 47.45976095 -19.73131934 46.99562805 -24.75 45.25 C-24.42 41.95 -24.09 38.65 -23.75 35.25 C-22.986875 35.415 -22.22375 35.58 -21.4375 35.75 C-12.90868343 37.02687201 -12.90868343 37.02687201 -4.75 35.25 C-4.87886756 32.84258366 -4.87886756 32.84258366 -5.75 30.25 C-7.89461936 28.5283209 -7.89461936 28.5283209 -10.5625 27.25 C-17.8001497 23.1497006 -17.8001497 23.1497006 -19.75 19.25 C-20.46319608 15.13008088 -20.70727104 11.20527701 -18.83203125 7.375 C-13.76697619 0.81829442 -7.71239694 -0.21166098 0 0 Z " fill="#1534CB" transform="translate(96.75,42.75)"/>
<path d="M0 0 C3.96 0 7.92 0 12 0 C7.23881168 23.98155922 7.23881168 23.98155922 4.75 35.9375 C4.58725586 36.72874268 4.42451172 37.51998535 4.25683594 38.33520508 C3.1175698 43.76486039 3.1175698 43.76486039 2 46 C-1.63 46 -5.26 46 -9 46 C-8.45232148 38.49071896 -7.38704942 31.43747255 -5.625 24.125 C-5.29109253 22.69969971 -5.29109253 22.69969971 -4.95043945 21.24560547 C-4.50883414 19.36225573 -4.06435046 17.4795781 -3.61669922 15.59765625 C-2.78890191 12.11081408 -1.98802479 8.61819907 -1.1875 5.125 C-0.5996875 2.588125 -0.5996875 2.588125 0 0 Z " fill="#1333CB" transform="translate(61,43)"/>
<path d="M0 0 C2.35980046 3.5397007 2.58600808 5.99106288 3.125 10.1875 C3.29257813 11.45980469 3.46015625 12.73210937 3.6328125 14.04296875 C3.75398437 15.01878906 3.87515625 15.99460937 4 17 C0.7 17 -2.6 17 -6 17 C-4.31108451 11.12900806 -2.53630629 5.55571853 0 0 Z " fill="#EAECF9" transform="translate(129,56)"/>
<path d="M0 0 C7.59 0 15.18 0 23 0 C23.33 0.66 23.66 1.32 24 2 C20.75052139 2.19738568 17.50041127 2.3811754 14.25 2.5625 C13.32960938 2.61857422 12.40921875 2.67464844 11.4609375 2.73242188 C10.57148438 2.78076172 9.68203125 2.82910156 8.765625 2.87890625 C7.94868164 2.9260376 7.13173828 2.97316895 6.29003906 3.02172852 C4.02117925 3.00020095 2.16679079 2.64612135 0 2 C0 1.34 0 0.68 0 0 Z " fill="#2944CE" transform="translate(0,43)"/>
<path d="M0 0 C3.96 0 7.92 0 12 0 C11.67 1.65 11.34 3.3 11 5 C10.67 4.01 10.34 3.02 10 2 C7.03 2 4.06 2 1 2 C0.67 2.66 0.34 3.32 0 4 C0 2.68 0 1.36 0 0 Z " fill="#1F3CCC" transform="translate(61,43)"/>
</svg>
