<?xml version="1.0" encoding="UTF-8"?>
<svg version="1.1" xmlns="http://www.w3.org/2000/svg" width="200" height="200">
<path d="M0 0 C66 0 132 0 200 0 C200 66 200 132 200 200 C134 200 68 200 0 200 C0 134 0 68 0 0 Z " fill="#96981A" transform="translate(0,0)"/>
<path d="M0 0 C1.65128906 -0.04253906 1.65128906 -0.04253906 3.3359375 -0.0859375 C10.89820417 0.97385759 15.96255677 7.44733379 21.0859375 12.640625 C21.87650543 13.43402283 22.66707336 14.22742065 23.4815979 15.04486084 C25.99248676 17.56689761 28.49631124 20.09581739 31 22.625 C32.70656888 24.34160562 34.41359522 26.05775659 36.12109375 27.7734375 C40.29437477 31.9687074 44.46188568 36.16964244 48.625 40.375 C51.64702033 38.93700393 53.41415237 37.7245918 55.5234375 35.11328125 C60.50357667 29.23406095 65.9690998 23.84486718 71.4140625 18.40063477 C73.25810875 16.55438155 75.09397695 14.70024022 76.9296875 12.84570312 C78.11148965 11.66096983 79.29376475 10.47670807 80.4765625 9.29296875 C81.01938873 8.742957 81.56221497 8.19294525 82.12149048 7.62626648 C87.18620699 2.59165544 90.76872605 -0.05391179 98 -0.0625 C99.62035156 -0.09150391 99.62035156 -0.09150391 101.2734375 -0.12109375 C110.22687105 1.20418138 115.79547225 8.09047847 121.875 14.25 C122.7721875 15.13558594 123.669375 16.02117187 124.59375 16.93359375 C125.45484375 17.79855469 126.3159375 18.66351563 127.203125 19.5546875 C127.98075195 20.33569824 128.75837891 21.11670898 129.55957031 21.92138672 C132.96062233 25.96164355 135.05377273 29.92636576 135.0625 35.25 C135.08183594 36.03117187 135.10117188 36.81234375 135.12109375 37.6171875 C133.61446766 45.99260499 128.20690093 51.3858125 122.38671875 57.14453125 C121.58772659 57.94735031 120.78873444 58.75016937 119.9655304 59.57731628 C118.28181857 61.26373826 116.5930921 62.94516693 114.8996582 64.62182617 C112.31699957 67.18303779 109.7564095 69.76492564 107.19726562 72.34960938 C105.55336453 73.99086759 103.90822323 75.63088475 102.26171875 77.26953125 C101.50106613 78.03828079 100.74041351 78.80703033 99.95671082 79.59907532 C95.12310185 84.34889097 91.04050465 87.65438964 84.18359375 88.7734375 C74.67492883 88.66836938 69.18859109 83.88608236 62.625 77.375 C60.45573341 74.12110012 60.38419951 73.24104043 60.4296875 69.48828125 C60.43613281 68.55048828 60.44257812 67.61269531 60.44921875 66.64648438 C60.47435547 65.18178711 60.47435547 65.18178711 60.5 63.6875 C60.50902344 62.69943359 60.51804687 61.71136719 60.52734375 60.69335938 C60.5509157 58.25366235 60.58381978 55.81445303 60.625 53.375 C64.16170608 56.30016433 67.59472311 59.25518597 70.7578125 62.5859375 C71.50224609 63.36904297 71.50224609 63.36904297 72.26171875 64.16796875 C73.26929614 65.23901558 74.26911529 66.31740509 75.26171875 67.40234375 C78.1612707 70.47441754 78.1612707 70.47441754 82.07266235 71.71697998 C85.17428959 71.30140235 86.12892863 70.50335386 88.32958984 68.31738281 C89.01314545 67.64958801 89.69670105 66.98179321 90.40097046 66.29376221 C91.12200958 65.56260193 91.84304871 64.83144165 92.5859375 64.078125 C93.33589996 63.33294617 94.08586243 62.58776733 94.85855103 61.82000732 C96.43968927 60.24227053 98.01453478 58.6582059 99.58349609 57.06835938 C101.99440547 54.6306567 104.43083709 52.22078394 106.87109375 49.8125 C108.40264779 48.27764265 109.93265047 46.74123539 111.4609375 45.203125 C112.56071426 44.11852997 112.56071426 44.11852997 113.68270874 43.01202393 C114.34735138 42.33162048 115.01199402 41.65121704 115.69677734 40.95019531 C116.28792328 40.35507141 116.87906921 39.75994751 117.48812866 39.14678955 C118.850888 37.42832627 118.850888 37.42832627 118.40768433 35.27845764 C116.62878431 30.95224243 112.62581563 27.8213755 109.375 24.5625 C108.61058594 23.76134766 107.84617188 22.96019531 107.05859375 22.13476562 C106.31222656 21.38259766 105.56585938 20.63042969 104.796875 19.85546875 C104.1172168 19.16348389 103.43755859 18.47149902 102.73730469 17.75854492 C100.73832263 16.17118519 100.73832263 16.17118519 98.41937256 16.38754272 C94.25417076 17.85941476 91.84051223 20.65934344 88.80273438 23.79077148 C87.80419182 24.7956662 87.80419182 24.7956662 86.78547668 25.82086182 C85.34270488 27.27549905 83.90460343 28.73478005 82.47065735 30.19811821 C80.20119255 32.51401038 77.91987361 34.81760798 75.63513184 37.11842346 C70.78711382 42.00533403 65.95577906 46.90855816 61.125 51.8125 C55.526713 57.49113324 49.92175119 63.16300259 44.30525208 68.82362556 C42.05805445 71.0940127 39.82051281 73.37362214 37.58337402 75.65391541 C36.20508546 77.04629843 34.82640365 78.43829234 33.44726562 79.82983398 C32.82789627 80.46627335 32.20852692 81.10271271 31.57038879 81.75843811 C27.01239838 86.32944243 23.3193984 88.6560692 16.6875 88.6875 C15.87410156 88.70425781 15.06070313 88.72101563 14.22265625 88.73828125 C6.619162 87.67493544 1.96641641 82.13949142 -3.16796875 76.9453125 C-3.99581375 76.117966 -4.82365875 75.29061951 -5.67658997 74.4382019 C-7.42073134 72.69172536 -9.16119352 70.94156777 -10.89819336 69.18798828 C-13.55487945 66.50768829 -16.22465321 63.84097524 -18.89648438 61.17578125 C-20.59193982 59.47474934 -22.2866276 57.77295188 -23.98046875 56.0703125 C-24.77736618 55.27432648 -25.57426361 54.47834045 -26.39530945 53.65823364 C-27.13650528 52.9075058 -27.87770111 52.15677795 -28.64135742 51.38330078 C-29.29166428 50.72838654 -29.94197113 50.07347229 -30.61198425 49.39871216 C-34.42650844 45.02013585 -35.8056488 41.75417071 -35.8125 35.9375 C-35.83183594 34.84566406 -35.85117187 33.75382812 -35.87109375 32.62890625 C-34.94682654 26.56658667 -30.74079022 22.48655996 -26.53125 18.265625 C-25.61472656 17.34652344 -24.69820312 16.42742187 -23.75390625 15.48046875 C-23.28098145 15.0117334 -22.80805664 14.54299805 -22.32080078 14.06005859 C-20.87162672 12.62165178 -19.43350827 11.17280426 -17.99609375 9.72265625 C-17.07957031 8.80871094 -16.16304687 7.89476562 -15.21875 6.953125 C-14.38537109 6.12200195 -13.55199219 5.29087891 -12.69335938 4.43457031 C-8.52624829 0.73261695 -5.54668102 0.06464663 0 0 Z " fill="#FCFCF5" transform="translate(50.375,55.625)"/>
<path d="M0 0 C4.91272789 1.62204228 8.20947722 5.99728794 11.76698303 9.6022644 C13.03348694 10.83299683 13.03348694 10.83299683 14.32557678 12.08859253 C15.11835022 12.88329956 15.91112366 13.67800659 16.72792053 14.49679565 C17.8191925 15.58697998 17.8191925 15.58697998 18.93251038 16.69918823 C20.39198303 18.7897644 20.39198303 18.7897644 20.18040466 20.69697571 C19.24488225 23.18022916 18.09751548 24.47745134 16.23670959 26.36495972 C15.57221802 27.04536316 14.90772644 27.7257666 14.22309875 28.42678833 C13.50023682 29.14985168 12.77737488 29.87291504 12.03260803 30.6178894 C11.29121582 31.36689514 10.54982361 32.11590088 9.78596497 32.88760376 C8.21613916 34.46823292 6.64231869 36.04490323 5.06483459 37.6178894 C2.65112245 40.03062867 0.25950893 42.46388068 -2.13145447 44.8991394 C-3.65879755 46.43168884 -5.18740215 47.96298229 -6.71739197 49.4928894 C-7.43215698 50.22404968 -8.146922 50.95520996 -8.88334656 51.70852661 C-9.56044678 52.37632141 -10.237547 53.04411621 -10.93516541 53.73214722 C-11.52505249 54.32408875 -12.11493958 54.91603027 -12.72270203 55.52590942 C-15.18211007 57.17461811 -16.70262207 57.1447662 -19.60801697 56.7897644 C-21.82798767 55.13742065 -21.82798767 55.13742065 -24.03379822 52.8522644 C-24.82979431 52.04015503 -25.62579041 51.22804565 -26.44590759 50.3913269 C-27.26252869 49.53281128 -28.07914978 48.67429565 -28.92051697 47.7897644 C-29.756474 46.93124878 -30.59243103 46.07273315 -31.45372009 45.1882019 C-33.51656146 43.06642221 -35.56380601 40.92949924 -37.60801697 38.7897644 C-37.93801697 45.3897644 -38.26801697 51.9897644 -38.60801697 58.7897644 C-38.93801697 58.7897644 -39.26801697 58.7897644 -39.60801697 58.7897644 C-40.98733313 50.65044999 -42.20750214 41.56785349 -38.12614441 34.06594849 C-34.04364805 28.54824546 -29.14009053 23.87469061 -24.0745697 19.26705933 C-21.39172053 16.82606391 -18.79407142 14.31466877 -16.19981384 11.77999878 C-14.53418787 10.18630413 -12.86440757 8.59693739 -11.19004822 7.01242065 C-10.40652481 6.26694473 -9.6230014 5.52146881 -8.81573486 4.75340271 C-8.0753447 4.08356857 -7.33495453 3.41373444 -6.5721283 2.72360229 C-5.92593033 2.13043716 -5.27973236 1.53727203 -4.61395264 0.9261322 C-2.60801697 -0.2102356 -2.60801697 -0.2102356 0 0 Z " fill="#AE9F1C" transform="translate(149.60801696777344,71.21023559570313)"/>
<path d="M0 0 C3.81127806 1.31721225 6.06317175 3.83066531 8.7578125 6.703125 C9.26570313 7.2290625 9.77359375 7.755 10.296875 8.296875 C11.30478409 9.34096544 12.30860807 10.38901642 13.30810547 11.44116211 C14.68781446 12.88012098 16.10097927 14.28677926 17.515625 15.69140625 C19.7578125 17.953125 19.7578125 17.953125 21.6328125 20.390625 C23.88230632 23.1032499 26.31254337 25.15940422 29.015625 27.3984375 C30.72095199 28.92023154 32.13495309 30.49053555 33.5703125 32.265625 C35.47650761 34.98387697 35.47650761 34.98387697 37.7578125 35.953125 C36.67485549 39.20199604 36.02834001 39.78161498 33.4453125 41.828125 C30.44746354 44.30089247 28.133743 46.86441535 25.7578125 49.953125 C23.17430357 52.66265875 20.87638234 54.87407844 17.7578125 56.953125 C12.50577715 56.953125 9.28124482 53.44530737 5.7578125 49.953125 C4.1797432 48.20611397 2.66055309 46.42401646 1.15625 44.61328125 C-1.69697198 41.22607639 -4.80899617 38.30509296 -8.2421875 35.515625 C-11.32122631 32.88561268 -13.69297151 30.0906216 -16.2421875 26.953125 C-17.634375 25.65375 -17.634375 25.65375 -19.0546875 24.328125 C-21.2421875 21.953125 -21.2421875 21.953125 -21.2421875 17.953125 C-19.73828125 16.27734375 -19.73828125 16.27734375 -17.6796875 14.640625 C-14.82047607 12.28240814 -12.09948239 9.90119858 -9.4921875 7.265625 C-8.63753906 6.40904297 -8.63753906 6.40904297 -7.765625 5.53515625 C-6.49976164 4.22060584 -5.29911531 2.84362831 -4.1171875 1.453125 C-2.2421875 -0.046875 -2.2421875 -0.046875 0 0 Z " fill="#7F921E" transform="translate(51.2421875,71.046875)"/>
<path d="M0 0 C0.80824219 0.144375 1.61648437 0.28875 2.44921875 0.4375 C3.51785156 0.623125 4.58648437 0.80875 5.6875 1 C6.74324219 1.185625 7.79898438 1.37125 8.88671875 1.5625 C11.92711129 2.07909183 11.92711129 2.07909183 14.73046875 1.91796875 C17 2 17 2 19.625 4.3125 C20.40875 5.199375 21.1925 6.08625 22 7 C23.58245275 8.75149165 23.58245275 8.75149165 25 10 C25.66 10 26.32 10 27 10 C27.495 10.99 27.495 10.99 28 12 C28.99 12 29.98 12 31 12 C31.0825 13.27875 31.165 14.5575 31.25 15.875 C31.47729986 18.06224367 31.47729986 18.06224367 32 20 C33.78265886 21.3498008 33.78265886 21.3498008 36 22 C36.680625 22.70125 37.36125 23.4025 38.0625 24.125 C39.90993327 26.34771071 39.90993327 26.34771071 43 26 C42.67 28.97 42.34 31.94 42 35 C43.485 35.99 43.485 35.99 45 37 C44.01 38.98 43.02 40.96 42 43 C42.99 43 43.98 43 45 43 C45.33 43.99 45.66 44.98 46 46 C44.35 46.66 42.7 47.32 41 48 C41 48.99 41 49.98 41 51 C40.34 51 39.68 51 39 51 C38.15545644 54.37817425 37.89155081 56.67465243 39 60 C37.906875 60.144375 36.81375 60.28875 35.6875 60.4375 C32.06877013 60.88288104 32.06877013 60.88288104 29 62 C29.51832891 57.91017188 30.58377925 55.94271412 33.4375 53 C38.26046374 47.68288014 39.20124987 43.85915589 39.55859375 36.79296875 C37.93859067 28.69295336 31.28753263 22.82343683 25.625 17.25 C24.89539063 16.50878906 24.16578125 15.76757812 23.4140625 15.00390625 C17.48464598 9.10625447 12.3524297 4.43955273 3.5625 4.375 C2.51191406 4.34148438 1.46132812 4.30796875 0.37890625 4.2734375 C-8.65865713 6.21677483 -15.28635088 15.04394181 -21.5 21.375 C-22.4178125 22.30183594 -23.335625 23.22867188 -24.28125 24.18359375 C-26.52548985 26.4512111 -28.76489422 28.72338511 -31 31 C-32.2807202 27.15783941 -31.82269275 24.90779056 -31 21 C-30.236875 20.855625 -29.47375 20.71125 -28.6875 20.5625 C-25.91827092 20.0367406 -25.91827092 20.0367406 -23 19 C-23.66 18.67 -24.32 18.34 -25 18 C-25 17.01 -25 16.02 -25 15 C-23.02 15 -21.04 15 -19 15 C-19.33 14.34 -19.66 13.68 -20 13 C-19.071875 12.773125 -18.14375 12.54625 -17.1875 12.3125 C-13.86492325 11.323059 -13.86492325 11.323059 -12.625 8.625 C-10.31250179 4.88942597 -7.07265534 3.46976876 -3 2 C-2.01 2 -1.02 2 0 2 C0 1.34 0 0.68 0 0 Z " fill="#CAAA2B" transform="translate(145,52)"/>
<path d="M0 0 C0.48412354 0.64493408 0.96824707 1.28986816 1.46704102 1.9543457 C4.92567044 6.11303505 8.7146363 9.89737624 12.52734375 13.73046875 C13.3532753 14.56210037 14.17920685 15.39373199 15.03016663 16.25056458 C16.77285311 18.00267349 18.51697991 19.75335085 20.26245117 21.50268555 C22.93156665 24.18154499 25.58983177 26.87087651 28.24804688 29.56054688 C29.94465208 31.26367898 31.64189625 32.96617485 33.33984375 34.66796875 C34.5291172 35.87576241 34.5291172 35.87576241 35.74241638 37.10795593 C36.48991653 37.85245499 37.23741669 38.59695404 38.00756836 39.36401367 C38.6594664 40.01955734 39.31136444 40.67510101 39.98301697 41.35050964 C44.06567666 44.68931205 48.16158786 45.28537942 53.3125 45.625 C54.38113281 45.69976562 55.44976562 45.77453125 56.55078125 45.8515625 C57.35902344 45.90054688 58.16726562 45.94953125 59 46 C59 46.33 59 46.66 59 47 C56.77110504 47.05428973 54.54182529 47.09292338 52.3125 47.125 C51.07113281 47.14820313 49.82976562 47.17140625 48.55078125 47.1953125 C45.16403695 47.00902293 43.06798832 46.31564184 40 45 C39.01 45.495 39.01 45.495 38 46 C35.47411298 43.63707344 34.11179163 42.33537489 33 39 C31.02 38.67 29.04 38.34 27 38 C27.33 37.01 27.66 36.02 28 35 C27.34 35 26.68 35 26 35 C25.34 33.02 24.68 31.04 24 29 C23.01 29 22.02 29 21 29 C21 28.34 21 27.68 21 27 C20.34 26.67 19.68 26.34 19 26 C18.375 23.9375 18.375 23.9375 18 22 C17.236875 21.95875 16.47375 21.9175 15.6875 21.875 C13 21 13 21 11.1875 18.0625 C10 15 10 15 10 13 C8.02 13.33 6.04 13.66 4 14 C4.66 12.68 5.32 11.36 6 10 C5.34 10 4.68 10 4 10 C1.1605948 6.32547562 0 4.73113419 0 0 Z " fill="#6D8B2D" transform="translate(15,98)"/>
<path d="M0 0 C1.0625 1.875 1.0625 1.875 2 4 C1.67 4.66 1.34 5.32 1 6 C-1.5625 6.625 -1.5625 6.625 -4 7 C-4.33 9.64 -4.66 12.28 -5 15 C-8 15 -11 15 -14 15 C-14 17.31 -14 19.62 -14 22 C-17 23 -17 23 -20 23 C-21.33981486 23.3062434 -22.67511887 23.63451555 -24 24 C-24 20.1230113 -22.96086952 19.57513426 -20.2734375 16.875 C-19.48839844 16.08609375 -18.70335938 15.2971875 -17.89453125 14.484375 C-17.06308594 13.66453125 -16.23164062 12.8446875 -15.375 12 C-14.56675781 11.18015625 -13.75851563 10.3603125 -12.92578125 9.515625 C-8.87437053 5.48397726 -5.36460403 2.08334137 0 0 Z " fill="#83921C" transform="translate(101,120)"/>
<path d="M0 0 C4.455 0.99 4.455 0.99 9 2 C9 2.33 9 2.66 9 3 C7.83984375 3.11214844 7.83984375 3.11214844 6.65625 3.2265625 C5.09390625 3.42378906 5.09390625 3.42378906 3.5 3.625 C1.96859375 3.79902344 1.96859375 3.79902344 0.40625 3.9765625 C-8.62295259 6.68946511 -15.08817059 14.84201683 -21.5 21.375 C-22.4178125 22.30183594 -23.335625 23.22867188 -24.28125 24.18359375 C-26.52548985 26.4512111 -28.76489422 28.72338511 -31 31 C-32.2807202 27.15783941 -31.82269275 24.90779056 -31 21 C-30.236875 20.855625 -29.47375 20.71125 -28.6875 20.5625 C-25.91827092 20.0367406 -25.91827092 20.0367406 -23 19 C-23.66 18.67 -24.32 18.34 -25 18 C-25 17.01 -25 16.02 -25 15 C-23.02 15 -21.04 15 -19 15 C-19.33 14.34 -19.66 13.68 -20 13 C-19.071875 12.773125 -18.14375 12.54625 -17.1875 12.3125 C-13.86492325 11.323059 -13.86492325 11.323059 -12.625 8.625 C-10.31250179 4.88942597 -7.07265534 3.46976876 -3 2 C-2.01 2 -1.02 2 0 2 C0 1.34 0 0.68 0 0 Z " fill="#C1A82D" transform="translate(145,52)"/>
<path d="M0 0 C3.21823772 1.31113389 4.96502029 3.07300658 7.34375 5.59375 C8.13394531 6.42003906 8.92414063 7.24632813 9.73828125 8.09765625 C10.32996094 8.73574219 10.92164063 9.37382813 11.53125 10.03125 C10.54125 10.52625 10.54125 10.52625 9.53125 11.03125 C3.13125 8.63125 3.13125 8.63125 0.53125 6.03125 C-2.62008488 7.86952868 -5.58839908 9.79097706 -8.46875 12.03125 C-9.12875 10.71125 -9.78875 9.39125 -10.46875 8.03125 C-9.25915384 6.65957395 -8.02523812 5.30931391 -6.78125 3.96875 C-6.09675781 3.21464844 -5.41226563 2.46054688 -4.70703125 1.68359375 C-2.46875 0.03125 -2.46875 0.03125 0 0 Z " fill="#BDA523" transform="translate(149.46875,70.96875)"/>
<path d="M0 0 C0.66 0.99 1.32 1.98 2 3 C1 5 1 5 -1.9375 6.8125 C-5.19244829 9.13746307 -5.91750519 10.26047246 -7 14 C-8 16 -8 16 -10.5625 17.4375 C-11.7690625 18.2109375 -11.7690625 18.2109375 -13 19 C-13 19.99 -13 20.98 -13 22 C-13.66 22.66 -14.32 23.32 -15 24 C-16.32 22.68 -17.64 21.36 -19 20 C-13.17371096 12.84198775 -6.5617015 6.47408234 0 0 Z " fill="#A99E25" transform="translate(173,111)"/>
<path d="M0 0 C0 4.05480631 -1.54870092 5.84832975 -4 9 C-4.99 9 -5.98 9 -7 9 C-6.34 10.32 -5.68 11.64 -5 13 C-7.31 13.33 -9.62 13.66 -12 14 C-11.65772428 16.97065509 -11.65772428 16.97065509 -11 20 C-10.34 20.33 -9.68 20.66 -9 21 C-9.33 21.99 -9.66 22.98 -10 24 C-11.65 22.35 -13.3 20.7 -15 19 C-15.33 25.6 -15.66 32.2 -16 39 C-16.33 39 -16.66 39 -17 39 C-19.71253404 21.40657784 -19.71253404 21.40657784 -15.33154297 14.28955078 C-10.82124135 8.88655278 -5.54977862 4.30819798 0 0 Z " fill="#AFB162" transform="translate(127,91)"/>
<path d="M0 0 C0.33 0 0.66 0 1 0 C1.19627391 1.58226965 1.38165538 3.16589271 1.5625 4.75 C1.66691406 5.63171875 1.77132812 6.5134375 1.87890625 7.421875 C1.99456676 9.88432451 1.73638695 11.66538064 1 14 C0.34 14 -0.32 14 -1 14 C-1.84454356 17.37817425 -2.10844919 19.67465243 -1 23 C-2.6396875 23.2165625 -2.6396875 23.2165625 -4.3125 23.4375 C-7.93122987 23.88288104 -7.93122987 23.88288104 -11 25 C-10.48167109 20.91017188 -9.41622075 18.94271412 -6.5625 16 C-1.88870815 10.88654675 -0.80995078 6.88458167 0 0 Z " fill="#BEA320" transform="translate(185,89)"/>
<path d="M0 0 C0.33 0.99 0.66 1.98 1 3 C0.07213211 4.00894372 -0.86768433 5.00690907 -1.8125 6 C-2.33457031 6.556875 -2.85664063 7.11375 -3.39453125 7.6875 C-5 9 -5 9 -8 9 C-8.0825 9.5775 -8.165 10.155 -8.25 10.75 C-9.225982 13.67794601 -10.63511223 15.05244537 -13 17 C-13.99 17 -14.98 17 -16 17 C-16.061875 17.598125 -16.12375 18.19625 -16.1875 18.8125 C-17.33938899 21.91373958 -19.06759592 22.64108103 -22 24 C-22.66 23.67 -23.32 23.34 -24 23 C-20.90667667 19.88198175 -17.81010017 16.76724258 -14.71044922 13.65551758 C-13.6561597 12.59619526 -12.60276891 11.53597771 -11.55029297 10.47485352 C-10.03848143 8.95093039 -8.52348098 7.43024216 -7.0078125 5.91015625 C-5.64100342 4.53549194 -5.64100342 4.53549194 -4.24658203 3.13305664 C-2 1 -2 1 0 0 Z " fill="#F7F3D2" transform="translate(139,58)"/>
<path d="M0 0 C1.12588014 0.95729916 2.2506715 1.91587895 3.375 2.875 C4.00148437 3.40867187 4.62796875 3.94234375 5.2734375 4.4921875 C6.55836651 5.61432007 7.79371975 6.79371975 9 8 C8.75 10.0625 8.75 10.0625 8 12 C7.01 12.495 7.01 12.495 6 13 C3.375 12.0625 3.375 12.0625 1 11 C1 9.68 1 8.36 1 7 C0.34 7 -0.32 7 -1 7 C-0.67 4.69 -0.34 2.38 0 0 Z " fill="#C0A520" transform="translate(161,82)"/>
<path d="M0 0 C0 6.93 0 13.86 0 21 C0.99 21.33 1.98 21.66 3 22 C1.68 22.33 0.36 22.66 -1 23 C-1.33 17.39 -1.66 11.78 -2 6 C-2.66 6 -3.32 6 -4 6 C-4.20625 6.763125 -4.4125 7.52625 -4.625 8.3125 C-6.43756071 11.8552323 -8.33618653 12.62606995 -12 14 C-12.66 13.67 -13.32 13.34 -14 13 C-11.85714108 10.83031809 -9.71091768 8.66416525 -7.5625 6.5 C-6.64500977 5.56994141 -6.64500977 5.56994141 -5.70898438 4.62109375 C-5.12568359 4.03457031 -4.54238281 3.44804688 -3.94140625 2.84375 C-3.13231812 2.02680664 -3.13231812 2.02680664 -2.30688477 1.19335938 C-1 0 -1 0 0 0 Z " fill="#929A3A" transform="translate(110,109)"/>
<path d="M0 0 C3.24854047 2.56861339 6.14156135 5.02643701 8.75 8.25 C10.70631884 11.02359938 10.70631884 11.02359938 13 12 C12 15 12 15 9 17 C8.01 17 7.02 17 6 17 C6.04125 16.29875 6.0825 15.5975 6.125 14.875 C5.97940954 11.52641935 5.38768374 9.05290423 4 6 C1.96756452 5.03122943 1.96756452 5.03122943 0 5 C0 3.35 0 1.7 0 0 Z " fill="#879420" transform="translate(76,95)"/>
<path d="M0 0 C1.65 0 3.3 0 5 0 C3.89717697 7.40466894 -0.61011846 11.10918156 -6 16 C-7.2807202 12.15783941 -6.82269275 9.90779056 -6 6 C-5.236875 5.855625 -4.47375 5.71125 -3.6875 5.5625 C-0.91827092 5.0367406 -0.91827092 5.0367406 2 4 C1.34 3.67 0.68 3.34 0 3 C0 2.01 0 1.02 0 0 Z " fill="#ABA025" transform="translate(120,67)"/>
<path d="M0 0 C2.25 2.625 2.25 2.625 3.25 4.625 C2.59 4.625 1.93 4.625 1.25 4.625 C2.24 5.945 3.23 7.265 4.25 8.625 C3.92 9.285 3.59 9.945 3.25 10.625 C2.67894531 9.99851562 2.10789063 9.37203125 1.51953125 8.7265625 C-5.12770086 2.02649071 -10.37570084 0.08049103 -19.75 -0.375 C-19.75 -0.705 -19.75 -1.035 -19.75 -1.375 C-17.85440036 -1.54430395 -15.95850769 -1.71032864 -14.0625 -1.875 C-13.00675781 -1.9678125 -11.95101562 -2.060625 -10.86328125 -2.15625 C-3.12618321 -2.6998855 -3.12618321 -2.6998855 0 0 Z " fill="#CCAC2D" transform="translate(164.75,56.375)"/>
<path d="M0 0 C0.66 0 1.32 0 2 0 C2 0.66 2 1.32 2 2 C2.66 2.33 3.32 2.66 4 3 C1.95234008 5.18257163 -0.11103219 7.34513265 -2.1875 9.5 C-3.0547168 10.43005859 -3.0547168 10.43005859 -3.93945312 11.37890625 C-8.29490867 15.85739726 -8.29490867 15.85739726 -11.78125 16.5625 C-15.05810658 15.73174763 -16.16221698 13.72264152 -18 11 C-16.02 11.66 -14.04 12.32 -12 13 C-12 13.66 -12 14.32 -12 15 C-11.54625 14.505 -11.0925 14.01 -10.625 13.5 C-9 12 -9 12 -7 12 C-6.67 10.68 -6.34 9.36 -6 8 C-5.34 8.33 -4.68 8.66 -4 9 C-3.67 7.68 -3.34 6.36 -3 5 C-2.01 5 -1.02 5 0 5 C0 3.35 0 1.7 0 0 Z " fill="#A39D33" transform="translate(144,112)"/>
<path d="M0 0 C2 2 2 2 2.125 4.625 C2.08375 5.40875 2.0425 6.1925 2 7 C-1 8 -1 8 -4 8 C-5.33981486 8.3062434 -6.67511887 8.63451555 -8 9 C-8 6 -8 6 -5.6875 3.375 C-3 1 -3 1 0 0 Z " fill="#799026" transform="translate(85,135)"/>
<path d="M0 0 C1.98 0 3.96 0 6 0 C6.33 0.66 6.66 1.32 7 2 C7.99 2 8.98 2 10 2 C10.33 4.31 10.66 6.62 11 9 C4.73361522 7.9154334 4.73361522 7.9154334 2.64453125 5.30859375 C1.67912119 3.58340249 0.83056012 1.79400985 0 0 Z " fill="#D2A91C" transform="translate(166,62)"/>
<path d="M0 0 C0.99 0.33 1.98 0.66 3 1 C1.02 3.31 -0.96 5.62 -3 8 C-6.76687864 6.11656068 -7.79421646 5.30867531 -10 2 C-8.72125 2.04125 -7.4425 2.0825 -6.125 2.125 C-3.98128508 2.24212873 -3.98128508 2.24212873 -2 2 C-1.34 1.34 -0.68 0.68 0 0 Z " fill="#A0A13C" transform="translate(104,89)"/>
<path d="M0 0 C0.66 0.33 1.32 0.66 2 1 C-1.96 4.96 -5.92 8.92 -10 13 C-10.66 12.01 -11.32 11.02 -12 10 C-10.47005208 8.76302083 -8.94010417 7.52604167 -7.41015625 6.2890625 C-5.86733563 5.0333609 -5.86733563 5.0333609 -5 3 C-4.01 3 -3.02 3 -2 3 C-2 2.34 -2 1.68 -2 1 C-1.34 0.67 -0.68 0.34 0 0 Z " fill="#8A9837" transform="translate(38,58)"/>
<path d="M0 0 C5.875 0.875 5.875 0.875 7 2 C9.32817964 2.36760731 11.6618385 2.70241581 14 3 C14.33 2.01 14.66 1.02 15 0 C17.31 0 19.62 0 22 0 C16.87038991 4.06831145 12.39852854 4.65291108 6 4 C2.4375 2.5 2.4375 2.5 0 1 C0 0.67 0 0.34 0 0 Z " fill="#F1F3D1" transform="translate(122,140)"/>
<path d="M0 0 C0 3 0 3 -1.625 5 C-8.39378947 10.70003324 -14.48026163 10.34129516 -23 10 C-23 9.34 -23 8.68 -23 8 C-21.948125 8.06960937 -21.948125 8.06960937 -20.875 8.140625 C-12.78974696 8.44821615 -7.55407657 7.19866892 -1.5 1.75 C-1.005 1.1725 -0.51 0.595 0 0 Z " fill="#979A3C" transform="translate(149,135)"/>
<path d="M0 0 C2.64 0.33 5.28 0.66 8 1 C6.50902342 4.7952131 4.24299151 6.61042731 1 9 C0.67 8.34 0.34 7.68 0 7 C0.66 7 1.32 7 2 7 C1.34 6.01 0.68 5.02 0 4 C0 2.68 0 1.36 0 0 Z " fill="#7A9027" transform="translate(16,72)"/>
<path d="M0 0 C3.53600465 1.91135386 5.78972846 3.62642766 8 7 C7.34 8.32 6.68 9.64 6 11 C4.68 10.01 3.36 9.02 2 8 C2.66 7.01 3.32 6.02 4 5 C2.68 4.34 1.36 3.68 0 3 C0 2.01 0 1.02 0 0 Z " fill="#889321" transform="translate(110,131)"/>
<path d="M0 0 C0.33 0.66 0.66 1.32 1 2 C1.99 2.33 2.98 2.66 4 3 C4 3.66 4 4.32 4 5 C4.66 5 5.32 5 6 5 C6 5.99 6 6.98 6 8 C6.99 8.66 7.98 9.32 9 10 C8.67 10.33 8.34 10.66 8 11 C8.66 11.66 9.32 12.32 10 13 C6.65991013 12.75258594 5.7449049 11.7449049 3.3125 9.3125 C0.97050936 6.34549959 0.27170458 3.80386412 0 0 Z " fill="#738A20" transform="translate(40,97)"/>
<path d="M0 0 C3.57410797 2.68058098 6.31941902 5.42589203 9 9 C6.6875 9.625 6.6875 9.625 4 10 C1 8 1 8 0.48828125 6.0546875 C0.32552083 4.03645833 0.16276042 2.01822917 0 0 Z " fill="#939C35" transform="translate(61,80)"/>
<path d="M0 0 C0 4.12527351 -1.49125936 5.76504496 -4 9 C-5.93102068 10.54010673 -7.86430538 11.73799864 -10 13 C-10.66 12.67 -11.32 12.34 -12 12 C-8.04 8.04 -4.08 4.08 0 0 Z " fill="#8A9740" transform="translate(95,123)"/>
<path d="M0 0 C0 0.66 0 1.32 0 2 C-0.99 2.33 -1.98 2.66 -3 3 C-3.70151152 4.3153341 -4.36525925 5.65117592 -5 7 C-7.31453856 9.9758353 -9.31137465 10.50153711 -13 11 C-4.00842697 0 -4.00842697 0 0 0 Z " fill="#F6F8DB" transform="translate(44,57)"/>
<path d="M0 0 C0.33 0 0.66 0 1 0 C1.19627391 1.58226965 1.38165538 3.16589271 1.5625 4.75 C1.66691406 5.63171875 1.77132812 6.5134375 1.87890625 7.421875 C1.99456676 9.88432451 1.73638695 11.66538064 1 14 C-0.65 14.33 -2.3 14.66 -4 15 C-3.71125 14.38125 -3.4225 13.7625 -3.125 13.125 C-1.58288195 8.84133876 -0.81601453 4.47071788 0 0 Z " fill="#C2AA38" transform="translate(185,89)"/>
<path d="M0 0 C1.10408203 0.36931641 1.10408203 0.36931641 2.23046875 0.74609375 C1.57046875 1.40609375 0.91046875 2.06609375 0.23046875 2.74609375 C-0.42953125 2.41609375 -1.08953125 2.08609375 -1.76953125 1.74609375 C-2.09953125 2.73609375 -2.42953125 3.72609375 -2.76953125 4.74609375 C-4.72550309 6.14321649 -6.72389526 7.48389282 -8.76953125 8.74609375 C-9.42953125 8.41609375 -10.08953125 8.08609375 -10.76953125 7.74609375 C-9.55993509 6.3744177 -8.32601937 5.02415766 -7.08203125 3.68359375 C-6.39753906 2.92949219 -5.71304688 2.17539063 -5.0078125 1.3984375 C-2.76953125 -0.25390625 -2.76953125 -0.25390625 0 0 Z " fill="#BDA83F" transform="translate(149.76953125,71.25390625)"/>
<path d="M0 0 C1.48011371 0.30798326 2.95907325 0.621518 4.4375 0.9375 C5.26121094 1.11152344 6.08492187 1.28554687 6.93359375 1.46484375 C9 2 9 2 10 3 C11.51928038 3.07179964 13.04167482 3.08392007 14.5625 3.0625 C15.80193359 3.04896484 15.80193359 3.04896484 17.06640625 3.03515625 C18.02353516 3.01775391 18.02353516 3.01775391 19 3 C16.51997407 5.48002593 15.67167487 5.29694693 12.25 5.3125 C7.81665977 5.22909418 4.75896105 4.50597403 1 2 C0.67 1.34 0.34 0.68 0 0 Z " fill="#E8F1D1" transform="translate(55,139)"/>
<path d="M0 0 C-0.33 1.65 -0.66 3.3 -1 5 C-0.01 5.33 0.98 5.66 2 6 C0.68 6.33 -0.64 6.66 -2 7 C-3.65 5.02 -5.3 3.04 -7 1 C-2.25 0 -2.25 0 0 0 Z " fill="#778C25" transform="translate(67,121)"/>
<path d="M0 0 C-2.97 2.97 -5.94 5.94 -9 9 C-9.33 8.01 -9.66 7.02 -10 6 C-9.01 5.01 -8.02 4.02 -7 3 C-7.33 2.34 -7.66 1.68 -8 1 C-2.25 -1.125 -2.25 -1.125 0 0 Z " fill="#B5A42F" transform="translate(133,64)"/>
<path d="M0 0 C0 4.24645065 -1.81750806 6.38524772 -4 10 C-5.65 10 -7.3 10 -9 10 C-8.06409496 8.8944811 -7.12620142 7.79064547 -6.1875 6.6875 C-5.66542969 6.07261719 -5.14335937 5.45773438 -4.60546875 4.82421875 C-3.12827531 3.14575321 -1.59960869 1.56117966 0 0 Z " fill="#F9F8D9" transform="translate(148,114)"/>
<path d="M0 0 C3.3125 0.625 3.3125 0.625 7 2 C8.9375 5.125 8.9375 5.125 10 8 C7 8 7 8 5.17578125 6.50390625 C4.56089844 5.86324219 3.94601563 5.22257812 3.3125 4.5625 C2.68988281 3.92441406 2.06726563 3.28632812 1.42578125 2.62890625 C0 1 0 1 0 0 Z " fill="#A1A243" transform="translate(77,74)"/>
<path d="M0 0 C2.125 0.9375 2.125 0.9375 4 2 C3.34 2.66 2.68 3.32 2 4 C2.32041397 6.60280568 2.32041397 6.60280568 3 9 C1.02 7.35 -0.96 5.7 -3 4 C-2.67 3.01 -2.34 2.02 -2 1 C-1.34 0.67 -0.68 0.34 0 0 Z " fill="#9F9F32" transform="translate(91,82)"/>
<path d="M0 0 C3 1 3 1 5 4 C2.64046906 6.35953094 1.22104383 6.49141413 -2 7 C-2 6.34 -2 5.68 -2 5 C-1.34 5 -0.68 5 0 5 C-0.66 3.68 -1.32 2.36 -2 1 C-1.34 0.67 -0.68 0.34 0 0 Z " fill="#A19C1E" transform="translate(105,83)"/>
<path d="M0 0 C0.66 0.99 1.32 1.98 2 3 C0.59240479 5.81519043 -1.22583277 6.61291638 -4 8 C-4.99 7.67 -5.98 7.34 -7 7 C-4.69 4.69 -2.38 2.38 0 0 Z " fill="#B3A32E" transform="translate(173,111)"/>
<path d="M0 0 C0.556875 0.70125 1.11375 1.4025 1.6875 2.125 C4.09124732 5.11344261 6.53810432 8.05940238 9 11 C6.75 10.875 6.75 10.875 4 10 C1.00173367 6.35345986 0 4.78447394 0 0 Z " fill="#728E38" transform="translate(15,98)"/>
<path d="M0 0 C0.99 0.99 1.98 1.98 3 3 C3.66 2.01 4.32 1.02 5 0 C5.33 1.32 5.66 2.64 6 4 C4.68 4.99 3.36 5.98 2 7 C2 6.34 2 5.68 2 5 C0.68 5 -0.64 5 -2 5 C-1.34 3.35 -0.68 1.7 0 0 Z " fill="#B5A128" transform="translate(152,101)"/>
<path d="M0 0 C0.66 0 1.32 0 2 0 C1.690625 0.99 1.38125 1.98 1.0625 3 C-0.08433207 6.97731122 -0.56712356 10.88767379 -1 15 C-1.33 15 -1.66 15 -2 15 C-3.44203141 6.05245573 -3.44203141 6.05245573 -1.6875 1.875 C-1.130625 1.25625 -0.57375 0.6375 0 0 Z " fill="#718B2B" transform="translate(15,81)"/>
<path d="M0 0 C1.12894876 0.93274109 2.25300876 1.87140122 3.375 2.8125 C4.00148438 3.33457031 4.62796875 3.85664062 5.2734375 4.39453125 C7 6 7 6 9 9 C7.68 9.33 6.36 9.66 5 10 C4.9175 9.401875 4.835 8.80375 4.75 8.1875 C3.79394921 5.39901853 2.32024306 4.72147066 0 3 C0 2.01 0 1.02 0 0 Z " fill="#FAF9E1" transform="translate(119,117)"/>
<path d="M0 0 C6.875 5.75 6.875 5.75 8 8 C5.50638429 6.79618552 3.31856917 5.54571278 1 4 C1 5.98 1 7.96 1 10 C0.67 10 0.34 10 0 10 C0 6.7 0 3.4 0 0 Z " fill="#FDFCDB" transform="translate(111,109)"/>
<path d="M0 0 C0.33 0.66 0.66 1.32 1 2 C-0.375 4 -0.375 4 -2 6 C-2.66 6 -3.32 6 -4 6 C-4.33 6.99 -4.66 7.98 -5 9 C-7.0625 9.6875 -7.0625 9.6875 -9 10 C-8.06409496 8.8944811 -7.12620142 7.79064547 -6.1875 6.6875 C-5.66542969 6.07261719 -5.14335937 5.45773438 -4.60546875 4.82421875 C-3.12827531 3.14575321 -1.59960869 1.56117966 0 0 Z " fill="#F8F6D3" transform="translate(158,104)"/>
<path d="M0 0 C0 4.1041911 -1.45843064 5.84021107 -4 9 C-6.75 9.875 -6.75 9.875 -9 10 C-8.06409496 8.8944811 -7.12620142 7.79064547 -6.1875 6.6875 C-5.66542969 6.07261719 -5.14335938 5.45773438 -4.60546875 4.82421875 C-3.12827531 3.14575321 -1.59960869 1.56117966 0 0 Z " fill="#A7A33F" transform="translate(127,91)"/>
<path d="M0 0 C0.66 0.66 1.32 1.32 2 2 C1.625 4.625 1.625 4.625 1 7 C-0.65 7.33 -2.3 7.66 -4 8 C-4.33 7.01 -4.66 6.02 -5 5 C-4.01 4.67 -3.02 4.34 -2 4 C-0.79117904 1.99983534 -0.79117904 1.99983534 0 0 Z " fill="#A49C16" transform="translate(125,95)"/>
<path d="M0 0 C-0.66 1.32 -1.32 2.64 -2 4 C-6.29 3.34 -10.58 2.68 -15 2 C-15 1.67 -15 1.34 -15 1 C-13.06263299 0.83179449 -11.12510094 0.66548905 -9.1875 0.5 C-7.56908203 0.36078125 -7.56908203 0.36078125 -5.91796875 0.21875 C-3 0 -3 0 0 0 Z " fill="#D4B84F" transform="translate(160,54)"/>
<path d="M0 0 C0.8125 1.6875 0.8125 1.6875 1 4 C-1.4375 6.75 -1.4375 6.75 -4 9 C-4 5.28703828 -2.65223411 2.65223411 0 0 Z " fill="#9D9C27" transform="translate(153,131)"/>
<path d="M0 0 C1.98 0 3.96 0 6 0 C5.34 2.97 4.68 5.94 4 9 C3.67 9 3.34 9 3 9 C2 6 1 3 0 0 Z " fill="#CFA91A" transform="translate(182,78)"/>
<path d="M0 0 C0.99 0.33 1.98 0.66 3 1 C0.69 3.31 -1.62 5.62 -4 8 C-4.33 7.01 -4.66 6.02 -5 5 C-4.34 5 -3.68 5 -3 5 C-3 4.01 -3 3.02 -3 2 C-2.01 2 -1.02 2 0 2 C0 1.34 0 0.68 0 0 Z " fill="#F4F1CE" transform="translate(155,126)"/>
<path d="M0 0 C1.98 0.66 3.96 1.32 6 2 C6 2.66 6 3.32 6 4 C7.32 3.67 8.64 3.34 10 3 C9.67 3.66 9.34 4.32 9 5 C6.75 5.3125 6.75 5.3125 4 5 C1.6875 2.5 1.6875 2.5 0 0 Z " fill="#9C9E3C" transform="translate(126,123)"/>
<path d="M0 0 C3.26460973 1.80412643 4.88929795 2.83394693 7 6 C4.03 5.505 4.03 5.505 1 5 C0.67 3.35 0.34 1.7 0 0 Z " fill="#ECF1D5" transform="translate(48,112)"/>
<path d="M0 0 C1.32 0.33 2.64 0.66 4 1 C4.33 2.32 4.66 3.64 5 5 C3.68 5.33 2.36 5.66 1 6 C0.67 4.02 0.34 2.04 0 0 Z " fill="#9A9A14" transform="translate(115,105)"/>
<path d="M0 0 C1.12894876 0.93274109 2.25300876 1.87140122 3.375 2.8125 C4.00148438 3.33457031 4.62796875 3.85664062 5.2734375 4.39453125 C7 6 7 6 9 9 C5.55862568 7.4705003 2.7777867 5.54630448 0 3 C0 2.01 0 1.02 0 0 Z " fill="#FBFAE0" transform="translate(87,85)"/>
<path d="M0 0 C-0.33 0.66 -0.66 1.32 -1 2 C-2.33076989 2.34342449 -3.66431979 2.67619874 -5 3 C-5.66 3.66 -6.32 4.32 -7 5 C-9.125 5.625 -9.125 5.625 -11 6 C-7.50399441 1.29847524 -6.0325339 0 0 0 Z " fill="#879427" transform="translate(53,73)"/>
<path d="M0 0 C1.32 0 2.64 0 4 0 C3.67 0.763125 3.34 1.52625 3 2.3125 C1.82563314 4.99069135 1.82563314 4.99069135 2 8 C1.01 7.67 0.02 7.34 -1 7 C-0.67 4.69 -0.34 2.38 0 0 Z " fill="#7E921D" transform="translate(25,64)"/>
<path d="M0 0 C0.33 0.99 0.66 1.98 1 3 C-0.1875 4.5625 -0.1875 4.5625 -2 6 C-4.6875 5.6875 -4.6875 5.6875 -7 5 C-6.401875 4.731875 -5.80375 4.46375 -5.1875 4.1875 C-3.02775192 3.01506533 -1.64209744 1.80630718 0 0 Z " fill="#EFEECE" transform="translate(138,124)"/>
<path d="M0 0 C1.98 1.65 3.96 3.3 6 5 C2.25 6.125 2.25 6.125 0 5 C0 3.35 0 1.7 0 0 Z " fill="#9AA14B" transform="translate(76,95)"/>
<path d="M0 0 C1.65 0 3.3 0 5 0 C4.34 1.98 3.68 3.96 3 6 C2.01 6 1.02 6 0 6 C0 4 0 4 1 3 C0.67 2.01 0.34 1.02 0 0 Z " fill="#B3A117" transform="translate(120,67)"/>
<path d="M0 0 C3.53600465 1.91135386 5.78972846 3.62642766 8 7 C5.125 6.3125 5.125 6.3125 2 5 C0.625 2.375 0.625 2.375 0 0 Z " fill="#F9F8DB" transform="translate(58,57)"/>
<path d="M0 0 C1.9375 0.375 1.9375 0.375 4 1 C4.33 1.66 4.66 2.32 5 3 C2.36 3.33 -0.28 3.66 -3 4 C-2.01 2.68 -1.02 1.36 0 0 Z " fill="#A09D2E" transform="translate(117,101)"/>
<path d="M0 0 C0.66 0.33 1.32 0.66 2 1 C-1.465 3.97 -1.465 3.97 -5 7 C-5.33 5.68 -5.66 4.36 -6 3 C-5.195625 2.690625 -4.39125 2.38125 -3.5625 2.0625 C-1.10919595 1.23664655 -1.10919595 1.23664655 0 0 Z " fill="#FCF8DD" transform="translate(142,74)"/>
<path d="M0 0 C1.65 0 3.3 0 5 0 C5.33 1.98 5.66 3.96 6 6 C3.97945196 4.35830472 1.97956942 2.69088222 0 1 C0 0.67 0 0.34 0 0 Z " fill="#A6A64D" transform="translate(63,60)"/>
<path d="M0 0 C3.79588866 0.54226981 5.47211993 2.20127563 8 5 C5.03 4.505 5.03 4.505 2 4 C2 3.34 2 2.68 2 2 C1.34 2 0.68 2 0 2 C0 1.34 0 0.68 0 0 Z " fill="#FCF6D6" transform="translate(155,57)"/>
<path d="M0 0 C2.46800047 1.15173355 4.04783565 2.04783565 6 4 C3.69 4.33 1.38 4.66 -1 5 C-0.67 3.35 -0.34 1.7 0 0 Z " fill="#919B36" transform="translate(119,139)"/>
<path d="M0 0 C2.31 0 4.62 0 7 0 C3.93882432 2.62386487 3.26826873 3 -1 3 C-0.67 2.01 -0.34 1.02 0 0 Z " fill="#F8F8DA" transform="translate(137,140)"/>
<path d="M0 0 C1.65 1.32 3.3 2.64 5 4 C4.67 4.99 4.34 5.98 4 7 C3.01 7.33 2.02 7.66 1 8 C0.67 5.36 0.34 2.72 0 0 Z " fill="#97A04C" transform="translate(84,103)"/>
<path d="M0 0 C0.99 0.33 1.98 0.66 3 1 C0.03 3.475 0.03 3.475 -3 6 C-2.625 3.5625 -2.625 3.5625 -2 1 C-1.34 0.67 -0.68 0.34 0 0 Z " fill="#F6F3CE" transform="translate(178,103)"/>
<path d="M0 0 C0.33 0.66 0.66 1.32 1 2 C3.01669827 3.13350534 3.01669827 3.13350534 5 4 C4.67 4.99 4.34 5.98 4 7 C2.35 5.35 0.7 3.7 -1 2 C-0.67 1.34 -0.34 0.68 0 0 Z " fill="#F5F6DD" transform="translate(73,89)"/>
<path d="M0 0 C1.32 0.99 2.64 1.98 4 3 C3.625 4.9375 3.625 4.9375 3 7 C2.01 7.495 2.01 7.495 1 8 C0.67 5.36 0.34 2.72 0 0 Z " fill="#BEAD48" transform="translate(166,87)"/>
<path d="M0 0 C0.66 0.33 1.32 0.66 2 1 C1.67 1.99 1.34 2.98 1 4 C-2.0625 5.1875 -2.0625 5.1875 -5 6 C-3.35 4.02 -1.7 2.04 0 0 Z " fill="#B2A83A" transform="translate(138,80)"/>
<path d="M0 0 C1.32 1.32 2.64 2.64 4 4 C3.67 4.66 3.34 5.32 3 6 C1.68 5.67 0.36 5.34 -1 5 C-0.67 3.35 -0.34 1.7 0 0 Z " fill="#939E35" transform="translate(57,76)"/>
<path d="M0 0 C1.98 1.65 3.96 3.3 6 5 C4.125 5.625 4.125 5.625 2 6 C1.34 5.34 0.68 4.68 0 4 C0 2.68 0 1.36 0 0 Z " fill="#F8F2D1" transform="translate(171,70)"/>
</svg>
